<?xml version="1.0" encoding="utf-8"?>
<!-- Generator: Adobe Illustrator 23.0.1, SVG Export Plug-In . SVG Version: 6.00 Build 0)  -->
<svg version="1.1" id="레이어_1" xmlns="http://www.w3.org/2000/svg" xmlns:xlink="http://www.w3.org/1999/xlink" x="0px"
	 y="0px" viewBox="0 0 320 120" style="enable-background:new 0 0 320 120;" xml:space="preserve">
<style type="text/css">
	.st0{fill:#FFFFFF;}
	.st1{display:none;}
	.st2{display:inline;}
	.st3{font-family:'KCC-KP-CheonRiMa-Medium-KP-2011KPS';}
	.st4{font-size:16px;}
	.st5{display:inline;fill:#0066FF;}
	.st6{font-size:18px;}
	.st7{display:inline;fill:#FF0000;}
	.st8{display:inline;fill:#666666;}
	.st9{font-size:9px;}
	.st10{font-size:11px;}
	.st11{font-size:13px;}
	.st12{fill:#FD3238;}
	.st13{fill:#666666;}
	.st14{fill:#333333;}
	.st15{fill:#003F7E;}
	.st16{fill:#EF8200;}
</style>
<image style="display:none;overflow:visible;" width="1440" height="3040" xlink:href="C997098A.jpg"  transform="matrix(0.2303 0 0 0.2303 -5.7897 -294.8105)">
</image>
<g>
	
		<image style="overflow:visible;opacity:0.3;" width="318" height="118" xlink:href="C997098A.png"  transform="matrix(1 0 0 1 1 1)">
	</image>
	<g>
		<path class="st0" d="M303,110H17c-3.9,0-7-3.1-7-7V17c0-3.9,3.1-7,7-7h286c3.9,0,7,3.1,7,7v86C310,106.9,306.9,110,303,110z"/>
	</g>
</g>
<text transform="matrix(1 0 0 1 103.9998 55.1895)" class="st1"><tspan x="0" y="0" class="st2 st3 st4">광호인민공화국</tspan><tspan x="7.9" y="22" class="st5 st3 st6">4,300</tspan><tspan x="63.5" y="22" class="st7 st3 st6"> </tspan><tspan x="72.5" y="22" class="st8 st3 st9">/100주</tspan><tspan x="0.7" y="41" class="st5 st3 st10">▼ 1,000　</tspan><tspan x="62.2" y="41" class="st5 st3 st11">18.87%</tspan></text>
<g>
	<path d="M104.9,49.7v-1.3h2.4v-3.4h1.4v3.4h5.9v1.3H104.9z M111.3,49.3c0.1-0.3,0.1-0.6,0.2-1s0.1-0.8,0.2-1.3
		c0.1-0.4,0.1-0.9,0.2-1.3c0-0.4,0.1-0.8,0.1-1.2c0-0.1,0-0.1,0-0.2s0-0.1,0-0.2h-6.5v-1.3h8.1c0,1.2-0.1,2.4-0.2,3.4
		c-0.1,1.1-0.3,2.1-0.5,3.1H111.3z M117.4,53.5c0,0.5-0.1,0.9-0.4,1.2c-0.3,0.3-0.6,0.6-1.1,0.8c-0.5,0.2-1.1,0.3-1.9,0.4
		s-1.6,0.1-2.5,0.1c-1,0-1.9,0-2.6-0.1c-0.7-0.1-1.3-0.2-1.8-0.4c-0.5-0.2-0.8-0.5-1.1-0.8s-0.4-0.7-0.4-1.2c0-0.5,0.1-0.9,0.4-1.2
		c0.2-0.3,0.6-0.6,1.1-0.8c0.5-0.2,1.1-0.3,1.8-0.4c0.7-0.1,1.6-0.1,2.6-0.1c1,0,1.8,0,2.6,0.1c0.7,0.1,1.4,0.2,1.8,0.4
		c0.5,0.2,0.9,0.5,1.1,0.8C117.3,52.6,117.4,53,117.4,53.5z M115.8,53.5c0-0.2-0.1-0.4-0.2-0.6c-0.1-0.2-0.4-0.3-0.7-0.4
		c-0.3-0.1-0.8-0.2-1.3-0.2c-0.5,0-1.2-0.1-2-0.1c-0.8,0-1.5,0-2,0.1c-0.5,0-1,0.1-1.3,0.2c-0.3,0.1-0.6,0.2-0.7,0.4
		c-0.2,0.2-0.2,0.4-0.2,0.6c0,0.3,0.1,0.5,0.2,0.6c0.1,0.2,0.4,0.3,0.7,0.4c0.3,0.1,0.8,0.2,1.3,0.2c0.5,0,1.2,0.1,2,0.1
		c0.8,0,1.5,0,2-0.1c0.5,0,1-0.1,1.3-0.2c0.3-0.1,0.6-0.2,0.7-0.4C115.8,53.9,115.8,53.7,115.8,53.5z M115.6,42.1h1.6v3.8h2v1.4h-2
		v3.1h-1.6V42.1z"/>
	<path d="M120.9,55.6v-1.4h6.3v-2.9h1.5v2.9h6.3v1.4H120.9z M122,45.1v-1.3h5.1v-1.7h1.6v1.7h5.2v1.3H122z M122.3,49
		c0-0.9,0.5-1.6,1.4-2.1c0.9-0.5,2.3-0.7,4.3-0.7c2,0,3.4,0.2,4.4,0.7c0.9,0.5,1.4,1.2,1.4,2.1c0,0.9-0.5,1.7-1.4,2.1
		c-1,0.5-2.5,0.7-4.5,0.7c-1.9,0-3.3-0.2-4.2-0.7C122.8,50.7,122.3,50,122.3,49z M132.1,49c0-0.5-0.3-0.9-1-1.1
		c-0.7-0.3-1.7-0.4-3.1-0.4c-0.8,0-1.4,0-1.9,0.1s-0.9,0.2-1.2,0.3c-0.3,0.1-0.5,0.3-0.7,0.5c-0.1,0.2-0.2,0.4-0.2,0.7
		c0,0.5,0.3,0.8,1,1.1s1.6,0.4,3,0.4c1.4,0,2.5-0.1,3.1-0.4C131.7,49.9,132.1,49.5,132.1,49z"/>
	<path d="M141.2,50.6c-0.6,0-1.1-0.1-1.6-0.3c-0.5-0.2-0.9-0.5-1.2-0.9c-0.3-0.4-0.6-0.8-0.8-1.3c-0.2-0.5-0.3-1-0.3-1.6
		c0-0.6,0.1-1.1,0.3-1.6c0.2-0.5,0.4-0.9,0.8-1.3c0.3-0.4,0.7-0.7,1.2-0.9c0.5-0.2,1-0.3,1.6-0.3c1.3,0,2.3,0.4,3,1.1
		c0.6,0.7,1,1.8,1,3.1c0,0.6-0.1,1.1-0.2,1.6c-0.2,0.5-0.4,0.9-0.7,1.3s-0.7,0.6-1.2,0.8C142.4,50.5,141.9,50.6,141.2,50.6z
		 M149.8,54.6v1.3H138v-4.1h1.6v2.8H149.8z M141.2,49.3c0.4,0,0.7-0.1,1-0.2c0.3-0.1,0.6-0.3,0.8-0.6c0.2-0.3,0.4-0.5,0.5-0.9
		c0.1-0.3,0.2-0.7,0.2-1.1c0-0.4-0.1-0.8-0.2-1.1c-0.1-0.3-0.3-0.6-0.5-0.9c-0.2-0.3-0.5-0.4-0.8-0.6c-0.3-0.1-0.7-0.2-1-0.2
		c-0.3,0-0.6,0.1-0.9,0.2c-0.3,0.2-0.5,0.4-0.8,0.6c-0.2,0.3-0.4,0.6-0.5,0.9s-0.2,0.7-0.2,1.1c0,0.4,0,0.7,0.1,1.1
		c0.1,0.3,0.3,0.6,0.5,0.9s0.5,0.4,0.8,0.6C140.5,49.2,140.8,49.3,141.2,49.3z M147.9,42.1h1.6v10.3h-1.6V42.1z"/>
	<path d="M153.6,50.1v-7.4h7v7.4H153.6z M165.8,54.6v1.3H154v-4.1h1.6v2.8H165.8z M159.1,44.1h-4v4.7h4V44.1z M163.9,42.1h1.6v10.3
		h-1.6V42.1z"/>
	<path d="M168.9,49.7v-1.4h4.4v-2.8h1.5v2.8h8.2v1.4H168.9z M182.1,53.5c0,0.5-0.1,0.9-0.4,1.2c-0.3,0.3-0.7,0.6-1.2,0.8
		c-0.5,0.2-1.2,0.3-1.9,0.4C177.8,56,177,56,176,56c-1,0-1.9,0-2.6-0.1c-0.8-0.1-1.4-0.2-1.9-0.4c-0.5-0.2-0.9-0.5-1.1-0.8
		S170,54,170,53.5c0-0.5,0.1-0.9,0.4-1.2c0.3-0.3,0.6-0.6,1.1-0.8c0.5-0.2,1.1-0.3,1.9-0.4C174.2,51,175,51,176,51
		c1,0,1.8,0,2.6,0.1c0.8,0.1,1.4,0.2,1.9,0.4c0.5,0.2,0.9,0.4,1.2,0.8C181.9,52.6,182.1,53,182.1,53.5z M179.4,49.3
		c0.3-0.9,0.5-1.7,0.6-2.6c0.1-0.8,0.1-1.7,0.1-2.6h-9.9v-1.3h11.6c0,0.8,0,1.5,0,2.1c0,0.6-0.1,1.2-0.1,1.7c-0.1,0.5-0.1,1-0.2,1.4
		s-0.2,0.9-0.3,1.3H179.4z M180.5,53.5c0-0.2-0.1-0.4-0.2-0.6c-0.2-0.2-0.4-0.3-0.8-0.4c-0.3-0.1-0.8-0.2-1.4-0.2
		c-0.6,0-1.3-0.1-2.1-0.1c-0.8,0-1.5,0-2,0.1c-0.6,0-1,0.1-1.4,0.2c-0.4,0.1-0.6,0.2-0.8,0.4c-0.2,0.2-0.3,0.4-0.3,0.6
		c0,0.3,0.1,0.5,0.2,0.6c0.2,0.2,0.4,0.3,0.8,0.4c0.4,0.1,0.8,0.2,1.4,0.2c0.6,0,1.2,0.1,2,0.1c0.8,0,1.5,0,2-0.1
		c0.6,0,1-0.1,1.4-0.2c0.4-0.1,0.6-0.2,0.8-0.4C180.4,53.9,180.5,53.7,180.5,53.5z"/>
	<path d="M184.9,55.6v-1.4h3.7v-2.3h1.5v2.3h4v1.4H184.9z M185.3,45v-1.3h3.2v-1.6h1.5v1.6h3.3V45H185.3z M185.3,48.9
		c0-0.5,0.1-0.9,0.3-1.3c0.2-0.4,0.5-0.7,0.9-1c0.4-0.3,0.8-0.5,1.3-0.6c0.5-0.1,1-0.2,1.6-0.2c0.6,0,1.1,0.1,1.6,0.2
		c0.5,0.1,0.9,0.3,1.2,0.6s0.6,0.6,0.8,1c0.2,0.4,0.3,0.8,0.3,1.3c0,1.1-0.3,1.9-1,2.4s-1.7,0.8-2.9,0.8c-0.6,0-1.1-0.1-1.6-0.2
		c-0.5-0.2-0.9-0.4-1.3-0.7c-0.4-0.3-0.6-0.6-0.8-1C185.4,49.9,185.3,49.4,185.3,48.9z M191.7,49c0-0.6-0.2-1-0.6-1.3
		c-0.4-0.3-1-0.5-1.7-0.5c-0.3,0-0.7,0-1,0.1c-0.3,0.1-0.6,0.2-0.8,0.4s-0.4,0.3-0.5,0.6S187,48.7,187,49c0,0.6,0.2,1.1,0.7,1.4
		c0.5,0.4,1,0.5,1.8,0.5s1.3-0.2,1.7-0.5C191.5,50.1,191.7,49.6,191.7,49z M195.6,42.1h1.6v6.5h2V50h-2v6h-1.6V42.1z"/>
	<path d="M200.9,48.8v-1.4h14.1v1.4h-6.3v2.7h-1.6v-2.7H200.9z M212.1,56v-3.5H202v-1.4h11.7V56H212.1z M211.4,48.4
		c0.2-0.4,0.3-0.8,0.4-1.2c0.1-0.3,0.2-0.7,0.2-1c0.1-0.3,0.1-0.7,0.1-1c0-0.4,0-0.8,0-1.2h-9.9v-1.3h11.6c0,0.8,0,1.4,0,2
		c0,0.5-0.1,1-0.1,1.4c-0.1,0.4-0.1,0.8-0.2,1.2c-0.1,0.4-0.2,0.7-0.3,1.2H211.4z"/>
	<path class="st12" d="M119.9,63.3h1.6v10.4h1.8v1.6h-1.8V78h-1.8v-2.7h-6.9v-1.5L119.9,63.3z M119.7,66.6c-0.8,1.2-1.6,2.4-2.4,3.6
		s-1.6,2.3-2.4,3.6h4.9V66.6z"/>
	<path class="st12" d="M127.9,76c0,0.8-0.2,1.5-0.5,2c-0.2,0.3-0.4,0.6-0.8,0.9s-0.7,0.4-1,0.4l-0.1-0.5c0.3,0,0.6-0.2,0.8-0.4
		s0.4-0.5,0.4-0.8c0-0.2,0-0.2-0.1-0.2c-0.4,0-0.7-0.1-0.9-0.4s-0.4-0.6-0.4-1c0-0.4,0.1-0.6,0.4-0.9s0.6-0.4,0.9-0.4
		c0.2,0,0.3,0,0.4,0.1s0.3,0.2,0.4,0.3s0.2,0.2,0.3,0.4S127.9,75.8,127.9,76z"/>
	<path class="st12" d="M140.1,63.3h1.6v10.4h1.8v1.6h-1.8V78h-1.8v-2.7H133v-1.5L140.1,63.3z M139.9,66.6c-0.8,1.2-1.6,2.4-2.4,3.6
		s-1.6,2.3-2.4,3.6h4.9V66.6z"/>
	<path class="st12" d="M149.8,78c-1.7,0-2.9-0.9-3.7-2.7c-0.5-1.3-0.8-2.9-0.8-4.7c0-4.9,1.5-7.3,4.5-7.3c0.9,0,1.6,0.2,2.2,0.7
		s1.1,1.1,1.5,2c0.5,1.3,0.8,2.8,0.8,4.6c0,0.9-0.1,1.8-0.2,2.6s-0.3,1.5-0.6,2.1c-0.4,0.9-0.9,1.5-1.5,2S150.7,78,149.8,78z
		 M149.8,64.9c-1.2,0-1.9,0.7-2.3,2.2c-0.1,0.5-0.2,1-0.2,1.6s-0.1,1.2-0.1,1.9c0,0.6,0,1.2,0.1,1.8s0.2,1.2,0.3,1.7
		c0.2,0.7,0.5,1.2,0.9,1.6s0.8,0.6,1.3,0.6c1.7,0,2.6-1.9,2.6-5.7S151.6,64.9,149.8,64.9z"/>
	<path class="st12" d="M161.6,78c-1.7,0-2.9-0.9-3.7-2.7c-0.5-1.3-0.8-2.9-0.8-4.7c0-4.9,1.5-7.3,4.5-7.3c0.9,0,1.6,0.2,2.2,0.7
		s1.1,1.1,1.5,2c0.5,1.3,0.8,2.8,0.8,4.6c0,0.9-0.1,1.8-0.2,2.6s-0.3,1.5-0.6,2.1c-0.4,0.9-0.9,1.5-1.5,2S162.5,78,161.6,78z
		 M161.6,64.9c-1.2,0-1.9,0.7-2.3,2.2c-0.1,0.5-0.2,1-0.2,1.6s-0.1,1.2-0.1,1.9c0,0.6,0,1.2,0.1,1.8s0.2,1.2,0.3,1.7
		c0.2,0.7,0.5,1.2,0.9,1.6s0.8,0.6,1.3,0.6c1.7,0,2.6-1.9,2.6-5.7S163.4,64.9,161.6,64.9z"/>
	<path class="st13" d="M180.2,69.8h0.8l-3.3,8.1H177L180.2,69.8z"/>
	<path class="st13" d="M182.8,77.4v-0.7h1.2v-4.9c-0.1,0-0.2,0.1-0.3,0.1c-0.1,0-0.2,0-0.2,0.1c-0.1,0-0.1,0-0.2,0
		c-0.1,0-0.2,0-0.2,0h-0.1v-0.7c0,0,0,0,0.1,0s0,0,0.1,0c0,0,0.1,0,0.1,0s0.1,0,0.2,0h0c0.2-0.1,0.4-0.2,0.5-0.2s0.2-0.1,0.2-0.2
		c0-0.1,0.1-0.1,0.1-0.2s0.1-0.1,0.1-0.2h0.8v6.3h1.2v0.7H182.8z"/>
	<path class="st13" d="M190.2,77.6c-0.8,0-1.5-0.4-1.8-1.3c-0.3-0.7-0.4-1.4-0.4-2.3c0-2.4,0.7-3.6,2.2-3.6c0.4,0,0.8,0.1,1.1,0.3
		s0.5,0.6,0.7,1c0.3,0.6,0.4,1.4,0.4,2.3c0,0.5,0,0.9-0.1,1.3c-0.1,0.4-0.2,0.8-0.3,1c-0.2,0.4-0.4,0.8-0.7,1
		C191,77.5,190.7,77.6,190.2,77.6z M190.2,71c-0.6,0-1,0.4-1.2,1.1c-0.1,0.2-0.1,0.5-0.1,0.8s0,0.6,0,1c0,0.3,0,0.6,0.1,0.9
		c0,0.3,0.1,0.6,0.2,0.8c0.1,0.3,0.3,0.6,0.4,0.8s0.4,0.3,0.6,0.3c0.9,0,1.3-1,1.3-2.9S191.1,71,190.2,71z"/>
	<path class="st13" d="M196.1,77.6c-0.8,0-1.5-0.4-1.8-1.3c-0.3-0.7-0.4-1.4-0.4-2.3c0-2.4,0.7-3.6,2.2-3.6c0.4,0,0.8,0.1,1.1,0.3
		s0.5,0.6,0.7,1c0.3,0.6,0.4,1.4,0.4,2.3c0,0.5,0,0.9-0.1,1.3c-0.1,0.4-0.2,0.8-0.3,1c-0.2,0.4-0.4,0.8-0.7,1
		C196.9,77.5,196.6,77.6,196.1,77.6z M196.1,71c-0.6,0-1,0.4-1.2,1.1c-0.1,0.2-0.1,0.5-0.1,0.8s0,0.6,0,1c0,0.3,0,0.6,0.1,0.9
		c0,0.3,0.1,0.6,0.2,0.8c0.1,0.3,0.3,0.6,0.4,0.8s0.4,0.3,0.6,0.3c0.9,0,1.3-1,1.3-2.9S197,71,196.1,71z"/>
	<path class="st13" d="M199.6,75.3v-0.8h8v0.8H204v2.5h-1v-2.5H199.6z M206.9,73.6c-0.6-0.1-1.2-0.3-1.7-0.6s-1.1-0.6-1.6-1
		c-0.5,0.4-0.9,0.8-1.5,1.1s-1.1,0.5-1.7,0.6l-0.6-0.7c0.8-0.1,1.4-0.4,2-0.7c0.6-0.3,1-0.7,1.4-1.3h-2.9v-0.7h6.7V71h-2.9
		c0,0.1,0,0.1,0,0.2s0,0.1,0,0.2c0.9,0.9,2,1.4,3.2,1.5L206.9,73.6z"/>
	<path class="st12" d="M125.5,96.7h-9.8l4.9-8.9L125.5,96.7z"/>
	<path class="st12" d="M133.4,96.4v-0.9h1.5v-6c-0.1,0.1-0.3,0.1-0.4,0.1c-0.1,0-0.2,0.1-0.3,0.1c-0.1,0-0.2,0-0.3,0
		c-0.1,0-0.2,0-0.3,0h-0.1v-0.9c0,0,0,0,0.1,0c0,0,0,0,0.1,0c0,0,0.1,0,0.2,0c0.1,0,0.1,0,0.2,0h0c0.3-0.1,0.5-0.2,0.6-0.3
		c0.1-0.1,0.2-0.1,0.2-0.2c0-0.1,0.1-0.1,0.2-0.2s0.1-0.2,0.2-0.2h0.9v7.7h1.5v0.9H133.4z"/>
	<path class="st12" d="M142.5,96.7c-1,0-1.8-0.5-2.3-1.6c-0.3-0.8-0.5-1.8-0.5-2.9c0-3,0.9-4.5,2.7-4.5c0.5,0,1,0.1,1.3,0.4
		s0.7,0.7,0.9,1.2c0.3,0.8,0.5,1.7,0.5,2.8c0,0.6,0,1.1-0.1,1.6c-0.1,0.5-0.2,0.9-0.3,1.3c-0.2,0.5-0.5,0.9-0.9,1.2
		C143.4,96.5,143,96.7,142.5,96.7z M142.5,88.7c-0.7,0-1.2,0.4-1.4,1.3c-0.1,0.3-0.1,0.6-0.2,1c0,0.4-0.1,0.8-0.1,1.2
		c0,0.4,0,0.8,0.1,1.1c0.1,0.4,0.1,0.7,0.2,1c0.1,0.4,0.3,0.7,0.5,1s0.5,0.4,0.8,0.4c1.1,0,1.6-1.2,1.6-3.5S143.5,88.7,142.5,88.7z"
		/>
	<path class="st12" d="M149.7,96.7c-1,0-1.8-0.5-2.3-1.6c-0.3-0.8-0.5-1.8-0.5-2.9c0-3,0.9-4.5,2.7-4.5c0.5,0,1,0.1,1.3,0.4
		s0.7,0.7,0.9,1.2c0.3,0.8,0.5,1.7,0.5,2.8c0,0.6,0,1.1-0.1,1.6c-0.1,0.5-0.2,0.9-0.3,1.3c-0.2,0.5-0.5,0.9-0.9,1.2
		C150.6,96.5,150.2,96.7,149.7,96.7z M149.7,88.7c-0.7,0-1.2,0.4-1.4,1.3c-0.1,0.3-0.1,0.6-0.2,1c0,0.4-0.1,0.8-0.1,1.2
		c0,0.4,0,0.8,0.1,1.1c0.1,0.4,0.1,0.7,0.2,1c0.1,0.4,0.3,0.7,0.5,1s0.5,0.4,0.8,0.4c1.1,0,1.6-1.2,1.6-3.5S150.7,88.7,149.7,88.7z"
		/>
	<path class="st12" d="M165.4,96.4c0.2-1.8,0.9-3.2,2.3-4.2c0.5-0.4,0.9-0.7,1.3-1c0.3-0.3,0.6-0.5,0.8-0.8c0.2-0.2,0.3-0.5,0.4-0.8
		c0.1-0.3,0.2-0.5,0.2-0.8c0-0.5-0.1-0.9-0.4-1.2c-0.3-0.3-0.7-0.5-1.2-0.5c-0.5,0-0.9,0.1-1.2,0.3c-0.3,0.2-0.5,0.6-0.6,1.1v0
		c0,0.1,0,0.1,0,0.2c0,0.1,0,0.2,0,0.2h-1.3c0-1,0.3-1.7,0.9-2.2c0.6-0.5,1.3-0.8,2.3-0.8c0.9,0,1.6,0.3,2.1,0.8
		c0.6,0.5,0.8,1.2,0.8,2c0,0.8-0.2,1.5-0.7,2c-0.2,0.2-0.4,0.4-0.8,0.8s-0.9,0.7-1.4,1.1c-0.4,0.3-0.8,0.7-1.2,1.1
		c-0.3,0.4-0.6,0.9-0.7,1.3h4.8v1.2L165.4,96.4L165.4,96.4z"/>
	<path class="st12" d="M175.8,95.1c0,0.1,0,0.2-0.1,0.3c-0.1,0.1-0.1,0.2-0.2,0.3c-0.1,0.1-0.2,0.2-0.3,0.2c-0.1,0-0.2,0.1-0.3,0.1
		c-0.1,0-0.2,0-0.3-0.1c-0.1,0-0.2-0.1-0.3-0.2c-0.1-0.1-0.2-0.2-0.2-0.3c-0.1-0.1-0.1-0.2-0.1-0.3c0-0.2,0.1-0.4,0.3-0.6
		c0.2-0.2,0.4-0.3,0.6-0.3c0.2,0,0.5,0.1,0.6,0.3C175.7,94.7,175.8,94.9,175.8,95.1z"/>
	<path class="st12" d="M183.2,96.8c-0.4,0-0.8-0.1-1.3-0.2c-0.4-0.1-0.8-0.4-1.1-0.6c-0.3-0.3-0.6-0.6-0.8-1
		c-0.2-0.4-0.3-0.8-0.3-1.2l1.3-0.1c0,0.3,0.1,0.5,0.2,0.7c0.1,0.2,0.3,0.4,0.5,0.6c0.2,0.2,0.4,0.3,0.6,0.4
		c0.2,0.1,0.5,0.1,0.7,0.1c0.3,0,0.5,0,0.8-0.1s0.4-0.2,0.6-0.4c0.2-0.2,0.3-0.4,0.5-0.6c0.1-0.2,0.2-0.5,0.2-0.7
		c0-0.3-0.1-0.5-0.2-0.7c-0.1-0.2-0.2-0.4-0.4-0.6c-0.2-0.2-0.4-0.3-0.6-0.4c-0.2-0.1-0.5-0.2-0.8-0.2H182v-1.2h1
		c0.5,0,1-0.1,1.3-0.4c0.3-0.3,0.5-0.7,0.5-1.2c0-0.5-0.2-0.9-0.5-1.1c-0.3-0.3-0.8-0.4-1.3-0.4c-0.5,0-0.9,0.1-1.2,0.4
		c-0.3,0.2-0.5,0.6-0.5,1.1H180c0-0.4,0.1-0.8,0.3-1.1c0.2-0.3,0.4-0.6,0.7-0.9c0.6-0.5,1.3-0.7,2.1-0.7c0.4,0,0.8,0.1,1.2,0.2
		c0.4,0.1,0.7,0.3,1,0.5c0.3,0.2,0.5,0.5,0.7,0.9c0.2,0.3,0.3,0.7,0.3,1.1c0,0.9-0.5,1.6-1.6,2.2c0.6,0.3,1.1,0.7,1.4,1.1
		c0.3,0.4,0.5,0.9,0.5,1.5c0,0.4-0.1,0.9-0.3,1.2s-0.4,0.7-0.6,1c-0.3,0.3-0.6,0.5-1,0.6C184.2,96.7,183.7,96.8,183.2,96.8z"/>
	<path class="st12" d="M188.5,96.4c0.2-1.8,0.9-3.2,2.3-4.2c0.5-0.4,0.9-0.7,1.3-1c0.3-0.3,0.6-0.5,0.8-0.8c0.2-0.2,0.3-0.5,0.4-0.8
		c0.1-0.3,0.2-0.5,0.2-0.8c0-0.5-0.1-0.9-0.4-1.2s-0.7-0.5-1.2-0.5c-0.5,0-0.9,0.1-1.2,0.3c-0.3,0.2-0.5,0.6-0.6,1.1v0
		c0,0.1,0,0.1,0,0.2c0,0.1,0,0.2,0,0.2h-1.3c0-1,0.3-1.7,0.9-2.2s1.3-0.8,2.3-0.8c0.9,0,1.6,0.3,2.1,0.8c0.6,0.5,0.8,1.2,0.8,2
		c0,0.8-0.2,1.5-0.7,2c-0.2,0.2-0.4,0.4-0.8,0.8s-0.9,0.7-1.4,1.1c-0.4,0.3-0.8,0.7-1.2,1.1c-0.3,0.4-0.6,0.9-0.7,1.3h4.8v1.2
		L188.5,96.4L188.5,96.4z"/>
	<path class="st12" d="M198,91.5c-0.6,0-1.1-0.2-1.5-0.7c-0.4-0.4-0.6-1-0.6-1.8c0-0.7,0.2-1.3,0.6-1.8c0.4-0.4,0.9-0.7,1.6-0.7
		c0.7,0,1.2,0.2,1.5,0.7c0.2,0.2,0.3,0.5,0.4,0.8c0.1,0.3,0.2,0.6,0.2,1s-0.1,0.7-0.2,1c-0.1,0.3-0.2,0.6-0.4,0.8s-0.4,0.4-0.7,0.5
		C198.6,91.4,198.3,91.5,198,91.5z M203.6,86.2h1.2l-7.7,10.3h-1.2L203.6,86.2z M198,90.7c0.7,0,1-0.6,1-1.7c0-0.2,0-0.5-0.1-0.7
		c-0.1-0.2-0.1-0.4-0.2-0.6c-0.2-0.3-0.4-0.5-0.7-0.5c-0.3,0-0.6,0.2-0.7,0.5c-0.1,0.2-0.2,0.3-0.2,0.6c-0.1,0.2-0.1,0.4-0.1,0.7
		c0,0.3,0,0.5,0.1,0.7s0.1,0.4,0.2,0.5C197.5,90.5,197.7,90.7,198,90.7z M202.7,96.3c-0.7,0-1.2-0.2-1.5-0.7s-0.6-1-0.6-1.8
		s0.2-1.4,0.6-1.8c0.4-0.4,0.9-0.7,1.5-0.7c0.6,0,1.2,0.2,1.5,0.7c0.4,0.4,0.6,1,0.6,1.8c0,0.8-0.2,1.4-0.6,1.8
		c-0.2,0.2-0.4,0.4-0.7,0.5C203.3,96.2,203,96.3,202.7,96.3z M202.7,95.5c0.7,0,1-0.6,1-1.7c0-0.5-0.1-1-0.3-1.3
		c-0.2-0.3-0.4-0.5-0.7-0.5s-0.6,0.2-0.7,0.5c-0.2,0.3-0.3,0.7-0.3,1.3c0,0.5,0.1,0.9,0.3,1.2C202.1,95.4,202.4,95.5,202.7,95.5z"/>
</g>
<g>
	<path class="st14" d="M222.8,28c2-0.2,3.6-1.8,3.8-3.8c0.3-2.6-1.7-4.9-4.3-4.9v-1.2c0-0.1-0.1-0.1-0.1-0.1l-2.4,1.8
		c0,0,0,0.1,0,0.1l2.4,1.8c0.1,0,0.1,0,0.1-0.1v-1.2c1.8,0,3.2,1.6,3.1,3.4c-0.1,1.6-1.4,2.8-3,2.9c-1.7,0.1-3.1-1.1-3.3-2.7
		c0-0.3-0.3-0.5-0.6-0.5c-0.4,0-0.7,0.3-0.6,0.7C218.4,26.6,220.4,28.2,222.8,28z"/>
</g>
<g>
	<g>
		<path class="st14" d="M299.5,22l-0.7-0.1c-0.1-0.2-0.2-0.5-0.3-0.7l0.4-0.6c0.2-0.2,0.1-0.6-0.1-0.8l-0.6-0.6
			c-0.1-0.1-0.3-0.2-0.4-0.2c-0.1,0-0.3,0-0.4,0.1l-0.6,0.4c-0.2-0.1-0.5-0.2-0.7-0.3l-0.1-0.7c-0.1-0.3-0.3-0.5-0.6-0.5h-0.9
			c-0.3,0-0.6,0.2-0.6,0.5l-0.1,0.7c-0.2,0.1-0.5,0.2-0.7,0.3l-0.6-0.4c-0.1-0.1-0.2-0.1-0.4-0.1c-0.2,0-0.3,0.1-0.4,0.2l-0.6,0.6
			c-0.2,0.2-0.2,0.5-0.1,0.8l0.4,0.6c-0.1,0.2-0.2,0.4-0.3,0.7l-0.7,0.1c-0.3,0.1-0.5,0.3-0.5,0.6v0.9c0,0.3,0.2,0.6,0.5,0.6
			l0.7,0.1c0.1,0.2,0.2,0.5,0.3,0.7l-0.4,0.6c-0.2,0.2-0.1,0.6,0.1,0.8l0.6,0.6c0.1,0.1,0.3,0.2,0.4,0.2c0.1,0,0.3,0,0.4-0.1
			l0.6-0.4c0.2,0.1,0.4,0.2,0.7,0.3l0.1,0.7c0.1,0.3,0.3,0.5,0.6,0.5h0.9c0.3,0,0.6-0.2,0.6-0.5l0.1-0.7c0.2-0.1,0.5-0.2,0.7-0.3
			l0.6,0.4c0.1,0.1,0.2,0.1,0.4,0.1l0,0c0.2,0,0.3-0.1,0.4-0.2l0.6-0.6c0.2-0.2,0.2-0.5,0.1-0.8l-0.4-0.6c0.1-0.2,0.2-0.4,0.3-0.7
			l0.7-0.1c0.3-0.1,0.5-0.3,0.5-0.6v-0.9C300,22.3,299.8,22,299.5,22z M299.4,23.4C299.4,23.5,299.4,23.5,299.4,23.4l-0.9,0.2
			c-0.1,0-0.2,0.1-0.2,0.2c-0.1,0.3-0.2,0.6-0.4,0.9c-0.1,0.1-0.1,0.2,0,0.3l0.5,0.7c0,0,0,0.1,0,0.1l-0.6,0.6c0,0,0,0,0,0
			c0,0,0,0,0,0l-0.7-0.5c-0.1-0.1-0.2-0.1-0.3,0c-0.3,0.2-0.6,0.3-0.9,0.4c-0.1,0-0.2,0.1-0.2,0.2l-0.1,0.9c0,0,0,0-0.1,0h-0.9
			c0,0-0.1,0-0.1,0l-0.1-0.9c0-0.1-0.1-0.2-0.2-0.2c-0.3-0.1-0.6-0.2-0.9-0.4c0,0-0.1,0-0.1,0c-0.1,0-0.1,0-0.2,0.1l-0.7,0.5
			c0,0,0,0,0,0c0,0,0,0,0,0l-0.6-0.6c0,0,0,0,0-0.1l0.5-0.7c0.1-0.1,0.1-0.2,0-0.3c-0.2-0.3-0.3-0.6-0.4-0.9c0-0.1-0.1-0.2-0.2-0.2
			l-0.9-0.2c0,0,0,0,0-0.1v-0.9c0,0,0-0.1,0-0.1l0.9-0.1c0.1,0,0.2-0.1,0.2-0.2c0.1-0.3,0.2-0.6,0.4-0.9c0.1-0.1,0.1-0.2,0-0.3
			l-0.5-0.7c0,0,0-0.1,0-0.1l0.6-0.6c0,0,0,0,0,0c0,0,0,0,0,0l0.7,0.5c0.1,0.1,0.2,0.1,0.3,0c0.3-0.2,0.6-0.3,0.9-0.4
			c0.1,0,0.2-0.1,0.2-0.2l0.2-0.9c0,0,0,0,0.1,0h0.9c0,0,0.1,0,0.1,0l0.1,0.9c0,0.1,0.1,0.2,0.2,0.2c0.3,0.1,0.6,0.2,0.9,0.4
			c0.1,0.1,0.2,0.1,0.3,0l0.7-0.5c0,0,0,0,0,0c0,0,0,0,0,0l0.6,0.6c0,0,0,0,0,0.1l-0.5,0.7c-0.1,0.1-0.1,0.2,0,0.3
			c0.2,0.3,0.3,0.6,0.4,0.9c0,0.1,0.1,0.2,0.2,0.2l0.9,0.1c0,0,0,0,0,0.1L299.4,23.4L299.4,23.4z"/>
		<path class="st14" d="M295,20.8c-1.2,0-2.2,1-2.2,2.2c0,1.2,1,2.2,2.2,2.2c1.2,0,2.2-1,2.2-2.2C297.2,21.8,296.2,20.8,295,20.8z
			 M295,24.6c-0.9,0-1.6-0.7-1.6-1.6c0-0.9,0.7-1.6,1.6-1.6s1.6,0.7,1.6,1.6C296.6,23.9,295.9,24.6,295,24.6z"/>
	</g>
</g>
<g>
	<path class="st14" d="M229.7,26.1c0.1-1.1,0.6-2,1.4-2.6c0.3-0.2,0.6-0.4,0.8-0.6s0.4-0.3,0.5-0.5c0.1-0.2,0.2-0.3,0.3-0.5
		c0.1-0.2,0.1-0.3,0.1-0.5c0-0.3-0.1-0.5-0.3-0.7s-0.4-0.3-0.7-0.3c-0.3,0-0.6,0.1-0.7,0.2c-0.2,0.1-0.3,0.3-0.4,0.7v0
		c0,0,0,0.1,0,0.1c0,0.1,0,0.1,0,0.1h-0.8c0-0.6,0.2-1.1,0.5-1.4c0.3-0.3,0.8-0.5,1.4-0.5c0.5,0,1,0.2,1.3,0.5
		c0.3,0.3,0.5,0.7,0.5,1.2c0,0.5-0.1,0.9-0.4,1.2c-0.1,0.1-0.3,0.3-0.5,0.5c-0.3,0.2-0.5,0.4-0.9,0.7c-0.3,0.2-0.5,0.4-0.7,0.7
		c-0.2,0.3-0.3,0.5-0.4,0.8h3v0.7L229.7,26.1L229.7,26.1z"/>
	<path class="st14" d="M236.9,26.4c-0.8,0-1.3-0.4-1.6-1.2c-0.2-0.6-0.3-1.3-0.3-2.1c0-2.2,0.7-3.2,2-3.2c0.4,0,0.7,0.1,1,0.3
		c0.3,0.2,0.5,0.5,0.7,0.9c0.2,0.6,0.4,1.3,0.4,2.1c0,0.4,0,0.8-0.1,1.2c-0.1,0.4-0.1,0.7-0.2,0.9c-0.2,0.4-0.4,0.7-0.7,0.9
		S237.2,26.4,236.9,26.4z M236.9,20.5c-0.5,0-0.9,0.3-1,1c0,0.2-0.1,0.5-0.1,0.7c0,0.3,0,0.6,0,0.9c0,0.3,0,0.5,0.1,0.8
		c0,0.3,0.1,0.5,0.1,0.7c0.1,0.3,0.2,0.5,0.4,0.7s0.4,0.3,0.6,0.3c0.8,0,1.2-0.9,1.2-2.6S237.6,20.5,236.9,20.5z"/>
	<path class="st14" d="M240.2,26.1c0.1-1.1,0.6-2,1.4-2.6c0.3-0.2,0.6-0.4,0.8-0.6s0.4-0.3,0.5-0.5c0.1-0.2,0.2-0.3,0.3-0.5
		c0.1-0.2,0.1-0.3,0.1-0.5c0-0.3-0.1-0.5-0.3-0.7s-0.4-0.3-0.7-0.3c-0.3,0-0.6,0.1-0.7,0.2c-0.2,0.1-0.3,0.3-0.4,0.7v0
		c0,0,0,0.1,0,0.1c0,0.1,0,0.1,0,0.1h-0.8c0-0.6,0.2-1.1,0.5-1.4c0.3-0.3,0.8-0.5,1.4-0.5c0.5,0,1,0.2,1.3,0.5
		c0.3,0.3,0.5,0.7,0.5,1.2c0,0.5-0.1,0.9-0.4,1.2c-0.1,0.1-0.3,0.3-0.5,0.5c-0.3,0.2-0.5,0.4-0.9,0.7c-0.3,0.2-0.5,0.4-0.7,0.7
		c-0.2,0.3-0.3,0.5-0.4,0.8h3v0.7L240.2,26.1L240.2,26.1z"/>
	<path class="st14" d="M246,26.2v-0.6h1.1v-4.4c-0.1,0-0.2,0.1-0.3,0.1s-0.1,0-0.2,0.1c-0.1,0-0.1,0-0.2,0c-0.1,0-0.1,0-0.2,0h-0.1
		v-0.6c0,0,0,0,0,0c0,0,0,0,0,0c0,0,0.1,0,0.1,0c0,0,0.1,0,0.1,0h0c0.2-0.1,0.3-0.1,0.4-0.2c0.1,0,0.1-0.1,0.2-0.2
		c0,0,0.1-0.1,0.1-0.2s0.1-0.1,0.1-0.2h0.7v5.6h1.1v0.6H246z"/>
	<path class="st14" d="M251.8,25.3c0,0.1,0,0.1,0,0.2c0,0.1-0.1,0.1-0.1,0.2c-0.1,0.1-0.1,0.1-0.2,0.1c-0.1,0-0.1,0-0.2,0
		s-0.1,0-0.2,0c-0.1,0-0.1-0.1-0.2-0.1c-0.1-0.1-0.1-0.1-0.1-0.2c0-0.1,0-0.1,0-0.2c0-0.1,0.1-0.3,0.2-0.4s0.2-0.2,0.4-0.2
		s0.3,0.1,0.4,0.2S251.8,25.2,251.8,25.3z"/>
	<path class="st14" d="M256.3,26.4c-0.8,0-1.3-0.4-1.6-1.2c-0.2-0.6-0.3-1.3-0.3-2.1c0-2.2,0.7-3.2,2-3.2c0.4,0,0.7,0.1,1,0.3
		c0.3,0.2,0.5,0.5,0.7,0.9c0.2,0.6,0.4,1.3,0.4,2.1c0,0.4,0,0.8-0.1,1.2c-0.1,0.4-0.1,0.7-0.2,0.9c-0.2,0.4-0.4,0.7-0.7,0.9
		S256.7,26.4,256.3,26.4z M256.3,20.5c-0.5,0-0.9,0.3-1,1c0,0.2-0.1,0.5-0.1,0.7c0,0.3,0,0.6,0,0.9c0,0.3,0,0.5,0.1,0.8
		c0,0.3,0.1,0.5,0.1,0.7c0.1,0.3,0.2,0.5,0.4,0.7s0.4,0.3,0.6,0.3c0.8,0,1.2-0.9,1.2-2.6S257.1,20.5,256.3,20.5z"/>
	<path class="st14" d="M263.2,25.2c-0.2,0.4-0.4,0.7-0.7,0.9s-0.6,0.3-1.1,0.3c-0.4,0-0.8-0.1-1.1-0.4s-0.5-0.6-0.7-1.1l0.8-0.1
		c0.1,0.3,0.2,0.5,0.4,0.6c0.2,0.1,0.4,0.2,0.6,0.2c0.5,0,0.8-0.2,1-0.6s0.3-0.9,0.4-1.6c-0.2,0.2-0.4,0.3-0.6,0.4s-0.5,0.1-0.8,0.1
		c-0.6,0-1-0.2-1.4-0.6c-0.3-0.4-0.5-0.8-0.5-1.4c0-0.3,0-0.5,0.1-0.8c0.1-0.3,0.2-0.5,0.4-0.7s0.4-0.4,0.6-0.5
		c0.2-0.1,0.5-0.2,0.8-0.2c0.8,0,1.4,0.4,1.7,1.1c0.1,0.3,0.2,0.6,0.3,0.9c0.1,0.3,0.1,0.7,0.1,1.1c0,0.4,0,0.8-0.1,1.2
		C263.5,24.5,263.4,24.9,263.2,25.2z M261.5,20.6c-0.2,0-0.4,0-0.5,0.1c-0.2,0.1-0.3,0.2-0.4,0.4c-0.1,0.1-0.1,0.3-0.2,0.5
		c0,0.2-0.1,0.4-0.1,0.6c0,0.2,0,0.3,0.1,0.5s0.1,0.3,0.2,0.4c0.1,0.1,0.2,0.2,0.4,0.3c0.2,0.1,0.3,0.1,0.5,0.1
		c0.4,0,0.6-0.1,0.8-0.3c0.1-0.1,0.1-0.2,0.2-0.3s0.1-0.3,0.2-0.4c0-0.6-0.1-1-0.3-1.3C262.2,20.7,261.9,20.6,261.5,20.6z"/>
	<path class="st14" d="M268.6,25.6c0.5-0.2,0.9-0.5,1.3-0.8c0.4-0.3,0.7-0.7,0.9-1.1s0.5-0.9,0.6-1.4c0.1-0.5,0.2-1.1,0.3-1.8h-2.8
		v-0.7h3.5c0,0.7-0.1,1.4-0.2,2.1c-0.1,0.6-0.3,1.2-0.6,1.8c-0.3,0.5-0.6,1-1.1,1.4c-0.5,0.4-1,0.8-1.7,1.1L268.6,25.6z M274.2,19.5
		h0.8v7h-0.8V19.5z"/>
	<path class="st14" d="M280.7,25.1h-0.8v-1.4h-3.3V23h7.1v0.7h-3V25.1z M283.2,22.4c-0.3-0.1-0.5-0.1-0.8-0.2
		c-0.3-0.1-0.6-0.2-0.8-0.2c-0.3-0.1-0.5-0.2-0.8-0.3c-0.2-0.1-0.4-0.2-0.6-0.4c-0.2,0.2-0.5,0.3-0.7,0.4s-0.5,0.2-0.8,0.3
		c-0.3,0.1-0.5,0.2-0.8,0.2c-0.3,0.1-0.6,0.1-0.8,0.2l-0.3-0.7c0.4-0.1,0.7-0.1,1.1-0.2s0.6-0.2,0.9-0.3c0.3-0.1,0.5-0.2,0.7-0.3
		c0.2-0.1,0.3-0.3,0.4-0.4h-2.6v-0.7h6v0.7h-2.5c0,0,0,0.1,0,0.1c0,0,0,0.1,0,0.1c0.2,0.1,0.3,0.2,0.6,0.3c0.2,0.1,0.5,0.2,0.7,0.3
		s0.5,0.2,0.8,0.2s0.5,0.1,0.8,0.1L283.2,22.4z M283.3,25.7v0.7h-5.9v-2h0.8v1.3H283.3z"/>
</g>
<g>
	<path class="st15" d="M20.1,27.8h2.9l0.4-2.5l0.9-1l1.6,3.5h3.3l-2-4.1c-2.1-0.4-4.3-0.8-6.4-1.3L20.1,27.8z"/>
	<path class="st15" d="M37.3,27.8H40l0.9-2.2c-1.3-0.1-2.6-0.3-3.9-0.4L37.3,27.8z"/>
	<path class="st15" d="M31.6,27.8h2.7l1.1-2.8c-1.4-0.2-2.8-0.4-4.3-0.6L31.6,27.8z"/>
	<path class="st15" d="M48.6,27.8h3.1l-0.3-1.6c-1,0-2-0.1-3-0.1L48.6,27.8z"/>
	<path class="st15" d="M58.5,27.8h2.2l0.2-1.6c-1.1,0-2.2,0.1-3.4,0.1L58.5,27.8z"/>
	<path class="st15" d="M51.9,27.8h2.7l0.2-1.5c-0.9,0-1.8,0-2.7,0L51.9,27.8z"/>
	<path class="st15" d="M62.9,26.7c0.7,0.9,1.9,1.3,3.4,1.3c1.4,0,2.6-0.4,3.5-1.1c0.4-0.3,0.7-0.8,1-1.2c-2.8,0.2-5.5,0.4-8.3,0.5
		C62.6,26.4,62.7,26.5,62.9,26.7"/>
	<path class="st15" d="M71.6,27.8h2.9l0.4-2.6c-1,0.1-1.9,0.2-2.9,0.3L71.6,27.8z"/>
	<path class="st15" d="M78,27.8h2.9l0.5-3.5c-1,0.2-1.9,0.3-2.9,0.4L78,27.8z"/>
	<path class="st15" d="M89.1,22.9C89.1,23,89.1,23,89.1,22.9c-0.1,0.9-0.4,1.5-0.8,2c-0.4,0.5-1,0.7-1.6,0.7s-1.1-0.2-1.3-0.7
		c-0.2-0.3-0.3-0.8-0.3-1.3c-1,0.2-2,0.3-2.9,0.5c0,1,0.3,1.8,0.9,2.4c0.8,0.9,1.9,1.3,3.4,1.3c1.5,0,2.8-0.4,3.8-1.3
		c1-0.9,1.6-2.1,1.8-3.7c0-0.2,0.1-0.5,0.1-0.7C91.1,22.5,90.1,22.7,89.1,22.9"/>
	<path class="st15" d="M92.1,21.8c0-1-0.3-1.8-0.9-2.4c-0.8-0.9-1.9-1.3-3.4-1.3c-1.5,0-2.8,0.4-3.8,1.3c-0.9,0.8-1.5,2-1.8,3.4
		c-0.2,0-0.5,0-0.7,0.1l0.6-4.6h-2.9l-0.5,3.7h-3.4l0.5-3.7H73l-0.7,5.2c-0.3,0-0.5,0-0.8,0l0.1-0.9h-4.2l-0.2,1.1
		c-0.7,0-1.5,0-2.2,0.1c0-0.2,0-0.4,0.1-0.7c0.1-0.9,0.4-1.5,0.8-2c0.4-0.5,0.9-0.7,1.5-0.7c0.4,0,0.8,0.1,1,0.3
		c0.3,0.2,0.4,0.5,0.5,0.9h2.8c0-1-0.3-1.8-1.1-2.5c-0.7-0.6-1.7-1-2.9-1c-1.5,0-2.8,0.4-3.7,1.3c-1,0.9-1.6,2.1-1.8,3.7
		c0,0.2-0.1,0.5-0.1,0.7c-0.3,0-0.5,0-0.8,0l0.8-5.5h-2.7l-0.7,5h-0.1l-3.1-5h-2.2l-0.8,5.5c-0.6,0-1.1,0-1.7,0l-1-5.5h-1.2
		l-0.9,2.2l0.4,3.2c-0.6,0-1.2,0-1.8,0c-0.9,0-1.7-0.1-2.6-0.1c-0.6,0-1.3,0-1.9-0.1l2.1-5.3h-3l-1.7,5.1c-0.2,0-0.3,0-0.5,0
		l-0.5-5.1h-2.2L34.2,23c-0.2,0-0.4,0-0.6,0l-0.2-4.8h-3l0.6,4.6c-1.5-0.1-3-0.2-4.4-0.4l3.8-4.2h-3l-3.5,4c0,0-0.1,0-0.1,0l0.6-4
		h-2.9l-0.5,3.7c-1-0.1-1.9-0.2-2.9-0.3c1,0.2,1.9,0.3,2.9,0.5c1.9,0.3,3.9,0.6,5.8,0.8c1.4,0.2,2.9,0.4,4.4,0.5
		c0.9,0.1,1.7,0.2,2.6,0.3c0.1,0,0.2,0,0.3,0c0.7,0.1,1.3,0.1,2,0.2c0.3,0,0.6,0.1,0.9,0.1c0.7,0.1,1.4,0.1,2,0.2c0,0,0.1,0,0.1,0
		c0.8,0.1,1.6,0.1,2.4,0.2c0.6,0,1.2,0.1,1.9,0.1c0.9,0,1.8,0.1,2.6,0.1c1.7,0.1,3.4,0.1,5.1,0.2c0.5,0,0.9,0,1.4,0
		c0.9,0,1.8,0,2.7,0c0.3,0,0.7,0,1,0c0.2,0,0.3,0,0.5,0c1.5,0,3,0,4.5-0.1c0.3,0,0.6,0,0.9,0c1,0,2-0.1,3-0.1c1.2,0,2.3-0.1,3.5-0.2
		c0.9,0,1.8-0.1,2.8-0.2c0.3,0,0.5,0,0.8-0.1c3.1-0.2,6.2-0.5,9.3-0.8c0.2,0,0.5-0.1,0.7-0.1c1-0.1,2-0.2,3-0.4
		c1.3-0.2,2.7-0.4,4-0.5c1-0.1,2-0.3,2.9-0.4c0.7-0.1,1.4-0.2,2.1-0.3C93.5,21.6,92.8,21.7,92.1,21.8 M36.2,23.1l0.3-0.8h0.1
		l0.1,0.9C36.6,23.2,36.4,23.1,36.2,23.1 M55.2,23.7l0.1-1h0.1l0.6,1C55.7,23.7,55.5,23.7,55.2,23.7 M85.2,22.4
		c0.1-0.6,0.4-1.1,0.7-1.4c0.4-0.5,1-0.7,1.6-0.7c0.6,0,1,0.2,1.3,0.7c0.2,0.3,0.3,0.7,0.3,1.1C87.8,22.2,86.5,22.3,85.2,22.4"/>
	<polygon class="st16" points="46.2,18.2 43.7,23.5 43.3,24.3 42.6,25.7 41.7,27.8 44.6,27.8 45.3,25.9 45.4,25.9 45.9,24.5 
		46.2,23.9 46.2,23.9 46.3,23.6 47.6,20.4 48.6,18.2 	"/>
</g>
</svg>
