<?xml version="1.0" encoding="utf-8"?>
<!-- Generator: Adobe Illustrator 23.0.1, SVG Export Plug-In . SVG Version: 6.00 Build 0)  -->
<svg version="1.1" id="레이어_1" xmlns="http://www.w3.org/2000/svg" xmlns:xlink="http://www.w3.org/1999/xlink" x="0px"
	 y="0px" viewBox="0 0 320 120" style="enable-background:new 0 0 320 120;" xml:space="preserve">
<style type="text/css">
	.st0{fill:#FFFFFF;}
	.st1{font-family:'KCC-KP-CheonRiMa-Medium-KP-2011KPS';}
	.st2{font-size:16px;}
	.st3{fill:#0066FF;}
	.st4{font-size:18px;}
	.st5{fill:#FF0000;}
	.st6{fill:#666666;}
	.st7{font-size:9px;}
	.st8{font-size:11px;}
	.st9{font-size:13px;}
	.st10{display:none;}
	.st11{display:inline;}
	.st12{display:inline;fill:#FD3238;}
	.st13{display:inline;fill:#FF0000;}
	.st14{display:inline;fill:#666666;}
	.st15{fill:#333333;}
	.st16{font-size:8px;}
	.st17{fill:#003F7E;}
	.st18{fill:#EF8200;}
</style>
<image style="display:none;overflow:visible;" width="1440" height="3040" xlink:href="6E51B6CB.jpg"  transform="matrix(0.2303 0 0 0.2303 -5.7897 -294.8105)">
</image>
<g>
	
		<image style="overflow:visible;opacity:0.3;" width="318" height="118" xlink:href="6E51B6C9.png"  transform="matrix(1 0 0 1 1 1)">
	</image>
	<g>
		<path class="st0" d="M303,110H17c-3.9,0-7-3.1-7-7V17c0-3.9,3.1-7,7-7h286c3.9,0,7,3.1,7,7v86C310,106.9,306.9,110,303,110z"/>
	</g>
</g>
<text transform="matrix(1 0 0 1 103.9998 55.1895)"><tspan x="0" y="0" class="st1 st2">광호인민공화국</tspan><tspan x="7.9" y="22" class="st3 st1 st4">4,300</tspan><tspan x="63.5" y="22" class="st5 st1 st4"> </tspan><tspan x="72.5" y="22" class="st6 st1 st7">/100주</tspan><tspan x="0.7" y="41" class="st3 st1 st8">▼ 1,000　</tspan><tspan x="62.2" y="41" class="st3 st1 st9">18.87%</tspan></text>
<text transform="matrix(1 0 0 1 103.9998 55.1895)" class="st10"><tspan x="0" y="0" class="st11 st1 st2">광호인민공화국</tspan><tspan x="7.9" y="22" class="st12 st1 st4">5,300</tspan><tspan x="63.5" y="22" class="st13 st1 st4"> </tspan><tspan x="72.5" y="22" class="st14 st1 st7">/100주</tspan><tspan x="-3.6" y="41" class="st12 st1 st8">▲ 2,800　</tspan><tspan x="57.9" y="41" class="st12 st1 st9">112.00%</tspan></text>
<g>
	<path class="st15" d="M222.8,28c2-0.2,3.6-1.8,3.8-3.8c0.3-2.6-1.7-4.9-4.3-4.9v-1.2c0-0.1-0.1-0.1-0.1-0.1l-2.4,1.8
		c0,0,0,0.1,0,0.1l2.4,1.8c0.1,0,0.1,0,0.1-0.1v-1.2c1.8,0,3.2,1.6,3.1,3.4c-0.1,1.6-1.4,2.8-3,2.9c-1.7,0.1-3.1-1.1-3.3-2.7
		c0-0.3-0.3-0.5-0.6-0.5c-0.4,0-0.7,0.3-0.6,0.7C218.4,26.6,220.4,28.2,222.8,28z"/>
</g>
<g>
	<g>
		<path class="st15" d="M299.5,22l-0.7-0.1c-0.1-0.2-0.2-0.5-0.3-0.7l0.4-0.6c0.2-0.2,0.1-0.6-0.1-0.8l-0.6-0.6
			c-0.1-0.1-0.3-0.2-0.4-0.2c-0.1,0-0.3,0-0.4,0.1l-0.6,0.4c-0.2-0.1-0.5-0.2-0.7-0.3l-0.1-0.7c-0.1-0.3-0.3-0.5-0.6-0.5h-0.9
			c-0.3,0-0.6,0.2-0.6,0.5l-0.1,0.7c-0.2,0.1-0.5,0.2-0.7,0.3l-0.6-0.4c-0.1-0.1-0.2-0.1-0.4-0.1c-0.2,0-0.3,0.1-0.4,0.2l-0.6,0.6
			c-0.2,0.2-0.2,0.5-0.1,0.8l0.4,0.6c-0.1,0.2-0.2,0.4-0.3,0.7l-0.7,0.1c-0.3,0.1-0.5,0.3-0.5,0.6v0.9c0,0.3,0.2,0.6,0.5,0.6
			l0.7,0.1c0.1,0.2,0.2,0.5,0.3,0.7l-0.4,0.6c-0.2,0.2-0.1,0.6,0.1,0.8l0.6,0.6c0.1,0.1,0.3,0.2,0.4,0.2c0.1,0,0.3,0,0.4-0.1
			l0.6-0.4c0.2,0.1,0.4,0.2,0.7,0.3l0.1,0.7c0.1,0.3,0.3,0.5,0.6,0.5h0.9c0.3,0,0.6-0.2,0.6-0.5l0.1-0.7c0.2-0.1,0.5-0.2,0.7-0.3
			l0.6,0.4c0.1,0.1,0.2,0.1,0.4,0.1l0,0c0.2,0,0.3-0.1,0.4-0.2l0.6-0.6c0.2-0.2,0.2-0.5,0.1-0.8l-0.4-0.6c0.1-0.2,0.2-0.4,0.3-0.7
			l0.7-0.1c0.3-0.1,0.5-0.3,0.5-0.6v-0.9C300,22.3,299.8,22,299.5,22z M299.4,23.4C299.4,23.5,299.4,23.5,299.4,23.4l-0.9,0.2
			c-0.1,0-0.2,0.1-0.2,0.2c-0.1,0.3-0.2,0.6-0.4,0.9c-0.1,0.1-0.1,0.2,0,0.3l0.5,0.7c0,0,0,0.1,0,0.1l-0.6,0.6c0,0,0,0,0,0
			c0,0,0,0,0,0l-0.7-0.5c-0.1-0.1-0.2-0.1-0.3,0c-0.3,0.2-0.6,0.3-0.9,0.4c-0.1,0-0.2,0.1-0.2,0.2l-0.1,0.9c0,0,0,0-0.1,0h-0.9
			c0,0-0.1,0-0.1,0l-0.1-0.9c0-0.1-0.1-0.2-0.2-0.2c-0.3-0.1-0.6-0.2-0.9-0.4c0,0-0.1,0-0.1,0c-0.1,0-0.1,0-0.2,0.1l-0.7,0.5
			c0,0,0,0,0,0c0,0,0,0,0,0l-0.6-0.6c0,0,0,0,0-0.1l0.5-0.7c0.1-0.1,0.1-0.2,0-0.3c-0.2-0.3-0.3-0.6-0.4-0.9c0-0.1-0.1-0.2-0.2-0.2
			l-0.9-0.2c0,0,0,0,0-0.1v-0.9c0,0,0-0.1,0-0.1l0.9-0.1c0.1,0,0.2-0.1,0.2-0.2c0.1-0.3,0.2-0.6,0.4-0.9c0.1-0.1,0.1-0.2,0-0.3
			l-0.5-0.7c0,0,0-0.1,0-0.1l0.6-0.6c0,0,0,0,0,0c0,0,0,0,0,0l0.7,0.5c0.1,0.1,0.2,0.1,0.3,0c0.3-0.2,0.6-0.3,0.9-0.4
			c0.1,0,0.2-0.1,0.2-0.2l0.2-0.9c0,0,0,0,0.1,0h0.9c0,0,0.1,0,0.1,0l0.1,0.9c0,0.1,0.1,0.2,0.2,0.2c0.3,0.1,0.6,0.2,0.9,0.4
			c0.1,0.1,0.2,0.1,0.3,0l0.7-0.5c0,0,0,0,0,0c0,0,0,0,0,0l0.6,0.6c0,0,0,0,0,0.1l-0.5,0.7c-0.1,0.1-0.1,0.2,0,0.3
			c0.2,0.3,0.3,0.6,0.4,0.9c0,0.1,0.1,0.2,0.2,0.2l0.9,0.1c0,0,0,0,0,0.1L299.4,23.4L299.4,23.4z"/>
		<path class="st15" d="M295,20.8c-1.2,0-2.2,1-2.2,2.2c0,1.2,1,2.2,2.2,2.2c1.2,0,2.2-1,2.2-2.2C297.2,21.8,296.2,20.8,295,20.8z
			 M295,24.6c-0.9,0-1.6-0.7-1.6-1.6c0-0.9,0.7-1.6,1.6-1.6s1.6,0.7,1.6,1.6C296.6,23.9,295.9,24.6,295,24.6z"/>
	</g>
</g>
<text transform="matrix(1 0 0 1 229 26.0076)" class="st15 st1 st16">2021.08 기준</text>
<g>
	<path class="st17" d="M20.1,27.8h2.9l0.4-2.5l0.9-1l1.6,3.5h3.3l-2-4.1c-2.1-0.4-4.3-0.8-6.4-1.3L20.1,27.8z"/>
	<path class="st17" d="M37.3,27.8H40l0.9-2.2c-1.3-0.1-2.6-0.3-3.9-0.4L37.3,27.8z"/>
	<path class="st17" d="M31.6,27.8h2.7l1.1-2.8c-1.4-0.2-2.8-0.4-4.3-0.6L31.6,27.8z"/>
	<path class="st17" d="M48.6,27.8h3.1l-0.3-1.6c-1,0-2-0.1-3-0.1L48.6,27.8z"/>
	<path class="st17" d="M58.5,27.8h2.2l0.2-1.6c-1.1,0-2.2,0.1-3.4,0.1L58.5,27.8z"/>
	<path class="st17" d="M51.9,27.8h2.7l0.2-1.5c-0.9,0-1.8,0-2.7,0L51.9,27.8z"/>
	<path class="st17" d="M62.9,26.7c0.7,0.9,1.9,1.3,3.4,1.3c1.4,0,2.6-0.4,3.5-1.1c0.4-0.3,0.7-0.8,1-1.2c-2.8,0.2-5.5,0.4-8.3,0.5
		C62.6,26.4,62.7,26.5,62.9,26.7"/>
	<path class="st17" d="M71.6,27.8h2.9l0.4-2.6c-1,0.1-1.9,0.2-2.9,0.3L71.6,27.8z"/>
	<path class="st17" d="M78,27.8h2.9l0.5-3.5c-1,0.2-1.9,0.3-2.9,0.4L78,27.8z"/>
	<path class="st17" d="M89.1,22.9C89.1,23,89.1,23,89.1,22.9c-0.1,0.9-0.4,1.5-0.8,2c-0.4,0.5-1,0.7-1.6,0.7s-1.1-0.2-1.3-0.7
		c-0.2-0.3-0.3-0.8-0.3-1.3c-1,0.2-2,0.3-2.9,0.5c0,1,0.3,1.8,0.9,2.4c0.8,0.9,1.9,1.3,3.4,1.3c1.5,0,2.8-0.4,3.8-1.3
		c1-0.9,1.6-2.1,1.8-3.7c0-0.2,0.1-0.5,0.1-0.7C91.1,22.5,90.1,22.7,89.1,22.9"/>
	<path class="st17" d="M92.1,21.8c0-1-0.3-1.8-0.9-2.4c-0.8-0.9-1.9-1.3-3.4-1.3c-1.5,0-2.8,0.4-3.8,1.3c-0.9,0.8-1.5,2-1.8,3.4
		c-0.2,0-0.5,0-0.7,0.1l0.6-4.6h-2.9l-0.5,3.7h-3.4l0.5-3.7H73l-0.7,5.2c-0.3,0-0.5,0-0.8,0l0.1-0.9h-4.2l-0.2,1.1
		c-0.7,0-1.5,0-2.2,0.1c0-0.2,0-0.4,0.1-0.7c0.1-0.9,0.4-1.5,0.8-2c0.4-0.5,0.9-0.7,1.5-0.7c0.4,0,0.8,0.1,1,0.3
		c0.3,0.2,0.4,0.5,0.5,0.9h2.8c0-1-0.3-1.8-1.1-2.5c-0.7-0.6-1.7-1-2.9-1c-1.5,0-2.8,0.4-3.7,1.3c-1,0.9-1.6,2.1-1.8,3.7
		c0,0.2-0.1,0.5-0.1,0.7c-0.3,0-0.5,0-0.8,0l0.8-5.5h-2.7l-0.7,5h-0.1l-3.1-5h-2.2l-0.8,5.5c-0.6,0-1.1,0-1.7,0l-1-5.5h-1.2
		l-0.9,2.2l0.4,3.2c-0.6,0-1.2,0-1.8,0c-0.9,0-1.7-0.1-2.6-0.1c-0.6,0-1.3,0-1.9-0.1l2.1-5.3h-3l-1.7,5.1c-0.2,0-0.3,0-0.5,0
		l-0.5-5.1h-2.2L34.2,23c-0.2,0-0.4,0-0.6,0l-0.2-4.8h-3l0.6,4.6c-1.5-0.1-3-0.2-4.4-0.4l3.8-4.2h-3l-3.5,4c0,0-0.1,0-0.1,0l0.6-4
		h-2.9l-0.5,3.7c-1-0.1-1.9-0.2-2.9-0.3c1,0.2,1.9,0.3,2.9,0.5c1.9,0.3,3.9,0.6,5.8,0.8c1.4,0.2,2.9,0.4,4.4,0.5
		c0.9,0.1,1.7,0.2,2.6,0.3c0.1,0,0.2,0,0.3,0c0.7,0.1,1.3,0.1,2,0.2c0.3,0,0.6,0.1,0.9,0.1c0.7,0.1,1.4,0.1,2,0.2c0,0,0.1,0,0.1,0
		c0.8,0.1,1.6,0.1,2.4,0.2c0.6,0,1.2,0.1,1.9,0.1c0.9,0,1.8,0.1,2.6,0.1c1.7,0.1,3.4,0.1,5.1,0.2c0.5,0,0.9,0,1.4,0
		c0.9,0,1.8,0,2.7,0c0.3,0,0.7,0,1,0c0.2,0,0.3,0,0.5,0c1.5,0,3,0,4.5-0.1c0.3,0,0.6,0,0.9,0c1,0,2-0.1,3-0.1c1.2,0,2.3-0.1,3.5-0.2
		c0.9,0,1.8-0.1,2.8-0.2c0.3,0,0.5,0,0.8-0.1c3.1-0.2,6.2-0.5,9.3-0.8c0.2,0,0.5-0.1,0.7-0.1c1-0.1,2-0.2,3-0.4
		c1.3-0.2,2.7-0.4,4-0.5c1-0.1,2-0.3,2.9-0.4c0.7-0.1,1.4-0.2,2.1-0.3C93.5,21.6,92.8,21.7,92.1,21.8 M36.2,23.1l0.3-0.8h0.1
		l0.1,0.9C36.6,23.2,36.4,23.1,36.2,23.1 M55.2,23.7l0.1-1h0.1l0.6,1C55.7,23.7,55.5,23.7,55.2,23.7 M85.2,22.4
		c0.1-0.6,0.4-1.1,0.7-1.4c0.4-0.5,1-0.7,1.6-0.7c0.6,0,1,0.2,1.3,0.7c0.2,0.3,0.3,0.7,0.3,1.1C87.8,22.2,86.5,22.3,85.2,22.4"/>
	<polygon class="st18" points="46.2,18.2 43.7,23.5 43.3,24.3 42.6,25.7 41.7,27.8 44.6,27.8 45.3,25.9 45.4,25.9 45.9,24.5 
		46.2,23.9 46.2,23.9 46.3,23.6 47.6,20.4 48.6,18.2 	"/>
</g>
</svg>
