<?xml version="1.0" encoding="utf-8"?>
<!-- Generator: Adobe Illustrator 26.1.0, SVG Export Plug-In . SVG Version: 6.00 Build 0)  -->
<svg version="1.0" id="레이어_1" xmlns="http://www.w3.org/2000/svg" xmlns:xlink="http://www.w3.org/1999/xlink" x="0px"
	 y="0px" viewBox="0 0 200 50" style="enable-background:new 0 0 200 50;" xml:space="preserve">
<style type="text/css">
	.st0{display:none;fill:#961023;}
	.st1{clip-path:url(#SVGID_00000065766560329497887510000004738611665748818821_);}
	.st2{fill:#005BBB;}
	.st3{fill:#FFD500;}
	.st4{fill:#961023;}
	.st5{display:none;fill:url(#SVGID_00000038379734197883775540000012592284703059196322_);}
	.st6{clip-path:url(#SVGID_00000057121108892836248680000011317334994203429517_);}
	.st7{fill:url(#SVGID_00000044900010819434135000000010561655729777871488_);}
	.st8{fill:url(#SVGID_00000165192414717673887980000011235895539116275115_);}
	.st9{fill:url(#SVGID_00000075874207055837023230000010376134295604418976_);}
	.st10{fill:url(#SVGID_00000180368602888288054770000005749959230861723526_);}
	.st11{fill:url(#SVGID_00000142870554586185541270000006126450431623972282_);}
	.st12{fill:url(#SVGID_00000152942432227757548580000014380558116612938420_);}
	.st13{fill:url(#SVGID_00000180353908604625397540000018074349399232480145_);}
	.st14{fill:url(#SVGID_00000040571989997328931960000006572045615034279592_);}
	.st15{fill:url(#SVGID_00000024709784768257873140000003733604081954500001_);}
	.st16{fill:url(#SVGID_00000062878926033330684590000017909273806494763962_);}
	.st17{fill:url(#SVGID_00000036226747583661004300000007349061714779609535_);}
	.st18{fill:url(#SVGID_00000003098124894150626070000003977968132653719462_);}
	.st19{fill:url(#SVGID_00000139977563773536621940000012278668224799373449_);}
	.st20{fill:url(#SVGID_00000070820886038335574230000006923162361720719764_);}
	.st21{fill:url(#SVGID_00000035523531832346784540000011727226206122499733_);}
	.st22{fill:url(#SVGID_00000039132782029292356710000005115322510872552339_);}
	.st23{fill:url(#SVGID_00000111180342475295109360000015974178672269862846_);}
	.st24{fill:url(#SVGID_00000119087152720506612740000010603617380021407167_);}
	.st25{fill:url(#SVGID_00000072983419474283635670000015021717429143059097_);}
	.st26{fill:url(#SVGID_00000031190073552174686310000017770398623924323509_);}
</style>
<g>
	<g>
		<path class="st0" d="M119.292,9.721c0.034-2.879,1.208-5.234,3.273-7.176c1.487-1.399,3.269-2.189,5.286-2.453
			c2.619-0.342,5.008,0.265,7.131,1.833c2.17,1.604,3.464,3.749,3.884,6.427c0.422,2.69-0.149,5.133-1.757,7.329
			c-1.603,2.19-3.728,3.537-6.427,3.941c-0.445,0.067-0.896,0.087-1.341,0.153c-0.176,0.026-0.358,0.093-0.51,0.187
			c-1.548,0.95-3.089,1.91-4.634,2.865c-0.11,0.068-0.233,0.115-0.35,0.172c-0.022-0.136-0.057-0.271-0.062-0.408
			c-0.056-1.392-0.114-2.783-0.154-4.176c-0.009-0.307-0.169-0.482-0.39-0.647c-0.9-0.673-1.673-1.471-2.297-2.407
			c-0.861-1.291-1.369-2.714-1.536-4.256C119.358,10.646,119.33,10.183,119.292,9.721z"/>
		<g>
			<defs>
				<path id="SVGID_1_" d="M119.292,9.721c0.034-2.879,1.208-5.234,3.273-7.176c1.487-1.399,3.269-2.189,5.286-2.453
					c2.619-0.342,5.008,0.265,7.131,1.833c2.17,1.604,3.464,3.749,3.884,6.427c0.422,2.69-0.149,5.133-1.757,7.329
					c-1.603,2.19-3.728,3.537-6.427,3.941c-0.445,0.067-0.896,0.087-1.341,0.153c-0.176,0.026-0.358,0.093-0.51,0.187
					c-1.548,0.95-3.089,1.91-4.634,2.865c-0.11,0.068-0.233,0.115-0.35,0.172c-0.022-0.136-0.057-0.271-0.062-0.408
					c-0.056-1.392-0.114-2.783-0.154-4.176c-0.009-0.307-0.169-0.482-0.39-0.647c-0.9-0.673-1.673-1.471-2.297-2.407
					c-0.861-1.291-1.369-2.714-1.536-4.256C119.358,10.646,119.33,10.183,119.292,9.721z"/>
			</defs>
			<clipPath id="SVGID_00000041280146906585886540000015108700103479515801_">
				<use xlink:href="#SVGID_1_"  style="overflow:visible;"/>
			</clipPath>
			<g style="clip-path:url(#SVGID_00000041280146906585886540000015108700103479515801_);">
				<rect x="111.146" y="-1" class="st2" width="36" height="24"/>
				<rect x="111.146" y="11" class="st3" width="36" height="12"/>
			</g>
		</g>
		<g>
			<path d="M117.803,34.811l0.755-3.555h0.719l0.648,2.728h0.021l1.862-2.728h0.731l-0.756,3.555h-0.602l0.53-2.495h-0.03
				l-1.668,2.393h-0.421l-0.629-2.393h-0.03l-0.53,2.495H117.803z"/>
			<path d="M126.109,32.757c0,1.186-0.787,2.115-1.822,2.115c-0.909,0-1.49-0.619-1.49-1.562c0-1.186,0.786-2.115,1.822-2.115
				C125.527,31.194,126.109,31.813,126.109,32.757z M125.507,32.773c0-0.64-0.346-1.056-0.889-1.056
				c-0.708,0-1.221,0.68-1.221,1.575c0,0.64,0.346,1.056,0.889,1.056C124.994,34.349,125.507,33.669,125.507,32.773z"/>
			<path d="M126.154,34.841c-0.086,0-0.185-0.017-0.236-0.037l0.117-0.54c0.044,0.017,0.109,0.027,0.17,0.027
				c0.314,0,0.547-0.325,0.756-1.06c0.023-0.075,0.557-1.955,0.561-1.976h2.331l-0.755,3.555h-0.602l0.652-3.062h-1.196
				c-0.007,0.027-0.417,1.46-0.431,1.497C127.172,34.455,126.844,34.841,126.154,34.841z"/>
			<path d="M129.917,34.811l0.755-3.555h0.602l-0.561,2.628h0.031l2.331-2.628h0.602l-0.755,3.555h-0.602l0.561-2.636h-0.031
				l-2.328,2.636H129.917z"/>
			<path d="M137.169,32.432v0.024h-0.577c-0.017-0.4-0.317-0.738-0.845-0.738c-0.707,0-1.206,0.652-1.206,1.578
				c0,0.656,0.342,1.053,0.861,1.053c0.465,0,0.81-0.263,0.96-0.666h0.585c-0.171,0.674-0.804,1.189-1.552,1.189
				c-0.961,0-1.463-0.649-1.463-1.555c0-1.193,0.752-2.123,1.822-2.123C136.695,31.194,137.169,31.796,137.169,32.432z"/>
			<path d="M138.035,31.256h0.602l-0.24,1.132h0.646c0.701,0,1.114,0.413,1.114,0.963c0,0.852-0.646,1.46-1.634,1.46h-1.244
				L138.035,31.256z M138.294,32.876l-0.309,1.442h0.643c0.568,0,0.927-0.41,0.927-0.896c0-0.335-0.232-0.547-0.618-0.547H138.294z"
				/>
			<path d="M127.105,41.872c-0.779,0-1.309-0.496-1.309-1.166h0.584c0,0.353,0.328,0.646,0.773,0.646
				c0.488,0,0.84-0.283,0.844-0.649c0.004-0.298-0.232-0.468-0.649-0.468h-0.513l0.105-0.482h0.53c0.386,0,0.681-0.226,0.684-0.526
				c0.007-0.29-0.253-0.513-0.659-0.513c-0.435,0-0.76,0.26-0.845,0.633h-0.588c0.147-0.708,0.7-1.152,1.479-1.152
				c0.735,0,1.234,0.403,1.228,0.939c-0.007,0.394-0.304,0.752-0.687,0.824l-0.008,0.021c0.339,0.099,0.527,0.362,0.523,0.731
				C128.585,41.373,127.96,41.872,127.105,41.872z"/>
			<path d="M129.115,40.884c0-0.697,0.54-1.09,1.449-1.138l1.062-0.055l0.049-0.222c0.014-0.059,0.014-0.113,0.014-0.175
				c0-0.355-0.25-0.577-0.708-0.577c-0.481,0-0.766,0.235-0.837,0.574h-0.623c0.106-0.64,0.681-1.098,1.508-1.098
				c0.759,0,1.258,0.417,1.258,1.016c0,0.112-0.01,0.219-0.023,0.301l-0.489,2.3h-0.571l0.093-0.435h-0.011
				c-0.242,0.305-0.618,0.496-1.056,0.496C129.617,41.872,129.115,41.466,129.115,40.884z M131.439,40.563l0.089-0.396l-0.971,0.051
				c-0.533,0.027-0.841,0.246-0.841,0.605c0,0.331,0.273,0.543,0.67,0.543C130.896,41.366,131.333,41.038,131.439,40.563z"/>
			<path d="M117.662,48.8l0.117-0.553c0.037,0.01,0.119,0.027,0.266,0.027c0.377,0,0.66-0.15,0.934-0.517l-0.857-3.88h0.646
				l0.646,3.176h0.055l1.963-3.176h0.7l-2.349,3.661c-0.547,0.851-0.998,1.306-1.855,1.306
				C117.789,48.845,117.697,48.821,117.662,48.8z"/>
			<path d="M122.451,46.828l1.732-1.572h0.779l-1.932,1.712l1.262,1.843h-0.734l-1.166-1.709h-0.027l-0.362,1.709h-0.602
				l0.755-3.555h0.602l-0.334,1.572H122.451z"/>
			<path d="M124.46,50l1.008-4.744h0.585l-0.123,0.574h0.011c0.215-0.369,0.659-0.636,1.121-0.636c0.81,0,1.312,0.605,1.312,1.538
				c0,1.23-0.766,2.14-1.768,2.14c-0.554,0-1.005-0.328-1.142-0.772h-0.017l-0.404,1.9H124.46z M127.79,46.773
				c0-0.663-0.321-1.056-0.864-1.056c-0.773,0-1.244,0.769-1.244,1.63c0,0.585,0.358,0.998,0.912,0.998
				C127.273,48.346,127.79,47.689,127.79,46.773z"/>
			<path d="M128.708,47.884c0-0.697,0.54-1.09,1.449-1.138l1.062-0.055l0.049-0.222c0.014-0.059,0.014-0.113,0.014-0.175
				c0-0.355-0.25-0.577-0.708-0.577c-0.481,0-0.766,0.235-0.837,0.574h-0.623c0.106-0.64,0.681-1.098,1.508-1.098
				c0.759,0,1.258,0.417,1.258,1.016c0,0.112-0.01,0.219-0.023,0.301l-0.489,2.3h-0.571l0.093-0.435h-0.011
				c-0.242,0.305-0.618,0.496-1.056,0.496C129.21,48.872,128.708,48.466,128.708,47.884z M131.033,47.563l0.089-0.396l-0.971,0.051
				c-0.533,0.027-0.841,0.246-0.841,0.605c0,0.331,0.273,0.543,0.67,0.543C130.49,48.366,130.927,48.038,131.033,47.563z"/>
			<path d="M132.96,45.256h0.602l-0.756,3.555h-0.602L132.96,45.256z M132.8,44.251c0-0.188,0.15-0.335,0.334-0.335
				c0.188,0,0.336,0.147,0.336,0.335c0,0.185-0.147,0.335-0.336,0.335C132.951,44.586,132.8,44.436,132.8,44.251z M133.558,44.251
				c0-0.188,0.15-0.335,0.336-0.335c0.188,0,0.334,0.147,0.334,0.335c0,0.185-0.146,0.335-0.334,0.335
				C133.708,44.586,133.558,44.436,133.558,44.251z"/>
			<path d="M134.419,45.256h0.605l-0.311,1.463h1.709l0.311-1.463h0.605l-0.756,3.555h-0.602l0.338-1.6h-1.709l-0.342,1.6h-0.604
				L134.419,45.256z"/>
			<path d="M137.458,47.884c0-0.697,0.54-1.09,1.449-1.138l1.062-0.055l0.049-0.222c0.014-0.059,0.014-0.113,0.014-0.175
				c0-0.355-0.25-0.577-0.708-0.577c-0.481,0-0.766,0.235-0.837,0.574h-0.623c0.106-0.64,0.681-1.098,1.508-1.098
				c0.759,0,1.258,0.417,1.258,1.016c0,0.112-0.01,0.219-0.023,0.301l-0.489,2.3h-0.571l0.093-0.435h-0.011
				c-0.242,0.305-0.618,0.496-1.056,0.496C137.96,48.872,137.458,48.466,137.458,47.884z M139.783,47.563l0.089-0.396l-0.971,0.051
				c-0.533,0.027-0.841,0.246-0.841,0.605c0,0.331,0.273,0.543,0.67,0.543C139.24,48.366,139.677,48.038,139.783,47.563z"/>
		</g>
		<g>
			<path class="st4" d="M0.037,42.75c1.2,0.233,2.483,0.3,3.85,0.199c0.066,0,1.566-0.35,4.5-1.05
				c6.766-1.666,12.116-2.732,16.05-3.2c0.9-0.066,1.95-0.149,3.15-0.25c0.566-0.232,1.4-0.516,2.5-0.85c0.5-0.133,1-0.2,1.5-0.2
				c1.5,0,3.4,0.8,5.7,2.4c0.966,0.667,1.45,1.417,1.45,2.25s-0.45,1.567-1.35,2.2s-1.95,0.949-3.15,0.949
				c-0.834,0-1.634-0.166-2.4-0.5c-0.1-0.066-0.217-0.157-0.35-0.274c-0.134-0.116-0.268-0.208-0.4-0.275
				c-0.133-0.066-0.4-0.183-0.8-0.35c-1.634-0.733-3.25-1.101-4.85-1.101c-0.4,0-0.784,0.018-1.15,0.051
				c-2.733,0.367-4.517,0.617-5.35,0.75c-1.9,0.333-3.633,0.75-5.2,1.25c-1.367,0.533-2.75,1.066-4.15,1.6
				c-1.8,0.7-3.184,1.083-4.15,1.15c-0.934,0.066-1.65,0.05-2.15-0.051c-1.1-0.233-1.95-0.792-2.55-1.675
				C0.137,44.892-0.097,43.883,0.037,42.75z M17.637,16.799c-0.9-0.366-1.75-0.816-2.55-1.35c-0.6-0.366-1.233-0.866-1.9-1.5
				c-0.9-0.9-1.35-1.633-1.35-2.2c0-0.2,0.066-0.383,0.2-0.55c0.133-0.166,0.4-0.3,0.8-0.4c2.1-0.733,5.267-1.716,9.5-2.95
				c0.5-0.133,1.217-0.267,2.15-0.4c1.3-0.033,2.45,0.184,3.45,0.65c0.633,0.3,1.267,0.817,1.9,1.55
				c0.767,0.833,1.15,1.583,1.15,2.25c0,0.434-0.15,0.8-0.45,1.1c-0.134,0.133-0.434,0.3-0.9,0.5c-0.3,0.133-0.742,0.333-1.325,0.6
				c-0.583,0.267-1.025,0.467-1.325,0.6c-2.4,1.034-5.667,2.334-9.8,3.9c-0.067,0.033-0.542,0.217-1.425,0.55
				c-0.884,0.333-1.359,0.5-1.425,0.5c-0.033-0.033-0.067-0.05-0.1-0.05c0.033-0.066,0.15-0.183,0.35-0.35
				c0.1-0.066,0.217-0.142,0.35-0.225c0.133-0.083,0.258-0.175,0.375-0.275c0.117-0.1,0.35-0.275,0.7-0.525
				c0.35-0.25,0.583-0.417,0.7-0.5c0.117-0.083,0.242-0.167,0.375-0.25c0.133-0.083,0.25-0.167,0.35-0.25
				c0.1-0.083,0.2-0.191,0.3-0.325C17.803,16.833,17.769,16.799,17.637,16.799z M16.387,30.5c0.667-0.333,1.983-0.833,3.95-1.5
				c0.533-0.2,1.316-0.483,2.35-0.851c0.167-0.066,0.367-0.1,0.6-0.1c1.167,0,2.483,0.35,3.95,1.05
				c1.633,0.768,2.45,1.584,2.45,2.45c0,0.367-0.184,0.733-0.55,1.1c-0.6,0.567-1.583,1.067-2.95,1.5
				c-0.2,0.034-0.517,0.134-0.95,0.3c-0.567,0.334-1.334,0.801-2.3,1.4c-2.534,1.367-4.85,2.05-6.95,2.05
				c3.566-2.032,5.416-3.466,5.55-4.3c-0.667,0.033-2.617,0.733-5.85,2.1c-0.667,0.234-1.067,0.351-1.2,0.351
				c-1.167-0.133-1.917-1.433-2.25-3.9c0.766-3.1,1.65-5.3,2.65-6.6c-0.434-0.4-0.867-0.808-1.3-1.226
				c-0.434-0.416-0.65-0.891-0.65-1.425c0.833,0.1,2.7-0.4,5.6-1.5c2.133-0.8,4.05-1.6,5.75-2.4c3.533,0.534,5.3,1.3,5.3,2.3
				c0,0.634-0.6,1.367-1.8,2.2c-0.5,0.333-1.534,0.65-3.1,0.95c-1.1,0.234-2.217,0.45-3.35,0.65c-0.833,0.167-1.383,0.317-1.65,0.45
				C18.387,26.217,17.287,27.867,16.387,30.5z"/>
			<path class="st4" d="M63.017,24.949l-2.1,1.801c-1.9,1.733-3.25,2.6-4.05,2.6c-0.167,0-0.333-0.033-0.5-0.1
				c-0.6,1.833-1.85,3.483-3.75,4.949c-1.967,1.567-3.934,2.351-5.9,2.351c-1.034,0-1.967-0.233-2.8-0.7c-0.8-0.633-1.2-1-1.2-1.1
				c0-0.133,0.167-0.2,0.5-0.2c0.133,0,0.3,0.017,0.5,0.05c0.2,0.033,0.366,0.05,0.5,0.05c2,0.034,3.9-1.133,5.7-3.5
				c1.667-2.3,2.4-4.466,2.2-6.5c-0.1-0.1-0.617-0.35-1.55-0.75c-2.067-0.966-3.25-2.333-3.55-4.1c0.733,0,1.867-0.383,3.4-1.15
				c1.533-0.767,2.933-1.116,4.2-1.05c3,0.167,4.566,1.117,4.701,2.85c0.031,0.268,0.016,0.6-0.051,1c-0.066,0.5-0.1,0.85-0.1,1.05
				c0.666-0.466,1.566-1.066,2.699-1.8c0.367-1.8,0.551-3.25,0.551-4.35c0-0.933-0.117-1.717-0.35-2.35c0-1.6,0.6-2.35,1.799-2.25
				c0.967,0.067,1.809,0.367,2.525,0.9c0.717,0.534,1.107,1.233,1.176,2.1c-0.035-0.267-0.102,0.4-0.201,2
				c-0.033,0.333,0,1.717,0.1,4.15c0.033,2.1-0.008,4.425-0.125,6.976c-0.117,2.55-0.773,3.824-1.975,3.824
				c-0.566,0-1.1-0.266-1.6-0.8c-0.5-0.532-0.75-1.083-0.75-1.649V24.949z M68.366,49.5c0.8-0.801,1.201-1.684,1.201-2.65v-40
				c0-0.7-0.5-1.417-1.5-2.15c-0.768-0.5-1.551-1.016-2.352-1.55c0.033-0.733,0.9-1.1,2.602-1.1c0.798,0,1.765,0.083,2.898,0.25
				c3.834,0.7,5.717,2.134,5.65,4.3c0,0.033-0.049,0.7-0.15,2l-0.299,5.1c-0.301,6.467-0.533,15.134-0.701,26L75.666,43.3v1.35
				c0,0.268-0.135,0.75-0.4,1.45c-0.533,0.9-1.525,1.683-2.975,2.35C70.84,49.116,69.532,49.466,68.366,49.5z"/>
			<path class="st4" d="M113.311,6.449l-0.85,39c-0.034,1.233-0.434,2.15-1.2,2.75c-0.5,0.367-1.468,0.717-2.9,1.051
				c-0.667,0.166-1.684,0.416-3.05,0.75c0.6-0.601,0.9-1.534,0.9-2.801V22.75c-0.9,0.467-1.817,0.934-2.75,1.4
				c-1.168,0.767-1.65,1.534-1.45,2.3c-0.534,1.034-2.55,2.793-6.05,5.275c-3.5,2.483-5.784,3.725-6.851,3.725
				c-1,0-1.85-0.449-2.55-1.35s-1.05-1.866-1.05-2.9c0-0.5,0.25-1.166,0.75-2c0.366-0.633,0.732-1.266,1.1-1.899
				c0.066-0.133,0.142-0.351,0.226-0.65c0.082-0.3,0.141-0.5,0.175-0.6c1.1-3.3,2-5.351,2.7-6.15c-0.834-0.267-1.801-0.95-2.9-2.05
				c-1.2-1.167-1.783-2.133-1.75-2.9c1.2-0.066,2.833-0.6,4.9-1.6c1.933-0.9,3.532-1.316,4.8-1.25c1.133,0.067,2.216,0.467,3.25,1.2
				c1.166,0.867,1.75,1.833,1.75,2.9c0,1.067-0.434,1.867-1.3,2.4c-0.5,0.3-1.418,0.608-2.75,0.925
				c-1.334,0.317-2.234,0.625-2.7,0.925c-0.667,0.434-1.393,1.559-2.175,3.375c-0.784,1.817-1.176,3.325-1.176,4.525
				c0,0.567,0.101,0.983,0.301,1.25c4.199-1.5,6.766-3.05,7.699-4.65c-0.233-0.266-0.483-0.558-0.75-0.875
				c-0.267-0.316-0.399-0.607-0.399-0.875c0-0.1,0.017-0.2,0.05-0.3c0.1-1,3.066-3.133,8.9-6.4V7.1
				c-0.034-0.8-0.734-1.65-2.101-2.55c-1.367-0.9-2.033-1.5-2-1.8c0.101-0.833,1-1.25,2.7-1.25c2.066,0,4.083,0.483,6.05,1.45
				C112.994,4.017,113.811,5.183,113.311,6.449z"/>
		</g>
	</g>
	<g>
		
			<linearGradient id="SVGID_00000165937173839679916720000014867915292294798758_" gradientUnits="userSpaceOnUse" x1="73.573" y1="-1" x2="73.573" y2="50">
			<stop  offset="0" style="stop-color:#000000;stop-opacity:0"/>
			<stop  offset="1" style="stop-color:#000000;stop-opacity:0.2"/>
		</linearGradient>
		<path style="display:none;fill:url(#SVGID_00000165937173839679916720000014867915292294798758_);" d="M119.292,9.721
			c0.034-2.879,1.208-5.234,3.273-7.176c1.487-1.399,3.269-2.189,5.286-2.453c2.619-0.342,5.008,0.265,7.131,1.833
			c2.17,1.604,3.464,3.749,3.884,6.427c0.422,2.69-0.149,5.133-1.757,7.329c-1.603,2.19-3.728,3.537-6.427,3.941
			c-0.445,0.067-0.896,0.087-1.341,0.153c-0.176,0.026-0.358,0.093-0.51,0.187c-1.548,0.95-3.089,1.91-4.634,2.865
			c-0.11,0.068-0.233,0.115-0.35,0.172c-0.022-0.136-0.057-0.271-0.062-0.408c-0.056-1.392-0.114-2.783-0.154-4.176
			c-0.009-0.307-0.169-0.482-0.39-0.647c-0.9-0.673-1.673-1.471-2.297-2.407c-0.861-1.291-1.369-2.714-1.536-4.256
			C119.358,10.646,119.33,10.183,119.292,9.721z"/>
		<g>
			<defs>
				<path id="SVGID_00000010994595437901072940000007363269785290934670_" d="M119.292,9.721c0.034-2.879,1.208-5.234,3.273-7.176
					c1.487-1.399,3.269-2.189,5.286-2.453c2.619-0.342,5.008,0.265,7.131,1.833c2.17,1.604,3.464,3.749,3.884,6.427
					c0.422,2.69-0.149,5.133-1.757,7.329c-1.603,2.19-3.728,3.537-6.427,3.941c-0.445,0.067-0.896,0.087-1.341,0.153
					c-0.176,0.026-0.358,0.093-0.51,0.187c-1.548,0.95-3.089,1.91-4.634,2.865c-0.11,0.068-0.233,0.115-0.35,0.172
					c-0.022-0.136-0.057-0.271-0.062-0.408c-0.056-1.392-0.114-2.783-0.154-4.176c-0.009-0.307-0.169-0.482-0.39-0.647
					c-0.9-0.673-1.673-1.471-2.297-2.407c-0.861-1.291-1.369-2.714-1.536-4.256C119.358,10.646,119.33,10.183,119.292,9.721z"/>
			</defs>
			<clipPath id="SVGID_00000008871839978408739930000006377830383761977766_">
				<use xlink:href="#SVGID_00000010994595437901072940000007363269785290934670_"  style="overflow:visible;"/>
			</clipPath>
			<g style="clip-path:url(#SVGID_00000008871839978408739930000006377830383761977766_);">
				
					<linearGradient id="SVGID_00000063625824229727393760000013464766655030665126_" gradientUnits="userSpaceOnUse" x1="73.573" y1="-1" x2="73.573" y2="50">
					<stop  offset="0" style="stop-color:#000000;stop-opacity:0"/>
					<stop  offset="1" style="stop-color:#000000;stop-opacity:0.2"/>
				</linearGradient>
				
					<rect x="111.146" y="-1" style="fill:url(#SVGID_00000063625824229727393760000013464766655030665126_);" width="36" height="24"/>
				
					<linearGradient id="SVGID_00000093885278360964455320000010043604212047453862_" gradientUnits="userSpaceOnUse" x1="73.573" y1="-1" x2="73.573" y2="50">
					<stop  offset="0" style="stop-color:#000000;stop-opacity:0"/>
					<stop  offset="1" style="stop-color:#000000;stop-opacity:0.2"/>
				</linearGradient>
				
					<rect x="111.146" y="11" style="fill:url(#SVGID_00000093885278360964455320000010043604212047453862_);" width="36" height="12"/>
			</g>
		</g>
		<g>
			
				<linearGradient id="SVGID_00000099641450806760460100000003828214759980120761_" gradientUnits="userSpaceOnUse" x1="73.573" y1="-1" x2="73.573" y2="50">
				<stop  offset="0" style="stop-color:#000000;stop-opacity:0"/>
				<stop  offset="1" style="stop-color:#000000;stop-opacity:0.2"/>
			</linearGradient>
			<path style="fill:url(#SVGID_00000099641450806760460100000003828214759980120761_);" d="M117.803,34.811l0.755-3.555h0.719
				l0.648,2.728h0.021l1.862-2.728h0.731l-0.756,3.555h-0.602l0.53-2.495h-0.03l-1.668,2.393h-0.421l-0.629-2.393h-0.03l-0.53,2.495
				H117.803z"/>
			
				<linearGradient id="SVGID_00000144312672621951860060000000661389393674642874_" gradientUnits="userSpaceOnUse" x1="73.573" y1="-1" x2="73.573" y2="50">
				<stop  offset="0" style="stop-color:#000000;stop-opacity:0"/>
				<stop  offset="1" style="stop-color:#000000;stop-opacity:0.2"/>
			</linearGradient>
			<path style="fill:url(#SVGID_00000144312672621951860060000000661389393674642874_);" d="M126.109,32.757
				c0,1.186-0.787,2.115-1.822,2.115c-0.909,0-1.49-0.619-1.49-1.562c0-1.186,0.786-2.115,1.822-2.115
				C125.527,31.194,126.109,31.813,126.109,32.757z M125.507,32.773c0-0.64-0.346-1.056-0.889-1.056
				c-0.708,0-1.221,0.68-1.221,1.575c0,0.64,0.346,1.056,0.889,1.056C124.994,34.349,125.507,33.669,125.507,32.773z"/>
			
				<linearGradient id="SVGID_00000134222328825041304180000014133590464577694865_" gradientUnits="userSpaceOnUse" x1="73.573" y1="-1" x2="73.573" y2="50">
				<stop  offset="0" style="stop-color:#000000;stop-opacity:0"/>
				<stop  offset="1" style="stop-color:#000000;stop-opacity:0.2"/>
			</linearGradient>
			<path style="fill:url(#SVGID_00000134222328825041304180000014133590464577694865_);" d="M126.154,34.841
				c-0.086,0-0.185-0.017-0.236-0.037l0.117-0.54c0.044,0.017,0.109,0.027,0.17,0.027c0.314,0,0.547-0.325,0.756-1.06
				c0.023-0.075,0.557-1.955,0.561-1.976h2.331l-0.755,3.555h-0.602l0.652-3.062h-1.196c-0.007,0.027-0.417,1.46-0.431,1.497
				C127.172,34.455,126.844,34.841,126.154,34.841z"/>
			
				<linearGradient id="SVGID_00000129177035897076381000000009725474902734876596_" gradientUnits="userSpaceOnUse" x1="73.573" y1="-1" x2="73.573" y2="50">
				<stop  offset="0" style="stop-color:#000000;stop-opacity:0"/>
				<stop  offset="1" style="stop-color:#000000;stop-opacity:0.2"/>
			</linearGradient>
			<path style="fill:url(#SVGID_00000129177035897076381000000009725474902734876596_);" d="M129.917,34.811l0.755-3.555h0.602
				l-0.561,2.628h0.031l2.331-2.628h0.602l-0.755,3.555h-0.602l0.561-2.636h-0.031l-2.328,2.636H129.917z"/>
			
				<linearGradient id="SVGID_00000103981750791662354460000007043323601923049378_" gradientUnits="userSpaceOnUse" x1="73.573" y1="-1" x2="73.573" y2="50">
				<stop  offset="0" style="stop-color:#000000;stop-opacity:0"/>
				<stop  offset="1" style="stop-color:#000000;stop-opacity:0.2"/>
			</linearGradient>
			<path style="fill:url(#SVGID_00000103981750791662354460000007043323601923049378_);" d="M137.169,32.432v0.024h-0.577
				c-0.017-0.4-0.317-0.738-0.845-0.738c-0.707,0-1.206,0.652-1.206,1.578c0,0.656,0.342,1.053,0.861,1.053
				c0.465,0,0.81-0.263,0.96-0.666h0.585c-0.171,0.674-0.804,1.189-1.552,1.189c-0.961,0-1.463-0.649-1.463-1.555
				c0-1.193,0.752-2.123,1.822-2.123C136.695,31.194,137.169,31.796,137.169,32.432z"/>
			
				<linearGradient id="SVGID_00000124129297043520171100000004895753848616181154_" gradientUnits="userSpaceOnUse" x1="73.573" y1="-1" x2="73.573" y2="50">
				<stop  offset="0" style="stop-color:#000000;stop-opacity:0"/>
				<stop  offset="1" style="stop-color:#000000;stop-opacity:0.2"/>
			</linearGradient>
			<path style="fill:url(#SVGID_00000124129297043520171100000004895753848616181154_);" d="M138.035,31.256h0.602l-0.24,1.132
				h0.646c0.701,0,1.114,0.413,1.114,0.963c0,0.852-0.646,1.46-1.634,1.46h-1.244L138.035,31.256z M138.294,32.876l-0.309,1.442
				h0.643c0.568,0,0.927-0.41,0.927-0.896c0-0.335-0.232-0.547-0.618-0.547H138.294z"/>
			
				<linearGradient id="SVGID_00000083068476436713203530000018197506897176816308_" gradientUnits="userSpaceOnUse" x1="73.573" y1="-1" x2="73.573" y2="50">
				<stop  offset="0" style="stop-color:#000000;stop-opacity:0"/>
				<stop  offset="1" style="stop-color:#000000;stop-opacity:0.2"/>
			</linearGradient>
			<path style="fill:url(#SVGID_00000083068476436713203530000018197506897176816308_);" d="M127.105,41.872
				c-0.779,0-1.309-0.496-1.309-1.166h0.584c0,0.353,0.328,0.646,0.773,0.646c0.488,0,0.84-0.283,0.844-0.649
				c0.004-0.298-0.232-0.468-0.649-0.468h-0.513l0.105-0.482h0.53c0.386,0,0.681-0.226,0.684-0.526
				c0.007-0.29-0.253-0.513-0.659-0.513c-0.435,0-0.76,0.26-0.845,0.633h-0.588c0.147-0.708,0.7-1.152,1.479-1.152
				c0.735,0,1.234,0.403,1.228,0.939c-0.007,0.394-0.304,0.752-0.687,0.824l-0.008,0.021c0.339,0.099,0.527,0.362,0.523,0.731
				C128.585,41.373,127.96,41.872,127.105,41.872z"/>
			
				<linearGradient id="SVGID_00000047740787214642214020000002173030673225895350_" gradientUnits="userSpaceOnUse" x1="73.573" y1="-1" x2="73.573" y2="50">
				<stop  offset="0" style="stop-color:#000000;stop-opacity:0"/>
				<stop  offset="1" style="stop-color:#000000;stop-opacity:0.2"/>
			</linearGradient>
			<path style="fill:url(#SVGID_00000047740787214642214020000002173030673225895350_);" d="M129.115,40.884
				c0-0.697,0.54-1.09,1.449-1.138l1.062-0.055l0.049-0.222c0.014-0.059,0.014-0.113,0.014-0.175c0-0.355-0.25-0.577-0.708-0.577
				c-0.481,0-0.766,0.235-0.837,0.574h-0.623c0.106-0.64,0.681-1.098,1.508-1.098c0.759,0,1.258,0.417,1.258,1.016
				c0,0.112-0.01,0.219-0.023,0.301l-0.489,2.3h-0.571l0.093-0.435h-0.011c-0.242,0.305-0.618,0.496-1.056,0.496
				C129.617,41.872,129.115,41.466,129.115,40.884z M131.439,40.563l0.089-0.396l-0.971,0.051c-0.533,0.027-0.841,0.246-0.841,0.605
				c0,0.331,0.273,0.543,0.67,0.543C130.896,41.366,131.333,41.038,131.439,40.563z"/>
			
				<linearGradient id="SVGID_00000052817745131760754030000007473271509099700917_" gradientUnits="userSpaceOnUse" x1="73.573" y1="-1" x2="73.573" y2="50">
				<stop  offset="0" style="stop-color:#000000;stop-opacity:0"/>
				<stop  offset="1" style="stop-color:#000000;stop-opacity:0.2"/>
			</linearGradient>
			<path style="fill:url(#SVGID_00000052817745131760754030000007473271509099700917_);" d="M117.662,48.8l0.117-0.553
				c0.037,0.01,0.119,0.027,0.266,0.027c0.377,0,0.66-0.15,0.934-0.517l-0.857-3.88h0.646l0.646,3.176h0.055l1.963-3.176h0.7
				l-2.349,3.661c-0.547,0.851-0.998,1.306-1.855,1.306C117.789,48.845,117.697,48.821,117.662,48.8z"/>
			
				<linearGradient id="SVGID_00000045606364476539851280000002872950624981395607_" gradientUnits="userSpaceOnUse" x1="73.573" y1="-1" x2="73.573" y2="50">
				<stop  offset="0" style="stop-color:#000000;stop-opacity:0"/>
				<stop  offset="1" style="stop-color:#000000;stop-opacity:0.2"/>
			</linearGradient>
			<path style="fill:url(#SVGID_00000045606364476539851280000002872950624981395607_);" d="M122.451,46.828l1.732-1.572h0.779
				l-1.932,1.712l1.262,1.843h-0.734l-1.166-1.709h-0.027l-0.362,1.709h-0.602l0.755-3.555h0.602l-0.334,1.572H122.451z"/>
			
				<linearGradient id="SVGID_00000153688251354792096930000012777855521334806945_" gradientUnits="userSpaceOnUse" x1="73.573" y1="-1" x2="73.573" y2="50">
				<stop  offset="0" style="stop-color:#000000;stop-opacity:0"/>
				<stop  offset="1" style="stop-color:#000000;stop-opacity:0.2"/>
			</linearGradient>
			<path style="fill:url(#SVGID_00000153688251354792096930000012777855521334806945_);" d="M124.46,50l1.008-4.744h0.585
				l-0.123,0.574h0.011c0.215-0.369,0.659-0.636,1.121-0.636c0.81,0,1.312,0.605,1.312,1.538c0,1.23-0.766,2.14-1.768,2.14
				c-0.554,0-1.005-0.328-1.142-0.772h-0.017l-0.404,1.9H124.46z M127.79,46.773c0-0.663-0.321-1.056-0.864-1.056
				c-0.773,0-1.244,0.769-1.244,1.63c0,0.585,0.358,0.998,0.912,0.998C127.273,48.346,127.79,47.689,127.79,46.773z"/>
			
				<linearGradient id="SVGID_00000122718060885699372840000013703688547409041081_" gradientUnits="userSpaceOnUse" x1="73.573" y1="-1" x2="73.573" y2="50">
				<stop  offset="0" style="stop-color:#000000;stop-opacity:0"/>
				<stop  offset="1" style="stop-color:#000000;stop-opacity:0.2"/>
			</linearGradient>
			<path style="fill:url(#SVGID_00000122718060885699372840000013703688547409041081_);" d="M128.708,47.884
				c0-0.697,0.54-1.09,1.449-1.138l1.062-0.055l0.049-0.222c0.014-0.059,0.014-0.113,0.014-0.175c0-0.355-0.25-0.577-0.708-0.577
				c-0.481,0-0.766,0.235-0.837,0.574h-0.623c0.106-0.64,0.681-1.098,1.508-1.098c0.759,0,1.258,0.417,1.258,1.016
				c0,0.112-0.01,0.219-0.023,0.301l-0.489,2.3h-0.571l0.093-0.435h-0.011c-0.242,0.305-0.618,0.496-1.056,0.496
				C129.21,48.872,128.708,48.466,128.708,47.884z M131.033,47.563l0.089-0.396l-0.971,0.051c-0.533,0.027-0.841,0.246-0.841,0.605
				c0,0.331,0.273,0.543,0.67,0.543C130.49,48.366,130.927,48.038,131.033,47.563z"/>
			
				<linearGradient id="SVGID_00000119801697657015927800000016679781414154086299_" gradientUnits="userSpaceOnUse" x1="73.573" y1="-1" x2="73.573" y2="50">
				<stop  offset="0" style="stop-color:#000000;stop-opacity:0"/>
				<stop  offset="1" style="stop-color:#000000;stop-opacity:0.2"/>
			</linearGradient>
			<path style="fill:url(#SVGID_00000119801697657015927800000016679781414154086299_);" d="M132.96,45.256h0.602l-0.756,3.555
				h-0.602L132.96,45.256z M132.8,44.251c0-0.188,0.15-0.335,0.334-0.335c0.188,0,0.336,0.147,0.336,0.335
				c0,0.185-0.147,0.335-0.336,0.335C132.951,44.586,132.8,44.436,132.8,44.251z M133.558,44.251c0-0.188,0.15-0.335,0.336-0.335
				c0.188,0,0.334,0.147,0.334,0.335c0,0.185-0.146,0.335-0.334,0.335C133.708,44.586,133.558,44.436,133.558,44.251z"/>
			
				<linearGradient id="SVGID_00000097482943113933423490000011293647029326344890_" gradientUnits="userSpaceOnUse" x1="73.573" y1="-1" x2="73.573" y2="50">
				<stop  offset="0" style="stop-color:#000000;stop-opacity:0"/>
				<stop  offset="1" style="stop-color:#000000;stop-opacity:0.2"/>
			</linearGradient>
			<path style="fill:url(#SVGID_00000097482943113933423490000011293647029326344890_);" d="M134.419,45.256h0.605l-0.311,1.463
				h1.709l0.311-1.463h0.605l-0.756,3.555h-0.602l0.338-1.6h-1.709l-0.342,1.6h-0.604L134.419,45.256z"/>
			
				<linearGradient id="SVGID_00000158004364760070528470000011703576580506498976_" gradientUnits="userSpaceOnUse" x1="73.573" y1="-1" x2="73.573" y2="50">
				<stop  offset="0" style="stop-color:#000000;stop-opacity:0"/>
				<stop  offset="1" style="stop-color:#000000;stop-opacity:0.2"/>
			</linearGradient>
			<path style="fill:url(#SVGID_00000158004364760070528470000011703576580506498976_);" d="M137.458,47.884
				c0-0.697,0.54-1.09,1.449-1.138l1.062-0.055l0.049-0.222c0.014-0.059,0.014-0.113,0.014-0.175c0-0.355-0.25-0.577-0.708-0.577
				c-0.481,0-0.766,0.235-0.837,0.574h-0.623c0.106-0.64,0.681-1.098,1.508-1.098c0.759,0,1.258,0.417,1.258,1.016
				c0,0.112-0.01,0.219-0.023,0.301l-0.489,2.3h-0.571l0.093-0.435h-0.011c-0.242,0.305-0.618,0.496-1.056,0.496
				C137.96,48.872,137.458,48.466,137.458,47.884z M139.783,47.563l0.089-0.396l-0.971,0.051c-0.533,0.027-0.841,0.246-0.841,0.605
				c0,0.331,0.273,0.543,0.67,0.543C139.24,48.366,139.677,48.038,139.783,47.563z"/>
		</g>
		<g>
			
				<linearGradient id="SVGID_00000083794763326612448420000007943808000651155126_" gradientUnits="userSpaceOnUse" x1="73.573" y1="-1" x2="73.573" y2="50">
				<stop  offset="0" style="stop-color:#000000;stop-opacity:0"/>
				<stop  offset="1" style="stop-color:#000000;stop-opacity:0.2"/>
			</linearGradient>
			<path style="fill:url(#SVGID_00000083794763326612448420000007943808000651155126_);" d="M0.037,42.75
				c1.2,0.233,2.483,0.3,3.85,0.199c0.066,0,1.566-0.35,4.5-1.05c6.766-1.666,12.116-2.732,16.05-3.2
				c0.9-0.066,1.95-0.149,3.15-0.25c0.566-0.232,1.4-0.516,2.5-0.85c0.5-0.133,1-0.2,1.5-0.2c1.5,0,3.4,0.8,5.7,2.4
				c0.966,0.667,1.45,1.417,1.45,2.25s-0.45,1.567-1.35,2.2s-1.95,0.949-3.15,0.949c-0.834,0-1.634-0.166-2.4-0.5
				c-0.1-0.066-0.217-0.157-0.35-0.274c-0.134-0.116-0.268-0.208-0.4-0.275c-0.133-0.066-0.4-0.183-0.8-0.35
				c-1.634-0.733-3.25-1.101-4.85-1.101c-0.4,0-0.784,0.018-1.15,0.051c-2.733,0.367-4.517,0.617-5.35,0.75
				c-1.9,0.333-3.633,0.75-5.2,1.25c-1.367,0.533-2.75,1.066-4.15,1.6c-1.8,0.7-3.184,1.083-4.15,1.15
				c-0.934,0.066-1.65,0.05-2.15-0.051c-1.1-0.233-1.95-0.792-2.55-1.675C0.137,44.892-0.097,43.883,0.037,42.75z M17.637,16.799
				c-0.9-0.366-1.75-0.816-2.55-1.35c-0.6-0.366-1.233-0.866-1.9-1.5c-0.9-0.9-1.35-1.633-1.35-2.2c0-0.2,0.066-0.383,0.2-0.55
				c0.133-0.166,0.4-0.3,0.8-0.4c2.1-0.733,5.267-1.716,9.5-2.95c0.5-0.133,1.217-0.267,2.15-0.4c1.3-0.033,2.45,0.184,3.45,0.65
				c0.633,0.3,1.267,0.817,1.9,1.55c0.767,0.833,1.15,1.583,1.15,2.25c0,0.434-0.15,0.8-0.45,1.1c-0.134,0.133-0.434,0.3-0.9,0.5
				c-0.3,0.133-0.742,0.333-1.325,0.6c-0.583,0.267-1.025,0.467-1.325,0.6c-2.4,1.034-5.667,2.334-9.8,3.9
				c-0.067,0.033-0.542,0.217-1.425,0.55c-0.884,0.333-1.359,0.5-1.425,0.5c-0.033-0.033-0.067-0.05-0.1-0.05
				c0.033-0.066,0.15-0.183,0.35-0.35c0.1-0.066,0.217-0.142,0.35-0.225c0.133-0.083,0.258-0.175,0.375-0.275
				c0.117-0.1,0.35-0.275,0.7-0.525c0.35-0.25,0.583-0.417,0.7-0.5c0.117-0.083,0.242-0.167,0.375-0.25
				c0.133-0.083,0.25-0.167,0.35-0.25c0.1-0.083,0.2-0.191,0.3-0.325C17.803,16.833,17.769,16.799,17.637,16.799z M16.387,30.5
				c0.667-0.333,1.983-0.833,3.95-1.5c0.533-0.2,1.316-0.483,2.35-0.851c0.167-0.066,0.367-0.1,0.6-0.1
				c1.167,0,2.483,0.35,3.95,1.05c1.633,0.768,2.45,1.584,2.45,2.45c0,0.367-0.184,0.733-0.55,1.1c-0.6,0.567-1.583,1.067-2.95,1.5
				c-0.2,0.034-0.517,0.134-0.95,0.3c-0.567,0.334-1.334,0.801-2.3,1.4c-2.534,1.367-4.85,2.05-6.95,2.05
				c3.566-2.032,5.416-3.466,5.55-4.3c-0.667,0.033-2.617,0.733-5.85,2.1c-0.667,0.234-1.067,0.351-1.2,0.351
				c-1.167-0.133-1.917-1.433-2.25-3.9c0.766-3.1,1.65-5.3,2.65-6.6c-0.434-0.4-0.867-0.808-1.3-1.226
				c-0.434-0.416-0.65-0.891-0.65-1.425c0.833,0.1,2.7-0.4,5.6-1.5c2.133-0.8,4.05-1.6,5.75-2.4c3.533,0.534,5.3,1.3,5.3,2.3
				c0,0.634-0.6,1.367-1.8,2.2c-0.5,0.333-1.534,0.65-3.1,0.95c-1.1,0.234-2.217,0.45-3.35,0.65c-0.833,0.167-1.383,0.317-1.65,0.45
				C18.387,26.217,17.287,27.867,16.387,30.5z"/>
			
				<linearGradient id="SVGID_00000039823620949264214820000003314306759175967916_" gradientUnits="userSpaceOnUse" x1="73.573" y1="-1" x2="73.573" y2="50">
				<stop  offset="0" style="stop-color:#000000;stop-opacity:0"/>
				<stop  offset="1" style="stop-color:#000000;stop-opacity:0.2"/>
			</linearGradient>
			<path style="fill:url(#SVGID_00000039823620949264214820000003314306759175967916_);" d="M63.017,24.949l-2.1,1.801
				c-1.9,1.733-3.25,2.6-4.05,2.6c-0.167,0-0.333-0.033-0.5-0.1c-0.6,1.833-1.85,3.483-3.75,4.949
				c-1.967,1.567-3.934,2.351-5.9,2.351c-1.034,0-1.967-0.233-2.8-0.7c-0.8-0.633-1.2-1-1.2-1.1c0-0.133,0.167-0.2,0.5-0.2
				c0.133,0,0.3,0.017,0.5,0.05c0.2,0.033,0.366,0.05,0.5,0.05c2,0.034,3.9-1.133,5.7-3.5c1.667-2.3,2.4-4.466,2.2-6.5
				c-0.1-0.1-0.617-0.35-1.55-0.75c-2.067-0.966-3.25-2.333-3.55-4.1c0.733,0,1.867-0.383,3.4-1.15
				c1.533-0.767,2.933-1.116,4.2-1.05c3,0.167,4.566,1.117,4.701,2.85c0.031,0.268,0.016,0.6-0.051,1c-0.066,0.5-0.1,0.85-0.1,1.05
				c0.666-0.466,1.566-1.066,2.699-1.8c0.367-1.8,0.551-3.25,0.551-4.35c0-0.933-0.117-1.717-0.35-2.35c0-1.6,0.6-2.35,1.799-2.25
				c0.967,0.067,1.809,0.367,2.525,0.9c0.717,0.534,1.107,1.233,1.176,2.1c-0.035-0.267-0.102,0.4-0.201,2
				c-0.033,0.333,0,1.717,0.1,4.15c0.033,2.1-0.008,4.425-0.125,6.976c-0.117,2.55-0.773,3.824-1.975,3.824
				c-0.566,0-1.1-0.266-1.6-0.8c-0.5-0.532-0.75-1.083-0.75-1.649V24.949z M68.366,49.5c0.8-0.801,1.201-1.684,1.201-2.65v-40
				c0-0.7-0.5-1.417-1.5-2.15c-0.768-0.5-1.551-1.016-2.352-1.55c0.033-0.733,0.9-1.1,2.602-1.1c0.798,0,1.765,0.083,2.898,0.25
				c3.834,0.7,5.717,2.134,5.65,4.3c0,0.033-0.049,0.7-0.15,2l-0.299,5.1c-0.301,6.467-0.533,15.134-0.701,26L75.666,43.3v1.35
				c0,0.268-0.135,0.75-0.4,1.45c-0.533,0.9-1.525,1.683-2.975,2.35C70.84,49.116,69.532,49.466,68.366,49.5z"/>
			
				<linearGradient id="SVGID_00000183209156508979621290000006942235079709397932_" gradientUnits="userSpaceOnUse" x1="73.573" y1="-1" x2="73.573" y2="50">
				<stop  offset="0" style="stop-color:#000000;stop-opacity:0"/>
				<stop  offset="1" style="stop-color:#000000;stop-opacity:0.2"/>
			</linearGradient>
			<path style="fill:url(#SVGID_00000183209156508979621290000006942235079709397932_);" d="M113.311,6.449l-0.85,39
				c-0.034,1.233-0.434,2.15-1.2,2.75c-0.5,0.367-1.468,0.717-2.9,1.051c-0.667,0.166-1.684,0.416-3.05,0.75
				c0.6-0.601,0.9-1.534,0.9-2.801V22.75c-0.9,0.467-1.817,0.934-2.75,1.4c-1.168,0.767-1.65,1.534-1.45,2.3
				c-0.534,1.034-2.55,2.793-6.05,5.275c-3.5,2.483-5.784,3.725-6.851,3.725c-1,0-1.85-0.449-2.55-1.35s-1.05-1.866-1.05-2.9
				c0-0.5,0.25-1.166,0.75-2c0.366-0.633,0.732-1.266,1.1-1.899c0.066-0.133,0.142-0.351,0.226-0.65c0.082-0.3,0.141-0.5,0.175-0.6
				c1.1-3.3,2-5.351,2.7-6.15c-0.834-0.267-1.801-0.95-2.9-2.05c-1.2-1.167-1.783-2.133-1.75-2.9c1.2-0.066,2.833-0.6,4.9-1.6
				c1.933-0.9,3.532-1.316,4.8-1.25c1.133,0.067,2.216,0.467,3.25,1.2c1.166,0.867,1.75,1.833,1.75,2.9c0,1.067-0.434,1.867-1.3,2.4
				c-0.5,0.3-1.418,0.608-2.75,0.925c-1.334,0.317-2.234,0.625-2.7,0.925c-0.667,0.434-1.393,1.559-2.175,3.375
				c-0.784,1.817-1.176,3.325-1.176,4.525c0,0.567,0.101,0.983,0.301,1.25c4.199-1.5,6.766-3.05,7.699-4.65
				c-0.233-0.266-0.483-0.558-0.75-0.875c-0.267-0.316-0.399-0.607-0.399-0.875c0-0.1,0.017-0.2,0.05-0.3c0.1-1,3.066-3.133,8.9-6.4
				V7.1c-0.034-0.8-0.734-1.65-2.101-2.55c-1.367-0.9-2.033-1.5-2-1.8c0.101-0.833,1-1.25,2.7-1.25c2.066,0,4.083,0.483,6.05,1.45
				C112.994,4.017,113.811,5.183,113.311,6.449z"/>
		</g>
	</g>
	<g>
		<g>
			<defs>
				<path id="SVGID_00000067921576705556648890000000521199289192874893_" d="M119.292,9.721c0.034-2.879,1.208-5.234,3.273-7.176
					c1.487-1.399,3.269-2.189,5.286-2.453c2.619-0.342,5.008,0.265,7.131,1.833c2.17,1.604,3.464,3.749,3.884,6.427
					c0.422,2.69-0.149,5.133-1.757,7.329c-1.603,2.19-3.728,3.537-6.427,3.941c-0.445,0.067-0.896,0.087-1.341,0.153
					c-0.176,0.026-0.358,0.093-0.51,0.187c-1.548,0.95-3.089,1.91-4.634,2.865c-0.11,0.068-0.233,0.115-0.35,0.172
					c-0.022-0.136-0.057-0.271-0.062-0.408c-0.056-1.392-0.114-2.783-0.154-4.176c-0.009-0.307-0.169-0.482-0.39-0.647
					c-0.9-0.673-1.673-1.471-2.297-2.407c-0.861-1.291-1.369-2.714-1.536-4.256C119.358,10.646,119.33,10.183,119.292,9.721z"/>
			</defs>
			<clipPath id="SVGID_00000114780426643448041150000010676582913777359761_">
				<use xlink:href="#SVGID_00000067921576705556648890000000521199289192874893_"  style="overflow:visible;"/>
			</clipPath>
		</g>
	</g>
</g>
</svg>
