<?xml version="1.0" encoding="utf-8"?>
<!-- Generator: Adobe Illustrator 26.2.0, SVG Export Plug-In . SVG Version: 6.00 Build 0)  -->
<svg version="1.0" id="레이어_2" xmlns="http://www.w3.org/2000/svg" xmlns:xlink="http://www.w3.org/1999/xlink" x="0px"
	 y="0px" viewBox="0 0 200 50" style="enable-background:new 0 0 200 50;" xml:space="preserve">
<style type="text/css">
	.st0{fill:#EC2123;}
	.st1{fill:#FFFFFF;}
	.st2{fill:#5F6060;}
</style>
<g>
	<path class="st0" d="M52.521,15.844c-0.611-2.286-2.412-4.086-4.698-4.697c-4.143-1.111-20.758-1.111-20.758-1.111
		s-16.615,0-20.758,1.111c-2.286,0.611-4.087,2.411-4.698,4.697C0.5,19.987,0.5,28.632,0.5,28.632s0,8.645,1.11,12.788
		c0.611,2.286,2.412,4.086,4.698,4.698c4.143,1.11,20.758,1.11,20.758,1.11s16.614,0,20.758-1.11
		c2.286-0.611,4.086-2.412,4.698-4.698c1.11-4.143,1.11-12.788,1.11-12.788S53.631,19.987,52.521,15.844"/>
	<polygon class="st1" points="21.752,36.602 35.556,28.633 21.752,20.662 	"/>
	<path class="st1" d="M77.62,43.871c-1.051-0.709-1.799-1.811-2.241-3.306c-0.444-1.494-0.665-3.482-0.665-5.965V31.22
		c0-2.508,0.253-4.522,0.76-6.042c0.507-1.52,1.298-2.627,2.375-3.325c1.076-0.696,2.489-1.045,4.237-1.045
		c1.722,0,3.103,0.355,4.142,1.064c1.039,0.709,1.798,1.817,2.28,3.324c0.481,1.507,0.721,3.515,0.721,6.023V34.6
		c0,2.483-0.234,4.478-0.703,5.985c-0.468,1.508-1.228,2.609-2.279,3.305c-1.051,0.697-2.476,1.045-4.275,1.045
		C80.121,44.936,78.671,44.581,77.62,43.871 M83.509,40.224c0.291-0.76,0.437-2.001,0.437-3.724v-7.257
		c0-1.672-0.146-2.894-0.437-3.667c-0.291-0.773-0.804-1.159-1.539-1.159c-0.71,0-1.21,0.387-1.501,1.159
		c-0.292,0.772-0.437,1.995-0.437,3.667V36.5c0,1.723,0.138,2.964,0.417,3.724c0.279,0.76,0.785,1.139,1.52,1.139
		C82.705,41.363,83.218,40.984,83.509,40.224"/>
	<path class="st1" d="M158.32,34.656v1.178c0,1.495,0.043,2.615,0.133,3.362c0.089,0.747,0.271,1.292,0.551,1.634
		c0.278,0.342,0.709,0.513,1.292,0.513c0.784,0,1.323-0.304,1.614-0.912c0.29-0.608,0.449-1.621,0.475-3.04l4.521,0.266
		c0.025,0.203,0.038,0.481,0.038,0.836c0,2.153-0.589,3.762-1.766,4.825c-1.178,1.064-2.844,1.596-4.997,1.596
		c-2.584,0-4.395-0.81-5.434-2.432c-1.039-1.62-1.558-4.128-1.558-7.523v-4.065c0-3.496,0.538-6.047,1.615-7.656
		c1.076-1.608,2.919-2.413,5.528-2.413c1.799,0,3.179,0.33,4.142,0.988c0.963,0.658,1.64,1.684,2.033,3.077
		c0.392,1.394,0.589,3.319,0.589,5.776v3.99H158.32z M158.984,24.853c-0.266,0.329-0.443,0.867-0.532,1.614
		c-0.089,0.747-0.133,1.881-0.133,3.401v1.672h3.837v-1.672c0-1.494-0.051-2.628-0.151-3.401c-0.102-0.772-0.285-1.317-0.551-1.634
		c-0.266-0.316-0.678-0.475-1.235-0.475C159.662,24.359,159.251,24.525,158.984,24.853"/>
	<path class="st1" d="M64.852,34.22l-5.966-21.544h5.205l2.09,9.765c0.532,2.407,0.924,4.458,1.178,6.155h0.152
		c0.177-1.216,0.57-3.255,1.178-6.117l2.166-9.803h5.205L70.019,34.22v10.335h-5.167V34.22z"/>
	<path class="st1" d="M106.157,21.264v23.292h-4.104l-0.456-2.85h-0.114c-1.115,2.153-2.786,3.229-5.015,3.229
		c-1.545,0-2.685-0.506-3.419-1.52c-0.735-1.013-1.102-2.596-1.102-4.749V21.264h5.243v17.098c0,1.039,0.114,1.78,0.342,2.223
		c0.228,0.444,0.608,0.665,1.14,0.665c0.456,0,0.893-0.139,1.31-0.418c0.418-0.279,0.729-0.632,0.931-1.064V21.264H106.157z"/>
	<path class="st1" d="M133.052,21.264v23.292h-4.104l-0.456-2.85h-0.114c-1.115,2.153-2.786,3.229-5.016,3.229
		c-1.545,0-2.685-0.506-3.419-1.52c-0.735-1.013-1.102-2.596-1.102-4.749V21.264h5.243v17.098c0,1.039,0.114,1.78,0.342,2.223
		c0.228,0.444,0.608,0.665,1.14,0.665c0.456,0,0.893-0.139,1.31-0.418c0.419-0.279,0.728-0.632,0.931-1.064V21.264H133.052z"/>
	<polygon class="st1" points="120.405,16.894 115.2,16.894 115.2,44.555 110.071,44.555 110.071,16.894 104.865,16.894 
		104.865,12.677 120.405,12.677 	"/>
	<path class="st1" d="M150.406,24.988c-0.317-1.469-0.83-2.533-1.539-3.192c-0.709-0.658-1.685-0.988-2.926-0.988
		c-0.963,0-1.862,0.273-2.698,0.817c-0.836,0.545-1.482,1.261-1.938,2.147h-0.038l0-12.272h-5.053v33.056h4.331l0.532-2.204h0.114
		c0.405,0.785,1.013,1.406,1.824,1.862c0.81,0.456,1.709,0.683,2.698,0.683c1.772,0,3.077-0.817,3.913-2.45
		c0.836-1.634,1.254-4.186,1.254-7.656v-3.686C150.881,28.496,150.722,26.457,150.406,24.988 M145.599,34.488
		c0,1.697-0.07,3.027-0.209,3.989c-0.139,0.963-0.373,1.647-0.703,2.052c-0.329,0.406-0.773,0.608-1.329,0.608
		c-0.431,0-0.83-0.101-1.197-0.304c-0.368-0.203-0.665-0.506-0.893-0.912V26.698c0.177-0.633,0.481-1.153,0.912-1.558
		c0.43-0.405,0.898-0.608,1.406-0.608c0.532,0,0.943,0.209,1.235,0.626c0.291,0.418,0.494,1.121,0.608,2.109
		c0.114,0.988,0.171,2.393,0.171,4.217V34.488z"/>
	<g>
		<path class="st2" d="M184.713,16.091l-4.831-5.462c-0.166,0.188-0.329,0.374-0.49,0.556c-0.16,0.183-0.323,0.368-0.489,0.556v4.35
			h-1.743V2.909h1.743v6.74c0.276-0.321,0.556-0.65,0.839-0.988c0.281-0.337,0.562-0.672,0.838-1.004
			c0.675-0.797,1.351-1.596,2.025-2.399c0.675-0.802,1.334-1.585,1.976-2.349h2.125L181.127,9.4c0.476,0.531,0.949,1.068,1.419,1.61
			c0.471,0.542,0.949,1.09,1.437,1.644c0.487,0.554,0.996,1.129,1.527,1.727s1.029,1.168,1.494,1.71H184.713z"/>
		<path class="st2" d="M197.114,16.091V9.616h-6.591v6.475h-1.743V2.909h1.743v5.163h6.591V2.909h1.727v13.182H197.114z"/>
	</g>
</g>
</svg>
