<?xml version="1.0" encoding="utf-8"?>
<!-- Generator: Adobe Illustrator 26.0.3, SVG Export Plug-In . SVG Version: 6.00 Build 0)  -->
<svg version="1.0" id="레이어_1" xmlns="http://www.w3.org/2000/svg" xmlns:xlink="http://www.w3.org/1999/xlink" x="0px"
	 y="0px" viewBox="0 0 200 50" style="enable-background:new 0 0 200 50;" xml:space="preserve">
<style type="text/css">
	.st0{display:none;fill:#961023;}
	.st1{display:none;}
	.st2{display:inline;}
	.st3{display:inline;clip-path:url(#SVGID_00000055673315294747186530000006541780930621870521_);}
	.st4{fill:#005BBB;}
	.st5{fill:#FFD500;}
	.st6{fill:#961023;}
	.st7{fill:#E50023;}
	.st8{fill:#FFFFFF;}
	.st9{display:none;fill:url(#SVGID_00000120547682114824630470000005310041426582317493_);}
	.st10{display:inline;clip-path:url(#SVGID_00000032616600606569103190000009198296441398738847_);}
	.st11{fill:url(#SVGID_00000058564668778195297220000013818324445838927002_);}
	.st12{fill:url(#SVGID_00000135691975709214156210000002756679485086889903_);}
	.st13{display:inline;fill:url(#SVGID_00000075140959152724374870000014976638817981394072_);}
	.st14{display:inline;fill:url(#SVGID_00000137091904602195996650000007955222928047499677_);}
	.st15{display:inline;fill:url(#SVGID_00000064336687698358700380000015886075455397449628_);}
	.st16{display:inline;fill:url(#SVGID_00000153690546474976947370000017628719227334757504_);}
	.st17{display:inline;fill:url(#SVGID_00000152956096733179637710000015700091355551055768_);}
	.st18{display:inline;fill:url(#SVGID_00000112633244499283390040000004814144654470372270_);}
	.st19{display:inline;fill:url(#SVGID_00000091731505827380948120000015672635462577291664_);}
	.st20{display:inline;fill:url(#SVGID_00000039824512283195734040000016210298760790783678_);}
	.st21{display:inline;fill:url(#SVGID_00000149342896111070167820000007756933481020548527_);}
	.st22{display:inline;fill:url(#SVGID_00000047044536025666789450000011019747381466188730_);}
	.st23{display:inline;fill:url(#SVGID_00000013158910871599517740000017801442126613483696_);}
	.st24{display:inline;fill:url(#SVGID_00000124856295486037490670000009059280356097873542_);}
	.st25{display:inline;fill:url(#SVGID_00000075865619235413528620000005912072826350371203_);}
	.st26{display:inline;fill:url(#SVGID_00000107583404471733809740000005390229670842905992_);}
	.st27{display:inline;fill:url(#SVGID_00000018201211135139164100000002176204376078715528_);}
	.st28{fill:url(#SVGID_00000158008470611774014190000010717421791971245471_);}
	.st29{fill:url(#SVGID_00000007414631834322540960000002338402822408276400_);}
	.st30{fill:url(#SVGID_00000024693912417946682120000010422128765041670821_);}
	.st31{fill:url(#SVGID_00000152225493450641685470000000487896789402226566_);}
	.st32{fill:url(#SVGID_00000070807606346012308500000018069701329678401960_);}
	.st33{fill:url(#SVGID_00000134210016732344445590000014377244015695763862_);}
	.st34{fill:url(#SVGID_00000180345860432988715660000009343942842362837684_);}
	.st35{fill:url(#SVGID_00000124844115216708233300000012713953928007040947_);}
	.st36{fill:url(#SVGID_00000016795026353681426510000013745604234434130840_);}
	.st37{fill:url(#SVGID_00000163771618432382292560000010462397978101441163_);}
	.st38{fill:url(#SVGID_00000020374646341953384910000005925938646551418754_);}
	.st39{fill:url(#SVGID_00000137123262050954968000000013983383820917736635_);}
	.st40{fill:url(#SVGID_00000117638777444454303430000017380050927038262433_);}
	.st41{fill:url(#SVGID_00000116199919941816990730000010258075390053549454_);}
	.st42{fill:url(#SVGID_00000129177085463865898970000016488595531275379119_);}
	.st43{fill:url(#SVGID_00000061470533403963159760000005499473039320649637_);}
	.st44{fill:url(#SVGID_00000041267898969760846290000009255639485882858943_);}
	.st45{fill:url(#SVGID_00000013912994705408770840000001015075666733119661_);}
	.st46{fill:url(#SVGID_00000165935262276634238740000008362030144053657530_);}
	.st47{fill:url(#SVGID_00000104696866392180301860000007713303263734314149_);}
	.st48{fill:url(#SVGID_00000128469083426016671130000007371142221821299074_);}
</style>
<g>
	<g>
		<path class="st0" d="M119.292,9.7212c0.0339-2.8792,1.2083-5.2336,3.2734-7.1764c1.4875-1.3995,3.2695-2.1895,5.286-2.4525
			c2.6195-0.3418,5.0083,0.2653,7.1309,1.8335c2.1705,1.6036,3.4639,3.7495,3.8838,6.4266c0.4219,2.6901-0.1488,5.133-1.7568,7.3292
			c-1.6031,2.1895-3.7281,3.5372-6.4266,3.9414c-0.4445,0.0666-0.896,0.0871-1.3406,0.1535
			c-0.176,0.0263-0.3583,0.0933-0.5102,0.1865c-1.5476,0.9502-3.0892,1.9102-4.634,2.8649c-0.11,0.068-0.2329,0.1152-0.3499,0.1721
			c-0.0215-0.136-0.0569-0.2714-0.0624-0.408c-0.056-1.3917-0.114-2.7834-0.1543-4.1756c-0.0089-0.3075-0.1686-0.4819-0.39-0.6474
			c-0.9004-0.6729-1.6732-1.4709-2.2973-2.4066c-0.8613-1.2912-1.3688-2.7136-1.5358-4.2558
			C119.3583,10.646,119.3301,10.183,119.292,9.7212z"/>
		<g class="st1">
			<defs>
				<path id="SVGID_1_" d="M119.292,9.7212c0.0339-2.8792,1.2083-5.2336,3.2734-7.1764c1.4875-1.3995,3.2695-2.1895,5.286-2.4525
					c2.6195-0.3418,5.0083,0.2653,7.1309,1.8335c2.1705,1.6036,3.4639,3.7495,3.8838,6.4266
					c0.4219,2.6901-0.1488,5.133-1.7568,7.3292c-1.6031,2.1895-3.7281,3.5372-6.4266,3.9414
					c-0.4445,0.0666-0.896,0.0871-1.3406,0.1535c-0.176,0.0263-0.3583,0.0933-0.5102,0.1865
					c-1.5476,0.9502-3.0892,1.9102-4.634,2.8649c-0.11,0.068-0.2329,0.1152-0.3499,0.1721c-0.0215-0.136-0.0569-0.2714-0.0624-0.408
					c-0.056-1.3917-0.114-2.7834-0.1543-4.1756c-0.0089-0.3075-0.1686-0.4819-0.39-0.6474
					c-0.9004-0.6729-1.6732-1.4709-2.2973-2.4066c-0.8613-1.2912-1.3688-2.7136-1.5358-4.2558
					C119.3583,10.646,119.3301,10.183,119.292,9.7212z"/>
			</defs>
			<clipPath id="SVGID_00000080927568548434431490000002712151625915426706_" class="st2">
				<use xlink:href="#SVGID_1_"  style="overflow:visible;"/>
			</clipPath>
			<g style="display:inline;clip-path:url(#SVGID_00000080927568548434431490000002712151625915426706_);">
				<rect x="111.146" y="-1" class="st4" width="36" height="24"/>
				<rect x="111.146" y="11" class="st5" width="36" height="12"/>
			</g>
		</g>
		<g class="st1">
			<path class="st2" d="M117.8032,34.8105l0.7549-3.5547h0.7188l0.6484,2.7275h0.0215l1.8623-2.7275h0.7314l-0.7559,3.5547h-0.6016
				l0.5303-2.4951h-0.0303l-1.668,2.3926h-0.4209l-0.6289-2.3926h-0.0303l-0.5303,2.4951H117.8032z"/>
			<path class="st2" d="M126.1089,32.7568c0,1.1855-0.7871,2.1152-1.8223,2.1152c-0.9092,0-1.4902-0.6191-1.4902-1.5625
				c0-1.1855,0.7861-2.1152,1.8223-2.1152C125.5269,31.1943,126.1089,31.8135,126.1089,32.7568z M125.5073,32.7734
				c0-0.6396-0.3457-1.0557-0.8887-1.0557c-0.708,0-1.2207,0.6797-1.2207,1.5752c0,0.6396,0.3457,1.0557,0.8887,1.0557
				C124.9937,34.3486,125.5073,33.6689,125.5073,32.7734z"/>
			<path class="st2" d="M126.1538,34.8408c-0.0859,0-0.1846-0.0166-0.2363-0.0371l0.1172-0.54
				c0.0439,0.0166,0.1094,0.0273,0.1699,0.0273c0.3145,0,0.5469-0.3252,0.7559-1.0596c0.0234-0.0752,0.5566-1.9551,0.5605-1.9756
				h2.3311l-0.7549,3.5547h-0.6016l0.6523-3.0625h-1.1963c-0.0068,0.0273-0.417,1.46-0.4307,1.4971
				C127.1724,34.4551,126.8442,34.8408,126.1538,34.8408z"/>
			<path class="st2" d="M129.9165,34.8105l0.7549-3.5547h0.6016l-0.5605,2.6279h0.0312l2.3311-2.6279h0.6016l-0.7549,3.5547h-0.6016
				l0.5605-2.6357h-0.0312l-2.3281,2.6357H129.9165z"/>
			<path class="st2" d="M137.1694,32.4316v0.0244h-0.5771c-0.0166-0.4004-0.3174-0.7383-0.8447-0.7383
				c-0.707,0-1.2061,0.6523-1.2061,1.5781c0,0.6562,0.3418,1.0527,0.8613,1.0527c0.4648,0,0.8096-0.2627,0.96-0.666h0.585
				c-0.1709,0.6738-0.8037,1.1895-1.5518,1.1895c-0.9609,0-1.4629-0.6494-1.4629-1.5547c0-1.1934,0.752-2.123,1.8223-2.123
				C136.6948,31.1943,137.1694,31.7959,137.1694,32.4316z"/>
			<path class="st2" d="M138.0347,31.2559h0.6016l-0.2402,1.1318h0.6465c0.7012,0,1.1143,0.4131,1.1143,0.9629
				c0,0.8516-0.6455,1.46-1.6338,1.46h-1.2441L138.0347,31.2559z M138.2944,32.876l-0.3086,1.4424h0.6426
				c0.5684,0,0.9268-0.4102,0.9268-0.8955c0-0.335-0.2324-0.5469-0.6182-0.5469H138.2944z"/>
			<path class="st2" d="M127.105,41.8721c-0.7793,0-1.3086-0.4961-1.3086-1.166h0.584c0,0.3525,0.3281,0.6465,0.7734,0.6465
				c0.4883,0,0.8398-0.2832,0.8438-0.6494c0.0039-0.2979-0.2324-0.4678-0.6494-0.4678h-0.5127l0.1055-0.4824h0.5303
				c0.3857,0,0.6807-0.2256,0.6836-0.5264c0.0068-0.29-0.2529-0.5127-0.6592-0.5127c-0.4346,0-0.7598,0.2598-0.8447,0.6328h-0.5879
				c0.1475-0.708,0.7002-1.1523,1.4795-1.1523c0.7354,0,1.2344,0.4033,1.2275,0.9395c-0.0068,0.3936-0.3037,0.752-0.6865,0.8242
				l-0.0078,0.0205c0.3389,0.0986,0.5273,0.3623,0.5234,0.7314C128.5854,41.373,127.9604,41.8721,127.105,41.8721z"/>
			<path class="st2" d="M129.1147,40.8838c0-0.6973,0.54-1.0898,1.4492-1.1377l1.0625-0.0547l0.0488-0.2217
				c0.0137-0.0586,0.0137-0.1133,0.0137-0.1748c0-0.3555-0.25-0.5771-0.708-0.5771c-0.4814,0-0.7656,0.2354-0.8369,0.5742h-0.623
				c0.1064-0.6396,0.6807-1.0977,1.5078-1.0977c0.7588,0,1.2578,0.417,1.2578,1.0156c0,0.1123-0.0098,0.2188-0.0234,0.3008
				l-0.4893,2.2998h-0.5713l0.0928-0.4346h-0.0107c-0.2422,0.3047-0.6182,0.4961-1.0557,0.4961
				C129.6167,41.8721,129.1147,41.4658,129.1147,40.8838z M131.439,40.5635l0.0889-0.3965l-0.9707,0.0508
				c-0.5332,0.0273-0.8408,0.2461-0.8408,0.6055c0,0.3311,0.2734,0.543,0.6699,0.543
				C130.896,41.3662,131.3335,41.0381,131.439,40.5635z"/>
			<path class="st2" d="M117.6616,48.7998l0.1172-0.5527c0.0371,0.0098,0.1191,0.0273,0.2656,0.0273
				c0.377,0,0.6602-0.1504,0.9336-0.5166l-0.8574-3.8799h0.6455l0.6455,3.1758h0.0547l1.9629-3.1758h0.7002l-2.3486,3.6611
				c-0.5469,0.8506-0.998,1.3057-1.8555,1.3057C117.7886,48.8447,117.6968,48.8213,117.6616,48.7998z"/>
			<path class="st2" d="M122.4507,46.8281l1.7324-1.5723h0.7793l-1.9316,1.7119l1.2617,1.8428h-0.7344l-1.166-1.709h-0.0273
				l-0.3623,1.709h-0.6016l0.7549-3.5547h0.6016l-0.334,1.5723H122.4507z"/>
			<path class="st2" d="M124.4604,50l1.0078-4.7441h0.585l-0.123,0.5742h0.0107c0.2148-0.3691,0.6592-0.6357,1.1211-0.6357
				c0.8096,0,1.3125,0.6055,1.3125,1.5381c0,1.2305-0.7656,2.1396-1.7676,2.1396c-0.5537,0-1.0049-0.3281-1.1416-0.7725h-0.0166
				L125.0444,50H124.4604z M127.7896,46.7734c0-0.6631-0.3213-1.0557-0.8643-1.0557c-0.7734,0-1.2441,0.7686-1.2441,1.6299
				c0,0.585,0.3584,0.998,0.9121,0.998C127.2729,48.3457,127.7896,47.6895,127.7896,46.7734z"/>
			<path class="st2" d="M128.7085,47.8838c0-0.6973,0.54-1.0898,1.4492-1.1377l1.0625-0.0547l0.0488-0.2217
				c0.0137-0.0586,0.0137-0.1133,0.0137-0.1748c0-0.3555-0.25-0.5771-0.708-0.5771c-0.4814,0-0.7656,0.2354-0.8369,0.5742h-0.623
				c0.1064-0.6396,0.6807-1.0977,1.5078-1.0977c0.7588,0,1.2578,0.417,1.2578,1.0156c0,0.1123-0.0098,0.2188-0.0234,0.3008
				l-0.4893,2.2998h-0.5713l0.0928-0.4346h-0.0107c-0.2422,0.3047-0.6182,0.4961-1.0557,0.4961
				C129.2104,48.8721,128.7085,48.4658,128.7085,47.8838z M131.0327,47.5635l0.0889-0.3965l-0.9707,0.0508
				c-0.5332,0.0273-0.8408,0.2461-0.8408,0.6055c0,0.3311,0.2734,0.543,0.6699,0.543
				C130.4897,48.3662,130.9272,48.0381,131.0327,47.5635z"/>
			<path class="st2" d="M132.9604,45.2559h0.6016l-0.7559,3.5547h-0.6016L132.9604,45.2559z M132.8003,44.251
				c0-0.1875,0.1504-0.335,0.334-0.335c0.1885,0,0.3359,0.1475,0.3359,0.335c0,0.1846-0.1475,0.335-0.3359,0.335
				C132.9507,44.5859,132.8003,44.4355,132.8003,44.251z M133.5581,44.251c0-0.1875,0.1504-0.335,0.3359-0.335
				c0.1875,0,0.334,0.1475,0.334,0.335c0,0.1846-0.1465,0.335-0.334,0.335C133.7085,44.5859,133.5581,44.4355,133.5581,44.251z"/>
			<path class="st2" d="M134.4194,45.2559h0.6055l-0.3105,1.4629h1.709l0.3105-1.4629h0.6055l-0.7559,3.5547h-0.6016l0.3379-1.5996
				h-1.709l-0.3418,1.5996h-0.6045L134.4194,45.2559z"/>
			<path class="st2" d="M137.4585,47.8838c0-0.6973,0.54-1.0898,1.4492-1.1377l1.0625-0.0547l0.0488-0.2217
				c0.0137-0.0586,0.0137-0.1133,0.0137-0.1748c0-0.3555-0.25-0.5771-0.708-0.5771c-0.4814,0-0.7656,0.2354-0.8369,0.5742h-0.623
				c0.1064-0.6396,0.6807-1.0977,1.5078-1.0977c0.7588,0,1.2578,0.417,1.2578,1.0156c0,0.1123-0.0098,0.2188-0.0234,0.3008
				l-0.4893,2.2998h-0.5713l0.0928-0.4346h-0.0107c-0.2422,0.3047-0.6182,0.4961-1.0557,0.4961
				C137.9604,48.8721,137.4585,48.4658,137.4585,47.8838z M139.7827,47.5635l0.0889-0.3965l-0.9707,0.0508
				c-0.5332,0.0273-0.8408,0.2461-0.8408,0.6055c0,0.3311,0.2734,0.543,0.6699,0.543
				C139.2397,48.3662,139.6772,48.0381,139.7827,47.5635z"/>
		</g>
		<g>
			<path class="st6" d="M0.0365,42.75c1.2002,0.2334,2.4829,0.2998,3.8501,0.1992c0.0664,0,1.5664-0.3496,4.5-1.0498
				c6.7661-1.666,12.1162-2.7324,16.0498-3.2002c0.8999-0.0664,1.9502-0.1494,3.1499-0.25c0.5664-0.2324,1.4004-0.5156,2.5-0.8496
				c0.5-0.1328,1-0.2002,1.5-0.2002c1.5,0,3.4004,0.7998,5.7002,2.4004c0.9663,0.667,1.4502,1.417,1.4502,2.25
				s-0.4502,1.5674-1.3501,2.2002s-1.9502,0.9492-3.1499,0.9492c-0.834,0-1.6338-0.166-2.4004-0.5
				c-0.0996-0.0664-0.2168-0.1572-0.3496-0.2744c-0.1338-0.1162-0.2676-0.208-0.4004-0.2754
				c-0.1333-0.0664-0.3999-0.1826-0.7998-0.3496c-1.6338-0.7334-3.25-1.1006-4.8501-1.1006c-0.3999,0-0.7837,0.0176-1.1499,0.0508
				c-2.7334,0.3672-4.5171,0.6172-5.3501,0.75c-1.8999,0.333-3.6333,0.75-5.1997,1.25c-1.3672,0.5332-2.75,1.0664-4.1504,1.5996
				c-1.7998,0.7002-3.1836,1.083-4.1499,1.1504c-0.9336,0.0664-1.6499,0.0498-2.1499-0.0508
				c-1.1001-0.2334-1.9502-0.792-2.5498-1.6748C0.1366,44.8916-0.0973,43.8828,0.0365,42.75z M17.6366,16.7993
				c-0.8999-0.3662-1.75-0.8164-2.5503-1.3501c-0.5996-0.3662-1.2334-0.8662-1.8999-1.5c-0.8999-0.8999-1.3501-1.6328-1.3501-2.1997
				c0-0.2002,0.0664-0.3828,0.2002-0.5503c0.1328-0.166,0.3999-0.2998,0.7998-0.3999c2.1001-0.7329,5.2666-1.7163,9.5-2.9497
				c0.5-0.1328,1.2168-0.2666,2.1504-0.4004c1.2998-0.0327,2.4497,0.1836,3.4497,0.6504c0.6328,0.2998,1.2666,0.8169,1.8999,1.5498
				c0.7666,0.8335,1.1504,1.5835,1.1504,2.25c0,0.4336-0.1504,0.7998-0.4502,1.1001c-0.1338,0.1333-0.4336,0.2998-0.8999,0.5
				c-0.3003,0.1333-0.7422,0.3335-1.3252,0.6001c-0.5835,0.2671-1.0249,0.4668-1.3247,0.5996
				c-2.4004,1.0337-5.6675,2.334-9.8003,3.9004c-0.0669,0.0332-0.542,0.2168-1.4248,0.5498c-0.8838,0.3335-1.3589,0.5-1.4253,0.5
				c-0.0332-0.0327-0.0669-0.0498-0.0996-0.0498c0.0327-0.0664,0.1499-0.1831,0.3496-0.3501
				c0.1001-0.0664,0.2168-0.1416,0.3501-0.2251c0.1328-0.083,0.2578-0.1748,0.375-0.2749c0.1167-0.1001,0.3501-0.2749,0.7002-0.5249
				c0.3501-0.25,0.5825-0.4165,0.6997-0.5c0.1167-0.083,0.2417-0.1665,0.375-0.25c0.1328-0.083,0.25-0.1665,0.3501-0.25
				c0.1001-0.083,0.2002-0.1914,0.3003-0.3252C17.8031,16.833,17.7694,16.7993,17.6366,16.7993z M16.3866,30.5
				c0.6665-0.333,1.9829-0.833,3.9497-1.5c0.5332-0.2002,1.3164-0.4834,2.3501-0.8506c0.1665-0.0664,0.3667-0.0996,0.6001-0.0996
				c1.1665,0,2.4829,0.3496,3.9502,1.0498c1.6328,0.7676,2.4497,1.584,2.4497,2.4502c0,0.3672-0.1836,0.7334-0.5498,1.0996
				c-0.6001,0.5674-1.5835,1.0674-2.9502,1.5c-0.1997,0.0342-0.5171,0.1338-0.9497,0.2998c-0.5674,0.334-1.334,0.8008-2.3003,1.4004
				c-2.5337,1.3672-4.8501,2.0498-6.9497,2.0498c3.5664-2.0322,5.416-3.4658,5.5498-4.2998
				c-0.667,0.0332-2.6172,0.7334-5.8501,2.0996c-0.667,0.2344-1.0669,0.3506-1.1997,0.3506
				c-1.1675-0.1328-1.9175-1.4326-2.25-3.9004c0.7661-3.0996,1.6499-5.2998,2.6499-6.5996
				c-0.4336-0.4004-0.8672-0.8081-1.3003-1.2256c-0.4336-0.416-0.6499-0.8911-0.6499-1.4248c0.833,0.1001,2.7002-0.3999,5.6001-1.5
				c2.1328-0.7998,4.0498-1.6001,5.75-2.3999c3.5327,0.5337,5.2998,1.2998,5.2998,2.2998c0,0.6338-0.5996,1.3672-1.7998,2.2002
				c-0.5,0.3335-1.5337,0.6499-3.1001,0.9497c-1.1001,0.2339-2.2173,0.4502-3.3501,0.6504
				c-0.8335,0.167-1.3833,0.3174-1.6499,0.4502C18.3866,26.2168,17.2865,27.8672,16.3866,30.5z"/>
			<path class="st6" d="M63.0165,24.9492L60.9169,26.75c-1.9004,1.7334-3.2505,2.5996-4.0503,2.5996
				c-0.167,0-0.3335-0.0332-0.5-0.0996c-0.6001,1.833-1.8501,3.4834-3.75,4.9492c-1.9673,1.5674-3.9336,2.3506-5.8999,2.3506
				c-1.0337,0-1.9673-0.2334-2.8003-0.7002c-0.7998-0.6328-1.1997-1-1.1997-1.0996c0-0.1328,0.1665-0.2002,0.5-0.2002
				c0.1328,0,0.2998,0.0166,0.5,0.0498c0.1997,0.0332,0.3662,0.0498,0.5,0.0498c2,0.0342,3.8999-1.1328,5.6997-3.5
				c1.6665-2.2998,2.4004-4.4658,2.2002-6.5c-0.1001-0.1001-0.6172-0.3501-1.5498-0.75c-2.0674-0.9663-3.25-2.333-3.5503-4.1001
				c0.7329,0,1.8667-0.3828,3.3999-1.1499c1.5332-0.7666,2.9331-1.1162,4.2002-1.0498c3,0.167,4.5659,1.1172,4.7007,2.8496
				c0.0312,0.2676,0.0156,0.6001-0.0508,1c-0.0664,0.5-0.0996,0.8501-0.0996,1.0503c0.666-0.4663,1.5664-1.0664,2.6992-1.8003
				c0.3672-1.7998,0.5508-3.25,0.5508-4.3496c0-0.9331-0.1172-1.7168-0.3496-2.3501c0-1.6001,0.5996-2.3501,1.7988-2.25
				c0.9668,0.0669,1.8086,0.3672,2.5254,0.8999c0.7168,0.5337,1.1074,1.2334,1.1758,2.1001c-0.0352-0.2666-0.1016,0.3999-0.2012,2
				c-0.0332,0.3335,0,1.7173,0.0996,4.1499c0.0332,2.1001-0.0078,4.4248-0.125,6.9756c-0.1172,2.5498-0.7734,3.8242-1.9746,3.8242
				c-0.5664,0-1.0996-0.2656-1.5996-0.7998c-0.5-0.5322-0.75-1.083-0.75-1.6494V24.9492z M68.3661,49.5
				c0.8003-0.8008,1.2007-1.6836,1.2007-2.6504v-40c0-0.7002-0.5-1.4165-1.4995-2.1504c-0.7676-0.5-1.5508-1.0161-2.3516-1.5498
				c0.0332-0.7329,0.9004-1.1001,2.6016-1.1001c0.7983,0,1.7651,0.0835,2.8979,0.25c3.834,0.7002,5.7168,2.1338,5.6504,4.3003
				c0,0.0332-0.0488,0.6997-0.1504,2l-0.2988,5.0996c-0.3008,6.4673-0.5332,15.1338-0.7012,26l-0.0488,3.6006v1.3496
				c0,0.2676-0.1348,0.75-0.4004,1.4502c-0.5332,0.9004-1.5254,1.6826-2.9746,2.3496C70.8402,49.1162,69.5316,49.4658,68.3661,49.5z
				"/>
			<path class="st6" d="M113.3109,6.4492l-0.8496,39c-0.0342,1.2334-0.4336,2.1504-1.2002,2.75
				c-0.5,0.3672-1.4678,0.7168-2.9004,1.0508c-0.667,0.166-1.6836,0.416-3.0498,0.75c0.5996-0.6006,0.9004-1.5342,0.9004-2.8008
				V22.7495c-0.9004,0.4673-1.8174,0.9336-2.75,1.3999c-1.168,0.7671-1.6504,1.5342-1.4502,2.2998
				c-0.5342,1.0342-2.5498,2.793-6.0498,5.2754c-3.5,2.4834-5.7842,3.7246-6.8506,3.7246c-1,0-1.8496-0.4492-2.5498-1.3496
				s-1.0498-1.8662-1.0498-2.9004c0-0.5,0.25-1.166,0.75-2c0.3662-0.6328,0.7324-1.2656,1.0996-1.8994
				c0.0664-0.1328,0.1416-0.3506,0.2256-0.6504c0.082-0.2998,0.1406-0.5,0.1748-0.5996c1.0996-3.3003,2-5.3506,2.7002-6.1504
				c-0.834-0.2666-1.8008-0.9502-2.9004-2.0498c-1.2002-1.1665-1.7832-2.1328-1.75-2.9004c1.2002-0.0664,2.833-0.5996,4.9004-1.5996
				c1.9326-0.9004,3.5322-1.3164,4.7998-1.25c1.1328,0.0669,2.2158,0.4668,3.25,1.1997c1.166,0.8672,1.75,1.8335,1.75,2.8999
				c0,1.0674-0.4336,1.8672-1.2998,2.4004c-0.5,0.2998-1.418,0.6084-2.75,0.9248c-1.334,0.3174-2.2344,0.625-2.7002,0.9248
				c-0.667,0.4336-1.3926,1.5586-2.1748,3.375c-0.7842,1.8174-1.1758,3.3252-1.1758,4.5254c0,0.5674,0.1006,0.9834,0.3008,1.25
				c4.1992-1.5,6.7656-3.0498,7.6992-4.6504c-0.2334-0.2661-0.4834-0.5576-0.75-0.875c-0.2666-0.3164-0.3994-0.6074-0.3994-0.875
				c0-0.0996,0.0166-0.1997,0.0498-0.2998c0.0996-1,3.0664-3.1328,8.9004-6.3999V7.0996c-0.0342-0.8003-0.7344-1.6504-2.1006-2.5503
				c-1.3672-0.8999-2.0332-1.5-2-1.7998c0.1006-0.833,1-1.25,2.7002-1.25c2.0664,0,4.083,0.4834,6.0498,1.4497
				C112.9936,4.0166,113.8109,5.1831,113.3109,6.4492z"/>
		</g>
		<polygon class="st7" points="125.8046,1.4998 119.146,8.1664 119.146,21.5002 132.4874,21.5002 139.146,14.8331 139.146,1.4998 		
			"/>
		<g>
			<path class="st8" d="M119.3496,28.5537c0.29-0.2373,0.6846-0.8037,0.6846-1.5371v-0.8008h-0.6504v-0.2021h1.5029v0.2021h-0.6426
				v0.8008c0,0.7334,0.3975,1.2998,0.6846,1.5371v0.2725c-0.3213-0.21-0.71-0.7021-0.79-1.2539
				c-0.0801,0.5518-0.4678,1.0439-0.7891,1.2539V28.5537z M120.7363,27.3271v-0.2061h0.6992v-1.293h0.209v3.1699h-0.209v-1.6709
				H120.7363z M122.1514,28.998v-3.1699h0.21v3.1699H122.1514z"/>
			<path class="st8" d="M124.2012,26.4434c0-0.3037-0.2021-0.5029-0.5732-0.5029c-0.3809,0-0.5723,0.1992-0.5723,0.5029v0.21
				h-0.1992v-0.21c0-0.4268,0.293-0.6748,0.7715-0.6748c0.4648,0,0.7725,0.248,0.7725,0.6748v0.1855
				c0,0.3662-0.2129,0.5303-0.7021,0.9854c-0.458,0.4258-0.6709,0.6006-0.6709,0.873v0.3145h1.4014v0.1748h-1.5967v-0.4893
				c0-0.3213,0.209-0.5342,0.7227-0.999c0.4863-0.4375,0.6465-0.5732,0.6465-0.8594V26.4434z"/>
			<path class="st8" d="M124.8477,26.4434c0-0.4268,0.3389-0.6748,0.7861-0.6748s0.7861,0.248,0.7861,0.6748v1.9287
				c0,0.4268-0.3389,0.6748-0.7861,0.6748s-0.7861-0.248-0.7861-0.6748V26.4434z M125.0469,28.3721
				c0,0.3037,0.2344,0.5029,0.5869,0.5029c0.3535,0,0.5869-0.1992,0.5869-0.5029v-1.9287c0-0.3037-0.2334-0.5029-0.5869-0.5029
				c-0.3525,0-0.5869,0.1992-0.5869,0.5029V28.3721z"/>
			<path class="st8" d="M127,28.8398v-2.8545h1.3525v0.2031H127.21v2.4248l1.2471-0.1328v0.2061L127,28.8398z M128.7646,28.998
				v-3.1699h0.21v1.3662h0.709v-1.3662h0.21v3.1699h-0.21v-1.5977h-0.709v1.5977H128.7646z"/>
			<path class="st8" d="M131.5498,28.8398v-2.8545h1.3525v0.2031h-1.1426v2.4248l1.2471-0.1328v0.2061L131.5498,28.8398z
				 M133.3145,28.998v-3.1699h0.21v1.3662h0.709v-1.3662h0.21v3.1699h-0.21v-1.5977h-0.709v1.5977H133.3145z"/>
			<path class="st8" d="M136.5801,27.5332h1.4746v0.2031h-3.1582v-0.2031h1.4746v-0.3945h-1.2266v-0.8145h2.6445v0.2031h-2.4355
				v0.4082h2.4883v0.2031h-1.2617V27.5332z M137.332,28.0264c0.3457,0,0.5273,0.2344,0.5273,0.4854
				c0,0.2588-0.1816,0.4893-0.5273,0.4893h-1.7129c-0.3418,0-0.5273-0.2305-0.5273-0.4893c0-0.251,0.1855-0.4854,0.5273-0.4854
				H137.332z M137.8066,25.8838v0.2031h-2.6621v-0.2031H137.8066z M137.3037,28.7988c0.2031,0,0.3457-0.123,0.3457-0.2871
				s-0.1426-0.2793-0.3457-0.2793h-1.6602c-0.1982,0-0.3418,0.1152-0.3418,0.2793s0.1436,0.2871,0.3418,0.2871H137.3037z"/>
			<path class="st8" d="M138.5498,27.5234v-0.916h1.2686l0.0664-0.4961h-1.335v-0.2061h1.5693l-0.1084,0.9053h-1.251v0.5059h1.751
				v0.207H138.5498z M139.3086,27.8516h1.4922c0.377,0,0.6738,0.2305,0.6738,0.5801s-0.2969,0.583-0.6738,0.583h-1.4922
				c-0.3779,0-0.6748-0.2334-0.6748-0.583S138.9307,27.8516,139.3086,27.8516z M140.79,28.8125
				c0.2656,0,0.4746-0.1504,0.4746-0.3809c0-0.2275-0.209-0.3779-0.4746-0.3779h-1.4717c-0.2656,0-0.4746,0.1504-0.4746,0.3779
				c0,0.2305,0.209,0.3809,0.4746,0.3809H140.79z M140.3672,26.9854v-0.207h0.8311v-0.3984h-0.8311v-0.2021h0.8311v-0.3496h0.21
				v1.8906h-0.21v-0.7334H140.3672z"/>
			<path class="st8" d="M141.959,27.4707c0.3916-0.1396,0.874-0.5244,0.874-1.0273v-0.5732h0.209v0.5732
				c0,0.5029,0.4824,0.8877,0.874,1.0273v0.2236c-0.4092-0.1328-0.8877-0.4824-0.9785-0.8877
				c-0.0869,0.4053-0.5732,0.7549-0.9785,0.8877V27.4707z M142.2529,28.998v-1.0176h0.209v0.8145h2.4844v0.2031H142.2529z
				 M143.7588,26.7646v-0.2021h0.9121v-0.7344h0.209v2.3486h-0.209v-1.4121H143.7588z"/>
			<path class="st8" d="M148.167,25.8281h0.21v3.1699h-0.21v-1.5869h-1.0898c-0.2588,0.8242-0.8105,1.2998-1.5898,1.4639v-0.2168
				c0.999-0.2402,1.5547-1.0195,1.5479-2.4697h-1.5303v-0.2031h1.7402v0.1787c0,0.3906-0.0391,0.7402-0.1123,1.0449h1.0342V25.8281z
				"/>
			<path class="st8" d="M127.002,38.0488h-1.9287v-1.6289h-1.3896l-0.3398,1.6289h-1.4287v0.5996h6.626v1.46h-8.6445v-2.9385h1.6484
				l0.1602-0.75h-2.1592v-1.5586h9.1953v1.5586h-1.7393V38.0488z M121.4756,34.4512c-0.9297,0-1.6797-0.8291-1.6797-1.8389
				c0-1.0195,0.75-1.8486,1.6797-1.8486h5.3271c0.9189,0,1.6885,0.8291,1.6885,1.8486c0,1.0098-0.7695,1.8389-1.6885,1.8389
				H121.4756z M122.0752,32.3027c-0.1504,0-0.25,0.1592-0.25,0.3096c0,0.1602,0.0996,0.2998,0.25,0.2998h4.1172
				c0.1504,0,0.25-0.1396,0.25-0.2998c0-0.1504-0.0996-0.3096-0.25-0.3096H122.0752z"/>
			<path class="st8" d="M129.6465,34.3008c1.1191-0.2695,1.8184-0.7891,1.8184-2.3887V30.873h2.1494v1.0391
				c0,1.5996,0.6992,2.1191,1.8184,2.3887v1.8496c-1.2686-0.1904-2.2285-0.7197-2.8984-1.5098
				c-0.6494,0.79-1.6191,1.3193-2.8877,1.5098V34.3008z M130.0762,38.2793v-1.6494h8.5654v3.5781h-2.2988v-1.9287H130.0762z
				 M134.6133,33.8516v-1.6992h1.8193v-1.3291h2.209v5.5664h-2.209v-2.5381H134.6133z"/>
			<path class="st8" d="M139.7461,33.502v-0.4404c0-1.4688,1.1992-2.2383,2.6689-2.2383c0.8389,0,1.5889,0.25,2.0781,0.7393h1.9492
				v-0.7393h2.1992v5.0273h-2.1992v-0.7402h-2.0791c-0.4893,0.4102-1.1787,0.6104-1.9482,0.6104
				C140.9453,35.7207,139.7461,34.9707,139.7461,33.502z M142.3643,38.9482h6.4268v1.1602h-8.625v-2.5586h6.2764V37.21h-6.2764
				v-1.1094h8.4756v2.4883h-6.2773V38.9482z M141.7549,33.7012c0,0.3906,0.29,0.6299,0.6797,0.6299s0.6895-0.2393,0.6895-0.6299
				v-0.8496c0-0.3896-0.2998-0.6396-0.6895-0.6396s-0.6797,0.25-0.6797,0.6396V33.7012z M146.4424,33.6514v-0.6299h-1.3594v0.04
				v0.4404v0.1494H146.4424z"/>
			<path class="st8" d="M119.6982,46.3203v-4.8984h2.3203v0.3477h-1.9609v4.1611l2.1416-0.2275v0.3535L119.6982,46.3203z
				 M122.7266,46.5908v-5.4395h0.3594v2.3447h1.2178v-2.3447h0.3594v5.4395h-0.3594v-2.7402h-1.2178v2.7402H122.7266z"/>
			<path class="st8" d="M128.3252,44.0781h2.5303v0.3477h-5.4209v-0.3477h2.5303v-0.6777h-2.1045v-1.3975h4.5391v0.3477h-4.1797
				v0.7021h4.2695v0.3477h-2.1641V44.0781z M129.6143,44.9238c0.5938,0,0.9053,0.4014,0.9053,0.833
				c0,0.4443-0.3115,0.8398-0.9053,0.8398h-2.9385c-0.5879,0-0.9053-0.3955-0.9053-0.8398c0-0.4316,0.3174-0.833,0.9053-0.833
				H129.6143z M130.4297,41.248v0.3477h-4.5693V41.248H130.4297z M129.5664,46.249c0.3477,0,0.5938-0.21,0.5938-0.4922
				c0-0.2812-0.2461-0.4795-0.5938-0.4795h-2.8486c-0.3418,0-0.5879,0.1982-0.5879,0.4795c0,0.2822,0.2461,0.4922,0.5879,0.4922
				H129.5664z"/>
			<path class="st8" d="M131.6982,44.0596v-1.5703h2.1768l0.1143-0.8516h-2.291v-0.3545h2.6924l-0.1855,1.5537h-2.1475v0.8691
				h3.0049v0.3535H131.6982z M132.999,44.624h2.5615c0.6475,0,1.1572,0.3955,1.1572,0.9951s-0.5098,1.002-1.1572,1.002h-2.5615
				c-0.6475,0-1.1572-0.4023-1.1572-1.002S132.3516,44.624,132.999,44.624z M135.542,46.2725c0.4561,0,0.8154-0.2578,0.8154-0.6533
				c0-0.3896-0.3594-0.6475-0.8154-0.6475h-2.5244c-0.4561,0-0.8154,0.2578-0.8154,0.6475c0,0.3955,0.3594,0.6533,0.8154,0.6533
				H135.542z M134.8164,43.1367v-0.3535h1.4277v-0.6846h-1.4277V41.751h1.4277v-0.5996h0.3594v3.2441h-0.3594v-1.2588H134.8164z"/>
			<path class="st8" d="M137.7461,43.9639v-2.6807h2.6865v0.3545h-2.3271v1.9424l2.7529-0.21v0.3545L137.7461,43.9639z
				 M139.0654,44.5156h2.2188c0.6533,0,1.1689,0.4199,1.1689,1.0498s-0.5156,1.0557-1.1689,1.0557h-2.2188
				c-0.6533,0-1.1689-0.4258-1.1689-1.0557S138.4121,44.5156,139.0654,44.5156z M141.2666,46.2725
				c0.4609,0,0.8271-0.2754,0.8271-0.707c0-0.4258-0.3662-0.7021-0.8271-0.7021h-2.1836c-0.4609,0-0.8271,0.2764-0.8271,0.7021
				c0,0.4316,0.3662,0.707,0.8271,0.707H141.2666z M141.9199,44.3359v-3.1846h0.3594v1.2354h0.9121v0.3545h-0.9121v1.5947H141.9199z
				"/>
			<path class="st8" d="M143.542,43.9697c0.6719-0.2393,1.499-0.8994,1.499-1.7627v-0.9834h0.3604v0.9834
				c0,0.8633,0.8271,1.5234,1.499,1.7627v0.3838c-0.7012-0.2275-1.5234-0.8271-1.6787-1.5225
				c-0.1504,0.6953-0.9834,1.2949-1.6797,1.5225V43.9697z M144.0459,46.5908v-1.7451h0.3604v1.3975h4.2637v0.3477H144.0459z
				 M146.6309,42.7588v-0.3477h1.5645v-1.2598h0.3604v4.0303h-0.3604v-2.4229H146.6309z"/>
		</g>
	</g>
	<g>
		
			<linearGradient id="SVGID_00000017517713447568937500000017056792817562539446_" gradientUnits="userSpaceOnUse" x1="74.3955" y1="-1" x2="74.3955" y2="50">
			<stop  offset="0" style="stop-color:#000000;stop-opacity:0"/>
			<stop  offset="1" style="stop-color:#000000;stop-opacity:0.2"/>
		</linearGradient>
		<path style="display:none;fill:url(#SVGID_00000017517713447568937500000017056792817562539446_);" d="M119.292,9.7212
			c0.0339-2.8792,1.2083-5.2336,3.2734-7.1764c1.4875-1.3995,3.2695-2.1895,5.286-2.4525c2.6195-0.3418,5.0083,0.2653,7.1309,1.8335
			c2.1705,1.6036,3.4639,3.7495,3.8838,6.4266c0.4219,2.6901-0.1488,5.133-1.7568,7.3292
			c-1.6031,2.1895-3.7281,3.5372-6.4266,3.9414c-0.4445,0.0666-0.896,0.0871-1.3406,0.1535
			c-0.176,0.0263-0.3583,0.0933-0.5102,0.1865c-1.5476,0.9502-3.0892,1.9102-4.634,2.8649c-0.11,0.068-0.2329,0.1152-0.3499,0.1721
			c-0.0215-0.136-0.0569-0.2714-0.0624-0.408c-0.056-1.3917-0.114-2.7834-0.1543-4.1756c-0.0089-0.3075-0.1686-0.4819-0.39-0.6474
			c-0.9004-0.6729-1.6732-1.4709-2.2973-2.4066c-0.8613-1.2912-1.3688-2.7136-1.5358-4.2558
			C119.3583,10.646,119.3301,10.183,119.292,9.7212z"/>
		<g class="st1">
			<defs>
				<path id="SVGID_00000101064014248624310710000016449868298202725558_" d="M119.292,9.7212
					c0.0339-2.8792,1.2083-5.2336,3.2734-7.1764c1.4875-1.3995,3.2695-2.1895,5.286-2.4525
					c2.6195-0.3418,5.0083,0.2653,7.1309,1.8335c2.1705,1.6036,3.4639,3.7495,3.8838,6.4266
					c0.4219,2.6901-0.1488,5.133-1.7568,7.3292c-1.6031,2.1895-3.7281,3.5372-6.4266,3.9414
					c-0.4445,0.0666-0.896,0.0871-1.3406,0.1535c-0.176,0.0263-0.3583,0.0933-0.5102,0.1865
					c-1.5476,0.9502-3.0892,1.9102-4.634,2.8649c-0.11,0.068-0.2329,0.1152-0.3499,0.1721c-0.0215-0.136-0.0569-0.2714-0.0624-0.408
					c-0.056-1.3917-0.114-2.7834-0.1543-4.1756c-0.0089-0.3075-0.1686-0.4819-0.39-0.6474
					c-0.9004-0.6729-1.6732-1.4709-2.2973-2.4066c-0.8613-1.2912-1.3688-2.7136-1.5358-4.2558
					C119.3583,10.646,119.3301,10.183,119.292,9.7212z"/>
			</defs>
			<clipPath id="SVGID_00000173861424549293802280000007467665987244281268_" class="st2">
				<use xlink:href="#SVGID_00000101064014248624310710000016449868298202725558_"  style="overflow:visible;"/>
			</clipPath>
			<g style="display:inline;clip-path:url(#SVGID_00000173861424549293802280000007467665987244281268_);">
				
					<linearGradient id="SVGID_00000096020625177153333090000008180513335277841792_" gradientUnits="userSpaceOnUse" x1="74.3955" y1="-1" x2="74.3955" y2="50">
					<stop  offset="0" style="stop-color:#000000;stop-opacity:0"/>
					<stop  offset="1" style="stop-color:#000000;stop-opacity:0.2"/>
				</linearGradient>
				
					<rect x="111.146" y="-1" style="fill:url(#SVGID_00000096020625177153333090000008180513335277841792_);" width="36" height="24"/>
				
					<linearGradient id="SVGID_00000180332321883487322560000016776925575473846912_" gradientUnits="userSpaceOnUse" x1="74.3955" y1="-1" x2="74.3955" y2="50">
					<stop  offset="0" style="stop-color:#000000;stop-opacity:0"/>
					<stop  offset="1" style="stop-color:#000000;stop-opacity:0.2"/>
				</linearGradient>
				
					<rect x="111.146" y="11" style="fill:url(#SVGID_00000180332321883487322560000016776925575473846912_);" width="36" height="12"/>
			</g>
		</g>
		<g class="st1">
			
				<linearGradient id="SVGID_00000013884985210434363930000000464509056128295827_" gradientUnits="userSpaceOnUse" x1="74.3955" y1="-1" x2="74.3955" y2="50">
				<stop  offset="0" style="stop-color:#000000;stop-opacity:0"/>
				<stop  offset="1" style="stop-color:#000000;stop-opacity:0.2"/>
			</linearGradient>
			<path style="display:inline;fill:url(#SVGID_00000013884985210434363930000000464509056128295827_);" d="M117.8032,34.8105
				l0.7549-3.5547h0.7188l0.6484,2.7275h0.0215l1.8623-2.7275h0.7314l-0.7559,3.5547h-0.6016l0.5303-2.4951h-0.0303l-1.668,2.3926
				h-0.4209l-0.6289-2.3926h-0.0303l-0.5303,2.4951H117.8032z"/>
			
				<linearGradient id="SVGID_00000088109634621522727610000004567015325337138093_" gradientUnits="userSpaceOnUse" x1="74.3955" y1="-1" x2="74.3955" y2="50">
				<stop  offset="0" style="stop-color:#000000;stop-opacity:0"/>
				<stop  offset="1" style="stop-color:#000000;stop-opacity:0.2"/>
			</linearGradient>
			<path style="display:inline;fill:url(#SVGID_00000088109634621522727610000004567015325337138093_);" d="M126.1089,32.7568
				c0,1.1855-0.7871,2.1152-1.8223,2.1152c-0.9092,0-1.4902-0.6191-1.4902-1.5625c0-1.1855,0.7861-2.1152,1.8223-2.1152
				C125.5269,31.1943,126.1089,31.8135,126.1089,32.7568z M125.5073,32.7734c0-0.6396-0.3457-1.0557-0.8887-1.0557
				c-0.708,0-1.2207,0.6797-1.2207,1.5752c0,0.6396,0.3457,1.0557,0.8887,1.0557
				C124.9937,34.3486,125.5073,33.6689,125.5073,32.7734z"/>
			
				<linearGradient id="SVGID_00000082339152065650659610000000727173988399340452_" gradientUnits="userSpaceOnUse" x1="74.3955" y1="-1" x2="74.3955" y2="50">
				<stop  offset="0" style="stop-color:#000000;stop-opacity:0"/>
				<stop  offset="1" style="stop-color:#000000;stop-opacity:0.2"/>
			</linearGradient>
			<path style="display:inline;fill:url(#SVGID_00000082339152065650659610000000727173988399340452_);" d="M126.1538,34.8408
				c-0.0859,0-0.1846-0.0166-0.2363-0.0371l0.1172-0.54c0.0439,0.0166,0.1094,0.0273,0.1699,0.0273
				c0.3145,0,0.5469-0.3252,0.7559-1.0596c0.0234-0.0752,0.5566-1.9551,0.5605-1.9756h2.3311l-0.7549,3.5547h-0.6016l0.6523-3.0625
				h-1.1963c-0.0068,0.0273-0.417,1.46-0.4307,1.4971C127.1724,34.4551,126.8442,34.8408,126.1538,34.8408z"/>
			
				<linearGradient id="SVGID_00000016754907127278929530000008064130133724844969_" gradientUnits="userSpaceOnUse" x1="74.3955" y1="-1" x2="74.3955" y2="50">
				<stop  offset="0" style="stop-color:#000000;stop-opacity:0"/>
				<stop  offset="1" style="stop-color:#000000;stop-opacity:0.2"/>
			</linearGradient>
			<path style="display:inline;fill:url(#SVGID_00000016754907127278929530000008064130133724844969_);" d="M129.9165,34.8105
				l0.7549-3.5547h0.6016l-0.5605,2.6279h0.0312l2.3311-2.6279h0.6016l-0.7549,3.5547h-0.6016l0.5605-2.6357h-0.0312l-2.3281,2.6357
				H129.9165z"/>
			
				<linearGradient id="SVGID_00000038405639195582624910000000361221437052288902_" gradientUnits="userSpaceOnUse" x1="74.3955" y1="-1" x2="74.3955" y2="50">
				<stop  offset="0" style="stop-color:#000000;stop-opacity:0"/>
				<stop  offset="1" style="stop-color:#000000;stop-opacity:0.2"/>
			</linearGradient>
			<path style="display:inline;fill:url(#SVGID_00000038405639195582624910000000361221437052288902_);" d="M137.1694,32.4316
				v0.0244h-0.5771c-0.0166-0.4004-0.3174-0.7383-0.8447-0.7383c-0.707,0-1.2061,0.6523-1.2061,1.5781
				c0,0.6562,0.3418,1.0527,0.8613,1.0527c0.4648,0,0.8096-0.2627,0.96-0.666h0.585c-0.1709,0.6738-0.8037,1.1895-1.5518,1.1895
				c-0.9609,0-1.4629-0.6494-1.4629-1.5547c0-1.1934,0.752-2.123,1.8223-2.123C136.6948,31.1943,137.1694,31.7959,137.1694,32.4316z
				"/>
			
				<linearGradient id="SVGID_00000148659005776363437680000011011379116900952491_" gradientUnits="userSpaceOnUse" x1="74.3955" y1="-1" x2="74.3955" y2="50">
				<stop  offset="0" style="stop-color:#000000;stop-opacity:0"/>
				<stop  offset="1" style="stop-color:#000000;stop-opacity:0.2"/>
			</linearGradient>
			<path style="display:inline;fill:url(#SVGID_00000148659005776363437680000011011379116900952491_);" d="M138.0347,31.2559
				h0.6016l-0.2402,1.1318h0.6465c0.7012,0,1.1143,0.4131,1.1143,0.9629c0,0.8516-0.6455,1.46-1.6338,1.46h-1.2441L138.0347,31.2559
				z M138.2944,32.876l-0.3086,1.4424h0.6426c0.5684,0,0.9268-0.4102,0.9268-0.8955c0-0.335-0.2324-0.5469-0.6182-0.5469H138.2944z"
				/>
			
				<linearGradient id="SVGID_00000034769992096642040540000004865825613141192124_" gradientUnits="userSpaceOnUse" x1="74.3955" y1="-1" x2="74.3955" y2="50">
				<stop  offset="0" style="stop-color:#000000;stop-opacity:0"/>
				<stop  offset="1" style="stop-color:#000000;stop-opacity:0.2"/>
			</linearGradient>
			<path style="display:inline;fill:url(#SVGID_00000034769992096642040540000004865825613141192124_);" d="M127.105,41.8721
				c-0.7793,0-1.3086-0.4961-1.3086-1.166h0.584c0,0.3525,0.3281,0.6465,0.7734,0.6465c0.4883,0,0.8398-0.2832,0.8438-0.6494
				c0.0039-0.2979-0.2324-0.4678-0.6494-0.4678h-0.5127l0.1055-0.4824h0.5303c0.3857,0,0.6807-0.2256,0.6836-0.5264
				c0.0068-0.29-0.2529-0.5127-0.6592-0.5127c-0.4346,0-0.7598,0.2598-0.8447,0.6328h-0.5879
				c0.1475-0.708,0.7002-1.1523,1.4795-1.1523c0.7354,0,1.2344,0.4033,1.2275,0.9395c-0.0068,0.3936-0.3037,0.752-0.6865,0.8242
				l-0.0078,0.0205c0.3389,0.0986,0.5273,0.3623,0.5234,0.7314C128.5854,41.373,127.9604,41.8721,127.105,41.8721z"/>
			
				<linearGradient id="SVGID_00000153686181382830043490000017685762900190765706_" gradientUnits="userSpaceOnUse" x1="74.3955" y1="-1" x2="74.3955" y2="50">
				<stop  offset="0" style="stop-color:#000000;stop-opacity:0"/>
				<stop  offset="1" style="stop-color:#000000;stop-opacity:0.2"/>
			</linearGradient>
			<path style="display:inline;fill:url(#SVGID_00000153686181382830043490000017685762900190765706_);" d="M129.1147,40.8838
				c0-0.6973,0.54-1.0898,1.4492-1.1377l1.0625-0.0547l0.0488-0.2217c0.0137-0.0586,0.0137-0.1133,0.0137-0.1748
				c0-0.3555-0.25-0.5771-0.708-0.5771c-0.4814,0-0.7656,0.2354-0.8369,0.5742h-0.623c0.1064-0.6396,0.6807-1.0977,1.5078-1.0977
				c0.7588,0,1.2578,0.417,1.2578,1.0156c0,0.1123-0.0098,0.2188-0.0234,0.3008l-0.4893,2.2998h-0.5713l0.0928-0.4346h-0.0107
				c-0.2422,0.3047-0.6182,0.4961-1.0557,0.4961C129.6167,41.8721,129.1147,41.4658,129.1147,40.8838z M131.439,40.5635
				l0.0889-0.3965l-0.9707,0.0508c-0.5332,0.0273-0.8408,0.2461-0.8408,0.6055c0,0.3311,0.2734,0.543,0.6699,0.543
				C130.896,41.3662,131.3335,41.0381,131.439,40.5635z"/>
			
				<linearGradient id="SVGID_00000074424937045973591390000015989394025118154937_" gradientUnits="userSpaceOnUse" x1="74.3955" y1="-1" x2="74.3955" y2="50">
				<stop  offset="0" style="stop-color:#000000;stop-opacity:0"/>
				<stop  offset="1" style="stop-color:#000000;stop-opacity:0.2"/>
			</linearGradient>
			<path style="display:inline;fill:url(#SVGID_00000074424937045973591390000015989394025118154937_);" d="M117.6616,48.7998
				l0.1172-0.5527c0.0371,0.0098,0.1191,0.0273,0.2656,0.0273c0.377,0,0.6602-0.1504,0.9336-0.5166l-0.8574-3.8799h0.6455
				l0.6455,3.1758h0.0547l1.9629-3.1758h0.7002l-2.3486,3.6611c-0.5469,0.8506-0.998,1.3057-1.8555,1.3057
				C117.7886,48.8447,117.6968,48.8213,117.6616,48.7998z"/>
			
				<linearGradient id="SVGID_00000183239496072477867070000008356395300045934236_" gradientUnits="userSpaceOnUse" x1="74.3955" y1="-1" x2="74.3955" y2="50">
				<stop  offset="0" style="stop-color:#000000;stop-opacity:0"/>
				<stop  offset="1" style="stop-color:#000000;stop-opacity:0.2"/>
			</linearGradient>
			<path style="display:inline;fill:url(#SVGID_00000183239496072477867070000008356395300045934236_);" d="M122.4507,46.8281
				l1.7324-1.5723h0.7793l-1.9316,1.7119l1.2617,1.8428h-0.7344l-1.166-1.709h-0.0273l-0.3623,1.709h-0.6016l0.7549-3.5547h0.6016
				l-0.334,1.5723H122.4507z"/>
			
				<linearGradient id="SVGID_00000147902006123270264670000012124257839208933526_" gradientUnits="userSpaceOnUse" x1="74.3955" y1="-1" x2="74.3955" y2="50">
				<stop  offset="0" style="stop-color:#000000;stop-opacity:0"/>
				<stop  offset="1" style="stop-color:#000000;stop-opacity:0.2"/>
			</linearGradient>
			<path style="display:inline;fill:url(#SVGID_00000147902006123270264670000012124257839208933526_);" d="M124.4604,50
				l1.0078-4.7441h0.585l-0.123,0.5742h0.0107c0.2148-0.3691,0.6592-0.6357,1.1211-0.6357c0.8096,0,1.3125,0.6055,1.3125,1.5381
				c0,1.2305-0.7656,2.1396-1.7676,2.1396c-0.5537,0-1.0049-0.3281-1.1416-0.7725h-0.0166L125.0444,50H124.4604z M127.7896,46.7734
				c0-0.6631-0.3213-1.0557-0.8643-1.0557c-0.7734,0-1.2441,0.7686-1.2441,1.6299c0,0.585,0.3584,0.998,0.9121,0.998
				C127.2729,48.3457,127.7896,47.6895,127.7896,46.7734z"/>
			
				<linearGradient id="SVGID_00000177460410022539874840000005949683620422765967_" gradientUnits="userSpaceOnUse" x1="74.3955" y1="-1" x2="74.3955" y2="50">
				<stop  offset="0" style="stop-color:#000000;stop-opacity:0"/>
				<stop  offset="1" style="stop-color:#000000;stop-opacity:0.2"/>
			</linearGradient>
			<path style="display:inline;fill:url(#SVGID_00000177460410022539874840000005949683620422765967_);" d="M128.7085,47.8838
				c0-0.6973,0.54-1.0898,1.4492-1.1377l1.0625-0.0547l0.0488-0.2217c0.0137-0.0586,0.0137-0.1133,0.0137-0.1748
				c0-0.3555-0.25-0.5771-0.708-0.5771c-0.4814,0-0.7656,0.2354-0.8369,0.5742h-0.623c0.1064-0.6396,0.6807-1.0977,1.5078-1.0977
				c0.7588,0,1.2578,0.417,1.2578,1.0156c0,0.1123-0.0098,0.2188-0.0234,0.3008l-0.4893,2.2998h-0.5713l0.0928-0.4346h-0.0107
				c-0.2422,0.3047-0.6182,0.4961-1.0557,0.4961C129.2104,48.8721,128.7085,48.4658,128.7085,47.8838z M131.0327,47.5635
				l0.0889-0.3965l-0.9707,0.0508c-0.5332,0.0273-0.8408,0.2461-0.8408,0.6055c0,0.3311,0.2734,0.543,0.6699,0.543
				C130.4897,48.3662,130.9272,48.0381,131.0327,47.5635z"/>
			
				<linearGradient id="SVGID_00000046308266371230724710000005812920312993254077_" gradientUnits="userSpaceOnUse" x1="74.3955" y1="-1" x2="74.3955" y2="50">
				<stop  offset="0" style="stop-color:#000000;stop-opacity:0"/>
				<stop  offset="1" style="stop-color:#000000;stop-opacity:0.2"/>
			</linearGradient>
			<path style="display:inline;fill:url(#SVGID_00000046308266371230724710000005812920312993254077_);" d="M132.9604,45.2559
				h0.6016l-0.7559,3.5547h-0.6016L132.9604,45.2559z M132.8003,44.251c0-0.1875,0.1504-0.335,0.334-0.335
				c0.1885,0,0.3359,0.1475,0.3359,0.335c0,0.1846-0.1475,0.335-0.3359,0.335C132.9507,44.5859,132.8003,44.4355,132.8003,44.251z
				 M133.5581,44.251c0-0.1875,0.1504-0.335,0.3359-0.335c0.1875,0,0.334,0.1475,0.334,0.335c0,0.1846-0.1465,0.335-0.334,0.335
				C133.7085,44.5859,133.5581,44.4355,133.5581,44.251z"/>
			
				<linearGradient id="SVGID_00000123436336997864254000000000836321648872431790_" gradientUnits="userSpaceOnUse" x1="74.3955" y1="-1" x2="74.3955" y2="50">
				<stop  offset="0" style="stop-color:#000000;stop-opacity:0"/>
				<stop  offset="1" style="stop-color:#000000;stop-opacity:0.2"/>
			</linearGradient>
			<path style="display:inline;fill:url(#SVGID_00000123436336997864254000000000836321648872431790_);" d="M134.4194,45.2559
				h0.6055l-0.3105,1.4629h1.709l0.3105-1.4629h0.6055l-0.7559,3.5547h-0.6016l0.3379-1.5996h-1.709l-0.3418,1.5996h-0.6045
				L134.4194,45.2559z"/>
			
				<linearGradient id="SVGID_00000044873806515131641120000012476736863497575094_" gradientUnits="userSpaceOnUse" x1="74.3955" y1="-1" x2="74.3955" y2="50">
				<stop  offset="0" style="stop-color:#000000;stop-opacity:0"/>
				<stop  offset="1" style="stop-color:#000000;stop-opacity:0.2"/>
			</linearGradient>
			<path style="display:inline;fill:url(#SVGID_00000044873806515131641120000012476736863497575094_);" d="M137.4585,47.8838
				c0-0.6973,0.54-1.0898,1.4492-1.1377l1.0625-0.0547l0.0488-0.2217c0.0137-0.0586,0.0137-0.1133,0.0137-0.1748
				c0-0.3555-0.25-0.5771-0.708-0.5771c-0.4814,0-0.7656,0.2354-0.8369,0.5742h-0.623c0.1064-0.6396,0.6807-1.0977,1.5078-1.0977
				c0.7588,0,1.2578,0.417,1.2578,1.0156c0,0.1123-0.0098,0.2188-0.0234,0.3008l-0.4893,2.2998h-0.5713l0.0928-0.4346h-0.0107
				c-0.2422,0.3047-0.6182,0.4961-1.0557,0.4961C137.9604,48.8721,137.4585,48.4658,137.4585,47.8838z M139.7827,47.5635
				l0.0889-0.3965l-0.9707,0.0508c-0.5332,0.0273-0.8408,0.2461-0.8408,0.6055c0,0.3311,0.2734,0.543,0.6699,0.543
				C139.2397,48.3662,139.6772,48.0381,139.7827,47.5635z"/>
		</g>
		<g>
			
				<linearGradient id="SVGID_00000098910691348138877740000014325099585456975035_" gradientUnits="userSpaceOnUse" x1="74.3955" y1="-1" x2="74.3955" y2="50">
				<stop  offset="0" style="stop-color:#000000;stop-opacity:0"/>
				<stop  offset="1" style="stop-color:#000000;stop-opacity:0.2"/>
			</linearGradient>
			<path style="fill:url(#SVGID_00000098910691348138877740000014325099585456975035_);" d="M0.0365,42.75
				c1.2002,0.2334,2.4829,0.2998,3.8501,0.1992c0.0664,0,1.5664-0.3496,4.5-1.0498c6.7661-1.666,12.1162-2.7324,16.0498-3.2002
				c0.8999-0.0664,1.9502-0.1494,3.1499-0.25c0.5664-0.2324,1.4004-0.5156,2.5-0.8496c0.5-0.1328,1-0.2002,1.5-0.2002
				c1.5,0,3.4004,0.7998,5.7002,2.4004c0.9663,0.667,1.4502,1.417,1.4502,2.25s-0.4502,1.5674-1.3501,2.2002
				s-1.9502,0.9492-3.1499,0.9492c-0.834,0-1.6338-0.166-2.4004-0.5c-0.0996-0.0664-0.2168-0.1572-0.3496-0.2744
				c-0.1338-0.1162-0.2676-0.208-0.4004-0.2754c-0.1333-0.0664-0.3999-0.1826-0.7998-0.3496
				c-1.6338-0.7334-3.25-1.1006-4.8501-1.1006c-0.3999,0-0.7837,0.0176-1.1499,0.0508c-2.7334,0.3672-4.5171,0.6172-5.3501,0.75
				c-1.8999,0.333-3.6333,0.75-5.1997,1.25c-1.3672,0.5332-2.75,1.0664-4.1504,1.5996c-1.7998,0.7002-3.1836,1.083-4.1499,1.1504
				c-0.9336,0.0664-1.6499,0.0498-2.1499-0.0508c-1.1001-0.2334-1.9502-0.792-2.5498-1.6748
				C0.1366,44.8916-0.0973,43.8828,0.0365,42.75z M17.6366,16.7993c-0.8999-0.3662-1.75-0.8164-2.5503-1.3501
				c-0.5996-0.3662-1.2334-0.8662-1.8999-1.5c-0.8999-0.8999-1.3501-1.6328-1.3501-2.1997c0-0.2002,0.0664-0.3828,0.2002-0.5503
				c0.1328-0.166,0.3999-0.2998,0.7998-0.3999c2.1001-0.7329,5.2666-1.7163,9.5-2.9497c0.5-0.1328,1.2168-0.2666,2.1504-0.4004
				c1.2998-0.0327,2.4497,0.1836,3.4497,0.6504c0.6328,0.2998,1.2666,0.8169,1.8999,1.5498c0.7666,0.8335,1.1504,1.5835,1.1504,2.25
				c0,0.4336-0.1504,0.7998-0.4502,1.1001c-0.1338,0.1333-0.4336,0.2998-0.8999,0.5c-0.3003,0.1333-0.7422,0.3335-1.3252,0.6001
				c-0.5835,0.2671-1.0249,0.4668-1.3247,0.5996c-2.4004,1.0337-5.6675,2.334-9.8003,3.9004
				c-0.0669,0.0332-0.542,0.2168-1.4248,0.5498c-0.8838,0.3335-1.3589,0.5-1.4253,0.5c-0.0332-0.0327-0.0669-0.0498-0.0996-0.0498
				c0.0327-0.0664,0.1499-0.1831,0.3496-0.3501c0.1001-0.0664,0.2168-0.1416,0.3501-0.2251c0.1328-0.083,0.2578-0.1748,0.375-0.2749
				c0.1167-0.1001,0.3501-0.2749,0.7002-0.5249c0.3501-0.25,0.5825-0.4165,0.6997-0.5c0.1167-0.083,0.2417-0.1665,0.375-0.25
				c0.1328-0.083,0.25-0.1665,0.3501-0.25c0.1001-0.083,0.2002-0.1914,0.3003-0.3252
				C17.8031,16.833,17.7694,16.7993,17.6366,16.7993z M16.3866,30.5c0.6665-0.333,1.9829-0.833,3.9497-1.5
				c0.5332-0.2002,1.3164-0.4834,2.3501-0.8506c0.1665-0.0664,0.3667-0.0996,0.6001-0.0996c1.1665,0,2.4829,0.3496,3.9502,1.0498
				c1.6328,0.7676,2.4497,1.584,2.4497,2.4502c0,0.3672-0.1836,0.7334-0.5498,1.0996c-0.6001,0.5674-1.5835,1.0674-2.9502,1.5
				c-0.1997,0.0342-0.5171,0.1338-0.9497,0.2998c-0.5674,0.334-1.334,0.8008-2.3003,1.4004
				c-2.5337,1.3672-4.8501,2.0498-6.9497,2.0498c3.5664-2.0322,5.416-3.4658,5.5498-4.2998
				c-0.667,0.0332-2.6172,0.7334-5.8501,2.0996c-0.667,0.2344-1.0669,0.3506-1.1997,0.3506
				c-1.1675-0.1328-1.9175-1.4326-2.25-3.9004c0.7661-3.0996,1.6499-5.2998,2.6499-6.5996
				c-0.4336-0.4004-0.8672-0.8081-1.3003-1.2256c-0.4336-0.416-0.6499-0.8911-0.6499-1.4248c0.833,0.1001,2.7002-0.3999,5.6001-1.5
				c2.1328-0.7998,4.0498-1.6001,5.75-2.3999c3.5327,0.5337,5.2998,1.2998,5.2998,2.2998c0,0.6338-0.5996,1.3672-1.7998,2.2002
				c-0.5,0.3335-1.5337,0.6499-3.1001,0.9497c-1.1001,0.2339-2.2173,0.4502-3.3501,0.6504
				c-0.8335,0.167-1.3833,0.3174-1.6499,0.4502C18.3866,26.2168,17.2865,27.8672,16.3866,30.5z"/>
			
				<linearGradient id="SVGID_00000098908879747286449790000001950296742133603747_" gradientUnits="userSpaceOnUse" x1="74.3955" y1="-1" x2="74.3955" y2="50">
				<stop  offset="0" style="stop-color:#000000;stop-opacity:0"/>
				<stop  offset="1" style="stop-color:#000000;stop-opacity:0.2"/>
			</linearGradient>
			<path style="fill:url(#SVGID_00000098908879747286449790000001950296742133603747_);" d="M63.0165,24.9492L60.9169,26.75
				c-1.9004,1.7334-3.2505,2.5996-4.0503,2.5996c-0.167,0-0.3335-0.0332-0.5-0.0996c-0.6001,1.833-1.8501,3.4834-3.75,4.9492
				c-1.9673,1.5674-3.9336,2.3506-5.8999,2.3506c-1.0337,0-1.9673-0.2334-2.8003-0.7002c-0.7998-0.6328-1.1997-1-1.1997-1.0996
				c0-0.1328,0.1665-0.2002,0.5-0.2002c0.1328,0,0.2998,0.0166,0.5,0.0498c0.1997,0.0332,0.3662,0.0498,0.5,0.0498
				c2,0.0342,3.8999-1.1328,5.6997-3.5c1.6665-2.2998,2.4004-4.4658,2.2002-6.5c-0.1001-0.1001-0.6172-0.3501-1.5498-0.75
				c-2.0674-0.9663-3.25-2.333-3.5503-4.1001c0.7329,0,1.8667-0.3828,3.3999-1.1499c1.5332-0.7666,2.9331-1.1162,4.2002-1.0498
				c3,0.167,4.5659,1.1172,4.7007,2.8496c0.0312,0.2676,0.0156,0.6001-0.0508,1c-0.0664,0.5-0.0996,0.8501-0.0996,1.0503
				c0.666-0.4663,1.5664-1.0664,2.6992-1.8003c0.3672-1.7998,0.5508-3.25,0.5508-4.3496c0-0.9331-0.1172-1.7168-0.3496-2.3501
				c0-1.6001,0.5996-2.3501,1.7988-2.25c0.9668,0.0669,1.8086,0.3672,2.5254,0.8999c0.7168,0.5337,1.1074,1.2334,1.1758,2.1001
				c-0.0352-0.2666-0.1016,0.3999-0.2012,2c-0.0332,0.3335,0,1.7173,0.0996,4.1499c0.0332,2.1001-0.0078,4.4248-0.125,6.9756
				c-0.1172,2.5498-0.7734,3.8242-1.9746,3.8242c-0.5664,0-1.0996-0.2656-1.5996-0.7998c-0.5-0.5322-0.75-1.083-0.75-1.6494V24.9492
				z M68.3661,49.5c0.8003-0.8008,1.2007-1.6836,1.2007-2.6504v-40c0-0.7002-0.5-1.4165-1.4995-2.1504
				c-0.7676-0.5-1.5508-1.0161-2.3516-1.5498c0.0332-0.7329,0.9004-1.1001,2.6016-1.1001c0.7983,0,1.7651,0.0835,2.8979,0.25
				c3.834,0.7002,5.7168,2.1338,5.6504,4.3003c0,0.0332-0.0488,0.6997-0.1504,2l-0.2988,5.0996
				c-0.3008,6.4673-0.5332,15.1338-0.7012,26l-0.0488,3.6006v1.3496c0,0.2676-0.1348,0.75-0.4004,1.4502
				c-0.5332,0.9004-1.5254,1.6826-2.9746,2.3496C70.8402,49.1162,69.5316,49.4658,68.3661,49.5z"/>
			
				<linearGradient id="SVGID_00000081627560967188572760000008522316791705773990_" gradientUnits="userSpaceOnUse" x1="74.3955" y1="-1" x2="74.3955" y2="50">
				<stop  offset="0" style="stop-color:#000000;stop-opacity:0"/>
				<stop  offset="1" style="stop-color:#000000;stop-opacity:0.2"/>
			</linearGradient>
			<path style="fill:url(#SVGID_00000081627560967188572760000008522316791705773990_);" d="M113.3109,6.4492l-0.8496,39
				c-0.0342,1.2334-0.4336,2.1504-1.2002,2.75c-0.5,0.3672-1.4678,0.7168-2.9004,1.0508c-0.667,0.166-1.6836,0.416-3.0498,0.75
				c0.5996-0.6006,0.9004-1.5342,0.9004-2.8008V22.7495c-0.9004,0.4673-1.8174,0.9336-2.75,1.3999
				c-1.168,0.7671-1.6504,1.5342-1.4502,2.2998c-0.5342,1.0342-2.5498,2.793-6.0498,5.2754c-3.5,2.4834-5.7842,3.7246-6.8506,3.7246
				c-1,0-1.8496-0.4492-2.5498-1.3496s-1.0498-1.8662-1.0498-2.9004c0-0.5,0.25-1.166,0.75-2
				c0.3662-0.6328,0.7324-1.2656,1.0996-1.8994c0.0664-0.1328,0.1416-0.3506,0.2256-0.6504c0.082-0.2998,0.1406-0.5,0.1748-0.5996
				c1.0996-3.3003,2-5.3506,2.7002-6.1504c-0.834-0.2666-1.8008-0.9502-2.9004-2.0498c-1.2002-1.1665-1.7832-2.1328-1.75-2.9004
				c1.2002-0.0664,2.833-0.5996,4.9004-1.5996c1.9326-0.9004,3.5322-1.3164,4.7998-1.25c1.1328,0.0669,2.2158,0.4668,3.25,1.1997
				c1.166,0.8672,1.75,1.8335,1.75,2.8999c0,1.0674-0.4336,1.8672-1.2998,2.4004c-0.5,0.2998-1.418,0.6084-2.75,0.9248
				c-1.334,0.3174-2.2344,0.625-2.7002,0.9248c-0.667,0.4336-1.3926,1.5586-2.1748,3.375
				c-0.7842,1.8174-1.1758,3.3252-1.1758,4.5254c0,0.5674,0.1006,0.9834,0.3008,1.25c4.1992-1.5,6.7656-3.0498,7.6992-4.6504
				c-0.2334-0.2661-0.4834-0.5576-0.75-0.875c-0.2666-0.3164-0.3994-0.6074-0.3994-0.875c0-0.0996,0.0166-0.1997,0.0498-0.2998
				c0.0996-1,3.0664-3.1328,8.9004-6.3999V7.0996c-0.0342-0.8003-0.7344-1.6504-2.1006-2.5503c-1.3672-0.8999-2.0332-1.5-2-1.7998
				c0.1006-0.833,1-1.25,2.7002-1.25c2.0664,0,4.083,0.4834,6.0498,1.4497C112.9936,4.0166,113.8109,5.1831,113.3109,6.4492z"/>
		</g>
		
			<linearGradient id="SVGID_00000131355709728296972640000003101035087842828173_" gradientUnits="userSpaceOnUse" x1="74.3955" y1="-1" x2="74.3955" y2="50">
			<stop  offset="0" style="stop-color:#000000;stop-opacity:0"/>
			<stop  offset="1" style="stop-color:#000000;stop-opacity:0.2"/>
		</linearGradient>
		<polygon style="fill:url(#SVGID_00000131355709728296972640000003101035087842828173_);" points="125.8046,1.4998 119.146,8.1664 
			119.146,21.5002 132.4874,21.5002 139.146,14.8331 139.146,1.4998 		"/>
		<g>
			
				<linearGradient id="SVGID_00000141419322544966474210000011368047657523002527_" gradientUnits="userSpaceOnUse" x1="74.3955" y1="-1" x2="74.3955" y2="50">
				<stop  offset="0" style="stop-color:#000000;stop-opacity:0"/>
				<stop  offset="1" style="stop-color:#000000;stop-opacity:0.2"/>
			</linearGradient>
			<path style="fill:url(#SVGID_00000141419322544966474210000011368047657523002527_);" d="M119.3496,28.5537
				c0.29-0.2373,0.6846-0.8037,0.6846-1.5371v-0.8008h-0.6504v-0.2021h1.5029v0.2021h-0.6426v0.8008
				c0,0.7334,0.3975,1.2998,0.6846,1.5371v0.2725c-0.3213-0.21-0.71-0.7021-0.79-1.2539c-0.0801,0.5518-0.4678,1.0439-0.7891,1.2539
				V28.5537z M120.7363,27.3271v-0.2061h0.6992v-1.293h0.209v3.1699h-0.209v-1.6709H120.7363z M122.1514,28.998v-3.1699h0.21v3.1699
				H122.1514z"/>
			
				<linearGradient id="SVGID_00000032616146333490186260000016853876342238898561_" gradientUnits="userSpaceOnUse" x1="74.3955" y1="-1" x2="74.3955" y2="50">
				<stop  offset="0" style="stop-color:#000000;stop-opacity:0"/>
				<stop  offset="1" style="stop-color:#000000;stop-opacity:0.2"/>
			</linearGradient>
			<path style="fill:url(#SVGID_00000032616146333490186260000016853876342238898561_);" d="M124.2012,26.4434
				c0-0.3037-0.2021-0.5029-0.5732-0.5029c-0.3809,0-0.5723,0.1992-0.5723,0.5029v0.21h-0.1992v-0.21
				c0-0.4268,0.293-0.6748,0.7715-0.6748c0.4648,0,0.7725,0.248,0.7725,0.6748v0.1855c0,0.3662-0.2129,0.5303-0.7021,0.9854
				c-0.458,0.4258-0.6709,0.6006-0.6709,0.873v0.3145h1.4014v0.1748h-1.5967v-0.4893c0-0.3213,0.209-0.5342,0.7227-0.999
				c0.4863-0.4375,0.6465-0.5732,0.6465-0.8594V26.4434z"/>
			
				<linearGradient id="SVGID_00000145739928238129565090000015521512502310788238_" gradientUnits="userSpaceOnUse" x1="74.3955" y1="-1" x2="74.3955" y2="50">
				<stop  offset="0" style="stop-color:#000000;stop-opacity:0"/>
				<stop  offset="1" style="stop-color:#000000;stop-opacity:0.2"/>
			</linearGradient>
			<path style="fill:url(#SVGID_00000145739928238129565090000015521512502310788238_);" d="M124.8477,26.4434
				c0-0.4268,0.3389-0.6748,0.7861-0.6748s0.7861,0.248,0.7861,0.6748v1.9287c0,0.4268-0.3389,0.6748-0.7861,0.6748
				s-0.7861-0.248-0.7861-0.6748V26.4434z M125.0469,28.3721c0,0.3037,0.2344,0.5029,0.5869,0.5029
				c0.3535,0,0.5869-0.1992,0.5869-0.5029v-1.9287c0-0.3037-0.2334-0.5029-0.5869-0.5029c-0.3525,0-0.5869,0.1992-0.5869,0.5029
				V28.3721z"/>
			
				<linearGradient id="SVGID_00000112594200406780559540000001219455097658794417_" gradientUnits="userSpaceOnUse" x1="74.3955" y1="-1" x2="74.3955" y2="50">
				<stop  offset="0" style="stop-color:#000000;stop-opacity:0"/>
				<stop  offset="1" style="stop-color:#000000;stop-opacity:0.2"/>
			</linearGradient>
			<path style="fill:url(#SVGID_00000112594200406780559540000001219455097658794417_);" d="M127,28.8398v-2.8545h1.3525v0.2031
				H127.21v2.4248l1.2471-0.1328v0.2061L127,28.8398z M128.7646,28.998v-3.1699h0.21v1.3662h0.709v-1.3662h0.21v3.1699h-0.21
				v-1.5977h-0.709v1.5977H128.7646z"/>
			
				<linearGradient id="SVGID_00000005973787717021028630000011436606812594570916_" gradientUnits="userSpaceOnUse" x1="74.3955" y1="-1" x2="74.3955" y2="50">
				<stop  offset="0" style="stop-color:#000000;stop-opacity:0"/>
				<stop  offset="1" style="stop-color:#000000;stop-opacity:0.2"/>
			</linearGradient>
			<path style="fill:url(#SVGID_00000005973787717021028630000011436606812594570916_);" d="M131.5498,28.8398v-2.8545h1.3525
				v0.2031h-1.1426v2.4248l1.2471-0.1328v0.2061L131.5498,28.8398z M133.3145,28.998v-3.1699h0.21v1.3662h0.709v-1.3662h0.21v3.1699
				h-0.21v-1.5977h-0.709v1.5977H133.3145z"/>
			
				<linearGradient id="SVGID_00000020362728507894338380000003413956373135553422_" gradientUnits="userSpaceOnUse" x1="74.3955" y1="-1" x2="74.3955" y2="50">
				<stop  offset="0" style="stop-color:#000000;stop-opacity:0"/>
				<stop  offset="1" style="stop-color:#000000;stop-opacity:0.2"/>
			</linearGradient>
			<path style="fill:url(#SVGID_00000020362728507894338380000003413956373135553422_);" d="M136.5801,27.5332h1.4746v0.2031
				h-3.1582v-0.2031h1.4746v-0.3945h-1.2266v-0.8145h2.6445v0.2031h-2.4355v0.4082h2.4883v0.2031h-1.2617V27.5332z M137.332,28.0264
				c0.3457,0,0.5273,0.2344,0.5273,0.4854c0,0.2588-0.1816,0.4893-0.5273,0.4893h-1.7129c-0.3418,0-0.5273-0.2305-0.5273-0.4893
				c0-0.251,0.1855-0.4854,0.5273-0.4854H137.332z M137.8066,25.8838v0.2031h-2.6621v-0.2031H137.8066z M137.3037,28.7988
				c0.2031,0,0.3457-0.123,0.3457-0.2871s-0.1426-0.2793-0.3457-0.2793h-1.6602c-0.1982,0-0.3418,0.1152-0.3418,0.2793
				s0.1436,0.2871,0.3418,0.2871H137.3037z"/>
			
				<linearGradient id="SVGID_00000108293624626005182970000017432831277243015815_" gradientUnits="userSpaceOnUse" x1="74.3955" y1="-1" x2="74.3955" y2="50">
				<stop  offset="0" style="stop-color:#000000;stop-opacity:0"/>
				<stop  offset="1" style="stop-color:#000000;stop-opacity:0.2"/>
			</linearGradient>
			<path style="fill:url(#SVGID_00000108293624626005182970000017432831277243015815_);" d="M138.5498,27.5234v-0.916h1.2686
				l0.0664-0.4961h-1.335v-0.2061h1.5693l-0.1084,0.9053h-1.251v0.5059h1.751v0.207H138.5498z M139.3086,27.8516h1.4922
				c0.377,0,0.6738,0.2305,0.6738,0.5801s-0.2969,0.583-0.6738,0.583h-1.4922c-0.3779,0-0.6748-0.2334-0.6748-0.583
				S138.9307,27.8516,139.3086,27.8516z M140.79,28.8125c0.2656,0,0.4746-0.1504,0.4746-0.3809c0-0.2275-0.209-0.3779-0.4746-0.3779
				h-1.4717c-0.2656,0-0.4746,0.1504-0.4746,0.3779c0,0.2305,0.209,0.3809,0.4746,0.3809H140.79z M140.3672,26.9854v-0.207h0.8311
				v-0.3984h-0.8311v-0.2021h0.8311v-0.3496h0.21v1.8906h-0.21v-0.7334H140.3672z"/>
			
				<linearGradient id="SVGID_00000097493195339173623990000007797041003589834918_" gradientUnits="userSpaceOnUse" x1="74.3955" y1="-1" x2="74.3955" y2="50">
				<stop  offset="0" style="stop-color:#000000;stop-opacity:0"/>
				<stop  offset="1" style="stop-color:#000000;stop-opacity:0.2"/>
			</linearGradient>
			<path style="fill:url(#SVGID_00000097493195339173623990000007797041003589834918_);" d="M141.959,27.4707
				c0.3916-0.1396,0.874-0.5244,0.874-1.0273v-0.5732h0.209v0.5732c0,0.5029,0.4824,0.8877,0.874,1.0273v0.2236
				c-0.4092-0.1328-0.8877-0.4824-0.9785-0.8877c-0.0869,0.4053-0.5732,0.7549-0.9785,0.8877V27.4707z M142.2529,28.998v-1.0176
				h0.209v0.8145h2.4844v0.2031H142.2529z M143.7588,26.7646v-0.2021h0.9121v-0.7344h0.209v2.3486h-0.209v-1.4121H143.7588z"/>
			
				<linearGradient id="SVGID_00000125575116442428978020000002075525010144117394_" gradientUnits="userSpaceOnUse" x1="74.3955" y1="-1" x2="74.3955" y2="50">
				<stop  offset="0" style="stop-color:#000000;stop-opacity:0"/>
				<stop  offset="1" style="stop-color:#000000;stop-opacity:0.2"/>
			</linearGradient>
			<path style="fill:url(#SVGID_00000125575116442428978020000002075525010144117394_);" d="M148.167,25.8281h0.21v3.1699h-0.21
				v-1.5869h-1.0898c-0.2588,0.8242-0.8105,1.2998-1.5898,1.4639v-0.2168c0.999-0.2402,1.5547-1.0195,1.5479-2.4697h-1.5303v-0.2031
				h1.7402v0.1787c0,0.3906-0.0391,0.7402-0.1123,1.0449h1.0342V25.8281z"/>
			
				<linearGradient id="SVGID_00000057839718897947571460000000210325049779034241_" gradientUnits="userSpaceOnUse" x1="74.3955" y1="-1" x2="74.3955" y2="50">
				<stop  offset="0" style="stop-color:#000000;stop-opacity:0"/>
				<stop  offset="1" style="stop-color:#000000;stop-opacity:0.2"/>
			</linearGradient>
			<path style="fill:url(#SVGID_00000057839718897947571460000000210325049779034241_);" d="M127.002,38.0488h-1.9287v-1.6289
				h-1.3896l-0.3398,1.6289h-1.4287v0.5996h6.626v1.46h-8.6445v-2.9385h1.6484l0.1602-0.75h-2.1592v-1.5586h9.1953v1.5586h-1.7393
				V38.0488z M121.4756,34.4512c-0.9297,0-1.6797-0.8291-1.6797-1.8389c0-1.0195,0.75-1.8486,1.6797-1.8486h5.3271
				c0.9189,0,1.6885,0.8291,1.6885,1.8486c0,1.0098-0.7695,1.8389-1.6885,1.8389H121.4756z M122.0752,32.3027
				c-0.1504,0-0.25,0.1592-0.25,0.3096c0,0.1602,0.0996,0.2998,0.25,0.2998h4.1172c0.1504,0,0.25-0.1396,0.25-0.2998
				c0-0.1504-0.0996-0.3096-0.25-0.3096H122.0752z"/>
			
				<linearGradient id="SVGID_00000020392868312185473300000016596497744499361154_" gradientUnits="userSpaceOnUse" x1="74.3955" y1="-1" x2="74.3955" y2="50">
				<stop  offset="0" style="stop-color:#000000;stop-opacity:0"/>
				<stop  offset="1" style="stop-color:#000000;stop-opacity:0.2"/>
			</linearGradient>
			<path style="fill:url(#SVGID_00000020392868312185473300000016596497744499361154_);" d="M129.6465,34.3008
				c1.1191-0.2695,1.8184-0.7891,1.8184-2.3887V30.873h2.1494v1.0391c0,1.5996,0.6992,2.1191,1.8184,2.3887v1.8496
				c-1.2686-0.1904-2.2285-0.7197-2.8984-1.5098c-0.6494,0.79-1.6191,1.3193-2.8877,1.5098V34.3008z M130.0762,38.2793v-1.6494
				h8.5654v3.5781h-2.2988v-1.9287H130.0762z M134.6133,33.8516v-1.6992h1.8193v-1.3291h2.209v5.5664h-2.209v-2.5381H134.6133z"/>
			
				<linearGradient id="SVGID_00000181076222768412982560000015910769941159898267_" gradientUnits="userSpaceOnUse" x1="74.3955" y1="-1" x2="74.3955" y2="50">
				<stop  offset="0" style="stop-color:#000000;stop-opacity:0"/>
				<stop  offset="1" style="stop-color:#000000;stop-opacity:0.2"/>
			</linearGradient>
			<path style="fill:url(#SVGID_00000181076222768412982560000015910769941159898267_);" d="M139.7461,33.502v-0.4404
				c0-1.4688,1.1992-2.2383,2.6689-2.2383c0.8389,0,1.5889,0.25,2.0781,0.7393h1.9492v-0.7393h2.1992v5.0273h-2.1992v-0.7402
				h-2.0791c-0.4893,0.4102-1.1787,0.6104-1.9482,0.6104C140.9453,35.7207,139.7461,34.9707,139.7461,33.502z M142.3643,38.9482
				h6.4268v1.1602h-8.625v-2.5586h6.2764V37.21h-6.2764v-1.1094h8.4756v2.4883h-6.2773V38.9482z M141.7549,33.7012
				c0,0.3906,0.29,0.6299,0.6797,0.6299s0.6895-0.2393,0.6895-0.6299v-0.8496c0-0.3896-0.2998-0.6396-0.6895-0.6396
				s-0.6797,0.25-0.6797,0.6396V33.7012z M146.4424,33.6514v-0.6299h-1.3594v0.04v0.4404v0.1494H146.4424z"/>
			
				<linearGradient id="SVGID_00000005225074501725719230000012601378423603662002_" gradientUnits="userSpaceOnUse" x1="74.3955" y1="-1" x2="74.3955" y2="50">
				<stop  offset="0" style="stop-color:#000000;stop-opacity:0"/>
				<stop  offset="1" style="stop-color:#000000;stop-opacity:0.2"/>
			</linearGradient>
			<path style="fill:url(#SVGID_00000005225074501725719230000012601378423603662002_);" d="M119.6982,46.3203v-4.8984h2.3203
				v0.3477h-1.9609v4.1611l2.1416-0.2275v0.3535L119.6982,46.3203z M122.7266,46.5908v-5.4395h0.3594v2.3447h1.2178v-2.3447h0.3594
				v5.4395h-0.3594v-2.7402h-1.2178v2.7402H122.7266z"/>
			
				<linearGradient id="SVGID_00000109748261807373826470000003064846562661021367_" gradientUnits="userSpaceOnUse" x1="74.3955" y1="-1" x2="74.3955" y2="50">
				<stop  offset="0" style="stop-color:#000000;stop-opacity:0"/>
				<stop  offset="1" style="stop-color:#000000;stop-opacity:0.2"/>
			</linearGradient>
			<path style="fill:url(#SVGID_00000109748261807373826470000003064846562661021367_);" d="M128.3252,44.0781h2.5303v0.3477
				h-5.4209v-0.3477h2.5303v-0.6777h-2.1045v-1.3975h4.5391v0.3477h-4.1797v0.7021h4.2695v0.3477h-2.1641V44.0781z
				 M129.6143,44.9238c0.5938,0,0.9053,0.4014,0.9053,0.833c0,0.4443-0.3115,0.8398-0.9053,0.8398h-2.9385
				c-0.5879,0-0.9053-0.3955-0.9053-0.8398c0-0.4316,0.3174-0.833,0.9053-0.833H129.6143z M130.4297,41.248v0.3477h-4.5693V41.248
				H130.4297z M129.5664,46.249c0.3477,0,0.5938-0.21,0.5938-0.4922c0-0.2812-0.2461-0.4795-0.5938-0.4795h-2.8486
				c-0.3418,0-0.5879,0.1982-0.5879,0.4795c0,0.2822,0.2461,0.4922,0.5879,0.4922H129.5664z"/>
			
				<linearGradient id="SVGID_00000119820654289646055340000012650318364033770914_" gradientUnits="userSpaceOnUse" x1="74.3955" y1="-1" x2="74.3955" y2="50">
				<stop  offset="0" style="stop-color:#000000;stop-opacity:0"/>
				<stop  offset="1" style="stop-color:#000000;stop-opacity:0.2"/>
			</linearGradient>
			<path style="fill:url(#SVGID_00000119820654289646055340000012650318364033770914_);" d="M131.6982,44.0596v-1.5703h2.1768
				l0.1143-0.8516h-2.291v-0.3545h2.6924l-0.1855,1.5537h-2.1475v0.8691h3.0049v0.3535H131.6982z M132.999,44.624h2.5615
				c0.6475,0,1.1572,0.3955,1.1572,0.9951s-0.5098,1.002-1.1572,1.002h-2.5615c-0.6475,0-1.1572-0.4023-1.1572-1.002
				S132.3516,44.624,132.999,44.624z M135.542,46.2725c0.4561,0,0.8154-0.2578,0.8154-0.6533c0-0.3896-0.3594-0.6475-0.8154-0.6475
				h-2.5244c-0.4561,0-0.8154,0.2578-0.8154,0.6475c0,0.3955,0.3594,0.6533,0.8154,0.6533H135.542z M134.8164,43.1367v-0.3535
				h1.4277v-0.6846h-1.4277V41.751h1.4277v-0.5996h0.3594v3.2441h-0.3594v-1.2588H134.8164z"/>
			
				<linearGradient id="SVGID_00000103263290348364983510000017143494219759377340_" gradientUnits="userSpaceOnUse" x1="74.3955" y1="-1" x2="74.3955" y2="50">
				<stop  offset="0" style="stop-color:#000000;stop-opacity:0"/>
				<stop  offset="1" style="stop-color:#000000;stop-opacity:0.2"/>
			</linearGradient>
			<path style="fill:url(#SVGID_00000103263290348364983510000017143494219759377340_);" d="M137.7461,43.9639v-2.6807h2.6865
				v0.3545h-2.3271v1.9424l2.7529-0.21v0.3545L137.7461,43.9639z M139.0654,44.5156h2.2188c0.6533,0,1.1689,0.4199,1.1689,1.0498
				s-0.5156,1.0557-1.1689,1.0557h-2.2188c-0.6533,0-1.1689-0.4258-1.1689-1.0557S138.4121,44.5156,139.0654,44.5156z
				 M141.2666,46.2725c0.4609,0,0.8271-0.2754,0.8271-0.707c0-0.4258-0.3662-0.7021-0.8271-0.7021h-2.1836
				c-0.4609,0-0.8271,0.2764-0.8271,0.7021c0,0.4316,0.3662,0.707,0.8271,0.707H141.2666z M141.9199,44.3359v-3.1846h0.3594v1.2354
				h0.9121v0.3545h-0.9121v1.5947H141.9199z"/>
			
				<linearGradient id="SVGID_00000061430795518070024090000011445101010365088174_" gradientUnits="userSpaceOnUse" x1="74.3955" y1="-1" x2="74.3955" y2="50">
				<stop  offset="0" style="stop-color:#000000;stop-opacity:0"/>
				<stop  offset="1" style="stop-color:#000000;stop-opacity:0.2"/>
			</linearGradient>
			<path style="fill:url(#SVGID_00000061430795518070024090000011445101010365088174_);" d="M143.542,43.9697
				c0.6719-0.2393,1.499-0.8994,1.499-1.7627v-0.9834h0.3604v0.9834c0,0.8633,0.8271,1.5234,1.499,1.7627v0.3838
				c-0.7012-0.2275-1.5234-0.8271-1.6787-1.5225c-0.1504,0.6953-0.9834,1.2949-1.6797,1.5225V43.9697z M144.0459,46.5908v-1.7451
				h0.3604v1.3975h4.2637v0.3477H144.0459z M146.6309,42.7588v-0.3477h1.5645v-1.2598h0.3604v4.0303h-0.3604v-2.4229H146.6309z"/>
		</g>
	</g>
	<g>
		<g class="st1">
			<defs>
				<path id="SVGID_00000183215800013554433570000009332766215018949002_" d="M119.292,9.7212
					c0.0339-2.8792,1.2083-5.2336,3.2734-7.1764c1.4875-1.3995,3.2695-2.1895,5.286-2.4525
					c2.6195-0.3418,5.0083,0.2653,7.1309,1.8335c2.1705,1.6036,3.4639,3.7495,3.8838,6.4266
					c0.4219,2.6901-0.1488,5.133-1.7568,7.3292c-1.6031,2.1895-3.7281,3.5372-6.4266,3.9414
					c-0.4445,0.0666-0.896,0.0871-1.3406,0.1535c-0.176,0.0263-0.3583,0.0933-0.5102,0.1865
					c-1.5476,0.9502-3.0892,1.9102-4.634,2.8649c-0.11,0.068-0.2329,0.1152-0.3499,0.1721c-0.0215-0.136-0.0569-0.2714-0.0624-0.408
					c-0.056-1.3917-0.114-2.7834-0.1543-4.1756c-0.0089-0.3075-0.1686-0.4819-0.39-0.6474
					c-0.9004-0.6729-1.6732-1.4709-2.2973-2.4066c-0.8613-1.2912-1.3688-2.7136-1.5358-4.2558
					C119.3583,10.646,119.3301,10.183,119.292,9.7212z"/>
			</defs>
			<clipPath id="SVGID_00000124124669937786587920000011074593062006650525_" class="st2">
				<use xlink:href="#SVGID_00000183215800013554433570000009332766215018949002_"  style="overflow:visible;"/>
			</clipPath>
		</g>
	</g>
</g>
</svg>
