<?xml version="1.0" encoding="utf-8"?>
<!-- Generator: Adobe Illustrator 23.0.1, SVG Export Plug-In . SVG Version: 6.00 Build 0)  -->
<svg version="1.1" id="레이어_1" xmlns="http://www.w3.org/2000/svg" xmlns:xlink="http://www.w3.org/1999/xlink" x="0px"
	 y="0px" viewBox="0 0 200 50" style="enable-background:new 0 0 200 50;" xml:space="preserve">
<style type="text/css">
	.st0{clip-path:url(#SVGID_2_);}
	.st1{fill:#0057B7;}
	.st2{fill:#FFD700;}
	.st3{clip-path:url(#SVGID_4_);}
	.st4{fill:url(#SVGID_5_);}
	.st5{fill:url(#SVGID_6_);}
	.st6{fill:url(#SVGID_7_);}
	.st7{fill:url(#SVGID_8_);}
</style>
<g>
	<g>
		<defs>
			<path id="SVGID_1_" d="M0,42.8C1.2,43,2.5,43,3.9,42.9c0.1,0,1.6-0.3,4.5-1c6.8-1.7,12.1-2.7,16-3.2c0.9-0.1,2-0.1,3.1-0.3
				c0.6-0.2,1.4-0.5,2.5-0.8c0.5-0.1,1-0.2,1.5-0.2c1.5,0,3.4,0.8,5.7,2.4c1,0.7,1.5,1.4,1.5,2.3s-0.5,1.6-1.4,2.2s-2,0.9-3.1,0.9
				c-0.8,0-1.6-0.2-2.4-0.5c-0.1-0.1-0.2-0.2-0.3-0.3c-0.1-0.1-0.3-0.2-0.4-0.3s-0.4-0.2-0.8-0.3c-1.6-0.7-3.3-1.1-4.9-1.1
				c-0.4,0-0.8,0-1.1,0.1c-2.7,0.4-4.5,0.6-5.4,0.8c-1.9,0.3-3.6,0.8-5.2,1.3c-1.4,0.5-2.8,1.1-4.2,1.6c-1.8,0.7-3.2,1.1-4.1,1.2
				c-0.9,0.1-1.6,0-2.1-0.1c-1.1-0.2-2-0.8-2.5-1.7C0.1,44.9-0.1,43.9,0,42.8z M17.6,16.8c-0.9-0.4-1.8-0.8-2.6-1.4
				c-0.6-0.4-1.2-0.9-1.9-1.5c-0.9-0.9-1.4-1.6-1.4-2.2c0-0.2,0.1-0.4,0.2-0.6c0.1-0.2,0.4-0.3,0.8-0.4C14.8,10,18,9,22.2,7.8
				c0.5-0.1,1.2-0.3,2.2-0.4c1.3,0,2.4,0.2,3.4,0.7c0.6,0.3,1.3,0.8,1.9,1.5c0.8,0.8,1.2,1.6,1.2,2.3c0,0.4-0.2,0.8-0.5,1.1
				c-0.1,0.1-0.4,0.3-0.9,0.5c-0.3,0.1-0.7,0.3-1.3,0.6c-0.6,0.3-1,0.5-1.3,0.6c-2.4,1-5.7,2.3-9.8,3.9c-0.1,0-0.5,0.2-1.4,0.5
				s-1.4,0.5-1.4,0.5h-0.1c0-0.1,0.1-0.2,0.3-0.4c0.1-0.1,0.2-0.1,0.4-0.2c0.1-0.1,0.3-0.2,0.4-0.3c0.1-0.1,0.4-0.3,0.7-0.5
				c0.4-0.3,0.6-0.4,0.7-0.5s0.2-0.2,0.4-0.3c0.1-0.1,0.3-0.2,0.4-0.3c0.1-0.1,0.2-0.2,0.3-0.3C17.8,16.8,17.8,16.8,17.6,16.8z
				 M16.4,30.5c0.7-0.3,2-0.8,3.9-1.5c0.5-0.2,1.3-0.5,2.4-0.9c0.2-0.1,0.4-0.1,0.6-0.1c1.2,0,2.5,0.3,4,1c1.6,0.8,2.4,1.6,2.4,2.5
				c0,0.4-0.2,0.7-0.5,1.1c-0.6,0.6-1.6,1.1-3,1.5c-0.2,0-0.5,0.1-0.9,0.3c-0.6,0.3-1.3,0.8-2.3,1.4c-2.5,1.4-4.9,2-6.9,2
				c3.6-2,5.4-3.5,5.5-4.3c-0.7,0-2.6,0.7-5.9,2.1C15,35.9,14.6,36,14.5,36c-1.2-0.1-1.9-1.4-2.3-3.9c0.8-3.1,1.6-5.3,2.6-6.6
				c-0.4-0.4-0.9-0.8-1.3-1.2c-0.4-0.4-0.6-0.9-0.6-1.4c0.8,0.1,2.7-0.4,5.6-1.5c2.1-0.8,4-1.6,5.8-2.4c3.5,0.5,5.3,1.3,5.3,2.3
				c0,0.6-0.6,1.4-1.8,2.2c-0.5,0.3-1.5,0.6-3.1,0.9c-1.1,0.2-2.2,0.5-3.4,0.7c-0.8,0.2-1.4,0.3-1.6,0.5
				C18.4,26.2,17.3,27.9,16.4,30.5z M63,24.9l-2.1,1.8c-1.9,1.7-3.3,2.6-4.1,2.6c-0.2,0-0.3,0-0.5-0.1c-0.6,1.8-1.9,3.5-3.8,4.9
				c-2,1.6-3.9,2.4-5.9,2.4c-1,0-2-0.2-2.8-0.7c-0.8-0.6-1.2-1-1.2-1.1s0.2-0.2,0.5-0.2c0.1,0,0.3,0,0.5,0s0.4,0,0.5,0
				c2,0,3.9-1.1,5.7-3.5c1.7-2.3,2.4-4.5,2.2-6.5c-0.1-0.1-0.6-0.4-1.5-0.8c-2.1-1-3.3-2.3-3.6-4.1c0.7,0,1.9-0.4,3.4-1.1
				c1.5-0.8,2.9-1.1,4.2-1c3,0.2,4.6,1.1,4.7,2.8c0,0.3,0,0.6-0.1,1C59,21.8,59,22.2,59,22.4c0.7-0.5,1.6-1.1,2.7-1.8
				c0.4-1.8,0.6-3.3,0.6-4.3c0-0.9-0.1-1.7-0.3-2.4c0-1.6,0.6-2.4,1.8-2.3c1,0.1,1.8,0.4,2.5,0.9s1.1,1.2,1.2,2.1
				c0-0.3-0.1,0.4-0.2,2c0,0.3,0,1.7,0.1,4.1c0,2.1,0,4.4-0.1,7c-0.1,2.5-0.8,3.8-2,3.8c-0.6,0-1.1-0.3-1.6-0.8s-0.8-1.1-0.8-1.6
				L63,24.9L63,24.9z M68.4,49.5c0.8-0.8,1.2-1.7,1.2-2.7v-40c0-0.7-0.5-1.4-1.5-2.2c-0.8-0.5-1.6-1-2.4-1.5c0-0.7,0.9-1.1,2.6-1.1
				c0.8,0,1.8,0.1,2.9,0.3C75,3,76.9,4.4,76.9,6.6c0,0,0,0.7-0.2,2l-0.3,5.1c-0.3,6.5-0.5,15.1-0.7,26v3.6v1.3
				c0,0.3-0.1,0.8-0.4,1.5c-0.5,0.9-1.5,1.7-3,2.3C70.8,49.1,69.5,49.5,68.4,49.5z M113.3,6.4l-0.8,39c0,1.2-0.4,2.2-1.2,2.8
				c-0.5,0.4-1.5,0.7-2.9,1.1c-0.7,0.2-1.7,0.4-3,0.8c0.6-0.6,0.9-1.5,0.9-2.8V22.7c-0.9,0.5-1.8,0.9-2.8,1.4
				c-1.2,0.8-1.7,1.5-1.5,2.3c-0.5,1-2.5,2.8-6,5.3c-3.5,2.5-5.8,3.7-6.9,3.7c-1,0-1.8-0.4-2.5-1.3s-1-1.9-1-2.9
				c0-0.5,0.3-1.2,0.8-2c0.4-0.6,0.7-1.3,1.1-1.9c0.1-0.1,0.1-0.4,0.2-0.7c0.1-0.3,0.1-0.5,0.2-0.6c1.1-3.3,2-5.4,2.7-6.2
				c-0.8-0.3-1.8-1-2.9-2c-1.2-1.2-1.8-2.1-1.8-2.9c1.2-0.1,2.8-0.6,4.9-1.6c1.9-0.9,3.5-1.3,4.8-1.3c1.1,0.1,2.2,0.5,3.3,1.2
				c1.2,0.9,1.8,1.8,1.8,2.9s-0.4,1.9-1.3,2.4c-0.5,0.3-1.4,0.6-2.8,0.9c-1.3,0.3-2.2,0.6-2.7,0.9c-0.7,0.4-1.4,1.6-2.2,3.4
				c-0.8,1.8-1.2,3.3-1.2,4.5c0,0.6,0.1,1,0.3,1.3c4.2-1.5,6.8-3,7.7-4.7c-0.2-0.3-0.5-0.6-0.8-0.9s-0.4-0.6-0.4-0.9
				c0-0.1,0-0.2,0-0.3c0.1-1,3.1-3.1,8.9-6.4V7.1c0-0.8-0.7-1.7-2.1-2.6s-2-1.5-2-1.8c0.1-0.8,1-1.3,2.7-1.3c2.1,0,4.1,0.5,6,1.4
				C113,4,113.8,5.2,113.3,6.4z"/>
		</defs>
		<clipPath id="SVGID_2_">
			<use xlink:href="#SVGID_1_"  style="overflow:visible;"/>
		</clipPath>
		<g class="st0">
			<rect x="-7.1" y="0.2" class="st1" width="127.6" height="25.5"/>
			<rect x="-7.1" y="25.7" class="st2" width="127.6" height="25.5"/>
		</g>
	</g>
</g>
<g>
	<defs>
		<path id="SVGID_3_" d="M119.3,9.7c0-2.9,1.2-5.2,3.3-7.2c1.5-1.4,3.3-2.2,5.3-2.5c2.6-0.3,5,0.3,7.1,1.8c2.2,1.6,3.5,3.7,3.9,6.4
			s-0.1,5.1-1.8,7.3c-1.6,2.2-3.7,3.5-6.4,3.9c-0.4,0.1-0.9,0.1-1.3,0.2c-0.2,0-0.4,0.1-0.5,0.2c-1.5,1-3.1,1.9-4.6,2.9
			c-0.1,0.1-0.2,0.1-0.3,0.2c0-0.1-0.1-0.3-0.1-0.4c-0.1-1.4-0.1-2.8-0.2-4.2c0-0.3-0.2-0.5-0.4-0.6c-0.9-0.7-1.7-1.5-2.3-2.4
			c-0.9-1.3-1.4-2.7-1.5-4.3C119.4,10.6,119.3,10.2,119.3,9.7z"/>
	</defs>
	<clipPath id="SVGID_4_">
		<use xlink:href="#SVGID_3_"  style="overflow:visible;"/>
	</clipPath>
	<g class="st3">
		<rect x="65.4" y="-14.1" class="st1" width="127.6" height="25.5"/>
		<rect x="65.4" y="11.4" class="st2" width="127.6" height="25.5"/>
	</g>
</g>
<g>
	
		<linearGradient id="SVGID_5_" gradientUnits="userSpaceOnUse" x1="129.1651" y1="51.28" x2="129.1651" y2="1.28" gradientTransform="matrix(1 0 0 -1 0 51.28)">
		<stop  offset="0" style="stop-color:#000000;stop-opacity:0"/>
		<stop  offset="1" style="stop-color:#000000;stop-opacity:0.2"/>
	</linearGradient>
	<path class="st4" d="M119.3,9.7c0-2.9,1.2-5.2,3.3-7.2c1.5-1.4,3.3-2.2,5.3-2.5c2.6-0.3,5,0.3,7.1,1.8c2.2,1.6,3.5,3.7,3.9,6.4
		s-0.1,5.1-1.8,7.3c-1.6,2.2-3.7,3.5-6.4,3.9c-0.4,0.1-0.9,0.1-1.3,0.2c-0.2,0-0.4,0.1-0.5,0.2c-1.5,1-3.1,1.9-4.6,2.9
		c-0.1,0.1-0.2,0.1-0.3,0.2c0-0.1-0.1-0.3-0.1-0.4c-0.1-1.4-0.1-2.8-0.2-4.2c0-0.3-0.2-0.5-0.4-0.6c-0.9-0.7-1.7-1.5-2.3-2.4
		c-0.9-1.3-1.4-2.7-1.5-4.3C119.4,10.6,119.3,10.2,119.3,9.7z"/>
	<g>
		
			<linearGradient id="SVGID_6_" gradientUnits="userSpaceOnUse" x1="19.3379" y1="51.28" x2="19.3379" y2="1.28" gradientTransform="matrix(1 0 0 -1 0 51.28)">
			<stop  offset="0" style="stop-color:#000000;stop-opacity:0"/>
			<stop  offset="1" style="stop-color:#000000;stop-opacity:0.2"/>
		</linearGradient>
		<path class="st5" d="M0,42.8C1.2,43,2.5,43,3.9,42.9c0.1,0,1.6-0.3,4.5-1c6.8-1.7,12.1-2.7,16-3.2c0.9-0.1,2-0.1,3.1-0.3
			c0.6-0.2,1.4-0.5,2.5-0.8c0.5-0.1,1-0.2,1.5-0.2c1.5,0,3.4,0.8,5.7,2.4c1,0.7,1.5,1.4,1.5,2.3s-0.5,1.6-1.4,2.2s-2,0.9-3.1,0.9
			c-0.8,0-1.6-0.2-2.4-0.5c-0.1-0.1-0.2-0.2-0.3-0.3c-0.1-0.1-0.3-0.2-0.4-0.3s-0.4-0.2-0.8-0.3c-1.6-0.7-3.3-1.1-4.9-1.1
			c-0.4,0-0.8,0-1.1,0.1c-2.7,0.4-4.5,0.6-5.4,0.8c-1.9,0.3-3.6,0.8-5.2,1.3c-1.4,0.5-2.8,1.1-4.2,1.6c-1.8,0.7-3.2,1.1-4.1,1.2
			c-0.9,0.1-1.6,0-2.1-0.1c-1.1-0.2-2-0.8-2.5-1.7C0.1,44.9-0.1,43.9,0,42.8z M17.6,16.8c-0.9-0.4-1.8-0.8-2.6-1.4
			c-0.6-0.4-1.2-0.9-1.9-1.5c-0.9-0.9-1.4-1.6-1.4-2.2c0-0.2,0.1-0.4,0.2-0.6c0.1-0.2,0.4-0.3,0.8-0.4C14.8,10,18,9,22.2,7.8
			c0.5-0.1,1.2-0.3,2.2-0.4c1.3,0,2.4,0.2,3.4,0.7c0.6,0.3,1.3,0.8,1.9,1.5c0.8,0.8,1.2,1.6,1.2,2.3c0,0.4-0.2,0.8-0.5,1.1
			c-0.1,0.1-0.4,0.3-0.9,0.5c-0.3,0.1-0.7,0.3-1.3,0.6c-0.6,0.3-1,0.5-1.3,0.6c-2.4,1-5.7,2.3-9.8,3.9c-0.1,0-0.5,0.2-1.4,0.5
			s-1.4,0.5-1.4,0.5h-0.1c0-0.1,0.1-0.2,0.3-0.4c0.1-0.1,0.2-0.1,0.4-0.2c0.1-0.1,0.3-0.2,0.4-0.3c0.1-0.1,0.4-0.3,0.7-0.5
			c0.4-0.3,0.6-0.4,0.7-0.5s0.2-0.2,0.4-0.3c0.1-0.1,0.3-0.2,0.4-0.3c0.1-0.1,0.2-0.2,0.3-0.3C17.8,16.8,17.8,16.8,17.6,16.8z
			 M16.4,30.5c0.7-0.3,2-0.8,3.9-1.5c0.5-0.2,1.3-0.5,2.4-0.9c0.2-0.1,0.4-0.1,0.6-0.1c1.2,0,2.5,0.3,4,1c1.6,0.8,2.4,1.6,2.4,2.5
			c0,0.4-0.2,0.7-0.5,1.1c-0.6,0.6-1.6,1.1-3,1.5c-0.2,0-0.5,0.1-0.9,0.3c-0.6,0.3-1.3,0.8-2.3,1.4c-2.5,1.4-4.9,2-6.9,2
			c3.6-2,5.4-3.5,5.5-4.3c-0.7,0-2.6,0.7-5.9,2.1C15,35.9,14.6,36,14.5,36c-1.2-0.1-1.9-1.4-2.3-3.9c0.8-3.1,1.6-5.3,2.6-6.6
			c-0.4-0.4-0.9-0.8-1.3-1.2c-0.4-0.4-0.6-0.9-0.6-1.4c0.8,0.1,2.7-0.4,5.6-1.5c2.1-0.8,4-1.6,5.8-2.4c3.5,0.5,5.3,1.3,5.3,2.3
			c0,0.6-0.6,1.4-1.8,2.2c-0.5,0.3-1.5,0.6-3.1,0.9c-1.1,0.2-2.2,0.5-3.4,0.7c-0.8,0.2-1.4,0.3-1.6,0.5
			C18.4,26.2,17.3,27.9,16.4,30.5z"/>
		
			<linearGradient id="SVGID_7_" gradientUnits="userSpaceOnUse" x1="59.75" y1="51.28" x2="59.75" y2="1.28" gradientTransform="matrix(1 0 0 -1 0 51.28)">
			<stop  offset="0" style="stop-color:#000000;stop-opacity:0"/>
			<stop  offset="1" style="stop-color:#000000;stop-opacity:0.2"/>
		</linearGradient>
		<path class="st6" d="M63,24.9l-2.1,1.8c-1.9,1.7-3.3,2.6-4.1,2.6c-0.2,0-0.3,0-0.5-0.1c-0.6,1.8-1.9,3.5-3.8,4.9
			c-2,1.6-3.9,2.4-5.9,2.4c-1,0-2-0.2-2.8-0.7c-0.8-0.6-1.2-1-1.2-1.1s0.2-0.2,0.5-0.2c0.1,0,0.3,0,0.5,0s0.4,0,0.5,0
			c2,0,3.9-1.1,5.7-3.5c1.7-2.3,2.4-4.5,2.2-6.5c-0.1-0.1-0.6-0.4-1.5-0.8c-2.1-1-3.3-2.3-3.6-4.1c0.7,0,1.9-0.4,3.4-1.1
			c1.5-0.8,2.9-1.1,4.2-1c3,0.2,4.6,1.1,4.7,2.8c0,0.3,0,0.6-0.1,1C59,21.8,59,22.2,59,22.4c0.7-0.5,1.6-1.1,2.7-1.8
			c0.4-1.8,0.6-3.3,0.6-4.3c0-0.9-0.1-1.7-0.3-2.4c0-1.6,0.6-2.4,1.8-2.3c1,0.1,1.8,0.4,2.5,0.9s1.1,1.2,1.2,2.1
			c0-0.3-0.1,0.4-0.2,2c0,0.3,0,1.7,0.1,4.1c0,2.1,0,4.4-0.1,7c-0.1,2.5-0.8,3.8-2,3.8c-0.6,0-1.1-0.3-1.6-0.8s-0.8-1.1-0.8-1.6
			L63,24.9L63,24.9z M68.4,49.5c0.8-0.8,1.2-1.7,1.2-2.7v-40c0-0.7-0.5-1.4-1.5-2.2c-0.8-0.5-1.6-1-2.4-1.5c0-0.7,0.9-1.1,2.6-1.1
			c0.8,0,1.8,0.1,2.9,0.3C75,3,76.9,4.4,76.9,6.6c0,0,0,0.7-0.2,2l-0.3,5.1c-0.3,6.5-0.5,15.1-0.7,26v3.6v1.3c0,0.3-0.1,0.8-0.4,1.5
			c-0.5,0.9-1.5,1.7-3,2.3C70.8,49.1,69.5,49.5,68.4,49.5z"/>
		
			<linearGradient id="SVGID_8_" gradientUnits="userSpaceOnUse" x1="99.5218" y1="51.28" x2="99.5218" y2="1.28" gradientTransform="matrix(1 0 0 -1 0 51.28)">
			<stop  offset="0" style="stop-color:#000000;stop-opacity:0"/>
			<stop  offset="1" style="stop-color:#000000;stop-opacity:0.2"/>
		</linearGradient>
		<path class="st7" d="M113.3,6.4l-0.8,39c0,1.2-0.4,2.2-1.2,2.8c-0.5,0.4-1.5,0.7-2.9,1.1c-0.7,0.2-1.7,0.4-3,0.8
			c0.6-0.6,0.9-1.5,0.9-2.8V22.7c-0.9,0.5-1.8,0.9-2.8,1.4c-1.2,0.8-1.7,1.5-1.5,2.3c-0.5,1-2.5,2.8-6,5.3c-3.5,2.5-5.8,3.7-6.9,3.7
			c-1,0-1.8-0.4-2.5-1.3s-1-1.9-1-2.9c0-0.5,0.3-1.2,0.8-2c0.4-0.6,0.7-1.3,1.1-1.9c0.1-0.1,0.1-0.4,0.2-0.7
			c0.1-0.3,0.1-0.5,0.2-0.6c1.1-3.3,2-5.4,2.7-6.2c-0.8-0.3-1.8-1-2.9-2c-1.2-1.2-1.8-2.1-1.8-2.9c1.2-0.1,2.8-0.6,4.9-1.6
			c1.9-0.9,3.5-1.3,4.8-1.3c1.1,0.1,2.2,0.5,3.3,1.2c1.2,0.9,1.8,1.8,1.8,2.9s-0.4,1.9-1.3,2.4c-0.5,0.3-1.4,0.6-2.8,0.9
			c-1.3,0.3-2.2,0.6-2.7,0.9c-0.7,0.4-1.4,1.6-2.2,3.4c-0.8,1.8-1.2,3.3-1.2,4.5c0,0.6,0.1,1,0.3,1.3c4.2-1.5,6.8-3,7.7-4.7
			c-0.2-0.3-0.5-0.6-0.8-0.9s-0.4-0.6-0.4-0.9c0-0.1,0-0.2,0-0.3c0.1-1,3.1-3.1,8.9-6.4V7.1c0-0.8-0.7-1.7-2.1-2.6s-2-1.5-2-1.8
			c0.1-0.8,1-1.3,2.7-1.3c2.1,0,4.1,0.5,6,1.4C113,4,113.8,5.2,113.3,6.4z"/>
	</g>
</g>
<g>
	<path d="M122.6,47.7h-0.7l0.8-3.7c-0.1,0.2-0.3,0.5-0.5,0.8l-1.7,2.9h-0.6l-0.5-2.9c0-0.1,0-0.2-0.1-0.3s0-0.3-0.1-0.5l-0.8,3.7
		h-0.6l1-4.5h0.9l0.6,2.9c0,0.1,0,0.2,0.1,0.4c0,0.1,0,0.3,0.1,0.5c0.1-0.1,0.1-0.2,0.2-0.4c0.1-0.1,0.2-0.3,0.3-0.5l1.8-3h1
		L122.6,47.7z"/>
	<path d="M127.9,44.9c0,0.4-0.1,0.8-0.2,1.1c-0.1,0.4-0.3,0.7-0.5,0.9c-0.2,0.3-0.5,0.5-0.8,0.6c-0.3,0.2-0.6,0.2-1,0.2
		c-0.3,0-0.5,0-0.7-0.1c-0.2-0.1-0.4-0.2-0.5-0.4c-0.1-0.2-0.3-0.3-0.3-0.6c-0.1-0.2-0.1-0.5-0.1-0.7c0-0.4,0.1-0.8,0.2-1.2
		c0.1-0.4,0.3-0.7,0.5-0.9c0.2-0.3,0.5-0.5,0.8-0.6c0.3-0.2,0.6-0.2,1-0.2c0.3,0,0.5,0,0.7,0.1c0.2,0.1,0.4,0.2,0.5,0.4
		c0.1,0.2,0.3,0.3,0.3,0.6C127.9,44.4,127.9,44.6,127.9,44.9z M127.2,44.9c0-0.2,0-0.4-0.1-0.5c0-0.1-0.1-0.3-0.2-0.4
		c-0.1-0.1-0.2-0.2-0.3-0.2c-0.1-0.1-0.3-0.1-0.4-0.1c-0.3,0-0.5,0.1-0.7,0.2s-0.4,0.3-0.5,0.5c-0.1,0.2-0.3,0.5-0.3,0.7
		c-0.1,0.3-0.1,0.6-0.1,0.8c0,0.2,0,0.3,0.1,0.5c0,0.1,0.1,0.3,0.2,0.4c0.1,0.1,0.2,0.2,0.3,0.2c0.1,0.1,0.3,0.1,0.4,0.1
		c0.3,0,0.5-0.1,0.7-0.2c0.2-0.1,0.4-0.3,0.5-0.5c0.1-0.2,0.3-0.5,0.3-0.7S127.2,45.2,127.2,44.9z"/>
	<path d="M131.6,47.7h-0.7l0.8-3.9h-1.2c-0.2,0.7-0.4,1.3-0.6,1.8c-0.2,0.5-0.3,0.9-0.5,1.2c-0.2,0.3-0.4,0.6-0.6,0.7
		s-0.5,0.2-0.8,0.2c-0.1,0-0.2,0-0.2,0c-0.1,0-0.1,0-0.2,0l0.1-0.6c0,0,0.1,0,0.1,0c0.1,0,0.1,0,0.1,0c0.2,0,0.4-0.1,0.6-0.2
		c0.2-0.1,0.3-0.4,0.5-0.7s0.3-0.7,0.5-1.2c0.2-0.5,0.4-1.1,0.6-1.8h2.5L131.6,47.7z"/>
	<path d="M136.5,46.5c0,0.1-0.1,0.2-0.1,0.4c0,0.1,0,0.2-0.1,0.4c0,0.1,0,0.2-0.1,0.3c0,0.1,0,0.2,0,0.2h-0.7c0-0.1,0-0.2,0-0.4
		c0-0.1,0-0.2,0.1-0.3c0-0.1,0-0.2,0.1-0.4h0c-0.1,0.2-0.2,0.3-0.3,0.5c-0.1,0.1-0.3,0.3-0.4,0.4c-0.1,0.1-0.3,0.2-0.5,0.3
		c-0.2,0.1-0.3,0.1-0.5,0.1c-0.2,0-0.4,0-0.5-0.1c-0.1-0.1-0.3-0.1-0.4-0.3s-0.2-0.2-0.2-0.4c0-0.2-0.1-0.3-0.1-0.5c0,0,0-0.1,0-0.2
		s0-0.2,0-0.2c0-0.1,0-0.2,0-0.3c0-0.1,0-0.2,0-0.2l0.5-2.5h0.7l-0.6,2.6c0,0,0,0.1,0,0.2c0,0.1,0,0.1,0,0.2c0,0.1,0,0.1,0,0.2
		c0,0.1,0,0.1,0,0.1c0,0.2,0.1,0.4,0.2,0.5c0.1,0.1,0.3,0.2,0.5,0.2c0.1,0,0.3,0,0.4-0.1s0.3-0.1,0.4-0.2c0.1-0.1,0.2-0.2,0.3-0.3
		c0.1-0.1,0.2-0.2,0.3-0.4c0.1-0.1,0.2-0.3,0.2-0.4s0.1-0.3,0.1-0.4l0.5-2.2h0.7L136.5,46.5z"/>
	<path d="M140.9,44.1c-0.1-0.1-0.3-0.2-0.4-0.3c-0.2-0.1-0.4-0.1-0.6-0.1c-0.2,0-0.4,0-0.5,0.1c-0.2,0.1-0.3,0.2-0.4,0.3
		s-0.2,0.3-0.3,0.4s-0.2,0.3-0.2,0.5c-0.1,0.2-0.1,0.3-0.1,0.5c0,0.2,0,0.3,0,0.5c0,0.4,0.1,0.7,0.3,1c0.2,0.2,0.4,0.3,0.8,0.3
		c0.2,0,0.4,0,0.6-0.1c0.2-0.1,0.4-0.2,0.6-0.3l-0.2,0.7c-0.2,0.1-0.4,0.2-0.6,0.2c-0.2,0.1-0.4,0.1-0.6,0.1c-0.3,0-0.5,0-0.7-0.1
		c-0.2-0.1-0.4-0.2-0.5-0.4c-0.1-0.2-0.2-0.4-0.3-0.6c-0.1-0.2-0.1-0.5-0.1-0.7c0-0.2,0-0.5,0.1-0.7c0-0.2,0.1-0.5,0.2-0.7
		c0.1-0.2,0.2-0.4,0.4-0.6c0.1-0.2,0.3-0.3,0.5-0.5c0.2-0.1,0.4-0.2,0.6-0.3c0.2-0.1,0.5-0.1,0.7-0.1c0.1,0,0.2,0,0.4,0
		c0.1,0,0.2,0,0.3,0.1c0.1,0,0.2,0.1,0.3,0.1c0.1,0,0.1,0.1,0.2,0.1L140.9,44.1z"/>
	<path d="M142.4,43.2l-0.4,1.9c0.2-0.1,0.4-0.1,0.6-0.2c0.2,0,0.4-0.1,0.6-0.1c0.5,0,0.9,0.1,1.1,0.3c0.3,0.2,0.4,0.5,0.4,0.9
		c0,0.2,0,0.4-0.1,0.6c-0.1,0.2-0.2,0.4-0.3,0.5c-0.2,0.2-0.4,0.3-0.6,0.4c-0.3,0.1-0.6,0.1-0.9,0.1c-0.6,0-1-0.1-1.2-0.4
		c-0.3-0.2-0.4-0.6-0.4-1.1c0-0.1,0-0.2,0-0.3c0-0.1,0-0.2,0-0.3c0-0.1,0-0.2,0-0.3c0-0.1,0-0.2,0-0.2c0,0,0,0,0-0.1
		c0-0.1,0-0.2,0.1-0.3c0-0.1,0-0.2,0.1-0.3c0-0.1,0.1-0.3,0.1-0.4c0.1-0.3,0.1-0.7,0.2-1.1H142.4z M144,46.3c0-0.2-0.1-0.4-0.2-0.5
		c-0.1-0.1-0.4-0.2-0.7-0.2c-0.2,0-0.4,0-0.6,0.1c-0.2,0-0.4,0.1-0.5,0.1c0,0.1,0,0.1,0,0.2c0,0.1,0,0.1,0,0.2c0,0.1,0,0.1,0,0.2
		c0,0.1,0,0.1,0,0.2c0,0.1,0,0.2,0.1,0.4c0,0.1,0.1,0.2,0.2,0.3c0.1,0.1,0.2,0.1,0.3,0.2c0.1,0,0.3,0.1,0.5,0.1c0.2,0,0.4,0,0.6-0.1
		c0.2-0.1,0.3-0.1,0.4-0.2c0.1-0.1,0.2-0.2,0.2-0.3C144,46.5,144,46.4,144,46.3z"/>
	<path d="M150.6,44.2c0,0.2,0,0.3-0.1,0.4c0,0.1-0.1,0.2-0.2,0.3c-0.1,0.1-0.2,0.2-0.4,0.3c-0.2,0.1-0.3,0.1-0.5,0.2v0
		c0.1,0,0.3,0.1,0.4,0.1s0.2,0.1,0.3,0.2c0.1,0.1,0.1,0.2,0.2,0.3s0.1,0.2,0.1,0.4c0,0.2,0,0.3-0.1,0.5c-0.1,0.2-0.2,0.3-0.3,0.5
		s-0.4,0.2-0.6,0.3c-0.3,0.1-0.6,0.1-0.9,0.1c-0.2,0-0.3,0-0.5,0c-0.2,0-0.3,0-0.4-0.1c-0.1,0-0.3-0.1-0.4-0.1
		c-0.1,0-0.2-0.1-0.3-0.1l0.1-0.7c0.2,0.1,0.4,0.2,0.7,0.3c0.2,0.1,0.5,0.1,0.8,0.1c0.2,0,0.4,0,0.6-0.1c0.2,0,0.3-0.1,0.4-0.2
		s0.2-0.2,0.2-0.3c0-0.1,0.1-0.2,0.1-0.3c0-0.1,0-0.2-0.1-0.3c-0.1-0.1-0.1-0.2-0.2-0.2c-0.1-0.1-0.2-0.1-0.4-0.1s-0.3,0-0.5,0h-0.7
		l0.1-0.6h0.6c0.2,0,0.5,0,0.6-0.1c0.2,0,0.3-0.1,0.4-0.2c0.1-0.1,0.2-0.1,0.2-0.2c0-0.1,0.1-0.2,0.1-0.3c0-0.2-0.1-0.4-0.2-0.5
		c-0.2-0.1-0.4-0.1-0.7-0.1c-0.3,0-0.5,0-0.7,0.1c-0.2,0.1-0.5,0.2-0.7,0.3l0.1-0.7c0.2-0.1,0.4-0.1,0.7-0.2c0.3,0,0.5-0.1,0.8-0.1
		c0.5,0,0.9,0.1,1.1,0.3C150.4,43.6,150.6,43.9,150.6,44.2z"/>
	<path d="M154.5,46.3c0,0.1,0,0.2-0.1,0.4c0,0.1,0,0.3-0.1,0.4c0,0.1,0,0.3,0,0.4c0,0.1,0,0.2,0,0.3h-0.7c0-0.1,0-0.1,0-0.2
		s0-0.2,0-0.3c0-0.1,0-0.2,0-0.3c0-0.1,0-0.2,0-0.2h0c-0.1,0.1-0.2,0.3-0.3,0.4c-0.1,0.1-0.2,0.2-0.3,0.3c-0.1,0.1-0.2,0.2-0.4,0.2
		s-0.3,0.1-0.5,0.1c-0.2,0-0.4,0-0.5-0.1c-0.2-0.1-0.3-0.2-0.4-0.3c-0.1-0.1-0.2-0.3-0.3-0.5c-0.1-0.2-0.1-0.5-0.1-0.7
		c0-0.2,0-0.4,0.1-0.6s0.1-0.4,0.2-0.7c0.1-0.2,0.2-0.4,0.3-0.7c0.1-0.2,0.3-0.4,0.5-0.6c0.2-0.2,0.5-0.3,0.7-0.4s0.6-0.2,1-0.2
		c0.2,0,0.5,0,0.7,0.1s0.5,0.1,0.7,0.1L154.5,46.3z M154.3,43.8c-0.1,0-0.2,0-0.4-0.1s-0.3,0-0.4,0c-0.3,0-0.5,0-0.7,0.1
		c-0.2,0.1-0.4,0.2-0.5,0.3c-0.1,0.1-0.3,0.3-0.4,0.5c-0.1,0.2-0.2,0.3-0.2,0.5c-0.1,0.2-0.1,0.4-0.1,0.5c0,0.2,0,0.3,0,0.5
		c0,0.2,0,0.3,0,0.5c0,0.1,0.1,0.2,0.1,0.3c0.1,0.1,0.1,0.2,0.2,0.2c0.1,0.1,0.2,0.1,0.3,0.1c0.1,0,0.3,0,0.4-0.1
		c0.1-0.1,0.2-0.1,0.4-0.2c0.1-0.1,0.2-0.2,0.3-0.4s0.2-0.3,0.2-0.4c0.1-0.2,0.1-0.3,0.2-0.5c0.1-0.2,0.1-0.3,0.1-0.5L154.3,43.8z"
		/>
	<path d="M159.9,46c-0.2,0.3-0.4,0.6-0.5,0.8c-0.2,0.2-0.3,0.4-0.5,0.6c-0.2,0.2-0.3,0.3-0.5,0.3c-0.2,0.1-0.4,0.1-0.6,0.1
		c-0.1,0-0.1,0-0.2,0c-0.1,0-0.1,0-0.2,0c-0.1,0-0.1,0-0.2-0.1c-0.1,0-0.1,0-0.1-0.1l0.1-0.7c0.1,0.1,0.2,0.1,0.3,0.1
		c0.1,0,0.2,0.1,0.3,0.1c0.1,0,0.3,0,0.4-0.1s0.2-0.1,0.3-0.2c0.1-0.1,0.2-0.2,0.4-0.4c0.1-0.2,0.3-0.3,0.4-0.5l-1.1-4.5h0.8
		l0.7,3.2c0,0,0,0.1,0,0.1c0,0.1,0,0.1,0,0.2c0,0.1,0,0.1,0,0.2c0,0.1,0,0.1,0,0.1h0c0.1-0.1,0.1-0.2,0.2-0.3
		c0.1-0.1,0.1-0.2,0.1-0.2l2-3.3h0.8L159.9,46z"/>
	<path d="M163.6,45.4l1.6,2.3h-0.8l-1.5-2.3h0l-0.5,2.3h-0.7l1-4.5h0.7l-0.4,2h0l2.3-2h0.9L163.6,45.4z"/>
	<path d="M170.1,44.8c0,0.2,0,0.4-0.1,0.7c0,0.2-0.1,0.5-0.2,0.7c-0.1,0.2-0.2,0.4-0.4,0.6c-0.1,0.2-0.3,0.4-0.5,0.5
		c-0.2,0.2-0.4,0.3-0.7,0.4c-0.2,0.1-0.5,0.1-0.8,0.1c-0.2,0-0.3,0-0.5,0c-0.2,0-0.3-0.1-0.4-0.1l-0.4,2.1h-0.7l1.1-5.2
		c0-0.1,0-0.2,0.1-0.3s0-0.3,0-0.4c0-0.1,0-0.3,0-0.4s0-0.2,0-0.3h0.7c0,0,0,0.1,0,0.2c0,0.1,0,0.2,0,0.3c0,0.1,0,0.2,0,0.3
		c0,0.1,0,0.2,0,0.2h0c0.2-0.4,0.4-0.6,0.7-0.8c0.3-0.2,0.5-0.3,0.9-0.3c0.2,0,0.4,0,0.6,0.1c0.2,0.1,0.3,0.2,0.4,0.3
		c0.1,0.1,0.2,0.3,0.3,0.5C170,44.3,170.1,44.5,170.1,44.8z M169.3,44.8c0-0.2,0-0.3,0-0.4c0-0.1-0.1-0.3-0.1-0.3
		c-0.1-0.1-0.1-0.2-0.2-0.2c-0.1-0.1-0.2-0.1-0.4-0.1c-0.2,0-0.3,0-0.4,0.1c-0.1,0.1-0.3,0.1-0.4,0.3s-0.2,0.2-0.3,0.4
		c-0.1,0.1-0.2,0.3-0.3,0.4s-0.1,0.3-0.2,0.5c-0.1,0.2-0.1,0.3-0.1,0.4l-0.3,1.3c0.1,0,0.1,0,0.2,0.1c0.1,0,0.1,0,0.2,0.1
		c0.1,0,0.2,0,0.2,0s0.2,0,0.2,0c0.2,0,0.4,0,0.6-0.1c0.2-0.1,0.3-0.2,0.5-0.3c0.1-0.1,0.3-0.3,0.4-0.4c0.1-0.2,0.2-0.3,0.3-0.5
		c0.1-0.2,0.1-0.4,0.2-0.5C169.3,45.2,169.3,45,169.3,44.8z"/>
	<path d="M174.1,46.3c0,0.1,0,0.2-0.1,0.4c0,0.1,0,0.3-0.1,0.4c0,0.1,0,0.3,0,0.4c0,0.1,0,0.2,0,0.3h-0.7c0-0.1,0-0.1,0-0.2
		s0-0.2,0-0.3c0-0.1,0-0.2,0-0.3c0-0.1,0-0.2,0-0.2h0c-0.1,0.1-0.2,0.3-0.3,0.4c-0.1,0.1-0.2,0.2-0.3,0.3c-0.1,0.1-0.2,0.2-0.4,0.2
		s-0.3,0.1-0.5,0.1c-0.2,0-0.4,0-0.5-0.1c-0.2-0.1-0.3-0.2-0.4-0.3c-0.1-0.1-0.2-0.3-0.3-0.5c-0.1-0.2-0.1-0.5-0.1-0.7
		c0-0.2,0-0.4,0.1-0.6s0.1-0.4,0.2-0.7c0.1-0.2,0.2-0.4,0.3-0.7c0.1-0.2,0.3-0.4,0.5-0.6c0.2-0.2,0.5-0.3,0.7-0.4s0.6-0.2,1-0.2
		c0.2,0,0.5,0,0.7,0.1s0.5,0.1,0.7,0.1L174.1,46.3z M173.9,43.8c-0.1,0-0.2,0-0.4-0.1s-0.3,0-0.4,0c-0.3,0-0.5,0-0.7,0.1
		c-0.2,0.1-0.4,0.2-0.5,0.3c-0.1,0.1-0.3,0.3-0.4,0.5c-0.1,0.2-0.2,0.3-0.2,0.5c-0.1,0.2-0.1,0.4-0.1,0.5c0,0.2,0,0.3,0,0.5
		c0,0.2,0,0.3,0,0.5c0,0.1,0.1,0.2,0.1,0.3c0.1,0.1,0.1,0.2,0.2,0.2c0.1,0.1,0.2,0.1,0.3,0.1c0.1,0,0.3,0,0.4-0.1
		c0.1-0.1,0.2-0.1,0.4-0.2c0.1-0.1,0.2-0.2,0.3-0.4s0.2-0.3,0.2-0.4c0.1-0.2,0.1-0.3,0.2-0.5c0.1-0.2,0.1-0.3,0.1-0.5L173.9,43.8z"
		/>
	<path d="M176.4,47.7c-0.1,0-0.2,0-0.2,0.1c-0.1,0-0.2,0-0.3,0c-0.3,0-0.5-0.1-0.7-0.2c-0.1-0.1-0.2-0.3-0.2-0.6c0-0.1,0-0.2,0-0.3
		c0-0.1,0-0.2,0.1-0.4l0.7-3.1h0.7l-0.7,3.1c0,0.1,0,0.2-0.1,0.3c0,0.1,0,0.1,0,0.2c0,0.1,0,0.2,0.1,0.3c0.1,0.1,0.2,0.1,0.3,0.1
		c0.1,0,0.1,0,0.2,0c0.1,0,0.1,0,0.2,0L176.4,47.7z M175.9,42c0,0.1,0,0.1,0,0.2c0,0.1-0.1,0.1-0.1,0.1c0,0-0.1,0.1-0.1,0.1
		c-0.1,0-0.1,0-0.2,0c-0.1,0-0.1,0-0.2,0c-0.1,0-0.1-0.1-0.1-0.1c0,0-0.1-0.1-0.1-0.1c0-0.1,0-0.1,0-0.2c0-0.1,0-0.1,0-0.2
		c0-0.1,0.1-0.1,0.1-0.1c0,0,0.1-0.1,0.1-0.1c0.1,0,0.1,0,0.2,0c0.1,0,0.1,0,0.2,0c0.1,0,0.1,0.1,0.1,0.1c0,0,0.1,0.1,0.1,0.1
		C175.9,41.8,175.9,41.9,175.9,42z M177.6,42c0,0.1,0,0.2-0.1,0.3c-0.1,0.1-0.2,0.1-0.3,0.1c-0.1,0-0.2,0-0.3-0.1
		c-0.1-0.1-0.1-0.2-0.1-0.3c0-0.1,0-0.1,0-0.2s0.1-0.1,0.1-0.1c0,0,0.1-0.1,0.1-0.1c0.1,0,0.1,0,0.2,0c0.1,0,0.1,0,0.2,0
		c0.1,0,0.1,0.1,0.1,0.1c0,0,0.1,0.1,0.1,0.1C177.6,41.8,177.6,41.9,177.6,42z"/>
	<path d="M180.6,47.7h-0.7l0.4-2.1H178l-0.4,2.1h-0.7l1-4.5h0.7l-0.4,1.9h2.3l0.4-1.9h0.7L180.6,47.7z"/>
	<path d="M183.1,48.5c-0.1,0.2-0.3,0.4-0.4,0.6c-0.1,0.2-0.3,0.3-0.4,0.4c-0.2,0.1-0.3,0.2-0.5,0.3c-0.2,0.1-0.4,0.1-0.6,0.1
		c-0.1,0-0.1,0-0.2,0c-0.1,0-0.2,0-0.2,0l0.1-0.6c0,0,0.1,0,0.2,0.1c0.1,0,0.1,0,0.2,0c0.2,0,0.4-0.1,0.5-0.2
		c0.2-0.1,0.3-0.3,0.5-0.5l0.5-0.8l-0.8-4.5h0.7l0.5,3.5c0,0.1,0,0.1,0,0.2c0,0.1,0,0.1,0,0.2h0c0,0,0-0.1,0.1-0.1
		c0-0.1,0.1-0.1,0.1-0.2l2-3.5h0.8L183.1,48.5z"/>
</g>
</svg>
