<?xml version="1.0" encoding="utf-8"?>
<!-- Generator: Adobe Illustrator 23.0.1, SVG Export Plug-In . SVG Version: 6.00 Build 0)  -->
<svg version="1.0" id="레이어_1" xmlns="http://www.w3.org/2000/svg" xmlns:xlink="http://www.w3.org/1999/xlink" x="0px"
	 y="0px" viewBox="0 0 139 50" style="enable-background:new 0 0 139 50;" xml:space="preserve">
<style type="text/css">
	.st0{fill:#B21642;}
	.st1{fill:url(#SVGID_1_);}
	.st2{fill:url(#SVGID_2_);}
	.st3{fill:url(#SVGID_3_);}
	.st4{fill:url(#SVGID_4_);}
</style>
<g>
	<g>
		<path class="st0" d="M119.29,9.72c0.03-2.88,1.21-5.23,3.27-7.18c1.49-1.4,3.27-2.19,5.29-2.45c2.62-0.34,5.01,0.27,7.13,1.83
			c2.17,1.6,3.46,3.75,3.88,6.43c0.42,2.69-0.15,5.13-1.76,7.33c-1.6,2.19-3.73,3.54-6.43,3.94c-0.44,0.07-0.9,0.09-1.34,0.15
			c-0.18,0.03-0.36,0.09-0.51,0.19c-1.55,0.95-3.09,1.91-4.63,2.86c-0.11,0.07-0.23,0.12-0.35,0.17c-0.02-0.14-0.06-0.27-0.06-0.41
			c-0.06-1.39-0.11-2.78-0.15-4.18c-0.01-0.31-0.17-0.48-0.39-0.65c-0.9-0.67-1.67-1.47-2.3-2.41c-0.86-1.29-1.37-2.71-1.54-4.26
			C119.36,10.65,119.33,10.18,119.29,9.72z"/>
		<g>
			<path class="st0" d="M0.04,42.75c1.2,0.23,2.48,0.3,3.85,0.2c0.07,0,1.57-0.35,4.5-1.05c6.77-1.67,12.12-2.73,16.05-3.2
				c0.9-0.07,1.95-0.15,3.15-0.25c0.57-0.23,1.4-0.52,2.5-0.85c0.5-0.13,1-0.2,1.5-0.2c1.5,0,3.4,0.8,5.7,2.4
				c0.97,0.67,1.45,1.42,1.45,2.25s-0.45,1.57-1.35,2.2s-1.95,0.95-3.15,0.95c-0.83,0-1.63-0.17-2.4-0.5
				c-0.1-0.07-0.22-0.16-0.35-0.27c-0.13-0.12-0.27-0.21-0.4-0.28c-0.13-0.07-0.4-0.18-0.8-0.35c-1.63-0.73-3.25-1.1-4.85-1.1
				c-0.4,0-0.78,0.02-1.15,0.05c-2.73,0.37-4.52,0.62-5.35,0.75c-1.9,0.33-3.63,0.75-5.2,1.25c-1.37,0.53-2.75,1.07-4.15,1.6
				c-1.8,0.7-3.18,1.08-4.15,1.15c-0.93,0.07-1.65,0.05-2.15-0.05c-1.1-0.23-1.95-0.79-2.55-1.67C0.14,44.89-0.1,43.88,0.04,42.75z
				 M17.64,16.8c-0.9-0.37-1.75-0.82-2.55-1.35c-0.6-0.37-1.23-0.87-1.9-1.5c-0.9-0.9-1.35-1.63-1.35-2.2c0-0.2,0.07-0.38,0.2-0.55
				c0.13-0.17,0.4-0.3,0.8-0.4c2.1-0.73,5.27-1.72,9.5-2.95c0.5-0.13,1.22-0.27,2.15-0.4c1.3-0.03,2.45,0.18,3.45,0.65
				c0.63,0.3,1.27,0.82,1.9,1.55c0.77,0.83,1.15,1.58,1.15,2.25c0,0.43-0.15,0.8-0.45,1.1c-0.13,0.13-0.43,0.3-0.9,0.5
				c-0.3,0.13-0.74,0.33-1.33,0.6c-0.58,0.27-1.02,0.47-1.32,0.6c-2.4,1.03-5.67,2.33-9.8,3.9c-0.07,0.03-0.54,0.22-1.42,0.55
				c-0.88,0.33-1.36,0.5-1.43,0.5c-0.03-0.03-0.07-0.05-0.1-0.05c0.03-0.07,0.15-0.18,0.35-0.35c0.1-0.07,0.22-0.14,0.35-0.23
				c0.13-0.08,0.26-0.17,0.38-0.27c0.12-0.1,0.35-0.27,0.7-0.52c0.35-0.25,0.58-0.42,0.7-0.5c0.12-0.08,0.24-0.17,0.38-0.25
				c0.13-0.08,0.25-0.17,0.35-0.25c0.1-0.08,0.2-0.19,0.3-0.33C17.8,16.83,17.77,16.8,17.64,16.8z M16.39,30.5
				c0.67-0.33,1.98-0.83,3.95-1.5c0.53-0.2,1.32-0.48,2.35-0.85c0.17-0.07,0.37-0.1,0.6-0.1c1.17,0,2.48,0.35,3.95,1.05
				c1.63,0.77,2.45,1.58,2.45,2.45c0,0.37-0.18,0.73-0.55,1.1c-0.6,0.57-1.58,1.07-2.95,1.5c-0.2,0.03-0.52,0.13-0.95,0.3
				c-0.57,0.33-1.33,0.8-2.3,1.4c-2.53,1.37-4.85,2.05-6.95,2.05c3.57-2.03,5.42-3.47,5.55-4.3c-0.67,0.03-2.62,0.73-5.85,2.1
				c-0.67,0.23-1.07,0.35-1.2,0.35c-1.17-0.13-1.92-1.43-2.25-3.9c0.77-3.1,1.65-5.3,2.65-6.6c-0.43-0.4-0.87-0.81-1.3-1.23
				c-0.43-0.42-0.65-0.89-0.65-1.42c0.83,0.1,2.7-0.4,5.6-1.5c2.13-0.8,4.05-1.6,5.75-2.4c3.53,0.53,5.3,1.3,5.3,2.3
				c0,0.63-0.6,1.37-1.8,2.2c-0.5,0.33-1.53,0.65-3.1,0.95c-1.1,0.23-2.22,0.45-3.35,0.65c-0.83,0.17-1.38,0.32-1.65,0.45
				C18.39,26.22,17.29,27.87,16.39,30.5z"/>
			<path class="st0" d="M63.02,24.95l-2.1,1.8c-1.9,1.73-3.25,2.6-4.05,2.6c-0.17,0-0.33-0.03-0.5-0.1
				c-0.6,1.83-1.85,3.48-3.75,4.95c-1.97,1.57-3.93,2.35-5.9,2.35c-1.03,0-1.97-0.23-2.8-0.7c-0.8-0.63-1.2-1-1.2-1.1
				c0-0.13,0.17-0.2,0.5-0.2c0.13,0,0.3,0.02,0.5,0.05c0.2,0.03,0.37,0.05,0.5,0.05c2,0.03,3.9-1.13,5.7-3.5
				c1.67-2.3,2.4-4.47,2.2-6.5c-0.1-0.1-0.62-0.35-1.55-0.75c-2.07-0.97-3.25-2.33-3.55-4.1c0.73,0,1.87-0.38,3.4-1.15
				c1.53-0.77,2.93-1.12,4.2-1.05c3,0.17,4.57,1.12,4.7,2.85c0.03,0.27,0.02,0.6-0.05,1c-0.07,0.5-0.1,0.85-0.1,1.05
				c0.67-0.47,1.57-1.07,2.7-1.8c0.37-1.8,0.55-3.25,0.55-4.35c0-0.93-0.12-1.72-0.35-2.35c0-1.6,0.6-2.35,1.8-2.25
				c0.97,0.07,1.81,0.37,2.53,0.9c0.72,0.53,1.11,1.23,1.18,2.1c-0.04-0.27-0.1,0.4-0.2,2c-0.03,0.33,0,1.72,0.1,4.15
				c0.03,2.1-0.01,4.42-0.13,6.98c-0.12,2.55-0.77,3.82-1.97,3.82c-0.57,0-1.1-0.27-1.6-0.8c-0.5-0.53-0.75-1.08-0.75-1.65V24.95z
				 M68.37,49.5c0.8-0.8,1.2-1.68,1.2-2.65v-40c0-0.7-0.5-1.42-1.5-2.15c-0.77-0.5-1.55-1.02-2.35-1.55c0.03-0.73,0.9-1.1,2.6-1.1
				c0.8,0,1.77,0.08,2.9,0.25c3.83,0.7,5.72,2.13,5.65,4.3c0,0.03-0.05,0.7-0.15,2l-0.3,5.1c-0.3,6.47-0.53,15.13-0.7,26l-0.05,3.6
				v1.35c0,0.27-0.13,0.75-0.4,1.45c-0.53,0.9-1.53,1.68-2.97,2.35C70.84,49.12,69.53,49.47,68.37,49.5z"/>
			<path class="st0" d="M113.31,6.45l-0.85,39c-0.03,1.23-0.43,2.15-1.2,2.75c-0.5,0.37-1.47,0.72-2.9,1.05
				c-0.67,0.17-1.68,0.42-3.05,0.75c0.6-0.6,0.9-1.53,0.9-2.8V22.75c-0.9,0.47-1.82,0.93-2.75,1.4c-1.17,0.77-1.65,1.53-1.45,2.3
				c-0.53,1.03-2.55,2.79-6.05,5.28c-3.5,2.48-5.78,3.72-6.85,3.72c-1,0-1.85-0.45-2.55-1.35s-1.05-1.87-1.05-2.9
				c0-0.5,0.25-1.17,0.75-2c0.37-0.63,0.73-1.27,1.1-1.9c0.07-0.13,0.14-0.35,0.23-0.65c0.08-0.3,0.14-0.5,0.17-0.6
				c1.1-3.3,2-5.35,2.7-6.15c-0.83-0.27-1.8-0.95-2.9-2.05c-1.2-1.17-1.78-2.13-1.75-2.9c1.2-0.07,2.83-0.6,4.9-1.6
				c1.93-0.9,3.53-1.32,4.8-1.25c1.13,0.07,2.22,0.47,3.25,1.2c1.17,0.87,1.75,1.83,1.75,2.9c0,1.07-0.43,1.87-1.3,2.4
				c-0.5,0.3-1.42,0.61-2.75,0.92c-1.33,0.32-2.23,0.63-2.7,0.92c-0.67,0.43-1.39,1.56-2.17,3.38c-0.78,1.82-1.18,3.33-1.18,4.53
				c0,0.57,0.1,0.98,0.3,1.25c4.2-1.5,6.77-3.05,7.7-4.65c-0.23-0.27-0.48-0.56-0.75-0.88c-0.27-0.32-0.4-0.61-0.4-0.88
				c0-0.1,0.02-0.2,0.05-0.3c0.1-1,3.07-3.13,8.9-6.4V7.1c-0.03-0.8-0.73-1.65-2.1-2.55c-1.37-0.9-2.03-1.5-2-1.8
				c0.1-0.83,1-1.25,2.7-1.25c2.07,0,4.08,0.48,6.05,1.45C112.99,4.02,113.81,5.18,113.31,6.45z"/>
		</g>
	</g>
	<g>
		<linearGradient id="SVGID_1_" gradientUnits="userSpaceOnUse" x1="69.5" y1="-5.456968e-12" x2="69.5" y2="50">
			<stop  offset="0" style="stop-color:#000000;stop-opacity:0"/>
			<stop  offset="1" style="stop-color:#000000;stop-opacity:0.2"/>
		</linearGradient>
		<path class="st1" d="M119.29,9.72c0.03-2.88,1.21-5.23,3.27-7.18c1.49-1.4,3.27-2.19,5.29-2.45c2.62-0.34,5.01,0.27,7.13,1.83
			c2.17,1.6,3.46,3.75,3.88,6.43c0.42,2.69-0.15,5.13-1.76,7.33c-1.6,2.19-3.73,3.54-6.43,3.94c-0.44,0.07-0.9,0.09-1.34,0.15
			c-0.18,0.03-0.36,0.09-0.51,0.19c-1.55,0.95-3.09,1.91-4.63,2.86c-0.11,0.07-0.23,0.12-0.35,0.17c-0.02-0.14-0.06-0.27-0.06-0.41
			c-0.06-1.39-0.11-2.78-0.15-4.18c-0.01-0.31-0.17-0.48-0.39-0.65c-0.9-0.67-1.67-1.47-2.3-2.41c-0.86-1.29-1.37-2.71-1.54-4.26
			C119.36,10.65,119.33,10.18,119.29,9.72z"/>
		<g>
			<linearGradient id="SVGID_2_" gradientUnits="userSpaceOnUse" x1="69.5" y1="-5.456968e-12" x2="69.5" y2="50">
				<stop  offset="0" style="stop-color:#000000;stop-opacity:0"/>
				<stop  offset="1" style="stop-color:#000000;stop-opacity:0.2"/>
			</linearGradient>
			<path class="st2" d="M0.04,42.75c1.2,0.23,2.48,0.3,3.85,0.2c0.07,0,1.57-0.35,4.5-1.05c6.77-1.67,12.12-2.73,16.05-3.2
				c0.9-0.07,1.95-0.15,3.15-0.25c0.57-0.23,1.4-0.52,2.5-0.85c0.5-0.13,1-0.2,1.5-0.2c1.5,0,3.4,0.8,5.7,2.4
				c0.97,0.67,1.45,1.42,1.45,2.25s-0.45,1.57-1.35,2.2s-1.95,0.95-3.15,0.95c-0.83,0-1.63-0.17-2.4-0.5
				c-0.1-0.07-0.22-0.16-0.35-0.27c-0.13-0.12-0.27-0.21-0.4-0.28c-0.13-0.07-0.4-0.18-0.8-0.35c-1.63-0.73-3.25-1.1-4.85-1.1
				c-0.4,0-0.78,0.02-1.15,0.05c-2.73,0.37-4.52,0.62-5.35,0.75c-1.9,0.33-3.63,0.75-5.2,1.25c-1.37,0.53-2.75,1.07-4.15,1.6
				c-1.8,0.7-3.18,1.08-4.15,1.15c-0.93,0.07-1.65,0.05-2.15-0.05c-1.1-0.23-1.95-0.79-2.55-1.67C0.14,44.89-0.1,43.88,0.04,42.75z
				 M17.64,16.8c-0.9-0.37-1.75-0.82-2.55-1.35c-0.6-0.37-1.23-0.87-1.9-1.5c-0.9-0.9-1.35-1.63-1.35-2.2c0-0.2,0.07-0.38,0.2-0.55
				c0.13-0.17,0.4-0.3,0.8-0.4c2.1-0.73,5.27-1.72,9.5-2.95c0.5-0.13,1.22-0.27,2.15-0.4c1.3-0.03,2.45,0.18,3.45,0.65
				c0.63,0.3,1.27,0.82,1.9,1.55c0.77,0.83,1.15,1.58,1.15,2.25c0,0.43-0.15,0.8-0.45,1.1c-0.13,0.13-0.43,0.3-0.9,0.5
				c-0.3,0.13-0.74,0.33-1.33,0.6c-0.58,0.27-1.02,0.47-1.32,0.6c-2.4,1.03-5.67,2.33-9.8,3.9c-0.07,0.03-0.54,0.22-1.42,0.55
				c-0.88,0.33-1.36,0.5-1.43,0.5c-0.03-0.03-0.07-0.05-0.1-0.05c0.03-0.07,0.15-0.18,0.35-0.35c0.1-0.07,0.22-0.14,0.35-0.23
				c0.13-0.08,0.26-0.17,0.38-0.27c0.12-0.1,0.35-0.27,0.7-0.52c0.35-0.25,0.58-0.42,0.7-0.5c0.12-0.08,0.24-0.17,0.38-0.25
				c0.13-0.08,0.25-0.17,0.35-0.25c0.1-0.08,0.2-0.19,0.3-0.33C17.8,16.83,17.77,16.8,17.64,16.8z M16.39,30.5
				c0.67-0.33,1.98-0.83,3.95-1.5c0.53-0.2,1.32-0.48,2.35-0.85c0.17-0.07,0.37-0.1,0.6-0.1c1.17,0,2.48,0.35,3.95,1.05
				c1.63,0.77,2.45,1.58,2.45,2.45c0,0.37-0.18,0.73-0.55,1.1c-0.6,0.57-1.58,1.07-2.95,1.5c-0.2,0.03-0.52,0.13-0.95,0.3
				c-0.57,0.33-1.33,0.8-2.3,1.4c-2.53,1.37-4.85,2.05-6.95,2.05c3.57-2.03,5.42-3.47,5.55-4.3c-0.67,0.03-2.62,0.73-5.85,2.1
				c-0.67,0.23-1.07,0.35-1.2,0.35c-1.17-0.13-1.92-1.43-2.25-3.9c0.77-3.1,1.65-5.3,2.65-6.6c-0.43-0.4-0.87-0.81-1.3-1.23
				c-0.43-0.42-0.65-0.89-0.65-1.42c0.83,0.1,2.7-0.4,5.6-1.5c2.13-0.8,4.05-1.6,5.75-2.4c3.53,0.53,5.3,1.3,5.3,2.3
				c0,0.63-0.6,1.37-1.8,2.2c-0.5,0.33-1.53,0.65-3.1,0.95c-1.1,0.23-2.22,0.45-3.35,0.65c-0.83,0.17-1.38,0.32-1.65,0.45
				C18.39,26.22,17.29,27.87,16.39,30.5z"/>
			<linearGradient id="SVGID_3_" gradientUnits="userSpaceOnUse" x1="69.5" y1="-5.456968e-12" x2="69.5" y2="50">
				<stop  offset="0" style="stop-color:#000000;stop-opacity:0"/>
				<stop  offset="1" style="stop-color:#000000;stop-opacity:0.2"/>
			</linearGradient>
			<path class="st3" d="M63.02,24.95l-2.1,1.8c-1.9,1.73-3.25,2.6-4.05,2.6c-0.17,0-0.33-0.03-0.5-0.1
				c-0.6,1.83-1.85,3.48-3.75,4.95c-1.97,1.57-3.93,2.35-5.9,2.35c-1.03,0-1.97-0.23-2.8-0.7c-0.8-0.63-1.2-1-1.2-1.1
				c0-0.13,0.17-0.2,0.5-0.2c0.13,0,0.3,0.02,0.5,0.05c0.2,0.03,0.37,0.05,0.5,0.05c2,0.03,3.9-1.13,5.7-3.5
				c1.67-2.3,2.4-4.47,2.2-6.5c-0.1-0.1-0.62-0.35-1.55-0.75c-2.07-0.97-3.25-2.33-3.55-4.1c0.73,0,1.87-0.38,3.4-1.15
				c1.53-0.77,2.93-1.12,4.2-1.05c3,0.17,4.57,1.12,4.7,2.85c0.03,0.27,0.02,0.6-0.05,1c-0.07,0.5-0.1,0.85-0.1,1.05
				c0.67-0.47,1.57-1.07,2.7-1.8c0.37-1.8,0.55-3.25,0.55-4.35c0-0.93-0.12-1.72-0.35-2.35c0-1.6,0.6-2.35,1.8-2.25
				c0.97,0.07,1.81,0.37,2.53,0.9c0.72,0.53,1.11,1.23,1.18,2.1c-0.04-0.27-0.1,0.4-0.2,2c-0.03,0.33,0,1.72,0.1,4.15
				c0.03,2.1-0.01,4.42-0.13,6.98c-0.12,2.55-0.77,3.82-1.97,3.82c-0.57,0-1.1-0.27-1.6-0.8c-0.5-0.53-0.75-1.08-0.75-1.65V24.95z
				 M68.37,49.5c0.8-0.8,1.2-1.68,1.2-2.65v-40c0-0.7-0.5-1.42-1.5-2.15c-0.77-0.5-1.55-1.02-2.35-1.55c0.03-0.73,0.9-1.1,2.6-1.1
				c0.8,0,1.77,0.08,2.9,0.25c3.83,0.7,5.72,2.13,5.65,4.3c0,0.03-0.05,0.7-0.15,2l-0.3,5.1c-0.3,6.47-0.53,15.13-0.7,26l-0.05,3.6
				v1.35c0,0.27-0.13,0.75-0.4,1.45c-0.53,0.9-1.53,1.68-2.97,2.35C70.84,49.12,69.53,49.47,68.37,49.5z"/>
			<linearGradient id="SVGID_4_" gradientUnits="userSpaceOnUse" x1="69.5" y1="-5.456968e-12" x2="69.5" y2="50">
				<stop  offset="0" style="stop-color:#000000;stop-opacity:0"/>
				<stop  offset="1" style="stop-color:#000000;stop-opacity:0.2"/>
			</linearGradient>
			<path class="st4" d="M113.31,6.45l-0.85,39c-0.03,1.23-0.43,2.15-1.2,2.75c-0.5,0.37-1.47,0.72-2.9,1.05
				c-0.67,0.17-1.68,0.42-3.05,0.75c0.6-0.6,0.9-1.53,0.9-2.8V22.75c-0.9,0.47-1.82,0.93-2.75,1.4c-1.17,0.77-1.65,1.53-1.45,2.3
				c-0.53,1.03-2.55,2.79-6.05,5.28c-3.5,2.48-5.78,3.72-6.85,3.72c-1,0-1.85-0.45-2.55-1.35s-1.05-1.87-1.05-2.9
				c0-0.5,0.25-1.17,0.75-2c0.37-0.63,0.73-1.27,1.1-1.9c0.07-0.13,0.14-0.35,0.23-0.65c0.08-0.3,0.14-0.5,0.17-0.6
				c1.1-3.3,2-5.35,2.7-6.15c-0.83-0.27-1.8-0.95-2.9-2.05c-1.2-1.17-1.78-2.13-1.75-2.9c1.2-0.07,2.83-0.6,4.9-1.6
				c1.93-0.9,3.53-1.32,4.8-1.25c1.13,0.07,2.22,0.47,3.25,1.2c1.17,0.87,1.75,1.83,1.75,2.9c0,1.07-0.43,1.87-1.3,2.4
				c-0.5,0.3-1.42,0.61-2.75,0.92c-1.33,0.32-2.23,0.63-2.7,0.92c-0.67,0.43-1.39,1.56-2.17,3.38c-0.78,1.82-1.18,3.33-1.18,4.53
				c0,0.57,0.1,0.98,0.3,1.25c4.2-1.5,6.77-3.05,7.7-4.65c-0.23-0.27-0.48-0.56-0.75-0.88c-0.27-0.32-0.4-0.61-0.4-0.88
				c0-0.1,0.02-0.2,0.05-0.3c0.1-1,3.07-3.13,8.9-6.4V7.1c-0.03-0.8-0.73-1.65-2.1-2.55c-1.37-0.9-2.03-1.5-2-1.8
				c0.1-0.83,1-1.25,2.7-1.25c2.07,0,4.08,0.48,6.05,1.45C112.99,4.02,113.81,5.18,113.31,6.45z"/>
		</g>
	</g>
</g>
</svg>
