<?xml version="1.0" encoding="utf-8"?>
<!-- Generator: Adobe Illustrator 23.0.1, SVG Export Plug-In . SVG Version: 6.00 Build 0)  -->
<svg version="1.1" id="레이어_1" xmlns="http://www.w3.org/2000/svg" xmlns:xlink="http://www.w3.org/1999/xlink" x="0px"
	 y="0px" viewBox="0 0 200 50" style="enable-background:new 0 0 200 50;" xml:space="preserve">
<style type="text/css">
	.st0{fill:#B21642;}
	.st1{fill:url(#SVGID_1_);}
	.st2{fill:url(#SVGID_2_);}
	.st3{fill:url(#SVGID_3_);}
	.st4{fill:url(#SVGID_4_);}
	.st5{fill:#FFFFFF;}
	.st6{fill:#0081C8;}
	.st7{fill:#EE2E4E;}
	.st8{fill:#00A54F;}
	.st9{fill:#FBB131;}
	.st10{fill:#231F20;}
	.st11{fill:#002361;}
	.st12{display:none;}
	.st13{display:inline;}
	.st14{fill:none;}
</style>
<g>
	<g>
		<path class="st0" d="M119.3,9.7c0-2.9,1.2-5.2,3.3-7.2c1.5-1.4,3.3-2.2,5.3-2.5c2.6-0.3,5,0.3,7.1,1.8c2.2,1.6,3.5,3.7,3.9,6.4
			c0.4,2.7-0.1,5.1-1.8,7.3c-1.6,2.2-3.7,3.5-6.4,3.9c-0.4,0.1-0.9,0.1-1.3,0.2c-0.2,0-0.4,0.1-0.5,0.2c-1.5,1-3.1,1.9-4.6,2.9
			c-0.1,0.1-0.2,0.1-0.3,0.2c0-0.1-0.1-0.3-0.1-0.4c-0.1-1.4-0.1-2.8-0.2-4.2c0-0.3-0.2-0.5-0.4-0.6c-0.9-0.7-1.7-1.5-2.3-2.4
			c-0.9-1.3-1.4-2.7-1.5-4.3C119.4,10.6,119.3,10.2,119.3,9.7z"/>
		<g>
			<path class="st0" d="M0,42.8C1.2,43,2.5,43,3.9,42.9c0.1,0,1.6-0.3,4.5-1c6.8-1.7,12.1-2.7,16-3.2c0.9-0.1,2-0.1,3.1-0.3
				c0.6-0.2,1.4-0.5,2.5-0.8c0.5-0.1,1-0.2,1.5-0.2c1.5,0,3.4,0.8,5.7,2.4c1,0.7,1.5,1.4,1.5,2.3s-0.5,1.6-1.4,2.2s-2,0.9-3.1,0.9
				c-0.8,0-1.6-0.2-2.4-0.5c-0.1-0.1-0.2-0.2-0.3-0.3c-0.1-0.1-0.3-0.2-0.4-0.3c-0.1-0.1-0.4-0.2-0.8-0.3c-1.6-0.7-3.3-1.1-4.9-1.1
				c-0.4,0-0.8,0-1.1,0.1c-2.7,0.4-4.5,0.6-5.4,0.8c-1.9,0.3-3.6,0.8-5.2,1.3c-1.4,0.5-2.8,1.1-4.2,1.6c-1.8,0.7-3.2,1.1-4.1,1.2
				c-0.9,0.1-1.6,0-2.1-0.1c-1.1-0.2-2-0.8-2.5-1.7C0.1,44.9-0.1,43.9,0,42.8z M17.6,16.8c-0.9-0.4-1.8-0.8-2.6-1.4
				c-0.6-0.4-1.2-0.9-1.9-1.5c-0.9-0.9-1.4-1.6-1.4-2.2c0-0.2,0.1-0.4,0.2-0.6c0.1-0.2,0.4-0.3,0.8-0.4c2.1-0.7,5.3-1.7,9.5-2.9
				c0.5-0.1,1.2-0.3,2.2-0.4c1.3,0,2.4,0.2,3.4,0.7c0.6,0.3,1.3,0.8,1.9,1.5c0.8,0.8,1.2,1.6,1.2,2.3c0,0.4-0.2,0.8-0.5,1.1
				c-0.1,0.1-0.4,0.3-0.9,0.5c-0.3,0.1-0.7,0.3-1.3,0.6c-0.6,0.3-1,0.5-1.3,0.6c-2.4,1-5.7,2.3-9.8,3.9c-0.1,0-0.5,0.2-1.4,0.5
				c-0.9,0.3-1.4,0.5-1.4,0.5c0,0-0.1,0-0.1,0c0-0.1,0.1-0.2,0.3-0.4c0.1-0.1,0.2-0.1,0.4-0.2c0.1-0.1,0.3-0.2,0.4-0.3
				c0.1-0.1,0.4-0.3,0.7-0.5c0.4-0.3,0.6-0.4,0.7-0.5c0.1-0.1,0.2-0.2,0.4-0.3c0.1-0.1,0.3-0.2,0.4-0.3c0.1-0.1,0.2-0.2,0.3-0.3
				C17.8,16.8,17.8,16.8,17.6,16.8z M16.4,30.5c0.7-0.3,2-0.8,3.9-1.5c0.5-0.2,1.3-0.5,2.4-0.9c0.2-0.1,0.4-0.1,0.6-0.1
				c1.2,0,2.5,0.3,4,1c1.6,0.8,2.4,1.6,2.4,2.5c0,0.4-0.2,0.7-0.5,1.1c-0.6,0.6-1.6,1.1-3,1.5c-0.2,0-0.5,0.1-0.9,0.3
				c-0.6,0.3-1.3,0.8-2.3,1.4c-2.5,1.4-4.9,2-6.9,2c3.6-2,5.4-3.5,5.5-4.3c-0.7,0-2.6,0.7-5.9,2.1C15,35.9,14.6,36,14.5,36
				c-1.2-0.1-1.9-1.4-2.3-3.9c0.8-3.1,1.6-5.3,2.6-6.6c-0.4-0.4-0.9-0.8-1.3-1.2c-0.4-0.4-0.6-0.9-0.6-1.4c0.8,0.1,2.7-0.4,5.6-1.5
				c2.1-0.8,4-1.6,5.8-2.4c3.5,0.5,5.3,1.3,5.3,2.3c0,0.6-0.6,1.4-1.8,2.2c-0.5,0.3-1.5,0.6-3.1,0.9c-1.1,0.2-2.2,0.5-3.4,0.7
				c-0.8,0.2-1.4,0.3-1.6,0.5C18.4,26.2,17.3,27.9,16.4,30.5z"/>
			<path class="st0" d="M63,24.9l-2.1,1.8c-1.9,1.7-3.3,2.6-4.1,2.6c-0.2,0-0.3,0-0.5-0.1c-0.6,1.8-1.9,3.5-3.8,4.9
				c-2,1.6-3.9,2.4-5.9,2.4c-1,0-2-0.2-2.8-0.7c-0.8-0.6-1.2-1-1.2-1.1c0-0.1,0.2-0.2,0.5-0.2c0.1,0,0.3,0,0.5,0c0.2,0,0.4,0,0.5,0
				c2,0,3.9-1.1,5.7-3.5c1.7-2.3,2.4-4.5,2.2-6.5c-0.1-0.1-0.6-0.4-1.5-0.8c-2.1-1-3.3-2.3-3.6-4.1c0.7,0,1.9-0.4,3.4-1.1
				c1.5-0.8,2.9-1.1,4.2-1c3,0.2,4.6,1.1,4.7,2.8c0,0.3,0,0.6-0.1,1c-0.1,0.5-0.1,0.9-0.1,1.1c0.7-0.5,1.6-1.1,2.7-1.8
				c0.4-1.8,0.6-3.3,0.6-4.3c0-0.9-0.1-1.7-0.3-2.4c0-1.6,0.6-2.4,1.8-2.3c1,0.1,1.8,0.4,2.5,0.9c0.7,0.5,1.1,1.2,1.2,2.1
				c0-0.3-0.1,0.4-0.2,2c0,0.3,0,1.7,0.1,4.1c0,2.1,0,4.4-0.1,7c-0.1,2.5-0.8,3.8-2,3.8c-0.6,0-1.1-0.3-1.6-0.8
				c-0.5-0.5-0.8-1.1-0.8-1.6V24.9z M68.4,49.5c0.8-0.8,1.2-1.7,1.2-2.7v-40c0-0.7-0.5-1.4-1.5-2.2c-0.8-0.5-1.6-1-2.4-1.5
				c0-0.7,0.9-1.1,2.6-1.1c0.8,0,1.8,0.1,2.9,0.3C75,3,76.9,4.4,76.9,6.6c0,0,0,0.7-0.2,2l-0.3,5.1c-0.3,6.5-0.5,15.1-0.7,26l0,3.6
				v1.3c0,0.3-0.1,0.8-0.4,1.5c-0.5,0.9-1.5,1.7-3,2.3C70.8,49.1,69.5,49.5,68.4,49.5z"/>
			<path class="st0" d="M113.3,6.4l-0.8,39c0,1.2-0.4,2.2-1.2,2.8c-0.5,0.4-1.5,0.7-2.9,1.1c-0.7,0.2-1.7,0.4-3,0.8
				c0.6-0.6,0.9-1.5,0.9-2.8V22.7c-0.9,0.5-1.8,0.9-2.8,1.4c-1.2,0.8-1.7,1.5-1.5,2.3c-0.5,1-2.5,2.8-6,5.3
				c-3.5,2.5-5.8,3.7-6.9,3.7c-1,0-1.8-0.4-2.5-1.3s-1-1.9-1-2.9c0-0.5,0.3-1.2,0.8-2c0.4-0.6,0.7-1.3,1.1-1.9
				c0.1-0.1,0.1-0.4,0.2-0.7c0.1-0.3,0.1-0.5,0.2-0.6c1.1-3.3,2-5.4,2.7-6.2c-0.8-0.3-1.8-1-2.9-2c-1.2-1.2-1.8-2.1-1.8-2.9
				c1.2-0.1,2.8-0.6,4.9-1.6c1.9-0.9,3.5-1.3,4.8-1.3c1.1,0.1,2.2,0.5,3.3,1.2c1.2,0.9,1.8,1.8,1.8,2.9c0,1.1-0.4,1.9-1.3,2.4
				c-0.5,0.3-1.4,0.6-2.8,0.9c-1.3,0.3-2.2,0.6-2.7,0.9c-0.7,0.4-1.4,1.6-2.2,3.4c-0.8,1.8-1.2,3.3-1.2,4.5c0,0.6,0.1,1,0.3,1.3
				c4.2-1.5,6.8-3,7.7-4.7c-0.2-0.3-0.5-0.6-0.8-0.9c-0.3-0.3-0.4-0.6-0.4-0.9c0-0.1,0-0.2,0-0.3c0.1-1,3.1-3.1,8.9-6.4V7.1
				c0-0.8-0.7-1.7-2.1-2.6c-1.4-0.9-2-1.5-2-1.8c0.1-0.8,1-1.3,2.7-1.3c2.1,0,4.1,0.5,6,1.4C113,4,113.8,5.2,113.3,6.4z"/>
		</g>
	</g>
	<g>
		<linearGradient id="SVGID_1_" gradientUnits="userSpaceOnUse" x1="69.5" y1="-5.456968e-12" x2="69.5" y2="50">
			<stop  offset="0" style="stop-color:#000000;stop-opacity:0"/>
			<stop  offset="1" style="stop-color:#000000;stop-opacity:0.2"/>
		</linearGradient>
		<path class="st1" d="M119.3,9.7c0-2.9,1.2-5.2,3.3-7.2c1.5-1.4,3.3-2.2,5.3-2.5c2.6-0.3,5,0.3,7.1,1.8c2.2,1.6,3.5,3.7,3.9,6.4
			c0.4,2.7-0.1,5.1-1.8,7.3c-1.6,2.2-3.7,3.5-6.4,3.9c-0.4,0.1-0.9,0.1-1.3,0.2c-0.2,0-0.4,0.1-0.5,0.2c-1.5,1-3.1,1.9-4.6,2.9
			c-0.1,0.1-0.2,0.1-0.3,0.2c0-0.1-0.1-0.3-0.1-0.4c-0.1-1.4-0.1-2.8-0.2-4.2c0-0.3-0.2-0.5-0.4-0.6c-0.9-0.7-1.7-1.5-2.3-2.4
			c-0.9-1.3-1.4-2.7-1.5-4.3C119.4,10.6,119.3,10.2,119.3,9.7z"/>
		<g>
			<linearGradient id="SVGID_2_" gradientUnits="userSpaceOnUse" x1="69.5" y1="-5.456968e-12" x2="69.5" y2="50">
				<stop  offset="0" style="stop-color:#000000;stop-opacity:0"/>
				<stop  offset="1" style="stop-color:#000000;stop-opacity:0.2"/>
			</linearGradient>
			<path class="st2" d="M0,42.8C1.2,43,2.5,43,3.9,42.9c0.1,0,1.6-0.3,4.5-1c6.8-1.7,12.1-2.7,16-3.2c0.9-0.1,2-0.1,3.1-0.3
				c0.6-0.2,1.4-0.5,2.5-0.8c0.5-0.1,1-0.2,1.5-0.2c1.5,0,3.4,0.8,5.7,2.4c1,0.7,1.5,1.4,1.5,2.3s-0.5,1.6-1.4,2.2s-2,0.9-3.1,0.9
				c-0.8,0-1.6-0.2-2.4-0.5c-0.1-0.1-0.2-0.2-0.3-0.3c-0.1-0.1-0.3-0.2-0.4-0.3c-0.1-0.1-0.4-0.2-0.8-0.3c-1.6-0.7-3.3-1.1-4.9-1.1
				c-0.4,0-0.8,0-1.1,0.1c-2.7,0.4-4.5,0.6-5.4,0.8c-1.9,0.3-3.6,0.8-5.2,1.3c-1.4,0.5-2.8,1.1-4.2,1.6c-1.8,0.7-3.2,1.1-4.1,1.2
				c-0.9,0.1-1.6,0-2.1-0.1c-1.1-0.2-2-0.8-2.5-1.7C0.1,44.9-0.1,43.9,0,42.8z M17.6,16.8c-0.9-0.4-1.8-0.8-2.6-1.4
				c-0.6-0.4-1.2-0.9-1.9-1.5c-0.9-0.9-1.4-1.6-1.4-2.2c0-0.2,0.1-0.4,0.2-0.6c0.1-0.2,0.4-0.3,0.8-0.4c2.1-0.7,5.3-1.7,9.5-2.9
				c0.5-0.1,1.2-0.3,2.2-0.4c1.3,0,2.4,0.2,3.4,0.7c0.6,0.3,1.3,0.8,1.9,1.5c0.8,0.8,1.2,1.6,1.2,2.3c0,0.4-0.2,0.8-0.5,1.1
				c-0.1,0.1-0.4,0.3-0.9,0.5c-0.3,0.1-0.7,0.3-1.3,0.6c-0.6,0.3-1,0.5-1.3,0.6c-2.4,1-5.7,2.3-9.8,3.9c-0.1,0-0.5,0.2-1.4,0.5
				c-0.9,0.3-1.4,0.5-1.4,0.5c0,0-0.1,0-0.1,0c0-0.1,0.1-0.2,0.3-0.4c0.1-0.1,0.2-0.1,0.4-0.2c0.1-0.1,0.3-0.2,0.4-0.3
				c0.1-0.1,0.4-0.3,0.7-0.5c0.4-0.3,0.6-0.4,0.7-0.5c0.1-0.1,0.2-0.2,0.4-0.3c0.1-0.1,0.3-0.2,0.4-0.3c0.1-0.1,0.2-0.2,0.3-0.3
				C17.8,16.8,17.8,16.8,17.6,16.8z M16.4,30.5c0.7-0.3,2-0.8,3.9-1.5c0.5-0.2,1.3-0.5,2.4-0.9c0.2-0.1,0.4-0.1,0.6-0.1
				c1.2,0,2.5,0.3,4,1c1.6,0.8,2.4,1.6,2.4,2.5c0,0.4-0.2,0.7-0.5,1.1c-0.6,0.6-1.6,1.1-3,1.5c-0.2,0-0.5,0.1-0.9,0.3
				c-0.6,0.3-1.3,0.8-2.3,1.4c-2.5,1.4-4.9,2-6.9,2c3.6-2,5.4-3.5,5.5-4.3c-0.7,0-2.6,0.7-5.9,2.1C15,35.9,14.6,36,14.5,36
				c-1.2-0.1-1.9-1.4-2.3-3.9c0.8-3.1,1.6-5.3,2.6-6.6c-0.4-0.4-0.9-0.8-1.3-1.2c-0.4-0.4-0.6-0.9-0.6-1.4c0.8,0.1,2.7-0.4,5.6-1.5
				c2.1-0.8,4-1.6,5.8-2.4c3.5,0.5,5.3,1.3,5.3,2.3c0,0.6-0.6,1.4-1.8,2.2c-0.5,0.3-1.5,0.6-3.1,0.9c-1.1,0.2-2.2,0.5-3.4,0.7
				c-0.8,0.2-1.4,0.3-1.6,0.5C18.4,26.2,17.3,27.9,16.4,30.5z"/>
			<linearGradient id="SVGID_3_" gradientUnits="userSpaceOnUse" x1="69.5" y1="-5.456968e-12" x2="69.5" y2="50">
				<stop  offset="0" style="stop-color:#000000;stop-opacity:0"/>
				<stop  offset="1" style="stop-color:#000000;stop-opacity:0.2"/>
			</linearGradient>
			<path class="st3" d="M63,24.9l-2.1,1.8c-1.9,1.7-3.3,2.6-4.1,2.6c-0.2,0-0.3,0-0.5-0.1c-0.6,1.8-1.9,3.5-3.8,4.9
				c-2,1.6-3.9,2.4-5.9,2.4c-1,0-2-0.2-2.8-0.7c-0.8-0.6-1.2-1-1.2-1.1c0-0.1,0.2-0.2,0.5-0.2c0.1,0,0.3,0,0.5,0c0.2,0,0.4,0,0.5,0
				c2,0,3.9-1.1,5.7-3.5c1.7-2.3,2.4-4.5,2.2-6.5c-0.1-0.1-0.6-0.4-1.5-0.8c-2.1-1-3.3-2.3-3.6-4.1c0.7,0,1.9-0.4,3.4-1.1
				c1.5-0.8,2.9-1.1,4.2-1c3,0.2,4.6,1.1,4.7,2.8c0,0.3,0,0.6-0.1,1c-0.1,0.5-0.1,0.9-0.1,1.1c0.7-0.5,1.6-1.1,2.7-1.8
				c0.4-1.8,0.6-3.3,0.6-4.3c0-0.9-0.1-1.7-0.3-2.4c0-1.6,0.6-2.4,1.8-2.3c1,0.1,1.8,0.4,2.5,0.9c0.7,0.5,1.1,1.2,1.2,2.1
				c0-0.3-0.1,0.4-0.2,2c0,0.3,0,1.7,0.1,4.1c0,2.1,0,4.4-0.1,7c-0.1,2.5-0.8,3.8-2,3.8c-0.6,0-1.1-0.3-1.6-0.8
				c-0.5-0.5-0.8-1.1-0.8-1.6V24.9z M68.4,49.5c0.8-0.8,1.2-1.7,1.2-2.7v-40c0-0.7-0.5-1.4-1.5-2.2c-0.8-0.5-1.6-1-2.4-1.5
				c0-0.7,0.9-1.1,2.6-1.1c0.8,0,1.8,0.1,2.9,0.3C75,3,76.9,4.4,76.9,6.6c0,0,0,0.7-0.2,2l-0.3,5.1c-0.3,6.5-0.5,15.1-0.7,26l0,3.6
				v1.3c0,0.3-0.1,0.8-0.4,1.5c-0.5,0.9-1.5,1.7-3,2.3C70.8,49.1,69.5,49.5,68.4,49.5z"/>
			<linearGradient id="SVGID_4_" gradientUnits="userSpaceOnUse" x1="69.5" y1="-5.456968e-12" x2="69.5" y2="50">
				<stop  offset="0" style="stop-color:#000000;stop-opacity:0"/>
				<stop  offset="1" style="stop-color:#000000;stop-opacity:0.2"/>
			</linearGradient>
			<path class="st4" d="M113.3,6.4l-0.8,39c0,1.2-0.4,2.2-1.2,2.8c-0.5,0.4-1.5,0.7-2.9,1.1c-0.7,0.2-1.7,0.4-3,0.8
				c0.6-0.6,0.9-1.5,0.9-2.8V22.7c-0.9,0.5-1.8,0.9-2.8,1.4c-1.2,0.8-1.7,1.5-1.5,2.3c-0.5,1-2.5,2.8-6,5.3
				c-3.5,2.5-5.8,3.7-6.9,3.7c-1,0-1.8-0.4-2.5-1.3s-1-1.9-1-2.9c0-0.5,0.3-1.2,0.8-2c0.4-0.6,0.7-1.3,1.1-1.9
				c0.1-0.1,0.1-0.4,0.2-0.7c0.1-0.3,0.1-0.5,0.2-0.6c1.1-3.3,2-5.4,2.7-6.2c-0.8-0.3-1.8-1-2.9-2c-1.2-1.2-1.8-2.1-1.8-2.9
				c1.2-0.1,2.8-0.6,4.9-1.6c1.9-0.9,3.5-1.3,4.8-1.3c1.1,0.1,2.2,0.5,3.3,1.2c1.2,0.9,1.8,1.8,1.8,2.9c0,1.1-0.4,1.9-1.3,2.4
				c-0.5,0.3-1.4,0.6-2.8,0.9c-1.3,0.3-2.2,0.6-2.7,0.9c-0.7,0.4-1.4,1.6-2.2,3.4c-0.8,1.8-1.2,3.3-1.2,4.5c0,0.6,0.1,1,0.3,1.3
				c4.2-1.5,6.8-3,7.7-4.7c-0.2-0.3-0.5-0.6-0.8-0.9c-0.3-0.3-0.4-0.6-0.4-0.9c0-0.1,0-0.2,0-0.3c0.1-1,3.1-3.1,8.9-6.4V7.1
				c0-0.8-0.7-1.7-2.1-2.6c-1.4-0.9-2-1.5-2-1.8c0.1-0.8,1-1.3,2.7-1.3c2.1,0,4.1,0.5,6,1.4C113,4,113.8,5.2,113.3,6.4z"/>
		</g>
	</g>
</g>
<g>
	<rect x="147" class="st5" width="35.7" height="50"/>
	<g>
		<g id="XMLID_48_">
			<path class="st6" d="M161.4,40.3c0-1.6-1.3-2.9-2.9-2.9s-2.9,1.3-2.9,2.9c0,1.6,1.3,2.9,2.9,2.9c0.1,0,0.2,0,0.3,0
				c0-0.1,0-0.1,0-0.2c0-0.1,0-0.2,0-0.3c-0.1,0-0.2,0-0.3,0c-1.3,0-2.4-1.1-2.4-2.4c0-1.3,1.1-2.4,2.4-2.4s2.4,1.1,2.4,2.4
				c0,1.1-0.7,2-1.7,2.3c0,0.1,0,0.2,0,0.4c0,0.1,0,0.1,0,0.1C160.5,42.8,161.4,41.7,161.4,40.3"/>
		</g>
		<g id="XMLID_49_">
			<path class="st7" d="M174.1,40.3c0,1.6-1.3,2.9-2.9,2.9c-1.5,0-2.8-1.2-2.9-2.7c0.2,0,0.3,0.1,0.5,0.1c0.2,1.2,1.2,2.1,2.4,2.1
				c1.3,0,2.4-1.1,2.4-2.4c0-1.3-1.1-2.4-2.4-2.4c-1.3,0-2.4,1-2.4,2.3c-0.2,0-0.3-0.1-0.5-0.1c0.1-1.5,1.4-2.7,2.9-2.7
				C172.8,37.4,174.1,38.7,174.1,40.3"/>
		</g>
		<g id="XMLID_52_">
			<path class="st8" d="M170.4,43.1c-0.1,1.3-1.1,2.3-2.4,2.3c-1.3,0-2.4-1.1-2.4-2.4c0-1.1,0.7-2,1.7-2.3c0-0.1,0-0.2,0-0.4
				c0-0.1,0-0.1,0-0.1c-1.3,0.3-2.2,1.5-2.2,2.8c0,1.6,1.3,2.9,2.9,2.9c1.5,0,2.8-1.2,2.9-2.7C170.7,43.2,170.6,43.2,170.4,43.1
				 M168,40.6c1.2,0,2.2,0.9,2.4,2.1c0.2,0.1,0.3,0.1,0.5,0.1c-0.1-1.5-1.4-2.7-2.9-2.7c-0.1,0-0.2,0-0.3,0c0,0.1,0,0.1,0,0.2
				c0,0.1,0,0.2,0,0.3C167.8,40.6,167.9,40.6,168,40.6"/>
		</g>
		<g id="XMLID_55_">
			<path class="st9" d="M164.6,43.2c-0.1,1.5-1.4,2.7-2.9,2.7c-1.6,0-2.9-1.3-2.9-2.9c0-1.4,0.9-2.5,2.2-2.8c0,0.1,0,0.1,0,0.1
				c0,0.1,0,0.2,0,0.4c-1,0.3-1.7,1.2-1.7,2.3c0,1.3,1.1,2.4,2.4,2.4c1.3,0,2.4-1,2.4-2.3C164.3,43.2,164.4,43.2,164.6,43.2
				 M161.4,40.6c0-0.1,0-0.2,0-0.3c0-0.1,0-0.2,0-0.2c0.1,0,0.2,0,0.3,0c1.5,0,2.8,1.2,2.9,2.7c-0.2,0-0.3-0.1-0.5-0.1
				c-0.2-1.2-1.2-2.1-2.4-2.1C161.6,40.6,161.5,40.6,161.4,40.6"/>
		</g>
		<g id="XMLID_58_">
			<path class="st10" d="M164.8,42.7c-1.2,0-2.2-0.9-2.4-2.1c-0.2-0.1-0.3-0.1-0.5-0.1c0.1,1.5,1.4,2.7,2.9,2.7c0.1,0,0.2,0,0.3,0
				c0-0.1,0-0.1,0-0.2c0-0.1,0-0.2,0-0.3C165,42.7,164.9,42.7,164.8,42.7 M164.8,37.4c-1.5,0-2.8,1.2-2.9,2.7c0.2,0,0.3,0,0.5,0.1
				c0.1-1.3,1.1-2.3,2.4-2.3c1.3,0,2.4,1.1,2.4,2.4c0,1.1-0.7,2-1.7,2.3c0,0.1,0,0.2,0,0.4c0,0.1,0,0.1,0,0.1
				c1.3-0.3,2.2-1.5,2.2-2.8C167.8,38.7,166.4,37.4,164.8,37.4"/>
		</g>
	</g>
	<g>
		<g>
			<g id="XMLID_59_">
				<polygon class="st11" points="152.6,35.4 152,35.4 152,32.2 151.1,32.2 151.1,31.6 153.5,31.6 153.5,32.2 152.6,32.2 				"/>
			</g>
			<g id="XMLID_60_">
				<polygon class="st11" points="160.3,35.4 159.5,35.4 158.6,33.8 158.3,34.3 158.3,35.4 157.7,35.4 157.7,31.6 158.3,31.6 
					158.3,33.3 158.3,33.3 159.5,31.6 160.1,31.6 159,33.3 				"/>
			</g>
			<g id="XMLID_61_">
				<polygon class="st11" points="162.3,35.4 161.7,35.4 161.7,33.8 160.7,31.6 161.3,31.6 162,33.1 162,33.1 162.7,31.6 
					163.3,31.6 162.3,33.8 162.3,35.4 				"/>
			</g>
			<g id="XMLID_62_">
				<path class="st11" d="M169.8,35.4h-2.1v-0.5l0,0l1.4-1.8c0.1-0.1,0.1-0.2,0.1-0.4c0-0.3-0.2-0.5-0.5-0.5c-0.1,0-0.3,0-0.3,0.1
					c-0.1,0.1-0.1,0.2-0.1,0.4v0h-0.6v0c0-0.3,0.1-0.6,0.3-0.8c0.2-0.2,0.4-0.3,0.7-0.3c0.3,0,0.6,0.1,0.8,0.3
					c0.2,0.2,0.3,0.5,0.3,0.8c0,0.3-0.1,0.5-0.3,0.7l-1.1,1.4l0,0h1.3V35.4L169.8,35.4z"/>
			</g>
			<g id="XMLID_63_">
				<path class="st11" d="M175.7,35.4h-2.1v-0.5l0,0l1.4-1.8c0.1-0.1,0.1-0.2,0.1-0.4c0-0.3-0.2-0.5-0.5-0.5c-0.1,0-0.3,0-0.3,0.1
					c-0.1,0.1-0.1,0.2-0.1,0.4v0h-0.6v0c0-0.3,0.1-0.6,0.3-0.8c0.2-0.2,0.4-0.3,0.7-0.3c0.3,0,0.6,0.1,0.8,0.3
					c0.2,0.2,0.3,0.5,0.3,0.8c0,0.3-0.1,0.5-0.3,0.7l-1.1,1.4l0,0h1.3V35.4L175.7,35.4z"/>
			</g>
			<g id="XMLID_66_">
				<path class="st11" d="M165,32.2c-0.4,0-0.6,0.3-0.6,0.6v1.4c0,0.4,0.2,0.7,0.6,0.7c0.4,0,0.6-0.3,0.6-0.7v-1.4
					C165.6,32.5,165.3,32.2,165,32.2 M165,35.5c-0.7,0-1.2-0.5-1.2-1.2v-1.6c0-0.7,0.5-1.1,1.2-1.1c0.7,0,1.2,0.5,1.2,1.1v1.6
					C166.1,35,165.6,35.5,165,35.5"/>
			</g>
			<g id="XMLID_69_">
				<path class="st11" d="M155.4,32.2c-0.4,0-0.6,0.3-0.6,0.6v1.4c0,0.4,0.2,0.7,0.6,0.7s0.6-0.3,0.6-0.7v-1.4
					C156,32.5,155.7,32.2,155.4,32.2 M155.4,35.5c-0.7,0-1.2-0.5-1.2-1.2v-1.6c0-0.7,0.5-1.1,1.2-1.1c0.7,0,1.2,0.5,1.2,1.1v1.6
					C156.6,35,156.1,35.5,155.4,35.5"/>
			</g>
			<g id="XMLID_72_">
				<path class="st11" d="M171.8,32.2c-0.4,0-0.5,0.3-0.5,0.6v1.6c0,0.4,0.2,0.6,0.5,0.6c0.3,0,0.5-0.2,0.5-0.6v-1.6
					C172.2,32.5,172.2,32.2,171.8,32.2 M171.8,35.5c-0.4,0-1.1-0.2-1.1-1.1v-1.6c0-0.7,0.4-1.1,1.1-1.1c0.6,0,1.1,0.4,1.1,1.1v1.6
					C172.8,35.2,172.2,35.5,171.8,35.5"/>
			</g>
			<g id="XMLID_75_">
				<path class="st11" d="M177.5,32.2c-0.4,0-0.5,0.3-0.5,0.6v1.6c0,0.4,0.1,0.6,0.5,0.6s0.5-0.2,0.5-0.6v-1.6
					C178,32.5,177.9,32.2,177.5,32.2 M177.5,35.5c-0.4,0-1.1-0.2-1.1-1.1v-1.6c0-0.7,0.4-1.1,1.1-1.1c0.6,0,1.1,0.4,1.1,1.1v1.6
					C178.6,35.2,177.9,35.5,177.5,35.5"/>
			</g>
		</g>
		<g>
			<g id="XMLID_3_">
				<rect x="171.4" y="13.5" transform="matrix(0.5 -0.866 0.866 0.5 73.5852 156.8209)" class="st11" width="2.4" height="2.4"/>
			</g>
			<g id="XMLID_4_">
				<polygon class="st11" points="172.6,9 172.6,9 172.6,11.4 175,11.4 175,9 				"/>
			</g>
			<g id="XMLID_5_">
				<rect x="169.3" y="26.9" transform="matrix(0.866 -0.5 0.5 0.866 9.2298 89.1409)" class="st11" width="3.3" height="0.9"/>
			</g>
			<g id="XMLID_6_">
				<rect x="176.6" y="15.1" class="st11" width="0.9" height="3.3"/>
			</g>
			<g id="XMLID_7_">
				
					<rect x="173.8" y="22.4" transform="matrix(0.5001 -0.866 0.866 0.5001 67.8943 163.3518)" class="st11" width="3.3" height="0.9"/>
			</g>
			<g id="XMLID_8_">
				<polygon class="st11" points="167.7,24.1 167.7,24.1 167.7,27.3 168.6,27.3 168.6,24.1 				"/>
			</g>
			<g id="XMLID_9_">
				
					<rect x="171.1" y="23.7" transform="matrix(0.7071 -0.7071 0.7071 0.7071 33.2178 129.2253)" class="st11" width="2.9" height="1.7"/>
			</g>
			<g id="XMLID_10_">
				
					<rect x="171.1" y="17.1" transform="matrix(0.7071 -0.7071 0.7071 0.7071 37.8541 127.3049)" class="st11" width="2.9" height="1.7"/>
			</g>
			<g id="XMLID_11_">
				<polygon class="st11" points="171,21.7 171,21.7 169.3,21.2 168.6,24.1 170.2,24.5 				"/>
			</g>
			<g id="XMLID_12_">
				
					<rect x="174" y="18.7" transform="matrix(0.2588 -0.9659 0.9659 0.2588 111.1082 183.9858)" class="st11" width="2.9" height="1.7"/>
			</g>
			<g id="XMLID_13_">
				
					<rect x="174" y="12.2" transform="matrix(0.2588 -0.9659 0.9659 0.2588 117.4411 179.1226)" class="st11" width="2.9" height="1.7"/>
			</g>
			<g id="XMLID_14_">
				
					<rect x="170.1" y="10.4" transform="matrix(0.2588 -0.9659 0.9659 0.2588 115.2651 173.9022)" class="st11" width="1.7" height="2.9"/>
			</g>
			<g id="XMLID_15_">
				<rect x="158" y="9.9" class="st11" width="2.4" height="2.4"/>
			</g>
			<g id="XMLID_16_">
				<rect x="153.5" y="11.1" transform="matrix(0.866 -0.5 0.5 0.866 14.5832 78.9899)" class="st11" width="2.4" height="2.4"/>
			</g>
			<g id="XMLID_17_">
				<rect x="170.5" y="4.5" transform="matrix(0.5 -0.866 0.866 0.5 80.1303 151.1406)" class="st11" width="0.9" height="3.3"/>
			</g>
			<g id="XMLID_18_">
				<rect x="157.1" y="5.7" transform="matrix(0.866 -0.5 0.5 0.866 18.1802 80.1971)" class="st11" width="3.3" height="0.9"/>
			</g>
			<g id="XMLID_19_">
				<rect x="163.2" y="4.1" class="st11" width="3.3" height="0.9"/>
			</g>
			<g id="XMLID_20_">
				<rect x="169.3" y="9" transform="matrix(0.866 -0.5 0.5 0.866 18.1814 86.7475)" class="st11" width="3.3" height="0.9"/>
			</g>
			<g id="XMLID_21_">
				
					<rect x="166.8" y="4.7" transform="matrix(0.2588 -0.9659 0.9659 0.2588 118.3265 166.5472)" class="st11" width="1.7" height="2.9"/>
			</g>
			<g id="XMLID_22_">
				
					<rect x="161.2" y="8" transform="matrix(0.2588 -0.9659 0.9659 0.2588 110.9566 163.4888)" class="st11" width="1.7" height="2.9"/>
			</g>
			<g id="XMLID_23_">
				<polygon class="st11" points="166,9 166,9 166.5,10.6 169.3,9.9 168.9,8.2 				"/>
			</g>
			<g id="XMLID_24_">
				
					<rect x="160.5" y="5.3" transform="matrix(0.9659 -0.2588 0.2588 0.9659 3.9215 42.1378)" class="st11" width="2.9" height="1.7"/>
			</g>
			<g id="XMLID_25_">
				<rect x="154.9" y="8.6" transform="matrix(0.9659 -0.2588 0.2588 0.9659 2.881 40.78)" class="st11" width="2.9" height="1.7"/>
			</g>
			<g id="XMLID_26_">
				
					<rect x="156.7" y="12.5" transform="matrix(0.9659 -0.2588 0.2588 0.9659 1.7637 41.2514)" class="st11" width="1.7" height="2.9"/>
			</g>
			<g id="XMLID_27_">
				<rect x="161.6" y="23.3" transform="matrix(0.866 -0.5 0.5 0.866 9.5508 84.6616)" class="st11" width="2.4" height="2.4"/>
			</g>
			<g id="XMLID_28_">
				<rect x="164.9" y="26.6" transform="matrix(0.5 -0.866 0.866 0.5 58.9679 157.6947)" class="st11" width="2.4" height="2.4"/>
			</g>
			<g id="XMLID_29_">
				<rect x="152.2" y="15.1" class="st11" width="0.9" height="3.3"/>
			</g>
			<g id="XMLID_30_">
				<rect x="158.3" y="25.7" transform="matrix(0.5 -0.866 0.866 0.5 55.6824 151.1392)" class="st11" width="0.9" height="3.3"/>
			</g>
			<g id="XMLID_31_">
				<rect x="153.8" y="21.2" transform="matrix(0.866 -0.5 0.5 0.866 9.2298 80.1919)" class="st11" width="0.9" height="3.3"/>
			</g>
			<g id="XMLID_32_">
				<polygon class="st11" points="157.1,15.6 157.1,15.6 154.3,13.9 153.8,14.7 156.7,16.3 				"/>
			</g>
			<g id="XMLID_33_">
				<polygon class="st11" points="155.5,20.8 154.7,18 153.1,18.4 153.8,21.2 				"/>
			</g>
			<g id="XMLID_34_">
				
					<rect x="159.1" y="21.4" transform="matrix(0.9659 -0.2588 0.2588 0.9659 -0.4709 42.169)" class="st11" width="1.7" height="2.9"/>
			</g>
			<g id="XMLID_35_">
				
					<rect x="156.3" y="16.5" transform="matrix(0.7071 -0.7071 0.7071 0.7071 33.3177 116.3432)" class="st11" width="1.7" height="2.9"/>
			</g>
			<g id="XMLID_36_">
				
					<rect x="156.2" y="23" transform="matrix(0.7071 -0.7071 0.7071 0.7071 28.6827 118.262)" class="st11" width="1.7" height="2.9"/>
			</g>
			<g id="XMLID_37_">
				
					<rect x="161.9" y="26.3" transform="matrix(0.7071 -0.7071 0.7071 0.7071 28.0281 123.2277)" class="st11" width="1.7" height="2.9"/>
			</g>
			<g id="XMLID_38_">
				
					<rect x="164.6" y="23.7" transform="matrix(0.7071 -0.7071 0.7071 0.7071 31.3046 124.592)" class="st11" width="2.9" height="1.7"/>
			</g>
			<g id="XMLID_39_">
				<rect x="171.4" y="20" transform="matrix(0.5 -0.866 0.866 0.5 67.9161 160.0914)" class="st11" width="2.4" height="2.4"/>
			</g>
			<g id="XMLID_40_">
				<rect x="168.1" y="25.7" transform="matrix(0.5 -0.866 0.866 0.5 62.2422 160.0867)" class="st11" width="3.3" height="0.9"/>
			</g>
			<g id="XMLID_41_">
				
					<rect x="173.8" y="15.9" transform="matrix(0.5001 -0.866 0.866 0.5001 73.5721 160.0738)" class="st11" width="3.3" height="0.9"/>
			</g>
			<g id="XMLID_42_">
				<polygon class="st11" points="166.1,6.6 163.6,6.6 163.6,9 166,9 166,6.6 				"/>
			</g>
			<g id="XMLID_43_">
				<rect x="168.9" y="7.4" class="st11" width="3.3" height="0.9"/>
			</g>
			<g id="XMLID_44_">
				<polygon class="st11" points="160.8,7.4 157.5,7.4 157.5,8.3 160.8,8.3 160.8,7.4 				"/>
			</g>
			<g id="XMLID_45_">
				<rect x="155.9" y="20" transform="matrix(0.866 -0.5 0.5 0.866 10.4271 81.3908)" class="st11" width="2.4" height="2.4"/>
			</g>
			<g id="XMLID_46_">
				<rect x="153.8" y="14.7" transform="matrix(0.866 -0.5 0.5 0.866 12.5101 79.3184)" class="st11" width="0.9" height="3.3"/>
			</g>
			<g id="XMLID_47_">
				<rect x="159.5" y="24.5" transform="matrix(0.866 -0.5 0.5 0.866 8.354 83.4695)" class="st11" width="0.9" height="3.3"/>
			</g>
		</g>
	</g>
	<g class="st12">
		<g class="st13">
			<g>
				<path class="st11" d="M147,31.6h0.7v1.7h0l1-1.7h0.7l-1,1.5l1.1,2.3h-0.7l-0.8-1.7l-0.4,0.5v1.1H147V31.6z"/>
			</g>
			<g>
				<path class="st11" d="M153.2,35.4h-0.7L152,33h0l-0.5,2.5h-0.7l-0.7-3.8h0.7l0.4,2.4h0l0.6-2.4h0.5l0.6,2.5h0l0.3-2.5h0.7
					L153.2,35.4z"/>
			</g>
			<g>
				<path class="st11" d="M155.3,31.6h0.6l1.1,3.8h-0.7l-0.2-0.8h-1l-0.2,0.8h-0.7L155.3,31.6z M155.6,32.7L155.6,32.7l-0.4,1.4h0.7
					L155.6,32.7z"/>
			</g>
			<g>
				<path class="st11" d="M157.7,31.6h0.7l1.1,2.3h0v-2.3h0.7v3.8h-0.7l-1.1-2.3h0v2.3h-0.7V31.6z"/>
			</g>
			<g>
				<path class="st11" d="M161.1,32.5c0-0.6,0.6-0.9,1.2-0.9s1.2,0.3,1.2,0.9v0.2h-0.7v-0.2c0-0.3-0.2-0.4-0.5-0.4
					c-0.3,0-0.5,0.1-0.5,0.4v2c0,0.3,0.2,0.4,0.5,0.4c0.3,0,0.5-0.1,0.5-0.4v-0.7h-0.6v-0.5h1.3v1.2c0,0.6-0.6,0.9-1.2,0.9
					s-1.2-0.3-1.2-0.9V32.5z"/>
			</g>
			<g>
				<path class="st11" d="M164.4,31.6h0.7v1.6h0.9v-1.6h0.7v3.8H166v-1.7h-0.9v1.7h-0.7V31.6z"/>
			</g>
			<g>
				<path class="st11" d="M167.7,32.5c0-0.6,0.6-0.9,1.2-0.9c0.6,0,1.2,0.3,1.2,0.9v2c0,0.6-0.6,0.9-1.2,0.9c-0.6,0-1.2-0.3-1.2-0.9
					V32.5z M168.4,34.5c0,0.3,0.2,0.4,0.5,0.4c0.3,0,0.5-0.1,0.5-0.4v-2c0-0.3-0.2-0.4-0.5-0.4c-0.3,0-0.5,0.1-0.5,0.4V34.5z"/>
			</g>
			<g>
				<path class="st11" d="M171.6,34.9l1.3-1.8c0.1-0.2,0.1-0.3,0.1-0.5c0-0.2,0-0.4-0.3-0.4c-0.2,0-0.3,0.1-0.3,0.3v0.3h-0.7v-0.3
					c0-0.5,0.5-0.8,1.1-0.8c0.7,0,1,0.4,1,1c0,0.4,0,0.5-0.2,0.8l-1,1.5h1.3v0.5h-2.1V34.9z"/>
			</g>
			<g>
				<path class="st11" d="M174.5,32.4c0-0.5,0.5-0.8,1.1-0.8c0.6,0,1.1,0.3,1.1,0.8v2.2c0,0.5-0.5,0.8-1.1,0.8
					c-0.6,0-1.1-0.3-1.1-0.8V32.4z M175.2,34.6c0,0.2,0.1,0.3,0.3,0.3s0.3-0.1,0.3-0.3v-2.2c0-0.2-0.1-0.3-0.3-0.3s-0.3,0.1-0.3,0.3
					V34.6z"/>
			</g>
			<g>
				<path class="st11" d="M177.4,34.9l1.3-1.8c0.1-0.2,0.1-0.3,0.1-0.5c0-0.2,0-0.4-0.3-0.4c-0.2,0-0.3,0.1-0.3,0.3v0.3h-0.7v-0.3
					c0-0.5,0.5-0.8,1.1-0.8c0.7,0,1,0.4,1,1c0,0.4,0,0.5-0.2,0.8l-1,1.5h1.3v0.5h-2.1V34.9z"/>
			</g>
			<g>
				<path class="st11" d="M181.2,32.2l-0.7,0.4V32l0.7-0.4h0.7v3.8h-0.7V32.2z"/>
			</g>
		</g>
		<g class="st13">
			<g>
				<g class="st12">
					<g class="st13">
						<path class="st14" d="M152.2,19.4c0,0.1,0,0.1,0,0.2l0,0.1l1.5,0.7l-0.7,1.5l0.1,0.1c0,0,0.1,0.1,0.1,0.1
							c0.6,0.9,1.5,1.6,2.5,1.9c1.1,0.4,2.2,0.4,3.3,0c0.3-0.1,0.7-0.3,1-0.4c-0.1,0.3-0.1,0.7-0.1,1c0,1.1,0.4,2.2,1,3.1
							c0.7,0.9,1.6,1.5,2.6,1.8c0.1,0,0.1,0,0.1,0l0.1,0l1.2-1.2l1.2,1.2l0.1,0c0,0,0.1,0,0.1,0c1-0.3,2-0.9,2.6-1.8
							c0.7-0.9,1-2,1-3.1c0-0.3,0-0.7-0.1-1c0.3,0.2,0.6,0.3,1,0.4c1.1,0.3,2.2,0.3,3.3,0c1-0.4,1.9-1.1,2.5-1.9
							c0,0,0.1-0.1,0.1-0.1l0.1-0.1l-0.7-1.5l1.5-0.7l0-0.1c0,0,0-0.1,0-0.2c0-1.1-0.3-2.2-0.9-3.1c-0.6-0.9-1.5-1.6-2.6-1.9
							c-0.3-0.1-0.7-0.2-1.1-0.2c0.3-0.2,0.5-0.5,0.7-0.8c0.7-0.9,1-2,1-3.1c0-1.1-0.4-2.2-1.1-3c0,0-0.1-0.1-0.1-0.1L173.3,7
							l-1.6,0.3l-0.3-1.6l-0.1,0c0,0-0.1,0-0.1-0.1c-0.6-0.2-1.1-0.3-1.7-0.3c-0.5,0-1,0.1-1.5,0.2c-1.1,0.3-2,1-2.7,1.9
							c-0.2,0.3-0.4,0.6-0.5,0.9c-0.1-0.3-0.3-0.6-0.5-0.9c-0.7-0.9-1.6-1.6-2.7-1.9c-1-0.3-2.2-0.3-3.2,0.1c-0.1,0-0.1,0-0.1,0.1
							l-0.1,0L158,7.3L156.3,7l-0.1,0.1c0,0-0.1,0.1-0.1,0.1c-0.7,0.9-1,1.9-1.1,3c0,1.1,0.3,2.2,1,3.1c0.2,0.3,0.4,0.5,0.7,0.8
							c-0.4,0-0.7,0.1-1.1,0.2c-1.1,0.3-2,1-2.6,1.9C152.5,17.2,152.2,18.3,152.2,19.4z M177,19.3l-1.7,0.8l0,0l0,0l0.8,1.6
							c-1.1,1.7-3.3,2.4-5.2,1.8c-0.5-0.2-1-0.4-1.4-0.7l-1.8-2.5c0.3-0.2,0.5-0.5,0.7-0.7l0.9,0.7c0,0,0,0.1,0,0.1
							c-0.1,0.2-0.1,0.5,0.1,0.7c0.1,0.2,0.3,0.4,0.5,0.5c0.4,0.1,0.8,0,1-0.3c0,0,0-0.1,0.1-0.1c0-0.1,0.1-0.1,0.1-0.2
							c0.1-0.2,0.1-0.5-0.1-0.7c-0.1-0.2-0.3-0.4-0.5-0.5c-0.3-0.1-0.7,0-0.9,0.2l-0.9-0.7c0.2-0.3,0.4-0.6,0.5-1l2.3,0.7
							c0,0.2,0,0.5,0.2,0.7c0,0,0,0,0,0c0,0,0,0,0,0.1c0,0,0,0,0,0c0,0,0.1,0.1,0.1,0.1c0,0,0,0,0.1,0c0.1,0,0.1,0.1,0.2,0.1
							c0.2,0.1,0.5,0.1,0.7-0.1c0.2-0.1,0.4-0.3,0.5-0.5c0,0,0,0,0,0c0,0,0,0,0,0c0,0,0,0,0,0c0,0,0,0,0,0c0,0,0,0,0,0c0,0,0,0,0,0
							c0-0.2,0-0.4-0.1-0.6c-0.1-0.2-0.2-0.3-0.4-0.4c0,0,0,0,0,0c0,0,0,0,0,0c0,0,0,0,0,0c0,0,0,0,0,0c0,0,0,0,0,0c0,0,0,0,0,0
							c-0.4-0.1-0.9,0.1-1.1,0.4l-2.3-0.7c0.1-0.4,0.2-0.7,0.2-1.1h1.2c0,0.1,0.1,0.3,0.2,0.4c0.1,0.1,0.3,0.3,0.5,0.3h0
							c0,0,0,0,0,0c0,0,0,0,0,0c0,0,0,0,0,0c0,0,0,0,0,0c0,0,0,0,0,0c0,0,0,0,0,0c0.2,0,0.4,0,0.6-0.1s0.3-0.2,0.4-0.4c0,0,0,0,0,0
							c0,0,0,0,0,0c0,0,0,0,0,0c0,0,0,0,0,0c0,0,0,0,0,0c0,0,0,0,0,0c0-0.1,0-0.2,0-0.2c0,0,0-0.1,0-0.1c0-0.4-0.2-0.7-0.6-0.8
							c0,0,0,0-0.1,0c0,0,0,0,0,0c0,0,0,0,0,0c0,0,0,0,0,0c0,0,0,0,0,0c0,0,0,0,0,0c0,0,0,0,0,0c0,0-0.1,0-0.1,0c0,0,0,0,0,0
							c0,0,0,0,0,0c0,0,0,0,0,0c0,0,0,0,0,0c0,0,0,0,0,0c0,0,0,0,0,0c0,0,0,0,0,0c0,0,0,0,0,0c0,0,0,0,0,0c0,0,0,0,0,0c0,0,0,0,0,0
							c0,0,0,0,0,0c0,0,0,0,0,0c0,0,0,0,0,0c0,0,0,0,0,0c0,0,0,0,0,0c0,0,0,0,0,0c0,0,0,0,0,0c0,0,0,0,0,0c0,0,0,0,0,0
							c-0.2,0.1-0.4,0.3-0.5,0.5c0,0,0,0.1,0,0.1h-1.2c0-0.3-0.1-0.7-0.1-1l2.9-0.9c0.5,0,1.1,0.1,1.6,0.2
							C175.8,15.5,177,17.3,177,19.3z M159.4,20.1C159.4,20.1,159.4,20.1,159.4,20.1C159.5,20.1,159.5,20.1,159.4,20.1
							c0.2,0,0.3,0.1,0.4,0.2c0,0,0,0,0,0l0.1,0.1c0,0,0,0.1,0.1,0.1c0.1,0.3-0.1,0.6-0.4,0.7c-0.2,0.1-0.5,0-0.6-0.2l-0.1-0.1
							c0,0,0-0.1-0.1-0.1c-0.1-0.3,0.1-0.6,0.4-0.7c0,0,0,0,0,0C159.3,20.1,159.3,20.1,159.4,20.1z M160.6,10.8L160.6,10.8
							c-0.3,0.2-0.7,0.1-0.9-0.1c-0.2-0.3-0.1-0.6,0.1-0.8c0.1-0.1,0.3-0.1,0.4-0.1c0.2,0,0.3,0.1,0.4,0.2c0,0,0.1,0.1,0.1,0.1
							C160.8,10.4,160.8,10.7,160.6,10.8z M163,10.9L163,10.9c-0.2,0-0.3,0-0.3,0c-0.1,0-0.2-0.1-0.3-0.2c0,0,0,0,0,0
							c-0.1-0.1-0.1-0.3-0.1-0.4c0-0.2,0.1-0.3,0.2-0.4c0,0,0.1,0,0.1-0.1l0.1,0c0.2-0.1,0.5,0,0.6,0.2c0.2,0.3,0.1,0.6-0.1,0.8
							C163.1,10.9,163.1,10.9,163,10.9C163.1,10.9,163,10.9,163,10.9z M171.8,19.1L171.8,19.1c0.1-0.4,0.5-0.5,0.8-0.4
							c0.1,0,0.3,0.2,0.3,0.3c0.1,0.1,0.1,0.3,0,0.4c0,0.1-0.2,0.3-0.3,0.3c-0.1,0-0.2,0.1-0.3,0.1c0,0,0,0,0,0c0,0-0.1,0-0.1,0
							c0,0,0,0-0.1,0c-0.2-0.1-0.4-0.3-0.4-0.6C171.8,19.1,171.8,19.1,171.8,19.1z M166.7,22.5L166.7,22.5c0.1,0,0.2,0,0.2,0
							c0.3,0,0.6,0.3,0.6,0.6c0,0.2-0.1,0.4-0.4,0.5l-0.1,0c0,0-0.1,0-0.1,0c-0.3,0-0.6-0.3-0.6-0.6c0,0,0-0.1,0-0.1
							C166.4,22.8,166.5,22.6,166.7,22.5z M162.9,22.5L162.9,22.5c0.3,0.1,0.4,0.3,0.4,0.6c0,0.3-0.3,0.6-0.6,0.6c0,0-0.1,0-0.1,0
							l-0.1,0c-0.2-0.1-0.4-0.3-0.4-0.5c0-0.3,0.3-0.6,0.6-0.6C162.8,22.5,162.9,22.5,162.9,22.5z M166.8,11L166.8,11
							c-0.1,0-0.2-0.1-0.2-0.1c-0.1-0.1-0.2-0.2-0.2-0.4c0-0.2,0-0.3,0.1-0.4c0.1-0.2,0.4-0.3,0.6-0.2l0.1,0c0,0,0.1,0,0.1,0.1
							c0.3,0.2,0.3,0.6,0.1,0.8C167.2,10.9,167,11,166.8,11z M164.8,20.9c-2.3,0-4.1-1.8-4.1-4.1c0-2.3,1.8-4.1,4.1-4.1
							c2.3,0,4.1,1.8,4.1,4.1C169,19,167.1,20.9,164.8,20.9z M170.8,12.5c0,0.1,0.1,0.1,0.1,0.2c0,0.2,0,0.3-0.1,0.5c0,0,0,0,0,0
							c-0.1,0.1-0.2,0.2-0.4,0.2c-0.2,0-0.3,0-0.4-0.1c0,0-0.1-0.1-0.1-0.1l-0.1-0.1c-0.1-0.2-0.1-0.5,0-0.7
							c0.2-0.3,0.6-0.3,0.8-0.1C170.6,12.4,170.7,12.4,170.8,12.5L170.8,12.5z M170,10.7c-0.1,0.2-0.3,0.2-0.5,0.2
							c-0.1,0-0.2,0-0.3-0.1l-0.1-0.1c-0.1-0.1-0.2-0.2-0.2-0.4c0-0.1,0-0.3,0.1-0.4c0.1-0.1,0.2-0.2,0.4-0.2c0.2,0,0.3,0,0.4,0.1
							C170.1,10.1,170.2,10.5,170,10.7z M164.8,24L164.8,24c0.4,0,0.6,0.3,0.6,0.6c0,0.3-0.3,0.6-0.6,0.6c-0.3,0-0.6-0.3-0.6-0.6
							c0,0,0,0,0-0.1C164.3,24.3,164.5,24,164.8,24z M169.8,20.5c0,0,0-0.1,0.1-0.1l0.1-0.1c0,0,0.1-0.1,0.1-0.1
							c0.1-0.1,0.2-0.1,0.3-0.1c0,0,0,0,0,0c0,0,0.1,0,0.1,0c0.3,0.1,0.4,0.3,0.4,0.6c0,0,0,0.1,0,0.1c0,0,0,0.1-0.1,0.1l-0.1,0.1
							c0,0-0.1,0.1-0.1,0.1c-0.1,0.1-0.3,0.1-0.5,0.1C169.8,21.2,169.7,20.8,169.8,20.5z M171,16.6c0.1-0.3,0.4-0.5,0.7-0.4
							c0.2,0.1,0.4,0.3,0.4,0.5l0,0.1c0,0,0,0.1,0,0.1c0,0.1-0.2,0.3-0.3,0.3c-0.1,0.1-0.3,0.1-0.4,0c-0.2-0.1-0.4-0.3-0.4-0.5
							l0-0.1C171,16.7,171,16.6,171,16.6z M159.9,13.1L159.9,13.1c-0.1,0.1-0.1,0.1-0.2,0.2c-0.1,0.1-0.3,0.1-0.4,0.1
							c-0.2,0-0.3-0.1-0.4-0.2c0,0,0-0.1-0.1-0.1c-0.1-0.2-0.1-0.4,0-0.5l0.1-0.1c0,0,0.1-0.1,0.1-0.1c0.1-0.1,0.3-0.1,0.4-0.1
							c0,0,0,0,0.1,0c0.1,0,0.2,0.1,0.3,0.2c0,0,0,0,0,0c0.1,0.1,0.1,0.2,0.1,0.3C160,13,160,13.1,159.9,13.1z M158.3,17.3
							C158.3,17.3,158.3,17.3,158.3,17.3c-0.2,0.1-0.3,0.1-0.5,0c-0.1-0.1-0.2-0.2-0.3-0.3c0,0,0-0.1,0-0.1l0-0.1
							c0-0.2,0.2-0.4,0.4-0.5c0.1,0,0.3,0,0.4,0s0.2,0.2,0.3,0.3c0,0,0,0.1,0,0.1l0,0.1C158.7,17,158.5,17.2,158.3,17.3z
							 M157.7,19.6c-0.1,0.1-0.1,0.1-0.2,0.1c0,0-0.1,0-0.1,0c0,0,0,0,0,0c0,0,0,0,0,0c0,0,0,0,0,0c0,0,0,0,0,0c-0.1,0-0.1,0-0.2,0
							c0,0,0,0-0.1,0c0,0,0,0-0.1,0c-0.1-0.1-0.2-0.2-0.2-0.3c0-0.1,0-0.3,0-0.4c0.1-0.1,0.2-0.2,0.3-0.3c0,0,0.1,0,0.1,0
							c0.3,0,0.5,0.1,0.6,0.4l0,0.1c0,0,0,0.1,0,0.1C157.9,19.3,157.8,19.5,157.7,19.6z M160.5,23l1.7-2.4c0.3,0.2,0.6,0.4,0.9,0.5
							l-0.3,1c0,0-0.1,0-0.1,0c-0.5,0-0.9,0.4-0.9,0.9c0,0.4,0.2,0.7,0.6,0.9c0,0,0.1,0,0.1,0c0.1,0,0.2,0,0.2,0
							c0.5,0,0.9-0.4,0.9-0.9c0-0.3-0.2-0.7-0.5-0.8l0.3-1c0.4,0.1,0.7,0.2,1.1,0.2v2.3c-0.4,0.1-0.8,0.5-0.8,0.9
							c0,0.5,0.4,0.9,0.9,0.9s0.9-0.4,0.9-0.9c0-0.5-0.3-0.8-0.8-0.9v-2.3c0.4,0,0.7-0.1,1.1-0.2l0.3,1c-0.3,0.2-0.5,0.5-0.5,0.8
							c0,0.5,0.4,0.9,0.9,0.9c0.1,0,0.2,0,0.2,0c0,0,0.1,0,0.1,0c0.4-0.1,0.6-0.5,0.6-0.9c0-0.5-0.4-0.9-0.9-0.9c0,0-0.1,0-0.1,0
							l-0.3-1c0.3-0.1,0.6-0.3,0.9-0.5l1.8,2.4c0.2,0.5,0.3,1,0.3,1.6c0,2-1.3,3.8-3.3,4.4l-1.3-1.3l0,0l0,0l-1.3,1.3
							c-1.9-0.6-3.3-2.4-3.3-4.4C160.3,24.1,160.4,23.5,160.5,23z M172.1,14.2l-2.9,0.9c-0.1-0.3-0.3-0.6-0.5-0.9l0.9-0.7
							c0,0,0.1,0.1,0.1,0.1c0.4,0.3,1,0.2,1.3-0.2c0.2-0.3,0.2-0.7,0-1.1c0,0,0-0.1-0.1-0.1c-0.1-0.1-0.1-0.1-0.2-0.2
							c-0.2-0.1-0.4-0.2-0.6-0.2c0,0-0.1,0-0.1,0c-0.2,0-0.5,0.2-0.6,0.4c-0.2,0.3-0.2,0.6-0.1,1l-0.9,0.7c-0.2-0.3-0.5-0.6-0.8-0.8
							l1.4-1.9c0.4,0.2,0.9,0.1,1.2-0.3l-0.1-0.1v0c0,0,0,0,0,0l0.1,0.1c0.1-0.2,0.2-0.5,0.2-0.7c0-0.2-0.2-0.5-0.4-0.6
							c-0.2-0.1-0.4-0.2-0.6-0.2c-0.3,0-0.6,0.1-0.8,0.4c-0.3,0.4-0.2,0.9,0.1,1.2l-1.4,1.9c-0.3-0.2-0.6-0.4-1-0.5l0.3-1.1
							c0.3,0,0.7-0.1,0.9-0.4c0.1-0.2,0.2-0.5,0.2-0.7c0-0.2-0.2-0.5-0.4-0.6c-0.1,0-0.1-0.1-0.2-0.1c0,0-0.1,0-0.1,0
							c-0.1,0-0.2,0-0.2,0c-0.3,0-0.6,0.1-0.8,0.4c-0.3,0.4-0.2,1,0.2,1.3c0,0,0.1,0,0.1,0.1l-0.3,1.1c-0.3-0.1-0.7-0.2-1-0.2v-3
							c0.1-0.5,0.4-1,0.7-1.4c1.2-1.6,3.3-2.3,5.2-1.6l0.3,1.8l0,0l0,0l1.8-0.3c1.2,1.6,1.3,3.8,0.1,5.5
							C172.9,13.5,172.5,13.9,172.1,14.2z M164.6,12.1c-0.3,0-0.7,0.1-1,0.2l-0.3-1.1c0,0,0.1,0,0.1-0.1c0.2-0.1,0.3-0.4,0.4-0.6
							c0-0.1,0-0.2,0-0.2c0-0.2-0.1-0.3-0.2-0.5c0,0,0,0,0,0c0,0,0,0,0-0.1c0,0,0,0,0,0c0,0,0,0,0,0c0,0,0,0,0,0c0,0,0,0,0,0
							c0,0,0,0,0,0c0,0,0,0,0,0c0,0,0,0,0,0c0,0,0,0,0,0c0,0,0,0,0,0c0,0,0,0,0,0c0,0,0,0,0,0c0,0,0,0,0,0c0,0,0,0,0,0
							c0,0,0,0-0.1,0c0,0,0,0,0,0c0,0,0,0,0,0c0,0,0,0,0,0c0,0,0,0,0,0c0,0,0,0,0,0c0,0,0,0-0.1,0c0,0,0,0,0,0c0,0,0,0-0.1,0
							c0,0,0,0,0,0c0,0,0,0,0,0c0,0,0,0,0,0c0,0,0,0,0,0c0,0,0,0,0,0c0,0,0,0,0,0c0,0,0,0,0,0c0,0,0,0,0,0c0,0,0,0-0.1,0
							c0,0-0.1,0-0.1,0c-0.1,0-0.1,0.1-0.2,0.1c-0.4,0.3-0.5,0.9-0.2,1.3c0.2,0.3,0.5,0.4,0.9,0.4l0.3,1.1c-0.3,0.1-0.7,0.3-1,0.5
							l-1.4-1.9c0.3-0.3,0.3-0.8,0.1-1.2c-0.1-0.2-0.4-0.3-0.6-0.4c0,0,0,0,0,0c0,0,0,0,0,0c0,0,0,0,0,0c0,0,0,0,0,0c0,0,0,0,0,0
							c0,0,0,0,0,0c0,0,0,0,0,0c0,0,0,0,0,0c0,0,0,0,0,0c0,0,0,0,0,0c0,0,0,0,0,0c0,0,0,0,0,0c0,0,0,0,0,0c0,0,0,0,0,0c0,0,0,0,0,0
							c0,0,0,0,0,0c0,0,0,0,0,0c0,0,0,0,0,0c0,0,0,0,0,0c0,0,0,0,0,0c0,0,0,0,0,0c0,0,0,0,0,0c0,0,0,0,0,0c0,0,0,0,0,0c0,0,0,0,0,0
							c0,0,0,0,0,0c0,0,0,0,0,0c0,0,0,0,0,0c0,0,0,0,0,0c0,0,0,0,0,0c0,0,0,0,0,0c0,0,0,0,0,0c-0.2,0.1-0.3,0.4-0.4,0.6
							c0,0.2,0,0.5,0.2,0.7c0.3,0.4,0.8,0.5,1.2,0.3l1.4,1.9c-0.3,0.2-0.6,0.5-0.8,0.8l-0.9-0.7c0.1-0.3,0.1-0.7-0.1-1c0,0,0,0,0,0
							c0,0,0,0,0,0c0,0,0,0,0,0c0,0,0,0,0,0c0,0,0,0,0,0c0,0,0,0,0,0c-0.1-0.1-0.3-0.2-0.5-0.3c0,0,0,0,0,0c0,0,0,0,0,0c0,0,0,0,0,0
							c0,0,0,0,0,0c0,0,0,0-0.1,0c-0.1,0-0.3,0-0.4,0.1c0,0,0,0,0,0c0,0,0,0,0,0c0,0,0,0,0,0c0,0,0,0,0,0c0,0,0,0,0,0c0,0,0,0,0,0
							c-0.1,0-0.1,0.1-0.2,0.2c0,0,0,0.1-0.1,0.1c-0.2,0.3-0.2,0.7,0,1.1c0.3,0.4,0.9,0.5,1.3,0.2c0,0,0.1,0,0.1-0.1l0.9,0.7
							c-0.2,0.3-0.4,0.6-0.5,0.9l-2.9-0.9c-0.4-0.3-0.8-0.7-1.1-1.1c-1.2-1.6-1.2-3.9,0.1-5.5l1.8,0.3l0,0l0,0l0.3-1.8
							c1.9-0.7,4,0,5.2,1.6c0.3,0.4,0.5,0.9,0.7,1.4L164.6,12.1z M157.4,14.6l2.9,1c-0.1,0.3-0.1,0.7-0.1,1l-1.2,0c0,0,0-0.1,0-0.1
							c0,0,0,0,0,0c0,0,0,0,0,0c0,0,0,0,0,0c0,0,0,0,0,0c0,0,0,0,0,0c0,0,0,0,0,0c0,0,0,0,0,0c0,0,0,0,0,0c0,0,0,0,0,0c0,0,0,0,0,0
							c0,0,0,0,0,0c0,0,0,0,0,0c0,0,0,0,0,0c0,0,0,0,0,0c0,0,0,0,0,0c0,0,0,0,0,0c0,0,0,0,0,0c0,0,0,0,0,0c0,0,0,0,0,0c0,0,0,0,0,0
							c0,0,0,0,0,0c0,0,0,0,0,0c0,0,0,0,0,0c0,0,0,0,0,0c0,0,0,0,0,0c0,0,0,0,0,0c0,0,0,0,0,0c0,0,0,0,0,0c0,0,0,0,0,0c0,0,0,0,0,0
							c0,0,0,0,0,0c0,0,0,0,0,0c0,0,0,0,0,0c0,0,0,0,0,0c0,0,0,0,0,0c0,0,0,0,0,0c0,0,0,0,0,0c0,0,0,0,0,0c0,0,0,0,0,0c0,0,0,0,0,0
							c0,0,0,0,0,0c0,0,0,0,0,0c0,0,0,0,0,0c0,0,0,0,0,0c0,0,0,0,0,0c0,0,0,0,0,0c0,0,0,0,0,0c0,0,0,0,0,0c0,0,0,0,0,0c0,0,0,0,0,0
							c0,0,0,0,0,0c0,0,0,0,0,0c0,0,0,0,0,0c0,0,0,0,0,0c0,0,0,0,0,0c0,0,0,0,0,0c0,0,0,0,0,0c0,0,0,0,0,0c0,0,0,0,0,0c0,0,0,0,0,0
							c0,0,0,0,0,0c0,0,0,0,0,0c0,0,0,0,0,0c0,0,0,0,0,0c-0.4,0.1-0.6,0.4-0.6,0.8c0,0,0,0.1,0,0.1c0,0.1,0,0.2,0,0.2
							c0.2,0.5,0.7,0.8,1.2,0.6c0.3-0.1,0.6-0.4,0.6-0.7h1.2c0,0.4,0.1,0.7,0.2,1.1l-2.3,0.7c-0.2-0.4-0.7-0.6-1.1-0.4
							c-0.5,0.2-0.8,0.7-0.6,1.2c0.2,0.5,0.7,0.8,1.2,0.6c0,0,0.1,0,0.1,0c0.4-0.2,0.6-0.6,0.5-0.9c0,0,0,0,0,0l1.4-0.4l0.9-0.3
							c0.1,0.3,0.3,0.7,0.5,1L160,20c-0.2-0.2-0.6-0.3-0.9-0.2c-0.2,0.1-0.4,0.2-0.5,0.5c-0.1,0.2-0.1,0.5-0.1,0.7
							c0,0.1,0.1,0.1,0.1,0.2c0,0,0,0.1,0.1,0.1c0.2,0.3,0.6,0.4,1,0.3c0.2-0.1,0.4-0.2,0.5-0.5c0.1-0.2,0.1-0.5,0.1-0.7
							c0,0,0-0.1,0-0.1l0.9-0.7c0.2,0.3,0.5,0.5,0.7,0.7l-1.8,2.5c-0.4,0.3-0.9,0.6-1.4,0.7c-1.9,0.6-4-0.1-5.2-1.8l0.8-1.6l0,0l0,0
							l-1.6-0.8c0-2,1.2-3.8,3.2-4.5C156.4,14.7,156.9,14.6,157.4,14.6z"/>
					</g>
					<g class="st13">
						<path class="st14" d="M164.8,13.3v0.9c1.4,0,2.5,1.1,2.5,2.5c0,1.4-1.1,2.5-2.5,2.5v0.9c1.9,0,3.4-1.5,3.4-3.4
							C168.3,14.9,166.7,13.3,164.8,13.3z"/>
					</g>
					<g class="st13">
						<path class="st14" d="M163.3,16.8c0-0.9,0.7-1.6,1.6-1.6v-0.9c-1.4,0-2.5,1.1-2.5,2.5c0,1.4,1.1,2.5,2.5,2.5v-0.9
							C164,18.3,163.3,17.6,163.3,16.8z"/>
					</g>
					<g class="st13">
						<path class="st14" d="M165.6,16.8c0,0.4-0.3,0.8-0.8,0.8v0.8c0.9,0,1.6-0.7,1.6-1.6c0-0.9-0.7-1.6-1.6-1.6V16
							C165.3,16,165.6,16.3,165.6,16.8z"/>
					</g>
					<g class="st13">
						<path class="st14" d="M164.8,16c-0.4,0-0.8,0.3-0.8,0.8c0,0.4,0.3,0.8,0.8,0.8v-0.8V16z"/>
					</g>
				</g>
				<g>
					<g>
						<path class="st11" d="M177.5,14.1c0-0.1,0-0.1,0-0.2l0-0.1l-1.5-0.7l0.7-1.5l-0.1-0.1c0,0-0.1-0.1-0.1-0.1
							c-0.6-0.9-1.5-1.6-2.5-1.9c-1.1-0.4-2.2-0.4-3.3,0c-0.3,0.1-0.7,0.3-1,0.4c0.1-0.3,0.1-0.7,0.1-1c0-1.1-0.4-2.2-1-3.1
							c-0.7-0.9-1.6-1.5-2.6-1.8c-0.1,0-0.1,0-0.1,0l-0.1,0l-1.2,1.2l-1.2-1.2l-0.1,0c0,0-0.1,0-0.1,0c-1,0.3-2,0.9-2.6,1.8
							c-0.7,0.9-1,2-1,3.1c0,0.3,0,0.7,0.1,1c-0.3-0.2-0.6-0.3-1-0.4c-1.1-0.3-2.2-0.3-3.3,0c-1,0.4-1.9,1.1-2.5,1.9
							c0,0-0.1,0.1-0.1,0.1l-0.1,0.1l0.7,1.5l-1.5,0.7l0,0.1c0,0,0,0.1,0,0.2c0,1.1,0.3,2.2,0.9,3.1c0.6,0.9,1.5,1.6,2.6,1.9
							c0.3,0.1,0.7,0.2,1.1,0.2c-0.3,0.2-0.5,0.5-0.7,0.8c-0.7,0.9-1,2-1,3.1c0,1.1,0.4,2.2,1.1,3c0,0,0.1,0.1,0.1,0.1l0.1,0.1
							l1.6-0.3l0.3,1.6l0.1,0c0,0,0.1,0,0.1,0.1c0.6,0.2,1.1,0.3,1.7,0.3c0.5,0,1-0.1,1.5-0.2c1.1-0.3,2-1,2.7-1.9
							c0.2-0.3,0.4-0.6,0.5-0.9c0.1,0.3,0.3,0.6,0.5,0.9C166,27,167,27.7,168,28c1,0.3,2.2,0.3,3.2-0.1c0.1,0,0.1,0,0.1-0.1l0.1,0
							l0.3-1.6l1.6,0.3l0.1-0.1c0,0,0.1-0.1,0.1-0.1c0.7-0.9,1-1.9,1.1-3c0-1.1-0.3-2.2-1-3.1c-0.2-0.3-0.4-0.5-0.7-0.8
							c0.4,0,0.7-0.1,1.1-0.2c1.1-0.3,2-1,2.6-1.9C177.2,16.3,177.5,15.2,177.5,14.1z M152.7,14.2l1.7-0.8l0,0l0,0l-0.8-1.6
							c1.1-1.7,3.3-2.4,5.2-1.8c0.5,0.2,1,0.4,1.4,0.7l1.8,2.5c-0.3,0.2-0.5,0.5-0.7,0.7l-0.9-0.7c0,0,0-0.1,0-0.1
							c0.1-0.2,0.1-0.5-0.1-0.7c-0.1-0.2-0.3-0.4-0.5-0.5c-0.4-0.1-0.8,0-1,0.3c0,0,0,0.1-0.1,0.1c0,0.1-0.1,0.1-0.1,0.2
							c-0.1,0.2-0.1,0.5,0.1,0.7c0.1,0.2,0.3,0.4,0.5,0.5c0.3,0.1,0.7,0,0.9-0.2l0.9,0.7c-0.2,0.3-0.4,0.6-0.5,1l-2.3-0.7
							c0-0.2,0-0.5-0.2-0.7c0,0,0,0,0,0c0,0,0,0,0-0.1c0,0,0,0,0,0c0,0-0.1-0.1-0.1-0.1c0,0,0,0-0.1,0c-0.1,0-0.1-0.1-0.2-0.1
							c-0.2-0.1-0.5-0.1-0.7,0.1c-0.2,0.1-0.4,0.3-0.5,0.5c0,0,0,0,0,0c0,0,0,0,0,0c0,0,0,0,0,0c0,0,0,0,0,0c0,0,0,0,0,0
							c0,0,0,0,0,0c0,0.2,0,0.4,0.1,0.6c0.1,0.2,0.2,0.3,0.4,0.4c0,0,0,0,0,0c0,0,0,0,0,0c0,0,0,0,0,0c0,0,0,0,0,0c0,0,0,0,0,0
							c0,0,0,0,0,0c0.4,0.1,0.9-0.1,1.1-0.4l2.3,0.7c-0.1,0.4-0.2,0.7-0.2,1.1H159c0-0.1-0.1-0.3-0.2-0.4c-0.1-0.1-0.3-0.3-0.5-0.3
							h0c0,0,0,0,0,0c0,0,0,0,0,0c0,0,0,0,0,0c0,0,0,0,0,0c0,0,0,0,0,0c0,0,0,0,0,0c-0.2,0-0.4,0-0.6,0.1c-0.2,0.1-0.3,0.2-0.4,0.4
							c0,0,0,0,0,0c0,0,0,0,0,0c0,0,0,0,0,0c0,0,0,0,0,0c0,0,0,0,0,0c0,0,0,0,0,0c0,0.1,0,0.2,0,0.2c0,0,0,0.1,0,0.1
							c0,0.4,0.2,0.7,0.6,0.8c0,0,0,0,0.1,0c0,0,0,0,0,0c0,0,0,0,0,0c0,0,0,0,0,0c0,0,0,0,0,0c0,0,0,0,0,0c0,0,0,0,0,0
							c0,0,0.1,0,0.1,0c0,0,0,0,0,0c0,0,0,0,0,0c0,0,0,0,0,0c0,0,0,0,0,0c0,0,0,0,0,0c0,0,0,0,0,0c0,0,0,0,0,0c0,0,0,0,0,0
							c0,0,0,0,0,0c0,0,0,0,0,0c0,0,0,0,0,0c0,0,0,0,0,0c0,0,0,0,0,0c0,0,0,0,0,0c0,0,0,0,0,0c0,0,0,0,0,0c0,0,0,0,0,0c0,0,0,0,0,0
							c0,0,0,0,0,0c0,0,0,0,0,0c0.2-0.1,0.4-0.3,0.5-0.5c0,0,0-0.1,0-0.1h1.2c0,0.3,0.1,0.7,0.1,1l-2.9,0.9c-0.5,0-1.1-0.1-1.6-0.2
							C153.9,18,152.7,16.2,152.7,14.2z M170.3,13.4C170.3,13.4,170.3,13.4,170.3,13.4C170.2,13.4,170.2,13.4,170.3,13.4
							c-0.2,0-0.3-0.1-0.4-0.2c0,0,0,0,0,0l-0.1-0.1c0,0,0-0.1-0.1-0.1c-0.1-0.3,0.1-0.6,0.4-0.7c0.2-0.1,0.5,0,0.6,0.2l0.1,0.1
							c0,0,0,0.1,0.1,0.1c0.1,0.3-0.1,0.6-0.4,0.7c0,0,0,0,0,0C170.4,13.4,170.4,13.4,170.3,13.4z M169.1,22.7L169.1,22.7
							c0.3-0.2,0.7-0.1,0.9,0.1c0.2,0.3,0.1,0.6-0.1,0.8c-0.1,0.1-0.3,0.1-0.4,0.1c-0.2,0-0.3-0.1-0.4-0.2c0,0-0.1-0.1-0.1-0.1
							C168.9,23.1,168.9,22.8,169.1,22.7z M166.7,22.6L166.7,22.6c0.2,0,0.3,0,0.3,0c0.1,0,0.2,0.1,0.3,0.2c0,0,0,0,0,0
							c0.1,0.1,0.1,0.3,0.1,0.4c0,0.2-0.1,0.3-0.2,0.4c0,0-0.1,0-0.1,0.1l-0.1,0c-0.2,0.1-0.5,0-0.6-0.2c-0.2-0.3-0.1-0.6,0.1-0.8
							C166.6,22.6,166.6,22.6,166.7,22.6C166.6,22.6,166.7,22.6,166.7,22.6z M157.9,14.4L157.9,14.4c-0.1,0.4-0.5,0.5-0.8,0.4
							c-0.1,0-0.3-0.2-0.3-0.3c-0.1-0.1-0.1-0.3,0-0.4c0-0.1,0.2-0.3,0.3-0.3c0.1,0,0.2-0.1,0.3-0.1c0,0,0,0,0,0c0,0,0.1,0,0.1,0
							c0,0,0,0,0.1,0c0.2,0.1,0.4,0.3,0.4,0.6C157.9,14.4,157.9,14.4,157.9,14.4z M163,11L163,11c-0.1,0-0.2,0-0.2,0
							c-0.3,0-0.6-0.3-0.6-0.6c0-0.2,0.1-0.4,0.4-0.5l0.1,0c0,0,0.1,0,0.1,0c0.3,0,0.6,0.3,0.6,0.6c0,0,0,0.1,0,0.1
							C163.3,10.8,163.2,10.9,163,11z M166.8,11L166.8,11c-0.3-0.1-0.4-0.3-0.4-0.6c0-0.3,0.3-0.6,0.6-0.6c0,0,0.1,0,0.1,0l0.1,0
							c0.2,0.1,0.4,0.3,0.4,0.5c0,0.3-0.3,0.6-0.6,0.6C166.9,11,166.8,11,166.8,11z M162.9,22.5L162.9,22.5c0.1,0,0.2,0.1,0.2,0.1
							c0.1,0.1,0.2,0.2,0.2,0.4c0,0.2,0,0.3-0.1,0.4c-0.1,0.2-0.4,0.3-0.6,0.2l-0.1,0c0,0-0.1,0-0.1-0.1c-0.3-0.2-0.3-0.6-0.1-0.8
							C162.4,22.6,162.7,22.5,162.9,22.5z M164.8,12.6c2.3,0,4.1,1.8,4.1,4.1c0,2.3-1.8,4.1-4.1,4.1c-2.3,0-4.1-1.8-4.1-4.1
							C160.7,14.5,162.6,12.6,164.8,12.6z M158.9,21c0-0.1-0.1-0.1-0.1-0.2c0-0.2,0-0.3,0.1-0.5c0,0,0,0,0,0
							c0.1-0.1,0.2-0.2,0.4-0.2c0.2,0,0.3,0,0.4,0.1c0,0,0.1,0.1,0.1,0.1l0.1,0.1c0.1,0.2,0.1,0.5,0,0.7c-0.2,0.3-0.6,0.3-0.8,0.1
							C159,21.1,159,21.1,158.9,21L158.9,21z M159.7,22.8c0.1-0.2,0.3-0.2,0.5-0.2c0.1,0,0.2,0,0.3,0.1l0.1,0.1
							c0.1,0.1,0.2,0.2,0.2,0.4c0,0.1,0,0.3-0.1,0.4c-0.1,0.1-0.2,0.2-0.4,0.2c-0.2,0-0.3,0-0.4-0.1C159.6,23.4,159.5,23,159.7,22.8
							z M164.9,9.5L164.9,9.5c-0.4,0-0.6-0.3-0.6-0.6c0-0.3,0.3-0.6,0.6-0.6s0.6,0.3,0.6,0.6c0,0,0,0,0,0.1
							C165.4,9.2,165.2,9.5,164.9,9.5z M159.9,13c0,0,0,0.1-0.1,0.1l-0.1,0.1c0,0-0.1,0.1-0.1,0.1c-0.1,0.1-0.2,0.1-0.3,0.1
							c0,0,0,0,0,0c0,0-0.1,0-0.1,0c-0.3-0.1-0.4-0.3-0.4-0.6c0,0,0-0.1,0-0.1c0,0,0-0.1,0.1-0.1l0.1-0.1c0,0,0.1-0.1,0.1-0.1
							c0.1-0.1,0.3-0.1,0.5-0.1C159.9,12.4,160,12.7,159.9,13z M158.7,16.9c-0.1,0.3-0.4,0.5-0.7,0.4c-0.2-0.1-0.4-0.3-0.4-0.5
							l0-0.1c0,0,0-0.1,0-0.1c0-0.1,0.2-0.3,0.3-0.3c0.1-0.1,0.3-0.1,0.4,0c0.2,0.1,0.4,0.3,0.4,0.5l0,0.1
							C158.7,16.8,158.7,16.9,158.7,16.9z M169.8,20.4L169.8,20.4c0.1-0.1,0.1-0.1,0.2-0.2c0.1-0.1,0.3-0.1,0.4-0.1
							c0.2,0,0.3,0.1,0.4,0.2c0,0,0,0.1,0.1,0.1c0.1,0.2,0.1,0.4,0,0.5l-0.1,0.1c0,0-0.1,0.1-0.1,0.1c-0.1,0.1-0.3,0.1-0.4,0.1
							c0,0,0,0-0.1,0c-0.1,0-0.2-0.1-0.3-0.2c0,0,0,0,0,0c-0.1-0.1-0.1-0.2-0.1-0.3C169.7,20.6,169.7,20.5,169.8,20.4z M171.4,16.2
							C171.4,16.2,171.4,16.2,171.4,16.2c0.2-0.1,0.3-0.1,0.5,0c0.1,0.1,0.2,0.2,0.3,0.3c0,0,0,0.1,0,0.1l0,0.1
							c0,0.2-0.2,0.4-0.4,0.5c-0.1,0-0.3,0-0.4,0s-0.2-0.2-0.3-0.3c0,0,0-0.1,0-0.1l0-0.1C171,16.5,171.2,16.3,171.4,16.2z
							 M172,13.9c0.1-0.1,0.1-0.1,0.2-0.1c0,0,0.1,0,0.1,0c0,0,0,0,0,0c0,0,0,0,0,0c0,0,0,0,0,0c0,0,0,0,0,0c0.1,0,0.1,0,0.2,0
							c0,0,0,0,0.1,0c0,0,0,0,0.1,0c0.1,0.1,0.2,0.2,0.2,0.3c0,0.1,0,0.3,0,0.4c-0.1,0.1-0.2,0.2-0.3,0.3c0,0-0.1,0-0.1,0
							c-0.3,0-0.5-0.1-0.6-0.4l0-0.1c0,0,0-0.1,0-0.1C171.8,14.2,171.9,14,172,13.9z M169.2,10.5l-1.7,2.4c-0.3-0.2-0.6-0.4-0.9-0.5
							l0.3-1c0,0,0.1,0,0.1,0c0.5,0,0.9-0.4,0.9-0.9c0-0.4-0.2-0.7-0.6-0.9c0,0-0.1,0-0.1,0c-0.1,0-0.2,0-0.2,0
							c-0.5,0-0.9,0.4-0.9,0.9c0,0.3,0.2,0.7,0.5,0.8l-0.3,1c-0.4-0.1-0.7-0.2-1.1-0.2V9.8c0.4-0.1,0.8-0.5,0.8-0.9
							c0-0.5-0.4-0.9-0.9-0.9s-0.9,0.4-0.9,0.9c0,0.5,0.3,0.8,0.8,0.9v2.3c-0.4,0-0.7,0.1-1.1,0.2l-0.3-1c0.3-0.2,0.5-0.5,0.5-0.8
							c0-0.5-0.4-0.9-0.9-0.9c-0.1,0-0.2,0-0.2,0c0,0-0.1,0-0.1,0c-0.4,0.1-0.6,0.5-0.6,0.9c0,0.5,0.4,0.9,0.9,0.9c0,0,0.1,0,0.1,0
							l0.3,1c-0.3,0.1-0.6,0.3-0.9,0.5l-1.8-2.4c-0.2-0.5-0.3-1-0.3-1.6c0-2,1.3-3.8,3.3-4.4l1.3,1.3l0,0l0,0l1.3-1.3
							c1.9,0.6,3.3,2.4,3.3,4.4C169.4,9.4,169.3,10,169.2,10.5z M157.6,19.3l2.9-0.9c0.1,0.3,0.3,0.6,0.5,0.9l-0.9,0.7
							c0,0-0.1-0.1-0.1-0.1c-0.4-0.3-1-0.2-1.3,0.2c-0.2,0.3-0.2,0.7,0,1.1c0,0,0,0.1,0.1,0.1c0.1,0.1,0.1,0.1,0.2,0.2
							c0.2,0.1,0.4,0.2,0.6,0.2c0,0,0.1,0,0.1,0c0.2,0,0.5-0.2,0.6-0.4c0.2-0.3,0.2-0.6,0.1-1l0.9-0.7c0.2,0.3,0.5,0.6,0.8,0.8
							l-1.4,1.9c-0.4-0.2-0.9-0.1-1.2,0.3l0.1,0.1v0v0l-0.1-0.1c-0.1,0.2-0.2,0.5-0.2,0.7c0,0.2,0.2,0.5,0.4,0.6
							c0.2,0.1,0.4,0.2,0.6,0.2c0.3,0,0.6-0.1,0.8-0.4c0.3-0.4,0.2-0.9-0.1-1.2l1.4-1.9c0.3,0.2,0.6,0.4,1,0.5l-0.3,1.1
							c-0.3,0-0.7,0.1-0.9,0.4c-0.1,0.2-0.2,0.5-0.2,0.7c0,0.2,0.2,0.5,0.4,0.6c0.1,0,0.1,0.1,0.2,0.1c0,0,0.1,0,0.1,0
							c0.1,0,0.2,0,0.2,0c0.3,0,0.6-0.1,0.8-0.4c0.3-0.4,0.2-1-0.2-1.3c0,0-0.1,0-0.1-0.1l0.3-1.1c0.3,0.1,0.7,0.2,1,0.2v3
							c-0.1,0.5-0.4,1-0.7,1.4c-1.2,1.6-3.3,2.3-5.2,1.6l-0.3-1.8l0,0l0,0l-1.8,0.3c-1.2-1.6-1.3-3.8-0.1-5.5
							C156.8,20,157.2,19.6,157.6,19.3z M165.1,21.4c0.3,0,0.7-0.1,1-0.2l0.3,1.1c0,0-0.1,0-0.1,0.1c-0.2,0.1-0.3,0.4-0.4,0.6
							c0,0.1,0,0.2,0,0.2c0,0.2,0.1,0.3,0.2,0.5c0,0,0,0,0,0c0,0,0,0,0,0.1c0,0,0,0,0,0c0,0,0,0,0,0c0,0,0,0,0,0c0,0,0,0,0,0
							c0,0,0,0,0,0c0,0,0,0,0,0c0,0,0,0,0,0c0,0,0,0,0,0c0,0,0,0,0,0c0,0,0,0,0,0c0,0,0,0,0,0c0,0,0,0,0,0c0,0,0,0,0,0
							c0,0,0,0,0.1,0c0,0,0,0,0,0c0,0,0,0,0,0c0,0,0,0,0,0c0,0,0,0,0,0c0,0,0,0,0,0c0,0,0,0,0.1,0c0,0,0,0,0,0c0,0,0,0,0.1,0
							c0,0,0,0,0,0c0,0,0,0,0,0c0,0,0,0,0,0c0,0,0,0,0,0c0,0,0,0,0,0c0,0,0,0,0,0c0,0,0,0,0,0c0,0,0,0,0,0c0,0,0,0,0.1,0
							c0,0,0.1,0,0.1,0c0.1,0,0.1-0.1,0.2-0.1c0.4-0.3,0.5-0.9,0.2-1.3c-0.2-0.3-0.5-0.4-0.9-0.4l-0.3-1.1c0.3-0.1,0.7-0.3,1-0.5
							l1.4,1.9c-0.3,0.3-0.3,0.8-0.1,1.2c0.1,0.2,0.4,0.3,0.6,0.4c0,0,0,0,0,0c0,0,0,0,0,0c0,0,0,0,0,0c0,0,0,0,0,0c0,0,0,0,0,0
							c0,0,0,0,0,0c0,0,0,0,0,0c0,0,0,0,0,0c0,0,0,0,0,0c0,0,0,0,0,0c0,0,0,0,0,0c0,0,0,0,0,0c0,0,0,0,0,0c0,0,0,0,0,0c0,0,0,0,0,0
							c0,0,0,0,0,0c0,0,0,0,0,0c0,0,0,0,0,0c0,0,0,0,0,0c0,0,0,0,0,0c0,0,0,0,0,0c0,0,0,0,0,0c0,0,0,0,0,0c0,0,0,0,0,0c0,0,0,0,0,0
							c0,0,0,0,0,0c0,0,0,0,0,0c0,0,0,0,0,0c0,0,0,0,0,0c0,0,0,0,0,0c0,0,0,0,0,0c0,0,0,0,0,0c0.2-0.1,0.3-0.4,0.4-0.6
							c0-0.2,0-0.5-0.2-0.7c-0.3-0.4-0.8-0.5-1.2-0.3l-1.4-1.9c0.3-0.2,0.6-0.5,0.8-0.8l0.9,0.7c-0.1,0.3-0.1,0.7,0.1,1c0,0,0,0,0,0
							c0,0,0,0,0,0c0,0,0,0,0,0c0,0,0,0,0,0c0,0,0,0,0,0c0,0,0,0,0,0c0.1,0.1,0.3,0.2,0.5,0.3c0,0,0,0,0,0c0,0,0,0,0,0c0,0,0,0,0,0
							c0,0,0,0,0,0c0,0,0,0,0.1,0c0.1,0,0.3,0,0.4-0.1c0,0,0,0,0,0c0,0,0,0,0,0c0,0,0,0,0,0c0,0,0,0,0,0c0,0,0,0,0,0c0,0,0,0,0,0
							c0.1,0,0.1-0.1,0.2-0.2c0,0,0-0.1,0.1-0.1c0.2-0.3,0.2-0.7,0-1.1c-0.3-0.4-0.9-0.5-1.3-0.2c0,0-0.1,0-0.1,0.1l-0.9-0.7
							c0.2-0.3,0.4-0.6,0.5-0.9l2.9,0.9c0.4,0.3,0.8,0.7,1.1,1.1c1.2,1.6,1.2,3.9-0.1,5.5l-1.8-0.3l0,0l0,0l-0.3,1.8
							c-1.9,0.7-4,0-5.2-1.6c-0.3-0.4-0.5-0.9-0.7-1.4L165.1,21.4z M172.3,18.9l-2.9-1c0.1-0.3,0.1-0.7,0.1-1l1.2,0c0,0,0,0.1,0,0.1
							c0,0,0,0,0,0c0,0,0,0,0,0c0,0,0,0,0,0c0,0,0,0,0,0c0,0,0,0,0,0c0,0,0,0,0,0c0,0,0,0,0,0c0,0,0,0,0,0c0,0,0,0,0,0c0,0,0,0,0,0
							c0,0,0,0,0,0c0,0,0,0,0,0c0,0,0,0,0,0c0,0,0,0,0,0c0,0,0,0,0,0c0,0,0,0,0,0c0,0,0,0,0,0c0,0,0,0,0,0c0,0,0,0,0,0c0,0,0,0,0,0
							c0,0,0,0,0,0c0,0,0,0,0,0c0,0,0,0,0,0c0,0,0,0,0,0c0,0,0,0,0,0c0,0,0,0,0,0c0,0,0,0,0,0c0,0,0,0,0,0c0,0,0,0,0,0c0,0,0,0,0,0
							c0,0,0,0,0,0c0,0,0,0,0,0c0,0,0,0,0,0c0,0,0,0,0,0c0,0,0,0,0,0c0,0,0,0,0,0c0,0,0,0,0,0c0,0,0,0,0,0c0,0,0,0,0,0c0,0,0,0,0,0
							c0,0,0,0,0,0c0,0,0,0,0,0c0,0,0,0,0,0c0,0,0,0,0,0c0,0,0,0,0,0c0,0,0,0,0,0c0,0,0,0,0,0c0,0,0,0,0,0c0,0,0,0,0,0c0,0,0,0,0,0
							c0,0,0,0,0,0c0,0,0,0,0,0c0,0,0,0,0,0c0,0,0,0,0,0c0,0,0,0,0,0c0,0,0,0,0,0c0,0,0,0,0,0c0,0,0,0,0,0c0,0,0,0,0,0c0,0,0,0,0,0
							c0,0,0,0,0,0c0,0,0,0,0,0c0,0,0,0,0,0c0,0,0,0,0,0c0.4-0.1,0.6-0.4,0.6-0.8c0,0,0-0.1,0-0.1c0-0.1,0-0.2,0-0.2
							c-0.2-0.5-0.7-0.8-1.2-0.6c-0.3,0.1-0.6,0.4-0.6,0.7h-1.2c0-0.4-0.1-0.7-0.2-1.1l2.3-0.7c0.2,0.4,0.7,0.6,1.1,0.4
							c0.5-0.2,0.8-0.7,0.6-1.2c-0.2-0.5-0.7-0.8-1.2-0.6c0,0-0.1,0-0.1,0c-0.4,0.2-0.6,0.6-0.5,0.9c0,0,0,0,0,0l-1.4,0.4l-0.9,0.3
							c-0.1-0.3-0.3-0.7-0.5-1l0.9-0.7c0.2,0.2,0.6,0.3,0.9,0.2c0.2-0.1,0.4-0.2,0.5-0.5c0.1-0.2,0.1-0.5,0.1-0.7
							c0-0.1-0.1-0.1-0.1-0.2c0,0,0-0.1-0.1-0.1c-0.2-0.3-0.6-0.4-1-0.3c-0.2,0.1-0.4,0.2-0.5,0.5c-0.1,0.2-0.1,0.5-0.1,0.7
							c0,0,0,0.1,0,0.1l-0.9,0.7c-0.2-0.3-0.5-0.5-0.7-0.7l1.8-2.5c0.4-0.3,0.9-0.6,1.4-0.7c1.9-0.6,4,0.1,5.2,1.8l-0.8,1.6l0,0l0,0
							l1.6,0.8c0,2-1.2,3.8-3.2,4.5C173.3,18.8,172.8,18.9,172.3,18.9z"/>
						<path class="st11" d="M160.2,28.3c-0.6,0-1.2-0.1-1.8-0.3c-0.1,0-0.1,0-0.1-0.1l-0.2-0.1l-0.2-1.6l-1.6,0.2l-0.1-0.1
							c0,0-0.1-0.1-0.1-0.1c-0.7-0.9-1.1-2-1.1-3.1c0-1.2,0.3-2.3,1-3.2c0.2-0.2,0.3-0.4,0.5-0.6c-0.3,0-0.6-0.1-0.8-0.2
							c-1.1-0.4-2-1-2.7-2c-0.6-0.9-1-2-0.9-3.1c0-0.1,0-0.1,0-0.2l0-0.2l1.4-0.7l-0.7-1.4l0.1-0.1c0,0,0.1-0.1,0.1-0.1
							c0.6-0.9,1.5-1.6,2.6-2c1.1-0.4,2.2-0.4,3.3,0c0.3,0.1,0.5,0.2,0.8,0.3c0-0.3-0.1-0.5-0.1-0.8c0-1.2,0.4-2.2,1.1-3.2
							c0.7-0.9,1.6-1.5,2.7-1.8c0.1,0,0.1,0,0.2,0l0.2,0l1.1,1.1l1.1-1.1l0.2,0c0,0,0.1,0,0.2,0c1.1,0.3,2,1,2.7,1.8
							c0.7,0.9,1.1,2,1.1,3.2c0,0.3,0,0.5-0.1,0.8c0.3-0.1,0.5-0.2,0.8-0.3c1.1-0.4,2.2-0.3,3.3,0c1.1,0.4,2,1.1,2.6,2
							c0,0,0.1,0.1,0.1,0.1l0.1,0.1l-0.7,1.4l1.4,0.7l0,0.2c0,0,0,0.1,0,0.2v0c0,1.1-0.3,2.2-0.9,3.1c-0.7,0.9-1.6,1.6-2.7,2
							c-0.3,0.1-0.6,0.2-0.8,0.2c0.2,0.2,0.4,0.4,0.5,0.6c0.7,0.9,1,2,1,3.2c0,1.1-0.4,2.2-1.1,3.1c0,0-0.1,0.1-0.1,0.1l-0.1,0.1
							l-1.6-0.2l-0.2,1.6l-0.2,0.1c0,0-0.1,0-0.1,0.1c-1,0.4-2.2,0.4-3.3,0.1c-1.1-0.3-2-1-2.7-1.9c-0.2-0.2-0.3-0.5-0.4-0.7
							c-0.1,0.2-0.3,0.5-0.4,0.7c-0.7,0.9-1.6,1.6-2.7,1.9C161.2,28.3,160.7,28.3,160.2,28.3z M164.8,24.9l0.1,0.2
							c0.1,0.3,0.3,0.6,0.5,0.9c0.6,0.9,1.5,1.5,2.6,1.8c1,0.3,2.1,0.3,3.1-0.1c0.1,0,0.1,0,0.1-0.1l0,0l0.3-1.7l1.7,0.3l0,0
							c0,0,0.1-0.1,0.1-0.1c0.6-0.8,1-1.9,1-2.9c0-1.1-0.3-2.2-0.9-3c-0.2-0.3-0.4-0.5-0.7-0.7l-0.2-0.2l0.3,0c0.3,0,0.7-0.1,1-0.2
							c1-0.3,1.9-1,2.6-1.9c0.6-0.9,0.9-1.9,0.9-3c0-0.1,0-0.1,0-0.1l0,0l-1.5-0.8l0.8-1.5l0,0c0,0-0.1-0.1-0.1-0.1
							c-0.6-0.9-1.5-1.6-2.5-1.9c-1-0.4-2.1-0.4-3.2,0c-0.3,0.1-0.7,0.3-1,0.4l-0.2,0.1l0.1-0.3c0.1-0.3,0.1-0.7,0.1-1
							c0-1.1-0.4-2.1-1-3c-0.6-0.8-1.6-1.5-2.6-1.8c-0.1,0-0.1,0-0.1,0l0,0l-1.2,1.2l-1.2-1.2l0,0c0,0-0.1,0-0.1,0
							c-1,0.3-1.9,0.9-2.6,1.8c-0.7,0.9-1,1.9-1,3c0,0.3,0,0.7,0.1,1l0.1,0.3l-0.2-0.1c-0.3-0.2-0.6-0.3-1-0.4c-1-0.3-2.1-0.3-3.2,0
							c-1,0.4-1.9,1-2.5,1.9c0,0-0.1,0.1-0.1,0.1l0,0l0.8,1.5l-1.5,0.8l0,0c0,0,0,0.1,0,0.1c0,1.1,0.3,2.1,0.9,3
							c0.6,0.9,1.5,1.6,2.6,1.9c0.3,0.1,0.7,0.2,1,0.2l0.3,0l-0.2,0.2c-0.2,0.2-0.5,0.5-0.7,0.7c-0.6,0.9-1,1.9-0.9,3
							c0,1.1,0.4,2.1,1,2.9c0,0,0.1,0.1,0.1,0.1l0,0l1.7-0.3l0.3,1.7l0,0c0,0,0.1,0,0.1,0.1c0.5,0.2,1.1,0.3,1.7,0.3
							c0.5,0,1-0.1,1.4-0.2c1.1-0.3,2-1,2.6-1.8c0.2-0.3,0.4-0.6,0.5-0.9L164.8,24.9z M160.2,27.8c-0.5,0-1-0.1-1.5-0.3l-0.1,0
							l-0.3-1.8l-1.8,0.3l0-0.1c-1.3-1.6-1.3-3.9-0.1-5.6c0.3-0.4,0.7-0.8,1.2-1.1l0,0l3-1l0,0.1c0.1,0.3,0.3,0.6,0.5,0.9l0.1,0.1
							l-1.1,0.8l-0.1-0.1c0,0-0.1,0-0.1-0.1c-0.2-0.1-0.4-0.2-0.6-0.1c-0.2,0-0.4,0.2-0.5,0.3c-0.2,0.3-0.2,0.6,0,0.9
							c0,0,0,0.1,0.1,0.1c0,0.1,0.1,0.1,0.2,0.1c0.2,0.1,0.4,0.2,0.6,0.1c0.2,0,0.4-0.2,0.5-0.3c0.2-0.2,0.2-0.6,0.1-0.8l0-0.1
							l1.1-0.8l0.1,0.1c0.2,0.3,0.5,0.5,0.8,0.8l0.1,0.1l-1.5,2l-0.1,0c-0.4-0.2-0.8-0.1-1,0.3l0,0v0l0,0c-0.1,0.2-0.2,0.4-0.1,0.6
							c0,0.2,0.2,0.4,0.3,0.5c0.1,0.1,0.3,0.2,0.5,0.2c0.3,0,0.5-0.1,0.7-0.3c0.2-0.3,0.2-0.8-0.1-1.1l-0.1-0.1l1.5-2l0.1,0.1
							c0.3,0.2,0.6,0.4,1,0.5l0.1,0l-0.4,1.3l-0.1,0c-0.3,0-0.6,0.1-0.8,0.3c-0.1,0.2-0.2,0.4-0.1,0.6c0,0.2,0.2,0.4,0.3,0.5
							c0.1,0,0.1,0.1,0.2,0.1c0,0,0.1,0,0.1,0c0.1,0,0.1,0,0.2,0c0.3,0,0.5-0.1,0.7-0.3c0.1-0.2,0.2-0.4,0.1-0.6s-0.2-0.4-0.3-0.5
							c0,0-0.1,0-0.1-0.1l-0.1,0l0.4-1.3l0.1,0c0.3,0.1,0.7,0.1,1,0.2l0.1,0l0,3.2c-0.2,0.5-0.4,1-0.7,1.5
							C163.1,27.1,161.7,27.8,160.2,27.8z M158.8,27.4c1.8,0.6,3.9,0,5-1.6c0.3-0.4,0.5-0.9,0.7-1.4v-2.9c-0.3,0-0.6-0.1-0.8-0.1
							l-0.3,0.9c0,0,0,0,0,0c0.5,0.3,0.6,1,0.2,1.5c-0.2,0.3-0.5,0.4-0.9,0.4c-0.1,0-0.2,0-0.3,0c0,0-0.1,0-0.1,0
							c-0.1,0-0.2-0.1-0.2-0.1c-0.2-0.2-0.4-0.4-0.4-0.7c0-0.3,0-0.6,0.2-0.8c0.2-0.3,0.5-0.4,0.9-0.4l0.3-0.9
							c-0.3-0.1-0.6-0.3-0.8-0.4l-1.2,1.7c0.3,0.4,0.3,0.9,0,1.3c-0.2,0.3-0.5,0.4-0.9,0.4c-0.2,0-0.4-0.1-0.6-0.2
							c-0.2-0.2-0.4-0.4-0.4-0.7c0-0.2,0-0.5,0.1-0.7l0,0l0.1-0.1c0,0,0,0,0,0l0.1-0.1l0,0c0.3-0.3,0.7-0.4,1.1-0.3l1.2-1.7
							c-0.2-0.2-0.5-0.4-0.6-0.7l-0.7,0.5c0.1,0.3,0.1,0.7-0.1,1c-0.2,0.2-0.4,0.4-0.7,0.4c-0.3,0-0.6,0-0.8-0.2
							c-0.1-0.1-0.1-0.1-0.2-0.2c0,0-0.1-0.1-0.1-0.1c-0.2-0.4-0.2-0.8,0-1.2c0.3-0.5,1-0.6,1.5-0.2c0,0,0,0,0,0l0.7-0.5
							c-0.2-0.2-0.3-0.5-0.4-0.7l-2.8,0.9c-0.4,0.3-0.8,0.6-1.1,1.1c-1.1,1.6-1.1,3.7,0,5.3l1.9-0.3L158.8,27.4z M169.5,27.8
							c-1.5,0-2.9-0.7-3.8-1.9c-0.3-0.4-0.6-0.9-0.7-1.5l0,0l0-3.1l0.1,0c0.3,0,0.7-0.1,1-0.2l0.1,0l0.4,1.3l-0.1,0
							c0,0-0.1,0-0.1,0.1c-0.2,0.1-0.3,0.3-0.3,0.5c0,0.1,0,0.1,0,0.2c0,0.1,0.1,0.3,0.2,0.4c0,0,0,0,0,0l0,0c0,0,0,0,0,0l0,0
							c0,0,0,0,0,0l-0.1,0.1l0.1-0.1c0,0,0,0,0,0c0,0,0,0,0,0l0,0c0,0,0,0,0,0l0,0c0,0,0,0,0,0l0,0.1l0-0.1c0,0,0,0,0.1,0l0,0.1
							l0-0.1c0,0,0,0,0,0l0,0c0,0,0,0,0,0l0,0c0,0,0,0,0,0c0,0,0,0,0.1,0l0,0.1l0-0.1l0,0l0,0.1l0-0.1l0,0c0,0,0,0,0,0l0,0
							c0,0,0,0,0,0l0,0c0,0,0,0,0.1,0c0,0,0.1,0,0.1,0c0.1,0,0.1-0.1,0.2-0.1c0.4-0.3,0.5-0.8,0.2-1.2c-0.2-0.2-0.5-0.4-0.8-0.3
							l-0.1,0l-0.4-1.3l0.1,0c0.3-0.1,0.7-0.3,1-0.5l0.1-0.1l1.5,2l-0.1,0.1c-0.3,0.3-0.3,0.7-0.1,1.1c0.1,0.2,0.3,0.3,0.5,0.3
							c0,0,0,0,0,0l0,0.1l0-0.1l0.1,0l0,0.1V24l0.1,0l0,0.1l0-0.1l0.2,0l0,0c0,0,0,0,0,0c0,0,0,0,0,0l0.1,0.1l-0.1-0.1l0.1,0
							c0,0,0,0,0,0c0.2-0.1,0.3-0.3,0.3-0.5c0-0.2,0-0.4-0.1-0.6c-0.2-0.3-0.7-0.4-1-0.3l-0.1,0l-1.5-2l0.1-0.1
							c0.3-0.2,0.5-0.5,0.8-0.8l0.1-0.1l1.1,0.8l0,0.1c-0.1,0.3-0.1,0.6,0.1,0.8c0,0,0,0,0,0c0,0,0,0,0,0c0,0,0,0,0,0
							c0.1,0.1,0.3,0.2,0.5,0.2c0,0,0,0,0,0c0,0,0,0,0,0c0,0,0,0,0.1,0c0.1,0,0.3,0,0.4-0.1c0,0,0,0,0,0l0,0c0,0,0,0,0,0
							c0.1,0,0.1-0.1,0.2-0.1c0,0,0-0.1,0.1-0.1c0.2-0.3,0.2-0.7,0-0.9c-0.1-0.2-0.3-0.3-0.5-0.3c-0.2,0-0.4,0-0.6,0.1
							c0,0-0.1,0-0.1,0.1l-0.1,0.1l-1.1-0.8l0.1-0.1c0.2-0.3,0.3-0.6,0.5-0.9l0-0.1l3,1c0.4,0.3,0.8,0.7,1.2,1.1
							c1.2,1.7,1.2,4-0.1,5.6l0,0.1l-1.8-0.3l0,0l0,0l-0.3,1.8l-0.1,0C170.5,27.7,170,27.8,169.5,27.8z M165.2,24.4
							c0.1,0.5,0.4,1,0.7,1.4c1.1,1.6,3.2,2.2,5,1.6l0.3-1.9l0.1,0l1.8,0.3c1.1-1.6,1.2-3.7,0-5.3c-0.3-0.4-0.7-0.8-1.1-1.1
							l-2.8-0.9c-0.1,0.3-0.2,0.5-0.4,0.7l0.7,0.5c0,0,0,0,0,0c0.2-0.2,0.5-0.2,0.8-0.2c0.3,0,0.5,0.2,0.7,0.4
							c0.3,0.4,0.3,0.8,0,1.2c0,0-0.1,0.1-0.1,0.1c-0.1,0.1-0.1,0.1-0.2,0.2c0,0,0,0,0,0l0,0l-0.1-0.1l0.1,0.1c0,0,0,0,0,0
							c-0.2,0.1-0.4,0.1-0.5,0.1c0,0,0,0,0,0c0,0,0,0-0.1,0c-0.2,0-0.4-0.1-0.6-0.3c0,0,0,0,0,0c0,0,0,0,0,0l0,0c0,0,0,0,0,0
							c-0.2-0.3-0.3-0.7-0.1-1l-0.7-0.5c-0.2,0.2-0.4,0.5-0.6,0.7l1.2,1.7c0.4-0.2,0.9,0,1.2,0.4c0.2,0.2,0.2,0.5,0.2,0.8
							c0,0.3-0.2,0.5-0.4,0.7c0,0,0,0,0,0l-0.1,0.1c0,0,0,0,0,0c0,0,0,0,0,0l-0.2,0.1l-0.1,0c0,0,0,0,0,0l0,0l-0.1,0c0,0,0,0,0,0
							c-0.3,0-0.5-0.2-0.7-0.4c-0.3-0.4-0.3-0.9,0-1.3l-1.2-1.7c-0.3,0.2-0.5,0.3-0.8,0.4l0.3,0.9c0.3,0,0.7,0.1,0.9,0.4
							c0.3,0.5,0.2,1.1-0.2,1.5c-0.1,0.1-0.2,0.1-0.2,0.1c0,0-0.1,0-0.1,0c0,0,0,0-0.1,0l0,0c0,0,0,0-0.1,0l0,0c0,0,0,0,0,0l0,0
							c0,0,0,0,0,0l0-0.1l0,0.1l0,0c0,0,0,0-0.1,0l0,0c0,0,0,0-0.1,0l0,0c0,0,0,0,0,0l0,0c0,0,0,0-0.1,0l0,0c0,0,0,0-0.1,0l0,0
							c0,0,0,0-0.1,0l0,0c0,0,0,0,0,0l0,0c0,0,0,0,0,0l0,0c0,0,0,0-0.1,0l0,0c0,0,0,0,0,0l0,0c0,0,0,0,0,0l0,0c0,0,0,0,0-0.1
							c-0.1-0.2-0.2-0.3-0.2-0.5c0-0.1,0-0.2,0-0.3c0-0.3,0.2-0.5,0.4-0.7c0,0,0,0,0,0l-0.3-0.9c-0.3,0.1-0.6,0.1-0.8,0.1
							L165.2,24.4z M169.5,23.8c0,0-0.1,0-0.1,0c-0.2,0-0.3-0.1-0.5-0.3c0-0.1-0.1-0.1-0.1-0.2c-0.1-0.3,0-0.6,0.2-0.8l0,0l0.1-0.1
							c0.3-0.2,0.7-0.1,0.9,0.2c0.2,0.3,0.2,0.8-0.2,1C169.8,23.8,169.6,23.8,169.5,23.8z M169.2,22.8c-0.1,0.1-0.2,0.3-0.1,0.5
							c0,0,0,0.1,0.1,0.1c0.1,0.1,0.2,0.2,0.3,0.2c0.1,0,0.2,0,0.4-0.1c0.2-0.2,0.3-0.4,0.1-0.7C169.7,22.7,169.5,22.6,169.2,22.8
							L169.2,22.8z M160.2,23.8c-0.1,0-0.3,0-0.4-0.1c-0.2-0.1-0.3-0.3-0.3-0.5c0-0.2,0-0.4,0.1-0.5l0,0c0.1-0.2,0.3-0.3,0.6-0.3
							c0.1,0,0.3,0,0.4,0.1l0.1,0.1c0.1,0.1,0.2,0.3,0.2,0.5c0,0.2,0,0.4-0.1,0.5c-0.1,0.2-0.3,0.3-0.5,0.3
							C160.3,23.8,160.2,23.8,160.2,23.8z M159.8,22.8c-0.2,0.2-0.1,0.5,0.1,0.7c0.1,0.1,0.2,0.1,0.4,0.1c0.1,0,0.2-0.1,0.3-0.2
							c0.1-0.1,0.1-0.2,0.1-0.3c0-0.1-0.1-0.2-0.2-0.3l-0.1,0c-0.1,0-0.2-0.1-0.2-0.1C160.1,22.7,159.9,22.7,159.8,22.8L159.8,22.8z
							 M162.8,23.8c-0.1,0-0.1,0-0.2,0l-0.1,0c-0.1,0-0.1-0.1-0.2-0.1c-0.3-0.2-0.4-0.7-0.2-1c0.2-0.2,0.5-0.3,0.7-0.3l0,0l0.1,0
							c0.1,0,0.1,0.1,0.2,0.1c0.2,0.1,0.3,0.3,0.3,0.5c0,0.2,0,0.4-0.1,0.5C163.2,23.7,163,23.8,162.8,23.8z M162.8,22.6
							c-0.1,0-0.3,0.1-0.4,0.2c-0.2,0.2-0.1,0.5,0.1,0.7c0,0,0.1,0,0.1,0.1l0.1,0c0.2,0,0.4,0,0.5-0.2c0.1-0.1,0.1-0.2,0.1-0.4
							c0-0.1-0.1-0.2-0.2-0.3c0,0-0.1,0-0.1-0.1l-0.1,0C162.9,22.6,162.8,22.6,162.8,22.6z M166.9,23.8c-0.2,0-0.4-0.1-0.6-0.3
							c-0.2-0.3-0.2-0.8,0.2-1c0,0,0,0,0,0c0,0,0.1,0,0.1-0.1l0,0l0.1,0c0.1,0,0.2,0,0.3,0c0.2,0,0.3,0.1,0.4,0.2c0,0,0,0,0,0
							c0.1,0.2,0.2,0.3,0.1,0.5c0,0.2-0.1,0.3-0.3,0.5c0,0-0.1,0.1-0.1,0.1l-0.1,0C167,23.8,167,23.8,166.9,23.8z M166.7,22.7
							C166.7,22.7,166.7,22.7,166.7,22.7C166.7,22.7,166.6,22.7,166.7,22.7c-0.3,0.2-0.3,0.5-0.2,0.7c0.1,0.2,0.3,0.2,0.5,0.2l0.1,0
							c0,0,0.1,0,0.1-0.1c0.1-0.1,0.2-0.2,0.2-0.3c0-0.1,0-0.2-0.1-0.4c0,0,0,0,0,0c-0.1-0.1-0.2-0.1-0.3-0.2
							C166.9,22.6,166.9,22.6,166.7,22.7L166.7,22.7z M170.3,21.4c0,0-0.1,0-0.1,0c0,0,0,0-0.1,0c-0.2,0-0.3-0.1-0.4-0.3
							c0,0,0,0,0,0c-0.1-0.1-0.1-0.3-0.1-0.4c0-0.1,0-0.2,0.1-0.3l0,0l0.1-0.1c0,0,0.1-0.1,0.1-0.1c0.2-0.1,0.3-0.2,0.5-0.1
							c0.2,0,0.3,0.1,0.5,0.3c0,0,0.1,0.1,0.1,0.1c0.1,0.2,0.1,0.4,0,0.6l-0.1,0.1c0,0-0.1,0.1-0.1,0.1
							C170.6,21.3,170.4,21.4,170.3,21.4z M169.9,20.4c0,0.1-0.1,0.1-0.1,0.2c0,0.1,0,0.2,0.1,0.3c0,0,0,0,0,0
							c0.1,0.1,0.2,0.2,0.3,0.2c0,0,0,0,0,0c0.1,0,0.2,0,0.4-0.1c0,0,0.1,0,0.1-0.1l0-0.1c0.1-0.1,0.1-0.3,0-0.4c0,0,0-0.1-0.1-0.1
							c-0.1-0.1-0.2-0.2-0.3-0.2c-0.1,0-0.2,0-0.4,0.1C170,20.3,169.9,20.3,169.9,20.4L169.9,20.4z M159.4,21.4
							c-0.1,0-0.3,0-0.4-0.1c0,0-0.1-0.1-0.1-0.1l-0.1-0.1c0-0.1-0.1-0.1-0.1-0.2c0-0.2,0-0.4,0.1-0.5c0,0,0,0,0,0
							c0.1-0.2,0.3-0.3,0.5-0.3c0.2,0,0.4,0,0.5,0.1c0,0,0.1,0.1,0.1,0.1l0.1,0.1c0.2,0.3,0.1,0.6,0,0.8
							C159.9,21.3,159.6,21.4,159.4,21.4z M159,20.9L159,20.9c0.1,0.1,0.1,0.1,0.1,0.1c0.1,0.1,0.2,0.1,0.4,0.1
							c0.1,0,0.2-0.1,0.3-0.2c0.1-0.2,0.1-0.4,0-0.5l0-0.1c0,0,0,0-0.1-0.1c-0.1-0.1-0.2-0.1-0.4-0.1c-0.1,0-0.2,0.1-0.3,0.2
							c0,0,0,0,0,0c-0.1,0.1-0.1,0.2-0.1,0.4C159,20.8,159,20.9,159,20.9z M164.8,21c-2.3,0-4.2-1.9-4.2-4.2s1.9-4.2,4.2-4.2
							s4.2,1.9,4.2,4.2S167.2,21,164.8,21z M164.8,12.8c-2.2,0-4,1.8-4,4s1.8,4,4,4c2.2,0,4-1.8,4-4S167.1,12.8,164.8,12.8z
							 M172.4,19c-0.1,0-0.1,0-0.2,0l0,0l-3-1l0-0.1c0.1-0.3,0.1-0.6,0.1-1l0-0.1h1.4l0,0.1c0,0,0,0.1,0,0.1c0,0,0,0,0,0l0,0.1
							l-0.1,0.1l0.1-0.1c0,0,0,0,0,0c0,0,0,0,0,0l0,0.1c0,0,0,0,0,0l0,0c0,0,0,0,0,0l0.1,0.1c0,0,0,0,0,0c0,0,0,0,0,0c0,0,0,0,0,0
							c0,0,0,0,0,0c0,0,0,0,0,0c0,0,0,0,0,0c0,0,0,0,0,0c0,0,0,0,0,0c0,0,0,0,0,0c0,0,0,0,0,0c0,0,0,0,0,0l0.1,0c0,0,0,0,0,0l0,0
							l0,0.1l0-0.1l0,0c0,0,0,0,0,0c0,0,0,0,0,0l0,0l0,0.1l0-0.1l0,0c0,0,0,0,0,0c0.3-0.1,0.5-0.4,0.6-0.7c0,0,0-0.1,0-0.1
							c0-0.1,0-0.1,0-0.2c-0.1-0.2-0.2-0.4-0.4-0.5c-0.2-0.1-0.4-0.1-0.6-0.1c-0.3,0.1-0.5,0.3-0.6,0.6l0,0.1h-1.4l0-0.1
							c0-0.4-0.1-0.7-0.2-1.1l0-0.1l2.4-0.8l0,0.1c0.2,0.3,0.6,0.5,1,0.4c0.2-0.1,0.4-0.2,0.5-0.4c0.1-0.2,0.1-0.4,0.1-0.6
							c-0.1-0.4-0.6-0.7-1-0.5c0,0-0.1,0-0.1,0c-0.3,0.2-0.5,0.5-0.5,0.8l0,0.1l-0.1,0l-2.4,0.8l0-0.1c-0.1-0.3-0.3-0.7-0.5-0.9
							l-0.1-0.1l1.1-0.8l0.1,0.1c0.2,0.2,0.5,0.3,0.8,0.2c0.2-0.1,0.4-0.2,0.5-0.4c0.1-0.2,0.1-0.4,0.1-0.6c0-0.1-0.1-0.1-0.1-0.2
							c0,0,0-0.1-0.1-0.1c-0.2-0.3-0.6-0.4-0.9-0.3c-0.2,0.1-0.4,0.2-0.5,0.4c-0.1,0.2-0.1,0.4-0.1,0.6c0,0,0,0.1,0,0.1l0,0.1
							l-1.1,0.8l-0.1-0.1c-0.2-0.3-0.4-0.5-0.7-0.7l-0.1-0.1l1.9-2.6c0.4-0.3,0.9-0.6,1.4-0.8c2-0.6,4.1,0.1,5.3,1.8l0,0.1l-0.8,1.6
							l1.6,0.8l0,0.1c0,2.1-1.3,3.9-3.2,4.6C173.4,18.9,172.9,19,172.4,19z M172.3,18.8c0.5,0,1-0.1,1.5-0.2
							c1.8-0.6,3.1-2.4,3.1-4.3l-1.7-0.9l0,0l0,0l0-0.1l0.8-1.6c-1.1-1.6-3.2-2.3-5-1.7c-0.5,0.2-1,0.4-1.4,0.7l-1.7,2.4
							c0.2,0.2,0.4,0.4,0.6,0.6l0.8-0.6c0,0,0,0,0,0c-0.1-0.3-0.1-0.6,0.1-0.8c0.1-0.3,0.3-0.4,0.6-0.5c0.4-0.1,0.9,0,1.1,0.3
							c0,0,0.1,0.1,0.1,0.1c0,0.1,0.1,0.2,0.1,0.2c0.1,0.3,0.1,0.6-0.1,0.8c-0.1,0.3-0.3,0.4-0.6,0.5c-0.3,0.1-0.7,0-1-0.2l-0.8,0.6
							c0.2,0.3,0.3,0.5,0.4,0.8l2.1-0.7c0-0.4,0.2-0.8,0.6-1c0,0,0.1,0,0.1-0.1c0.6-0.2,1.2,0.1,1.3,0.7c0.1,0.3,0.1,0.6-0.1,0.8
							c-0.1,0.3-0.3,0.4-0.6,0.5c-0.5,0.1-0.9,0-1.2-0.4l-2.1,0.7c0.1,0.3,0.1,0.6,0.1,0.9h1c0.1-0.3,0.4-0.6,0.7-0.7
							c0.3-0.1,0.6-0.1,0.8,0.1c0.3,0.1,0.4,0.3,0.5,0.6c0,0.1,0,0.2,0,0.3c0,0,0,0.1,0,0.1c0,0.4-0.3,0.8-0.7,0.9c0,0,0,0,0,0l0,0
							c0,0,0,0,0,0l0,0c0,0,0,0,0,0c0,0,0,0-0.1,0c0,0,0,0,0,0l0,0c0,0,0,0,0,0l0,0c0,0,0,0,0,0c0,0,0,0-0.1,0c0,0,0,0,0,0l-0.1,0
							c0,0,0,0,0,0c0,0,0,0,0,0c0,0,0,0,0,0l0,0c0,0,0,0,0,0c0,0,0,0,0,0c0,0,0,0,0,0c0,0,0,0,0,0l0,0c0,0,0,0,0,0l0,0c0,0,0,0,0,0
							c0,0,0,0,0,0l0,0c0,0,0,0,0,0l0,0c0,0,0,0,0,0l0,0c0,0,0,0,0,0c0,0,0,0,0,0c0,0,0,0,0,0l-0.1-0.1l0.1-0.1l-0.1,0.1
							c0,0,0,0,0,0l0,0c0,0,0,0,0,0l0,0c0,0,0,0,0,0l0-0.1c0,0,0,0,0,0c0,0,0,0,0,0h-1c0,0.3-0.1,0.5-0.1,0.8L172.3,18.8z M157.3,19
							c-0.5,0-1-0.1-1.4-0.2c-2-0.6-3.3-2.5-3.2-4.6l0-0.1l1.6-0.8l0,0l0,0l-0.8-1.6l0-0.1c1.2-1.7,3.4-2.4,5.3-1.8
							c0.5,0.2,1,0.4,1.4,0.8l0,0l1.9,2.6l-0.1,0.1c-0.3,0.2-0.5,0.5-0.7,0.7l-0.1,0.1l-1.1-0.8l0-0.1c0,0,0-0.1,0-0.1
							c0.1-0.2,0.1-0.4-0.1-0.6c-0.1-0.2-0.3-0.3-0.5-0.4c-0.3-0.1-0.7,0-0.9,0.3c0,0,0,0.1-0.1,0.1c0,0.1-0.1,0.1-0.1,0.2
							c-0.1,0.2-0.1,0.4,0.1,0.6c0.1,0.2,0.3,0.3,0.5,0.4c0.3,0.1,0.6,0,0.8-0.2l0.1-0.1l1.1,0.8l-0.1,0.1c-0.2,0.3-0.4,0.6-0.5,0.9
							l0,0.1l-2.5-0.8l0-0.1c0-0.2,0-0.4-0.2-0.6c0,0,0,0,0,0c0,0,0,0,0,0c0,0,0,0,0,0c0,0-0.1,0-0.1-0.1c0,0,0,0,0,0
							c-0.1,0-0.1-0.1-0.2-0.1c-0.2-0.1-0.4-0.1-0.6,0.1c-0.2,0.1-0.3,0.3-0.4,0.5c0,0,0,0,0,0c0,0,0,0,0,0c0,0,0,0,0,0
							c0,0.2,0,0.4,0.1,0.5c0.1,0.2,0.2,0.3,0.4,0.4l0,0c0,0,0,0,0,0c0,0,0,0,0,0c0,0,0,0,0,0c0.4,0.1,0.8,0,1-0.4l0-0.1l2.4,0.8
							l0,0.1c-0.1,0.3-0.2,0.7-0.2,1.1l0,0.1h-1.4l0-0.1c0-0.1-0.1-0.2-0.2-0.3c-0.1-0.1-0.2-0.2-0.4-0.3c0,0,0,0,0,0c0,0,0,0,0,0
							c0,0,0,0,0,0c-0.2,0-0.3,0-0.5,0.1c-0.2,0.1-0.3,0.2-0.4,0.4c0,0,0,0,0,0c0,0,0,0,0,0c0,0,0,0,0,0c0,0.1,0,0.1,0,0.2
							c0,0,0,0.1,0,0.1c0,0.3,0.2,0.6,0.5,0.7c0,0,0,0,0.1,0c0,0,0,0,0,0l0.1,0c0,0,0.1,0,0.1,0l0,0l0,0.1l0-0.1l0.1,0l0,0.1l0-0.1
							c0,0,0,0,0,0l0,0c0,0,0,0,0,0l0,0.1l0-0.1c0,0,0,0,0,0l0.1,0l0.1,0.1l0-0.1c0,0,0,0,0,0c0.2-0.1,0.3-0.3,0.4-0.5
							c0,0,0-0.1,0-0.1l0-0.1h1.4l0,0.1c0,0.3,0.1,0.7,0.1,1l0,0.1l-3.1,1C157.4,19,157.3,19,157.3,19z M152.8,14.3
							c0,1.9,1.2,3.7,3.1,4.3c0.5,0.2,1,0.2,1.5,0.2l2.8-0.9c-0.1-0.3-0.1-0.5-0.1-0.8h-1c0,0,0,0,0,0c-0.1,0.3-0.3,0.5-0.5,0.6
							c0,0,0,0-0.1,0l0,0c0,0,0,0,0,0l0,0c0,0,0,0,0,0l0,0c0,0,0,0,0,0l0,0c0,0,0,0-0.1,0l0,0c0,0,0,0,0,0l0,0c0,0,0,0,0,0l0,0
							c0,0,0,0,0,0l0,0l0,0c0,0,0,0,0,0l0,0c0,0-0.1,0-0.1,0l-0.1,0c0,0,0,0,0,0c0,0-0.1,0-0.1,0c-0.4-0.2-0.6-0.5-0.7-0.9
							c0,0,0-0.1,0-0.1c0-0.1,0-0.2,0-0.3c0,0,0,0,0-0.1c0,0,0,0,0-0.1c0,0,0,0,0,0c0.1-0.2,0.3-0.4,0.5-0.5
							c0.2-0.1,0.4-0.1,0.6-0.1c0,0,0,0,0,0c0,0,0,0,0,0c0,0,0,0,0.1,0c0.2,0.1,0.4,0.2,0.5,0.4c0.1,0.1,0.1,0.2,0.2,0.4h1
							c0-0.3,0.1-0.6,0.1-0.9l-2.1-0.7c-0.3,0.4-0.8,0.6-1.2,0.4c0,0,0,0-0.1,0c0,0,0,0,0,0c0,0,0,0,0,0l0,0
							c-0.2-0.1-0.4-0.3-0.5-0.5c-0.1-0.2-0.1-0.4-0.1-0.6c0,0,0,0,0,0c0,0,0,0,0,0c0,0,0,0,0-0.1c0.1-0.3,0.3-0.5,0.5-0.6
							c0.3-0.1,0.5-0.2,0.8-0.1c0.1,0,0.2,0.1,0.3,0.1c0,0,0,0,0.1,0c0,0,0.1,0.1,0.1,0.1c0,0,0,0,0,0c0,0,0,0,0.1,0.1c0,0,0,0,0,0
							c0.1,0.2,0.2,0.4,0.2,0.7l2.1,0.7c0.1-0.3,0.2-0.5,0.4-0.8l-0.8-0.6c-0.3,0.2-0.6,0.3-1,0.2c-0.3-0.1-0.5-0.3-0.6-0.5
							c-0.1-0.3-0.2-0.5-0.1-0.8c0-0.1,0.1-0.2,0.1-0.2c0,0,0-0.1,0.1-0.1c0.3-0.3,0.7-0.5,1.1-0.3c0.3,0.1,0.5,0.3,0.6,0.5
							c0.1,0.3,0.2,0.5,0.1,0.8c0,0,0,0,0,0l0.8,0.6c0.2-0.2,0.4-0.4,0.6-0.6l-1.7-2.4c-0.4-0.3-0.9-0.6-1.4-0.7
							c-1.8-0.6-3.9,0.1-5,1.7l0.9,1.7l-0.1,0.1L152.8,14.3z M171.6,17.5c-0.1,0-0.2,0-0.3-0.1c-0.2-0.1-0.3-0.2-0.3-0.4
							c0-0.1,0-0.1,0-0.2l0-0.1c0-0.3,0.2-0.5,0.4-0.6l0,0c0,0,0,0,0,0c0.2-0.1,0.4,0,0.5,0c0.2,0.1,0.3,0.2,0.3,0.4
							c0,0.1,0,0.1,0,0.2l0,0.1c0,0.3-0.2,0.5-0.5,0.6C171.7,17.4,171.7,17.5,171.6,17.5z M171.4,16.3c-0.2,0.1-0.3,0.2-0.3,0.4
							l0,0.1c0,0,0,0.1,0,0.1c0,0.1,0.1,0.2,0.2,0.3c0.1,0.1,0.2,0.1,0.4,0c0.2-0.1,0.3-0.2,0.3-0.4l0-0.1c0,0,0-0.1,0-0.1
							c0-0.1-0.1-0.2-0.2-0.3C171.7,16.3,171.6,16.3,171.4,16.3C171.4,16.3,171.4,16.3,171.4,16.3L171.4,16.3z M158.1,17.5
							c-0.1,0-0.1,0-0.2,0c-0.3-0.1-0.5-0.3-0.5-0.6l0-0.1c0-0.1,0-0.1,0-0.2c0.1-0.2,0.2-0.3,0.3-0.4c0.2-0.1,0.4-0.1,0.5,0
							c0.3,0.1,0.5,0.3,0.5,0.6l0,0.1c0,0.1,0,0.1,0,0.2l0,0C158.7,17.3,158.4,17.5,158.1,17.5z M158.1,16.3c-0.1,0-0.1,0-0.2,0.1
							c-0.1,0.1-0.2,0.2-0.2,0.3c0,0,0,0.1,0,0.1l0,0.1c0,0.2,0.1,0.3,0.3,0.4c0.2,0.1,0.5-0.1,0.6-0.3c0,0,0-0.1,0-0.1l0-0.1
							c0-0.2-0.1-0.3-0.3-0.4C158.2,16.3,158.2,16.3,158.1,16.3z M172.4,15c-0.3,0-0.5-0.2-0.6-0.4l0-0.1c0-0.1,0-0.1,0-0.1
							c0-0.2,0.1-0.4,0.2-0.5v0c0.1-0.1,0.2-0.1,0.3-0.2c0,0,0.1,0,0.1,0c0,0,0,0,0,0l0,0c0,0,0,0,0.1,0l0,0l0,0c0.1,0,0.2,0,0.3,0
							c0,0,0,0,0.1,0c0,0,0,0,0.1,0c0.1,0.1,0.2,0.2,0.3,0.4c0.1,0.2,0,0.4,0,0.5c-0.1,0.2-0.2,0.3-0.4,0.3
							C172.6,15,172.5,15,172.4,15C172.5,15,172.4,15,172.4,15z M172.1,14c-0.1,0.1-0.1,0.2-0.1,0.4c0,0,0,0.1,0,0.1l0,0.1
							c0.1,0.2,0.3,0.3,0.5,0.3c0,0,0.1,0,0.1,0c0.1,0,0.2-0.1,0.3-0.2c0.1-0.1,0.1-0.2,0-0.4c0-0.1-0.1-0.2-0.2-0.3c0,0,0,0,0,0
							c0,0,0,0,0,0c-0.1,0-0.1,0-0.2,0c0,0,0,0,0,0l0,0c0,0,0,0-0.1,0C172.2,13.9,172.1,13.9,172.1,14L172.1,14z M157.3,15
							c-0.1,0-0.1,0-0.2,0c-0.2-0.1-0.3-0.2-0.4-0.3c-0.1-0.2-0.1-0.4,0-0.5c0.1-0.2,0.2-0.3,0.3-0.4c0.1-0.1,0.2-0.1,0.4-0.1
							c0.1,0,0.1,0,0.2,0c0,0,0,0,0.1,0c0.3,0.1,0.4,0.4,0.4,0.7c0,0,0,0.1,0,0.1l0,0l0,0.1C157.8,14.8,157.6,15,157.3,15z
							 M157.3,13.8c-0.1,0-0.1,0-0.2,0.1c-0.1,0.1-0.2,0.2-0.2,0.3c0,0.1,0,0.2,0,0.4c0.1,0.1,0.2,0.2,0.3,0.2
							c0.2,0.1,0.5,0,0.6-0.3l0-0.1c0,0,0-0.1,0-0.1c0-0.2-0.1-0.4-0.3-0.5c0,0,0,0,0,0C157.4,13.8,157.4,13.8,157.3,13.8
							C157.3,13.8,157.3,13.8,157.3,13.8z M170.3,13.5C170.3,13.5,170.3,13.5,170.3,13.5L170.3,13.5c-0.2,0-0.4-0.1-0.5-0.2
							c0,0,0,0-0.1-0.1l-0.1-0.1c0-0.1-0.1-0.1-0.1-0.2c-0.1-0.2,0-0.4,0-0.5c0.1-0.2,0.2-0.3,0.4-0.3c0.3-0.1,0.6,0,0.7,0.2
							l0.1,0.1c0,0.1,0.1,0.1,0.1,0.2c0.1,0.4-0.1,0.8-0.4,0.9c0,0,0,0-0.1,0C170.4,13.5,170.4,13.5,170.3,13.5
							C170.3,13.5,170.3,13.5,170.3,13.5z M170.3,12.3c0,0-0.1,0-0.1,0c-0.1,0-0.2,0.1-0.3,0.2c-0.1,0.1-0.1,0.2,0,0.4
							c0,0,0,0.1,0,0.1l0,0.1c0,0,0,0,0,0c0.1,0.1,0.2,0.1,0.3,0.1c0,0,0,0,0.1,0h0c0,0,0.1,0,0.1,0c0,0,0,0,0,0
							c0.2-0.1,0.4-0.3,0.3-0.6c0,0,0-0.1,0-0.1l0-0.1C170.6,12.4,170.4,12.3,170.3,12.3z M159.4,13.5
							C159.4,13.5,159.4,13.5,159.4,13.5C159.4,13.5,159.3,13.5,159.4,13.5c-0.1,0-0.2,0-0.2,0c-0.3-0.1-0.5-0.4-0.5-0.7
							c0-0.1,0-0.1,0-0.2c0-0.1,0-0.1,0.1-0.1l0.1-0.1c0.1-0.1,0.1-0.1,0.2-0.1c0.2-0.1,0.4-0.1,0.6-0.1c0.2,0.1,0.3,0.2,0.4,0.3
							c0.1,0.2,0.1,0.4,0,0.5c0,0.1,0,0.1-0.1,0.1l-0.1,0.1c-0.1,0.1-0.1,0.1-0.2,0.1C159.6,13.5,159.5,13.5,159.4,13.5z
							 M159.4,12.3c-0.1,0-0.2,0-0.2,0.1c0,0-0.1,0.1-0.1,0.1l0,0.1c0,0,0,0.1,0,0.1c0,0,0,0.1,0,0.1c0,0.2,0.1,0.4,0.3,0.5
							c0,0,0.1,0,0.1,0c0,0,0,0,0,0c0.1,0,0.2,0,0.3-0.1c0,0,0.1-0.1,0.1-0.1l0-0.1c0,0,0-0.1,0-0.1l0,0c0-0.1,0-0.2,0-0.4
							c-0.1-0.1-0.2-0.2-0.3-0.2C159.5,12.3,159.4,12.3,159.4,12.3z M167.4,13L167.4,13c-0.4-0.2-0.7-0.4-1-0.5l-0.1,0l0.4-1.2
							l0.1,0c0,0,0.1,0,0.1,0c0.5,0,0.8-0.4,0.8-0.8c0-0.3-0.2-0.6-0.5-0.8c0,0-0.1,0-0.1,0c-0.1,0-0.1,0-0.2,0
							c-0.5,0-0.8,0.4-0.8,0.8c0,0.3,0.2,0.6,0.4,0.7l0.1,0l-0.4,1.2l-0.1,0c-0.3-0.1-0.7-0.2-1.1-0.2l-0.1,0V9.7l0.1,0
							c0.4-0.1,0.7-0.4,0.7-0.8c0-0.5-0.4-0.8-0.8-0.8c-0.5,0-0.8,0.4-0.8,0.8c0,0.4,0.3,0.7,0.7,0.8l0.1,0v2.5l-0.1,0
							c-0.4,0-0.7,0.1-1.1,0.2l-0.1,0l-0.4-1.2l0.1,0c0.3-0.1,0.4-0.4,0.4-0.7c0-0.5-0.4-0.8-0.8-0.8c-0.1,0-0.1,0-0.2,0
							c0,0-0.1,0-0.1,0c-0.3,0.1-0.5,0.4-0.5,0.8c0,0.5,0.4,0.8,0.8,0.8c0,0,0.1,0,0.1,0l0.1,0l0.4,1.2l-0.1,0
							c-0.3,0.1-0.6,0.3-0.9,0.5l-0.1,0.1l-1.8-2.5c-0.2-0.5-0.3-1.1-0.3-1.6c0-2.1,1.4-3.9,3.4-4.5l0.1,0l1.3,1.3l1.3-1.3l0.1,0
							c2,0.6,3.4,2.4,3.4,4.5c0,0.6-0.1,1.1-0.3,1.6l0,0L167.4,13z M166.6,12.3c0.3,0.1,0.5,0.2,0.8,0.4l1.7-2.3
							c0.2-0.5,0.3-1,0.3-1.5c0-1.9-1.3-3.7-3.1-4.3L164.9,6l-0.1-0.1l-1.3-1.3c-1.8,0.6-3.1,2.3-3.1,4.3c0,0.5,0.1,1,0.3,1.5
							l1.7,2.3c0.2-0.2,0.5-0.3,0.8-0.4l-0.3-0.8c-0.6,0-1.1-0.5-1.1-1.1c0-0.4,0.3-0.8,0.7-1c0,0,0.1,0,0.1,0c0.1,0,0.2,0,0.3,0
							c0.6,0,1.1,0.5,1.1,1.1c0,0.4-0.2,0.7-0.5,0.9l0.3,0.8c0.3-0.1,0.6-0.1,0.9-0.1V9.9c-0.4-0.1-0.8-0.5-0.8-1
							c0-0.6,0.5-1.1,1.1-1.1c0.6,0,1.1,0.5,1.1,1.1c0,0.5-0.3,0.9-0.8,1V12c0.3,0,0.6,0.1,0.9,0.1l0.3-0.8
							c-0.3-0.2-0.5-0.5-0.5-0.9c0-0.6,0.5-1.1,1.1-1.1c0.1,0,0.2,0,0.3,0c0,0,0.1,0,0.1,0c0.4,0.2,0.7,0.5,0.7,1
							c0,0.6-0.5,1.1-1.1,1.1L166.6,12.3z M166.9,11.1c-0.1,0-0.1,0-0.2,0l0,0l-0.1,0c-0.3-0.1-0.4-0.4-0.4-0.6
							c0-0.4,0.3-0.7,0.7-0.7c0.1,0,0.1,0,0.2,0l0.1,0c0.3,0.1,0.4,0.4,0.4,0.6C167.6,10.8,167.3,11.1,166.9,11.1z M166.8,10.9
							c0,0,0.1,0,0.1,0c0.3,0,0.5-0.2,0.5-0.5c0-0.2-0.1-0.4-0.3-0.4l-0.1,0c0,0-0.1,0-0.1,0c-0.3,0-0.5,0.2-0.5,0.5
							C166.4,10.6,166.6,10.8,166.8,10.9L166.8,10.9z M162.8,11.1c-0.4,0-0.7-0.3-0.7-0.7c0-0.3,0.2-0.5,0.4-0.6l0.1,0
							c0.1,0,0.1,0,0.2,0c0.4,0,0.7,0.3,0.7,0.7c0,0.1,0,0.1,0,0.2c0,0.2-0.2,0.4-0.4,0.5l0,0l-0.1,0
							C162.9,11.1,162.8,11.1,162.8,11.1z M162.8,10c0,0-0.1,0-0.1,0l-0.1,0c-0.2,0.1-0.3,0.2-0.3,0.4c0,0.3,0.2,0.5,0.5,0.5
							c0,0,0.1,0,0.1,0l0.1,0c0.1-0.1,0.2-0.2,0.3-0.3c0,0,0-0.1,0-0.1C163.2,10.2,163,10,162.8,10z M164.9,9.6L164.9,9.6
							c-0.5,0-0.8-0.3-0.8-0.7c0-0.4,0.3-0.7,0.7-0.7c0.4,0,0.7,0.3,0.7,0.7c0,0,0,0,0,0.1C165.5,9.3,165.2,9.6,164.9,9.6L164.9,9.6
							z M164.8,8.4c-0.3,0-0.5,0.2-0.5,0.5c0,0.2,0.2,0.5,0.4,0.5l0.1,0c0.2,0,0.4-0.2,0.4-0.4c0,0,0,0,0,0
							C165.3,8.7,165.1,8.4,164.8,8.4z"/>
					</g>
					<g>
						<path class="st11" d="M164.8,20.2v-0.9c-1.4,0-2.5-1.1-2.5-2.5c0-1.4,1.1-2.5,2.5-2.5v-0.9c-1.9,0-3.4,1.5-3.4,3.4
							C161.4,18.7,162.9,20.2,164.8,20.2z"/>
					</g>
					<g>
						<path class="st11" d="M166.4,16.8c0,0.9-0.7,1.6-1.6,1.6v0.9c1.4,0,2.5-1.1,2.5-2.5c0-1.4-1.1-2.5-2.5-2.5v0.9
							C165.7,15.2,166.4,15.9,166.4,16.8z"/>
					</g>
					<g>
						<path class="st11" d="M164.1,16.8c0-0.4,0.3-0.8,0.8-0.8v-0.8c-0.9,0-1.6,0.7-1.6,1.6c0,0.9,0.7,1.6,1.6,1.6v-0.8
							C164.4,17.5,164.1,17.2,164.1,16.8z"/>
					</g>
					<g>
						<path class="st11" d="M164.8,17.5c0.4,0,0.8-0.3,0.8-0.8c0-0.4-0.3-0.8-0.8-0.8v0.8V17.5z"/>
					</g>
				</g>
			</g>
		</g>
	</g>
</g>
</svg>
