<?xml version="1.0" encoding="utf-8"?>
<!-- Generator: Adobe Illustrator 23.0.1, SVG Export Plug-In . SVG Version: 6.00 Build 0)  -->
<svg version="1.1" id="레이어_1" xmlns="http://www.w3.org/2000/svg" xmlns:xlink="http://www.w3.org/1999/xlink" x="0px"
	 y="0px" viewBox="0 0 200 50" style="enable-background:new 0 0 200 50;" xml:space="preserve">
<style type="text/css">
	.st0{fill:#961023;}
	.st1{fill:url(#SVGID_1_);}
	.st2{fill:url(#SVGID_2_);}
	.st3{fill:url(#SVGID_3_);}
	.st4{fill:url(#SVGID_4_);}
</style>
<g>
	<g>
		<path class="st0" d="M119.3,9.7c0-2.9,1.2-5.2,3.3-7.2c1.5-1.4,3.3-2.2,5.3-2.5c2.6-0.3,5,0.3,7.1,1.8c2.2,1.6,3.5,3.7,3.9,6.4
			c0.4,2.7-0.1,5.1-1.8,7.3c-1.6,2.2-3.7,3.5-6.4,3.9c-0.4,0.1-0.9,0.1-1.3,0.2c-0.2,0-0.4,0.1-0.5,0.2c-1.5,1-3.1,1.9-4.6,2.9
			c-0.1,0.1-0.2,0.1-0.3,0.2c0-0.1-0.1-0.3-0.1-0.4c-0.1-1.4-0.1-2.8-0.2-4.2c0-0.3-0.2-0.5-0.4-0.6c-0.9-0.7-1.7-1.5-2.3-2.4
			c-0.9-1.3-1.4-2.7-1.5-4.3C119.4,10.6,119.3,10.2,119.3,9.7z"/>
		<g>
			<path class="st0" d="M0,42.8C1.2,43,2.5,43,3.9,42.9c0.1,0,1.6-0.3,4.5-1c6.8-1.7,12.1-2.7,16-3.2c0.9-0.1,2-0.1,3.1-0.3
				c0.6-0.2,1.4-0.5,2.5-0.8c0.5-0.1,1-0.2,1.5-0.2c1.5,0,3.4,0.8,5.7,2.4c1,0.7,1.5,1.4,1.5,2.3s-0.5,1.6-1.4,2.2s-2,0.9-3.1,0.9
				c-0.8,0-1.6-0.2-2.4-0.5c-0.1-0.1-0.2-0.2-0.3-0.3c-0.1-0.1-0.3-0.2-0.4-0.3c-0.1-0.1-0.4-0.2-0.8-0.3c-1.6-0.7-3.3-1.1-4.9-1.1
				c-0.4,0-0.8,0-1.1,0.1c-2.7,0.4-4.5,0.6-5.4,0.8c-1.9,0.3-3.6,0.8-5.2,1.3c-1.4,0.5-2.8,1.1-4.2,1.6c-1.8,0.7-3.2,1.1-4.1,1.2
				c-0.9,0.1-1.6,0-2.1-0.1c-1.1-0.2-2-0.8-2.5-1.7C0.1,44.9-0.1,43.9,0,42.8z M17.6,16.8c-0.9-0.4-1.8-0.8-2.6-1.4
				c-0.6-0.4-1.2-0.9-1.9-1.5c-0.9-0.9-1.4-1.6-1.4-2.2c0-0.2,0.1-0.4,0.2-0.6c0.1-0.2,0.4-0.3,0.8-0.4c2.1-0.7,5.3-1.7,9.5-2.9
				c0.5-0.1,1.2-0.3,2.2-0.4c1.3,0,2.4,0.2,3.4,0.7c0.6,0.3,1.3,0.8,1.9,1.5c0.8,0.8,1.2,1.6,1.2,2.3c0,0.4-0.2,0.8-0.5,1.1
				c-0.1,0.1-0.4,0.3-0.9,0.5c-0.3,0.1-0.7,0.3-1.3,0.6c-0.6,0.3-1,0.5-1.3,0.6c-2.4,1-5.7,2.3-9.8,3.9c-0.1,0-0.5,0.2-1.4,0.5
				c-0.9,0.3-1.4,0.5-1.4,0.5c0,0-0.1,0-0.1,0c0-0.1,0.1-0.2,0.3-0.4c0.1-0.1,0.2-0.1,0.4-0.2c0.1-0.1,0.3-0.2,0.4-0.3
				c0.1-0.1,0.4-0.3,0.7-0.5c0.4-0.3,0.6-0.4,0.7-0.5c0.1-0.1,0.2-0.2,0.4-0.3c0.1-0.1,0.3-0.2,0.4-0.3c0.1-0.1,0.2-0.2,0.3-0.3
				C17.8,16.8,17.8,16.8,17.6,16.8z M16.4,30.5c0.7-0.3,2-0.8,3.9-1.5c0.5-0.2,1.3-0.5,2.4-0.9c0.2-0.1,0.4-0.1,0.6-0.1
				c1.2,0,2.5,0.3,4,1c1.6,0.8,2.4,1.6,2.4,2.5c0,0.4-0.2,0.7-0.5,1.1c-0.6,0.6-1.6,1.1-3,1.5c-0.2,0-0.5,0.1-0.9,0.3
				c-0.6,0.3-1.3,0.8-2.3,1.4c-2.5,1.4-4.9,2-6.9,2c3.6-2,5.4-3.5,5.5-4.3c-0.7,0-2.6,0.7-5.9,2.1C15,35.9,14.6,36,14.5,36
				c-1.2-0.1-1.9-1.4-2.3-3.9c0.8-3.1,1.6-5.3,2.6-6.6c-0.4-0.4-0.9-0.8-1.3-1.2c-0.4-0.4-0.6-0.9-0.6-1.4c0.8,0.1,2.7-0.4,5.6-1.5
				c2.1-0.8,4-1.6,5.8-2.4c3.5,0.5,5.3,1.3,5.3,2.3c0,0.6-0.6,1.4-1.8,2.2c-0.5,0.3-1.5,0.6-3.1,0.9c-1.1,0.2-2.2,0.5-3.4,0.7
				c-0.8,0.2-1.4,0.3-1.6,0.5C18.4,26.2,17.3,27.9,16.4,30.5z"/>
			<path class="st0" d="M63,24.9l-2.1,1.8c-1.9,1.7-3.3,2.6-4.1,2.6c-0.2,0-0.3,0-0.5-0.1c-0.6,1.8-1.9,3.5-3.8,4.9
				c-2,1.6-3.9,2.4-5.9,2.4c-1,0-2-0.2-2.8-0.7c-0.8-0.6-1.2-1-1.2-1.1c0-0.1,0.2-0.2,0.5-0.2c0.1,0,0.3,0,0.5,0c0.2,0,0.4,0,0.5,0
				c2,0,3.9-1.1,5.7-3.5c1.7-2.3,2.4-4.5,2.2-6.5c-0.1-0.1-0.6-0.4-1.5-0.8c-2.1-1-3.3-2.3-3.6-4.1c0.7,0,1.9-0.4,3.4-1.1
				c1.5-0.8,2.9-1.1,4.2-1c3,0.2,4.6,1.1,4.7,2.8c0,0.3,0,0.6-0.1,1c-0.1,0.5-0.1,0.9-0.1,1.1c0.7-0.5,1.6-1.1,2.7-1.8
				c0.4-1.8,0.6-3.3,0.6-4.3c0-0.9-0.1-1.7-0.3-2.4c0-1.6,0.6-2.4,1.8-2.3c1,0.1,1.8,0.4,2.5,0.9c0.7,0.5,1.1,1.2,1.2,2.1
				c0-0.3-0.1,0.4-0.2,2c0,0.3,0,1.7,0.1,4.1c0,2.1,0,4.4-0.1,7c-0.1,2.5-0.8,3.8-2,3.8c-0.6,0-1.1-0.3-1.6-0.8
				c-0.5-0.5-0.8-1.1-0.8-1.6V24.9z M68.4,49.5c0.8-0.8,1.2-1.7,1.2-2.7v-40c0-0.7-0.5-1.4-1.5-2.2c-0.8-0.5-1.6-1-2.4-1.5
				c0-0.7,0.9-1.1,2.6-1.1c0.8,0,1.8,0.1,2.9,0.3C75,3,76.9,4.4,76.9,6.6c0,0,0,0.7-0.2,2l-0.3,5.1c-0.3,6.5-0.5,15.1-0.7,26l0,3.6
				v1.3c0,0.3-0.1,0.8-0.4,1.5c-0.5,0.9-1.5,1.7-3,2.3C70.8,49.1,69.5,49.5,68.4,49.5z"/>
			<path class="st0" d="M113.3,6.4l-0.8,39c0,1.2-0.4,2.2-1.2,2.8c-0.5,0.4-1.5,0.7-2.9,1.1c-0.7,0.2-1.7,0.4-3,0.8
				c0.6-0.6,0.9-1.5,0.9-2.8V22.7c-0.9,0.5-1.8,0.9-2.8,1.4c-1.2,0.8-1.7,1.5-1.5,2.3c-0.5,1-2.5,2.8-6,5.3
				c-3.5,2.5-5.8,3.7-6.9,3.7c-1,0-1.8-0.4-2.5-1.3s-1-1.9-1-2.9c0-0.5,0.3-1.2,0.8-2c0.4-0.6,0.7-1.3,1.1-1.9
				c0.1-0.1,0.1-0.4,0.2-0.7c0.1-0.3,0.1-0.5,0.2-0.6c1.1-3.3,2-5.4,2.7-6.2c-0.8-0.3-1.8-1-2.9-2c-1.2-1.2-1.8-2.1-1.8-2.9
				c1.2-0.1,2.8-0.6,4.9-1.6c1.9-0.9,3.5-1.3,4.8-1.3c1.1,0.1,2.2,0.5,3.3,1.2c1.2,0.9,1.8,1.8,1.8,2.9c0,1.1-0.4,1.9-1.3,2.4
				c-0.5,0.3-1.4,0.6-2.8,0.9c-1.3,0.3-2.2,0.6-2.7,0.9c-0.7,0.4-1.4,1.6-2.2,3.4c-0.8,1.8-1.2,3.3-1.2,4.5c0,0.6,0.1,1,0.3,1.3
				c4.2-1.5,6.8-3,7.7-4.7c-0.2-0.3-0.5-0.6-0.8-0.9c-0.3-0.3-0.4-0.6-0.4-0.9c0-0.1,0-0.2,0-0.3c0.1-1,3.1-3.1,8.9-6.4V7.1
				c0-0.8-0.7-1.7-2.1-2.6c-1.4-0.9-2-1.5-2-1.8c0.1-0.8,1-1.3,2.7-1.3c2.1,0,4.1,0.5,6,1.4C113,4,113.8,5.2,113.3,6.4z"/>
		</g>
	</g>
	<g>
		<linearGradient id="SVGID_1_" gradientUnits="userSpaceOnUse" x1="69.5" y1="-5.456968e-12" x2="69.5" y2="50">
			<stop  offset="0" style="stop-color:#000000;stop-opacity:0"/>
			<stop  offset="1" style="stop-color:#000000;stop-opacity:0.2"/>
		</linearGradient>
		<path class="st1" d="M119.3,9.7c0-2.9,1.2-5.2,3.3-7.2c1.5-1.4,3.3-2.2,5.3-2.5c2.6-0.3,5,0.3,7.1,1.8c2.2,1.6,3.5,3.7,3.9,6.4
			c0.4,2.7-0.1,5.1-1.8,7.3c-1.6,2.2-3.7,3.5-6.4,3.9c-0.4,0.1-0.9,0.1-1.3,0.2c-0.2,0-0.4,0.1-0.5,0.2c-1.5,1-3.1,1.9-4.6,2.9
			c-0.1,0.1-0.2,0.1-0.3,0.2c0-0.1-0.1-0.3-0.1-0.4c-0.1-1.4-0.1-2.8-0.2-4.2c0-0.3-0.2-0.5-0.4-0.6c-0.9-0.7-1.7-1.5-2.3-2.4
			c-0.9-1.3-1.4-2.7-1.5-4.3C119.4,10.6,119.3,10.2,119.3,9.7z"/>
		<g>
			<linearGradient id="SVGID_2_" gradientUnits="userSpaceOnUse" x1="69.5" y1="-5.456968e-12" x2="69.5" y2="50">
				<stop  offset="0" style="stop-color:#000000;stop-opacity:0"/>
				<stop  offset="1" style="stop-color:#000000;stop-opacity:0.2"/>
			</linearGradient>
			<path class="st2" d="M0,42.8C1.2,43,2.5,43,3.9,42.9c0.1,0,1.6-0.3,4.5-1c6.8-1.7,12.1-2.7,16-3.2c0.9-0.1,2-0.1,3.1-0.3
				c0.6-0.2,1.4-0.5,2.5-0.8c0.5-0.1,1-0.2,1.5-0.2c1.5,0,3.4,0.8,5.7,2.4c1,0.7,1.5,1.4,1.5,2.3s-0.5,1.6-1.4,2.2s-2,0.9-3.1,0.9
				c-0.8,0-1.6-0.2-2.4-0.5c-0.1-0.1-0.2-0.2-0.3-0.3c-0.1-0.1-0.3-0.2-0.4-0.3c-0.1-0.1-0.4-0.2-0.8-0.3c-1.6-0.7-3.3-1.1-4.9-1.1
				c-0.4,0-0.8,0-1.1,0.1c-2.7,0.4-4.5,0.6-5.4,0.8c-1.9,0.3-3.6,0.8-5.2,1.3c-1.4,0.5-2.8,1.1-4.2,1.6c-1.8,0.7-3.2,1.1-4.1,1.2
				c-0.9,0.1-1.6,0-2.1-0.1c-1.1-0.2-2-0.8-2.5-1.7C0.1,44.9-0.1,43.9,0,42.8z M17.6,16.8c-0.9-0.4-1.8-0.8-2.6-1.4
				c-0.6-0.4-1.2-0.9-1.9-1.5c-0.9-0.9-1.4-1.6-1.4-2.2c0-0.2,0.1-0.4,0.2-0.6c0.1-0.2,0.4-0.3,0.8-0.4c2.1-0.7,5.3-1.7,9.5-2.9
				c0.5-0.1,1.2-0.3,2.2-0.4c1.3,0,2.4,0.2,3.4,0.7c0.6,0.3,1.3,0.8,1.9,1.5c0.8,0.8,1.2,1.6,1.2,2.3c0,0.4-0.2,0.8-0.5,1.1
				c-0.1,0.1-0.4,0.3-0.9,0.5c-0.3,0.1-0.7,0.3-1.3,0.6c-0.6,0.3-1,0.5-1.3,0.6c-2.4,1-5.7,2.3-9.8,3.9c-0.1,0-0.5,0.2-1.4,0.5
				c-0.9,0.3-1.4,0.5-1.4,0.5c0,0-0.1,0-0.1,0c0-0.1,0.1-0.2,0.3-0.4c0.1-0.1,0.2-0.1,0.4-0.2c0.1-0.1,0.3-0.2,0.4-0.3
				c0.1-0.1,0.4-0.3,0.7-0.5c0.4-0.3,0.6-0.4,0.7-0.5c0.1-0.1,0.2-0.2,0.4-0.3c0.1-0.1,0.3-0.2,0.4-0.3c0.1-0.1,0.2-0.2,0.3-0.3
				C17.8,16.8,17.8,16.8,17.6,16.8z M16.4,30.5c0.7-0.3,2-0.8,3.9-1.5c0.5-0.2,1.3-0.5,2.4-0.9c0.2-0.1,0.4-0.1,0.6-0.1
				c1.2,0,2.5,0.3,4,1c1.6,0.8,2.4,1.6,2.4,2.5c0,0.4-0.2,0.7-0.5,1.1c-0.6,0.6-1.6,1.1-3,1.5c-0.2,0-0.5,0.1-0.9,0.3
				c-0.6,0.3-1.3,0.8-2.3,1.4c-2.5,1.4-4.9,2-6.9,2c3.6-2,5.4-3.5,5.5-4.3c-0.7,0-2.6,0.7-5.9,2.1C15,35.9,14.6,36,14.5,36
				c-1.2-0.1-1.9-1.4-2.3-3.9c0.8-3.1,1.6-5.3,2.6-6.6c-0.4-0.4-0.9-0.8-1.3-1.2c-0.4-0.4-0.6-0.9-0.6-1.4c0.8,0.1,2.7-0.4,5.6-1.5
				c2.1-0.8,4-1.6,5.8-2.4c3.5,0.5,5.3,1.3,5.3,2.3c0,0.6-0.6,1.4-1.8,2.2c-0.5,0.3-1.5,0.6-3.1,0.9c-1.1,0.2-2.2,0.5-3.4,0.7
				c-0.8,0.2-1.4,0.3-1.6,0.5C18.4,26.2,17.3,27.9,16.4,30.5z"/>
			<linearGradient id="SVGID_3_" gradientUnits="userSpaceOnUse" x1="69.5" y1="-5.456968e-12" x2="69.5" y2="50">
				<stop  offset="0" style="stop-color:#000000;stop-opacity:0"/>
				<stop  offset="1" style="stop-color:#000000;stop-opacity:0.2"/>
			</linearGradient>
			<path class="st3" d="M63,24.9l-2.1,1.8c-1.9,1.7-3.3,2.6-4.1,2.6c-0.2,0-0.3,0-0.5-0.1c-0.6,1.8-1.9,3.5-3.8,4.9
				c-2,1.6-3.9,2.4-5.9,2.4c-1,0-2-0.2-2.8-0.7c-0.8-0.6-1.2-1-1.2-1.1c0-0.1,0.2-0.2,0.5-0.2c0.1,0,0.3,0,0.5,0c0.2,0,0.4,0,0.5,0
				c2,0,3.9-1.1,5.7-3.5c1.7-2.3,2.4-4.5,2.2-6.5c-0.1-0.1-0.6-0.4-1.5-0.8c-2.1-1-3.3-2.3-3.6-4.1c0.7,0,1.9-0.4,3.4-1.1
				c1.5-0.8,2.9-1.1,4.2-1c3,0.2,4.6,1.1,4.7,2.8c0,0.3,0,0.6-0.1,1c-0.1,0.5-0.1,0.9-0.1,1.1c0.7-0.5,1.6-1.1,2.7-1.8
				c0.4-1.8,0.6-3.3,0.6-4.3c0-0.9-0.1-1.7-0.3-2.4c0-1.6,0.6-2.4,1.8-2.3c1,0.1,1.8,0.4,2.5,0.9c0.7,0.5,1.1,1.2,1.2,2.1
				c0-0.3-0.1,0.4-0.2,2c0,0.3,0,1.7,0.1,4.1c0,2.1,0,4.4-0.1,7c-0.1,2.5-0.8,3.8-2,3.8c-0.6,0-1.1-0.3-1.6-0.8
				c-0.5-0.5-0.8-1.1-0.8-1.6V24.9z M68.4,49.5c0.8-0.8,1.2-1.7,1.2-2.7v-40c0-0.7-0.5-1.4-1.5-2.2c-0.8-0.5-1.6-1-2.4-1.5
				c0-0.7,0.9-1.1,2.6-1.1c0.8,0,1.8,0.1,2.9,0.3C75,3,76.9,4.4,76.9,6.6c0,0,0,0.7-0.2,2l-0.3,5.1c-0.3,6.5-0.5,15.1-0.7,26l0,3.6
				v1.3c0,0.3-0.1,0.8-0.4,1.5c-0.5,0.9-1.5,1.7-3,2.3C70.8,49.1,69.5,49.5,68.4,49.5z"/>
			<linearGradient id="SVGID_4_" gradientUnits="userSpaceOnUse" x1="69.5" y1="-5.456968e-12" x2="69.5" y2="50">
				<stop  offset="0" style="stop-color:#000000;stop-opacity:0"/>
				<stop  offset="1" style="stop-color:#000000;stop-opacity:0.2"/>
			</linearGradient>
			<path class="st4" d="M113.3,6.4l-0.8,39c0,1.2-0.4,2.2-1.2,2.8c-0.5,0.4-1.5,0.7-2.9,1.1c-0.7,0.2-1.7,0.4-3,0.8
				c0.6-0.6,0.9-1.5,0.9-2.8V22.7c-0.9,0.5-1.8,0.9-2.8,1.4c-1.2,0.8-1.7,1.5-1.5,2.3c-0.5,1-2.5,2.8-6,5.3
				c-3.5,2.5-5.8,3.7-6.9,3.7c-1,0-1.8-0.4-2.5-1.3s-1-1.9-1-2.9c0-0.5,0.3-1.2,0.8-2c0.4-0.6,0.7-1.3,1.1-1.9
				c0.1-0.1,0.1-0.4,0.2-0.7c0.1-0.3,0.1-0.5,0.2-0.6c1.1-3.3,2-5.4,2.7-6.2c-0.8-0.3-1.8-1-2.9-2c-1.2-1.2-1.8-2.1-1.8-2.9
				c1.2-0.1,2.8-0.6,4.9-1.6c1.9-0.9,3.5-1.3,4.8-1.3c1.1,0.1,2.2,0.5,3.3,1.2c1.2,0.9,1.8,1.8,1.8,2.9c0,1.1-0.4,1.9-1.3,2.4
				c-0.5,0.3-1.4,0.6-2.8,0.9c-1.3,0.3-2.2,0.6-2.7,0.9c-0.7,0.4-1.4,1.6-2.2,3.4c-0.8,1.8-1.2,3.3-1.2,4.5c0,0.6,0.1,1,0.3,1.3
				c4.2-1.5,6.8-3,7.7-4.7c-0.2-0.3-0.5-0.6-0.8-0.9c-0.3-0.3-0.4-0.6-0.4-0.9c0-0.1,0-0.2,0-0.3c0.1-1,3.1-3.1,8.9-6.4V7.1
				c0-0.8-0.7-1.7-2.1-2.6c-1.4-0.9-2-1.5-2-1.8c0.1-0.8,1-1.3,2.7-1.3c2.1,0,4.1,0.5,6,1.4C113,4,113.8,5.2,113.3,6.4z"/>
		</g>
	</g>
</g>
</svg>
