<?xml version="1.0" encoding="utf-8"?>
<!-- Generator: Adobe Illustrator 23.0.1, SVG Export Plug-In . SVG Version: 6.00 Build 0)  -->
<svg version="1.1" id="레이어_1" xmlns="http://www.w3.org/2000/svg" xmlns:xlink="http://www.w3.org/1999/xlink" x="0px"
	 y="0px" viewBox="0 0 200 50" style="enable-background:new 0 0 200 50;" xml:space="preserve">
<style type="text/css">
	.st0{fill:#B21642;}
	.st1{fill:url(#SVGID_1_);}
	.st2{fill:url(#SVGID_2_);}
	.st3{fill:url(#SVGID_3_);}
	.st4{fill:url(#SVGID_4_);}
</style>
<g>
	<g>
		<g>
			<g>
				<path class="st0" d="M21.1,35.1c-0.2,0.6-0.6,0.9-1.3,0.9c-0.4,0-1.2-0.2-2.2-0.6c-1.3-0.5-2.7-1.4-4.1-2.5
					c-1.7-1.5-2.5-2.8-2.5-4.1c0-0.6,0.2-1.1,0.6-1.6c0.1-0.1,0.6-0.5,1.8-1.2c2.4-1.7,3.7-2.6,4-2.8c2.1-1.6,3.3-2.5,3.3-2.9
					c-1.4,0.2-3.6,1.3-6.6,3.2c-2.1,1.5-4.3,2.9-6.4,4.4c-2,1.3-3.3,2-4,2c-1.1,0-2-0.6-2.8-1.8c-0.7-1.1-1-2.2-0.9-3.4
					c0-0.3,0-0.6,0.1-0.7c0.1-0.2,0.2-0.2,0.4-0.2c0.2,0,0.6,0.2,1.2,0.7c0.1,0,0.4,0.1,0.6,0.3c0.5,0.1,3.8-1.2,10-3.9
					c3.6-1.6,7.2-3.2,10.8-4.8c3,0.5,4.5,1.3,4.5,2.5c0,0.5-0.4,1-1.1,1.6c-0.2,0.2-1,0.6-2.2,1.2c-1.2,0.6-2.7,1.5-4.5,2.7
					c3.9-0.1,5.9,1.6,5.9,5.1c0,1.6-0.4,2.9-1.1,4.1C23.8,34.4,22.6,35.1,21.1,35.1z M19.7,28.1c-1.5,0.1-2.9-0.5-4.1-1.8
					c-0.6,0.4-1.5,1-2.5,2c0.5,0.5,1.4,1.1,2.6,1.8c1.2,0.7,2.2,1,2.8,1c0.5,0,0.9-0.2,1.2-0.6c0.4-0.4,0.5-0.8,0.5-1.3
					C20.1,28.8,20,28.4,19.7,28.1z M13.1,17c1.9-1,3.2-1.9,4.1-2.7c-0.6-0.7-1.3-1.3-2-2c-0.8-0.9-1.3-1.8-1.3-2.4
					c0-0.2,0.1-0.5,0.1-0.7l2.3-0.5c0.9-0.2,1.8-0.3,2.6-0.3c1.1,0,2.1,0.2,3.1,0.6c1.5,0.6,2.3,1.9,2.3,3.8c0,1.8-0.7,2.7-2.1,2.9
					c-0.4,0-1,0.1-1.8,0.1c-0.8,0-1.4,0.1-1.8,0.2C16.9,16.2,15.1,16.5,13.1,17z M34.6,32.1c0,0.5-0.1,1.3-0.3,2.3
					c-0.1,0.7-0.8,1.1-2.1,1.1c-0.6,0-1.4-0.1-2.5-0.3c-1.1-0.2-1.7-0.2-2-0.2c-0.4,0.1-0.8,0.3-1.3,0.6c-1,0.6-1.8,1.4-2.6,2.5
					c-0.9,1.2-1.3,2.3-1.3,3.3c1.4,0.2,2.6,0.1,3.9-0.2c0.2,0,1-0.3,2.3-0.7c0.9-0.3,1.7-0.4,2.3-0.4c0.6,0,1.1,0.1,1.6,0.3
					c2,0.8,3,1.9,3,3.4c0,0.9-0.5,1.6-1.6,2.2c-0.4,0.2-1.5,0.5-3.1,0.7c-0.6,0.1-1.4,0.4-2.2,1C28.2,48,28,48,28,47.7
					c0-0.1,0-0.4,0.1-0.7c-0.6,0-1.1,0-1.7,0c-4.9,0-7.5-1.4-8-4c-0.2-1,0-2,0.5-3.1c0.3-0.6,1.7-1.8,4.2-3.5
					c2.2-1.6,3.8-2.6,4.8-3.1v-26c0-0.7-0.6-1.4-1.8-2.2c-1.2-0.8-1.9-1.4-1.9-1.9c0-0.7,0.8-1.1,2.4-1.1c0.7,0,1.5,0.1,2.4,0.2
					c4.3,0.7,6.5,2.1,6.5,4c0,0.4-0.1,0.9-0.4,1.4l-0.8,20.7c0.3-0.1,1-0.4,2.2-0.9c1.8-1,3.5-1.6,5-1.6c1.1,0,2,0.2,2.7,0.7
					c0.7,0.5,1,1,1,1.6c0,1.2-0.9,2.1-2.8,2.7c-0.8,0.3-2.1,0.5-3.9,0.6C36.8,31.6,35.4,31.8,34.6,32.1z"/>
				<path class="st0" d="M42.1,33.7c1-0.7,1.9-1.4,2.5-2.3c1-1.2,1.7-2.1,2.1-2.5c-1.1,1.7-1.8,3.2-1.8,4.5c0.8-0.4,2-1.3,3.5-2.6
					c1.2-1.1,2.7-2.7,4.4-4.8c2.1-2.6,3.1-4.3,3.3-5.3c-3.6-0.9-6.1-2.6-7.5-5.2c0.5,0,1.9-0.2,4.2-0.5c3.9-0.6,6.3-1,7.3-1
					c0.9,0,1.6,0.1,2,0.4c0.2,0.1,0.5,0.3,0.9,0.5c0.4,0.2,0.7,0.4,0.9,0.6c0.7,0.4,1,0.9,1,1.3c0,0.3-0.2,0.8-0.5,1.3
					c-0.4,0.6-1.3,1.8-2.6,3.4c-1.9,2.4-3.7,4.8-5.6,7.1c-2.5,2.9-4.6,4.9-6.5,6c-1.9,1.1-3.5,1.6-5,1.6c-1.9,0-2.9-0.6-3-1.7
					C41.9,34.2,41.9,33.9,42.1,33.7z M74.4,28.3l-0.3,16.5c0,0.4-0.2,1-0.7,1.9c-0.8,1.7-1.8,2.5-2.9,2.5c-0.7,0-1.3-0.3-1.8-1
					c-0.5-0.7-0.8-1.6-0.8-2.8V27.8c0-0.3-0.3-0.7-0.8-1.1c-0.7-0.5-1-0.9-1.1-1c0.4,0,1.1-0.1,1.9-0.2V6.1c0-0.7-0.7-1.5-2.1-2.5
					c-1.4-0.9-2.1-1.6-2.1-2c0-0.6,0.9-0.9,2.6-0.9c0.8,0,1.8,0.1,3,0.2c1.4,0.2,2.6,0.6,3.8,1.2C74.6,3.1,75.4,4,75.4,5
					c0,0.5-0.2,0.9-0.5,1.4L74.3,24c0.3-0.1,1-0.4,2.1-0.9c0.6-0.3,1.3-0.5,1.9-0.5c0.4,0,0.9,0,1.4,0.1c2.4,0.4,3.6,1.4,3.6,2.9
					c0,1.3-1,2.2-3.1,2.7c-0.5,0.1-1,0.2-1.6,0.2c-0.5,0-1.2-0.1-2.1-0.2C75.5,28.4,74.8,28.3,74.4,28.3z"/>
				<path class="st0" d="M118.5,7l-1,37.7c0,1.2-1,2.1-2.8,2.5c-1.4,0.2-2.8,0.4-4.2,0.6c0.5-0.5,0.8-1.3,0.8-2.3V26.9
					c-0.8,0.1-3.4,2.5-7.8,7.2c-4.4,4.7-7.2,7.1-8.5,7.3c-1,0.1-2.1,0-3.4-0.4c-1.4-0.3-2.4-0.8-3-1.5c0.1-0.2,0.2-0.4,0.5-0.4
					c0.2,0,0.5,0,0.8,0l0.7,0c0.6,0,1.1-0.1,1.6-0.3c1.1-0.3,2.6-1.6,4.6-3.7c2-2.1,3.1-3.7,3.4-4.9c-0.4,0-2.1,0.9-5,2.5
					c-2.9,1.6-4.8,2.5-5.6,2.5c-2.1,0-3.2-1.2-3.2-3.5c0-0.4,0-0.8,0.2-1.3c1.9-1.1,3.8-2.1,5.7-3.2c2.7-1.6,4.4-2.8,4.9-3.6
					c-1.1-0.1-2.2-0.9-3.3-2.2c-1.1-1.3-1.7-2.5-1.7-3.6c0-1.1,0.8-2.3,2.5-3.8c2.3-2,3.6-3.1,3.7-3.3c0.1-0.1,0.2-0.3,0.4-0.5
					c0,0,0-0.3,0.1-0.8c0-0.3,0.2-0.4,0.5-0.4c0.6,0,1.3,0.4,2.1,1.1c0.7,0.7,1.2,1.3,1.5,2c1.3-0.1,2.6,0.4,3.8,1.4
					c1.2,1,1.9,2.2,1.9,3.5c0,2.9-1.7,5-5.1,6.5c-0.4,0.2-1.4,0.5-2.9,0.8c-2,0.5-5.8,2.5-11.5,6l16.6-6.3c0.1-0.1,0.3-0.1,0.5-0.3
					c0.2-0.1,0.3-0.2,0.4-0.2c0.9-0.4,1.6-0.6,2.3-0.6c0.6,0,1.4,0.3,2.5,0.8V6.6c0-0.1-0.1-0.4-0.2-0.7c-0.3-0.7-1-1.4-2-2
					c-1-0.6-1.5-1-1.5-1.4c0-0.9,1-1.3,3-1.3c1.9,0,3.7,0.4,5.3,1.1c1.9,0.9,2.9,2,2.9,3.3C118.8,6.1,118.7,6.6,118.5,7z
					 M102.2,17.2c0-0.3-0.4-0.9-1.1-1.7c-0.8-0.8-1.3-1.2-1.7-1.2c-0.5,0-1.4,0.3-2.5,0.9c-1.2,0.6-1.8,1.2-1.8,1.6
					c0,0.5,0.8,1,2.5,1.5c1.4,0.5,2.5,0.7,3.2,0.7C101.7,19,102.2,18.4,102.2,17.2z"/>
				<path class="st0" d="M124.3,9.7c0-2.9,1.2-5.2,3.3-7.2c1.5-1.4,3.3-2.2,5.3-2.5c2.6-0.3,5,0.3,7.1,1.8c2.2,1.6,3.5,3.7,3.9,6.4
					c0.4,2.7-0.1,5.1-1.8,7.3c-1.6,2.2-3.7,3.5-6.4,3.9c-0.4,0.1-0.9,0.1-1.3,0.2c-0.2,0-0.4,0.1-0.5,0.2c-1.5,1-3.1,1.9-4.6,2.9
					c-0.1,0.1-0.2,0.1-0.3,0.2c0-0.1-0.1-0.3-0.1-0.4c-0.1-1.4-0.1-2.8-0.2-4.2c0-0.3-0.2-0.5-0.4-0.6c-0.9-0.7-1.7-1.5-2.3-2.4
					c-0.9-1.3-1.4-2.7-1.5-4.3C124.4,10.6,124.3,10.2,124.3,9.7z"/>
			</g>
		</g>
	</g>
	<g>
		<g>
			<g>
				<linearGradient id="SVGID_1_" gradientUnits="userSpaceOnUse" x1="72" y1="-5.456968e-12" x2="72" y2="49.175">
					<stop  offset="0" style="stop-color:#000000;stop-opacity:0"/>
					<stop  offset="1" style="stop-color:#000000;stop-opacity:0.2"/>
				</linearGradient>
				<path class="st1" d="M21.1,35.1c-0.2,0.6-0.6,0.9-1.3,0.9c-0.4,0-1.2-0.2-2.2-0.6c-1.3-0.5-2.7-1.4-4.1-2.5
					c-1.7-1.5-2.5-2.8-2.5-4.1c0-0.6,0.2-1.1,0.6-1.6c0.1-0.1,0.6-0.5,1.8-1.2c2.4-1.7,3.7-2.6,4-2.8c2.1-1.6,3.3-2.5,3.3-2.9
					c-1.4,0.2-3.6,1.3-6.6,3.2c-2.1,1.5-4.3,2.9-6.4,4.4c-2,1.3-3.3,2-4,2c-1.1,0-2-0.6-2.8-1.8c-0.7-1.1-1-2.2-0.9-3.4
					c0-0.3,0-0.6,0.1-0.7c0.1-0.2,0.2-0.2,0.4-0.2c0.2,0,0.6,0.2,1.2,0.7c0.1,0,0.4,0.1,0.6,0.3c0.5,0.1,3.8-1.2,10-3.9
					c3.6-1.6,7.2-3.2,10.8-4.8c3,0.5,4.5,1.3,4.5,2.5c0,0.5-0.4,1-1.1,1.6c-0.2,0.2-1,0.6-2.2,1.2c-1.2,0.6-2.7,1.5-4.5,2.7
					c3.9-0.1,5.9,1.6,5.9,5.1c0,1.6-0.4,2.9-1.1,4.1C23.8,34.4,22.6,35.1,21.1,35.1z M19.7,28.1c-1.5,0.1-2.9-0.5-4.1-1.8
					c-0.6,0.4-1.5,1-2.5,2c0.5,0.5,1.4,1.1,2.6,1.8c1.2,0.7,2.2,1,2.8,1c0.5,0,0.9-0.2,1.2-0.6c0.4-0.4,0.5-0.8,0.5-1.3
					C20.1,28.8,20,28.4,19.7,28.1z M13.1,17c1.9-1,3.2-1.9,4.1-2.7c-0.6-0.7-1.3-1.3-2-2c-0.8-0.9-1.3-1.8-1.3-2.4
					c0-0.2,0.1-0.5,0.1-0.7l2.3-0.5c0.9-0.2,1.8-0.3,2.6-0.3c1.1,0,2.1,0.2,3.1,0.6c1.5,0.6,2.3,1.9,2.3,3.8c0,1.8-0.7,2.7-2.1,2.9
					c-0.4,0-1,0.1-1.8,0.1c-0.8,0-1.4,0.1-1.8,0.2C16.9,16.2,15.1,16.5,13.1,17z M34.6,32.1c0,0.5-0.1,1.3-0.3,2.3
					c-0.1,0.7-0.8,1.1-2.1,1.1c-0.6,0-1.4-0.1-2.5-0.3c-1.1-0.2-1.7-0.2-2-0.2c-0.4,0.1-0.8,0.3-1.3,0.6c-1,0.6-1.8,1.4-2.6,2.5
					c-0.9,1.2-1.3,2.3-1.3,3.3c1.4,0.2,2.6,0.1,3.9-0.2c0.2,0,1-0.3,2.3-0.7c0.9-0.3,1.7-0.4,2.3-0.4c0.6,0,1.1,0.1,1.6,0.3
					c2,0.8,3,1.9,3,3.4c0,0.9-0.5,1.6-1.6,2.2c-0.4,0.2-1.5,0.5-3.1,0.7c-0.6,0.1-1.4,0.4-2.2,1C28.2,48,28,48,28,47.7
					c0-0.1,0-0.4,0.1-0.7c-0.6,0-1.1,0-1.7,0c-4.9,0-7.5-1.4-8-4c-0.2-1,0-2,0.5-3.1c0.3-0.6,1.7-1.8,4.2-3.5
					c2.2-1.6,3.8-2.6,4.8-3.1v-26c0-0.7-0.6-1.4-1.8-2.2c-1.2-0.8-1.9-1.4-1.9-1.9c0-0.7,0.8-1.1,2.4-1.1c0.7,0,1.5,0.1,2.4,0.2
					c4.3,0.7,6.5,2.1,6.5,4c0,0.4-0.1,0.9-0.4,1.4l-0.8,20.7c0.3-0.1,1-0.4,2.2-0.9c1.8-1,3.5-1.6,5-1.6c1.1,0,2,0.2,2.7,0.7
					c0.7,0.5,1,1,1,1.6c0,1.2-0.9,2.1-2.8,2.7c-0.8,0.3-2.1,0.5-3.9,0.6C36.8,31.6,35.4,31.8,34.6,32.1z"/>
				<linearGradient id="SVGID_2_" gradientUnits="userSpaceOnUse" x1="72" y1="-5.456968e-12" x2="72" y2="49.175">
					<stop  offset="0" style="stop-color:#000000;stop-opacity:0"/>
					<stop  offset="1" style="stop-color:#000000;stop-opacity:0.2"/>
				</linearGradient>
				<path class="st2" d="M42.1,33.7c1-0.7,1.9-1.4,2.5-2.3c1-1.2,1.7-2.1,2.1-2.5c-1.1,1.7-1.8,3.2-1.8,4.5c0.8-0.4,2-1.3,3.5-2.6
					c1.2-1.1,2.7-2.7,4.4-4.8c2.1-2.6,3.1-4.3,3.3-5.3c-3.6-0.9-6.1-2.6-7.5-5.2c0.5,0,1.9-0.2,4.2-0.5c3.9-0.6,6.3-1,7.3-1
					c0.9,0,1.6,0.1,2,0.4c0.2,0.1,0.5,0.3,0.9,0.5c0.4,0.2,0.7,0.4,0.9,0.6c0.7,0.4,1,0.9,1,1.3c0,0.3-0.2,0.8-0.5,1.3
					c-0.4,0.6-1.3,1.8-2.6,3.4c-1.9,2.4-3.7,4.8-5.6,7.1c-2.5,2.9-4.6,4.9-6.5,6c-1.9,1.1-3.5,1.6-5,1.6c-1.9,0-2.9-0.6-3-1.7
					C41.9,34.2,41.9,33.9,42.1,33.7z M74.4,28.3l-0.3,16.5c0,0.4-0.2,1-0.7,1.9c-0.8,1.7-1.8,2.5-2.9,2.5c-0.7,0-1.3-0.3-1.8-1
					c-0.5-0.7-0.8-1.6-0.8-2.8V27.8c0-0.3-0.3-0.7-0.8-1.1c-0.7-0.5-1-0.9-1.1-1c0.4,0,1.1-0.1,1.9-0.2V6.1c0-0.7-0.7-1.5-2.1-2.5
					c-1.4-0.9-2.1-1.6-2.1-2c0-0.6,0.9-0.9,2.6-0.9c0.8,0,1.8,0.1,3,0.2c1.4,0.2,2.6,0.6,3.8,1.2C74.6,3.1,75.4,4,75.4,5
					c0,0.5-0.2,0.9-0.5,1.4L74.3,24c0.3-0.1,1-0.4,2.1-0.9c0.6-0.3,1.3-0.5,1.9-0.5c0.4,0,0.9,0,1.4,0.1c2.4,0.4,3.6,1.4,3.6,2.9
					c0,1.3-1,2.2-3.1,2.7c-0.5,0.1-1,0.2-1.6,0.2c-0.5,0-1.2-0.1-2.1-0.2C75.5,28.4,74.8,28.3,74.4,28.3z"/>
				<linearGradient id="SVGID_3_" gradientUnits="userSpaceOnUse" x1="72" y1="-5.456968e-12" x2="72" y2="49.175">
					<stop  offset="0" style="stop-color:#000000;stop-opacity:0"/>
					<stop  offset="1" style="stop-color:#000000;stop-opacity:0.2"/>
				</linearGradient>
				<path class="st3" d="M118.5,7l-1,37.7c0,1.2-1,2.1-2.8,2.5c-1.4,0.2-2.8,0.4-4.2,0.6c0.5-0.5,0.8-1.3,0.8-2.3V26.9
					c-0.8,0.1-3.4,2.5-7.8,7.2c-4.4,4.7-7.2,7.1-8.5,7.3c-1,0.1-2.1,0-3.4-0.4c-1.4-0.3-2.4-0.8-3-1.5c0.1-0.2,0.2-0.4,0.5-0.4
					c0.2,0,0.5,0,0.8,0l0.7,0c0.6,0,1.1-0.1,1.6-0.3c1.1-0.3,2.6-1.6,4.6-3.7c2-2.1,3.1-3.7,3.4-4.9c-0.4,0-2.1,0.9-5,2.5
					c-2.9,1.6-4.8,2.5-5.6,2.5c-2.1,0-3.2-1.2-3.2-3.5c0-0.4,0-0.8,0.2-1.3c1.9-1.1,3.8-2.1,5.7-3.2c2.7-1.6,4.4-2.8,4.9-3.6
					c-1.1-0.1-2.2-0.9-3.3-2.2c-1.1-1.3-1.7-2.5-1.7-3.6c0-1.1,0.8-2.3,2.5-3.8c2.3-2,3.6-3.1,3.7-3.3c0.1-0.1,0.2-0.3,0.4-0.5
					c0,0,0-0.3,0.1-0.8c0-0.3,0.2-0.4,0.5-0.4c0.6,0,1.3,0.4,2.1,1.1c0.7,0.7,1.2,1.3,1.5,2c1.3-0.1,2.6,0.4,3.8,1.4
					c1.2,1,1.9,2.2,1.9,3.5c0,2.9-1.7,5-5.1,6.5c-0.4,0.2-1.4,0.5-2.9,0.8c-2,0.5-5.8,2.5-11.5,6l16.6-6.3c0.1-0.1,0.3-0.1,0.5-0.3
					c0.2-0.1,0.3-0.2,0.4-0.2c0.9-0.4,1.6-0.6,2.3-0.6c0.6,0,1.4,0.3,2.5,0.8V6.6c0-0.1-0.1-0.4-0.2-0.7c-0.3-0.7-1-1.4-2-2
					c-1-0.6-1.5-1-1.5-1.4c0-0.9,1-1.3,3-1.3c1.9,0,3.7,0.4,5.3,1.1c1.9,0.9,2.9,2,2.9,3.3C118.8,6.1,118.7,6.6,118.5,7z
					 M102.2,17.2c0-0.3-0.4-0.9-1.1-1.7c-0.8-0.8-1.3-1.2-1.7-1.2c-0.5,0-1.4,0.3-2.5,0.9c-1.2,0.6-1.8,1.2-1.8,1.6
					c0,0.5,0.8,1,2.5,1.5c1.4,0.5,2.5,0.7,3.2,0.7C101.7,19,102.2,18.4,102.2,17.2z"/>
				<linearGradient id="SVGID_4_" gradientUnits="userSpaceOnUse" x1="72" y1="-5.456968e-12" x2="72" y2="49.175">
					<stop  offset="0" style="stop-color:#000000;stop-opacity:0"/>
					<stop  offset="1" style="stop-color:#000000;stop-opacity:0.2"/>
				</linearGradient>
				<path class="st4" d="M124.3,9.7c0-2.9,1.2-5.2,3.3-7.2c1.5-1.4,3.3-2.2,5.3-2.5c2.6-0.3,5,0.3,7.1,1.8c2.2,1.6,3.5,3.7,3.9,6.4
					c0.4,2.7-0.1,5.1-1.8,7.3c-1.6,2.2-3.7,3.5-6.4,3.9c-0.4,0.1-0.9,0.1-1.3,0.2c-0.2,0-0.4,0.1-0.5,0.2c-1.5,1-3.1,1.9-4.6,2.9
					c-0.1,0.1-0.2,0.1-0.3,0.2c0-0.1-0.1-0.3-0.1-0.4c-0.1-1.4-0.1-2.8-0.2-4.2c0-0.3-0.2-0.5-0.4-0.6c-0.9-0.7-1.7-1.5-2.3-2.4
					c-0.9-1.3-1.4-2.7-1.5-4.3C124.4,10.6,124.3,10.2,124.3,9.7z"/>
			</g>
		</g>
	</g>
</g>
</svg>
