<?xml version="1.0" encoding="utf-8"?>
<!-- Generator: Adobe Illustrator 23.0.1, SVG Export Plug-In . SVG Version: 6.00 Build 0)  -->
<svg version="1.1" id="레이어_1" xmlns="http://www.w3.org/2000/svg" xmlns:xlink="http://www.w3.org/1999/xlink" x="0px"
	 y="0px" viewBox="0 0 200 50" style="enable-background:new 0 0 200 50;" xml:space="preserve">
<style type="text/css">
	.st0{fill:#B21642;}
	.st1{fill:url(#SVGID_1_);}
	.st2{fill:url(#SVGID_2_);}
	.st3{fill:url(#SVGID_3_);}
	.st4{fill:url(#SVGID_4_);}
	.st5{fill:#0081C8;}
	.st6{fill:#EE2E4E;}
	.st7{fill:#00A54F;}
	.st8{fill:#FBB131;}
	.st9{fill:#231F20;}
	.st10{fill:#002361;}
	.st11{display:none;}
	.st12{display:inline;}
	.st13{fill:none;}
</style>
<g>
	<g>
		<path class="st0" d="M119.3,9.7c0-2.9,1.2-5.2,3.3-7.2c1.5-1.4,3.3-2.2,5.3-2.5c2.6-0.3,5,0.3,7.1,1.8c2.2,1.6,3.5,3.7,3.9,6.4
			c0.4,2.7-0.1,5.1-1.8,7.3c-1.6,2.2-3.7,3.5-6.4,3.9c-0.4,0.1-0.9,0.1-1.3,0.2c-0.2,0-0.4,0.1-0.5,0.2c-1.5,1-3.1,1.9-4.6,2.9
			c-0.1,0.1-0.2,0.1-0.3,0.2c0-0.1-0.1-0.3-0.1-0.4c-0.1-1.4-0.1-2.8-0.2-4.2c0-0.3-0.2-0.5-0.4-0.6c-0.9-0.7-1.7-1.5-2.3-2.4
			c-0.9-1.3-1.4-2.7-1.5-4.3C119.4,10.6,119.3,10.2,119.3,9.7z"/>
		<g>
			<path class="st0" d="M0,42.8C1.2,43,2.5,43,3.9,42.9c0.1,0,1.6-0.3,4.5-1c6.8-1.7,12.1-2.7,16-3.2c0.9-0.1,2-0.1,3.1-0.3
				c0.6-0.2,1.4-0.5,2.5-0.8c0.5-0.1,1-0.2,1.5-0.2c1.5,0,3.4,0.8,5.7,2.4c1,0.7,1.5,1.4,1.5,2.3s-0.5,1.6-1.4,2.2s-2,0.9-3.1,0.9
				c-0.8,0-1.6-0.2-2.4-0.5c-0.1-0.1-0.2-0.2-0.3-0.3c-0.1-0.1-0.3-0.2-0.4-0.3c-0.1-0.1-0.4-0.2-0.8-0.3c-1.6-0.7-3.3-1.1-4.9-1.1
				c-0.4,0-0.8,0-1.1,0.1c-2.7,0.4-4.5,0.6-5.4,0.8c-1.9,0.3-3.6,0.8-5.2,1.3c-1.4,0.5-2.8,1.1-4.2,1.6c-1.8,0.7-3.2,1.1-4.1,1.2
				c-0.9,0.1-1.6,0-2.1-0.1c-1.1-0.2-2-0.8-2.5-1.7C0.1,44.9-0.1,43.9,0,42.8z M17.6,16.8c-0.9-0.4-1.8-0.8-2.6-1.4
				c-0.6-0.4-1.2-0.9-1.9-1.5c-0.9-0.9-1.4-1.6-1.4-2.2c0-0.2,0.1-0.4,0.2-0.6c0.1-0.2,0.4-0.3,0.8-0.4c2.1-0.7,5.3-1.7,9.5-2.9
				c0.5-0.1,1.2-0.3,2.2-0.4c1.3,0,2.4,0.2,3.4,0.7c0.6,0.3,1.3,0.8,1.9,1.5c0.8,0.8,1.2,1.6,1.2,2.3c0,0.4-0.2,0.8-0.5,1.1
				c-0.1,0.1-0.4,0.3-0.9,0.5c-0.3,0.1-0.7,0.3-1.3,0.6c-0.6,0.3-1,0.5-1.3,0.6c-2.4,1-5.7,2.3-9.8,3.9c-0.1,0-0.5,0.2-1.4,0.5
				c-0.9,0.3-1.4,0.5-1.4,0.5c0,0-0.1,0-0.1,0c0-0.1,0.1-0.2,0.3-0.4c0.1-0.1,0.2-0.1,0.4-0.2c0.1-0.1,0.3-0.2,0.4-0.3
				c0.1-0.1,0.4-0.3,0.7-0.5c0.4-0.3,0.6-0.4,0.7-0.5c0.1-0.1,0.2-0.2,0.4-0.3c0.1-0.1,0.3-0.2,0.4-0.3c0.1-0.1,0.2-0.2,0.3-0.3
				C17.8,16.8,17.8,16.8,17.6,16.8z M16.4,30.5c0.7-0.3,2-0.8,3.9-1.5c0.5-0.2,1.3-0.5,2.4-0.9c0.2-0.1,0.4-0.1,0.6-0.1
				c1.2,0,2.5,0.3,4,1c1.6,0.8,2.4,1.6,2.4,2.5c0,0.4-0.2,0.7-0.5,1.1c-0.6,0.6-1.6,1.1-3,1.5c-0.2,0-0.5,0.1-0.9,0.3
				c-0.6,0.3-1.3,0.8-2.3,1.4c-2.5,1.4-4.9,2-6.9,2c3.6-2,5.4-3.5,5.5-4.3c-0.7,0-2.6,0.7-5.9,2.1C15,35.9,14.6,36,14.5,36
				c-1.2-0.1-1.9-1.4-2.3-3.9c0.8-3.1,1.6-5.3,2.6-6.6c-0.4-0.4-0.9-0.8-1.3-1.2c-0.4-0.4-0.6-0.9-0.6-1.4c0.8,0.1,2.7-0.4,5.6-1.5
				c2.1-0.8,4-1.6,5.8-2.4c3.5,0.5,5.3,1.3,5.3,2.3c0,0.6-0.6,1.4-1.8,2.2c-0.5,0.3-1.5,0.6-3.1,0.9c-1.1,0.2-2.2,0.5-3.4,0.7
				c-0.8,0.2-1.4,0.3-1.6,0.5C18.4,26.2,17.3,27.9,16.4,30.5z"/>
			<path class="st0" d="M63,24.9l-2.1,1.8c-1.9,1.7-3.3,2.6-4.1,2.6c-0.2,0-0.3,0-0.5-0.1c-0.6,1.8-1.9,3.5-3.8,4.9
				c-2,1.6-3.9,2.4-5.9,2.4c-1,0-2-0.2-2.8-0.7c-0.8-0.6-1.2-1-1.2-1.1c0-0.1,0.2-0.2,0.5-0.2c0.1,0,0.3,0,0.5,0c0.2,0,0.4,0,0.5,0
				c2,0,3.9-1.1,5.7-3.5c1.7-2.3,2.4-4.5,2.2-6.5c-0.1-0.1-0.6-0.4-1.5-0.8c-2.1-1-3.3-2.3-3.6-4.1c0.7,0,1.9-0.4,3.4-1.1
				c1.5-0.8,2.9-1.1,4.2-1c3,0.2,4.6,1.1,4.7,2.8c0,0.3,0,0.6-0.1,1c-0.1,0.5-0.1,0.9-0.1,1.1c0.7-0.5,1.6-1.1,2.7-1.8
				c0.4-1.8,0.6-3.3,0.6-4.3c0-0.9-0.1-1.7-0.3-2.4c0-1.6,0.6-2.4,1.8-2.3c1,0.1,1.8,0.4,2.5,0.9c0.7,0.5,1.1,1.2,1.2,2.1
				c0-0.3-0.1,0.4-0.2,2c0,0.3,0,1.7,0.1,4.1c0,2.1,0,4.4-0.1,7c-0.1,2.5-0.8,3.8-2,3.8c-0.6,0-1.1-0.3-1.6-0.8
				c-0.5-0.5-0.8-1.1-0.8-1.6V24.9z M68.4,49.5c0.8-0.8,1.2-1.7,1.2-2.7v-40c0-0.7-0.5-1.4-1.5-2.2c-0.8-0.5-1.6-1-2.4-1.5
				c0-0.7,0.9-1.1,2.6-1.1c0.8,0,1.8,0.1,2.9,0.3C75,3,76.9,4.4,76.9,6.6c0,0,0,0.7-0.2,2l-0.3,5.1c-0.3,6.5-0.5,15.1-0.7,26l0,3.6
				v1.3c0,0.3-0.1,0.8-0.4,1.5c-0.5,0.9-1.5,1.7-3,2.3C70.8,49.1,69.5,49.5,68.4,49.5z"/>
			<path class="st0" d="M113.3,6.4l-0.8,39c0,1.2-0.4,2.2-1.2,2.8c-0.5,0.4-1.5,0.7-2.9,1.1c-0.7,0.2-1.7,0.4-3,0.8
				c0.6-0.6,0.9-1.5,0.9-2.8V22.7c-0.9,0.5-1.8,0.9-2.8,1.4c-1.2,0.8-1.7,1.5-1.5,2.3c-0.5,1-2.5,2.8-6,5.3
				c-3.5,2.5-5.8,3.7-6.9,3.7c-1,0-1.8-0.4-2.5-1.3s-1-1.9-1-2.9c0-0.5,0.3-1.2,0.8-2c0.4-0.6,0.7-1.3,1.1-1.9
				c0.1-0.1,0.1-0.4,0.2-0.7c0.1-0.3,0.1-0.5,0.2-0.6c1.1-3.3,2-5.4,2.7-6.2c-0.8-0.3-1.8-1-2.9-2c-1.2-1.2-1.8-2.1-1.8-2.9
				c1.2-0.1,2.8-0.6,4.9-1.6c1.9-0.9,3.5-1.3,4.8-1.3c1.1,0.1,2.2,0.5,3.3,1.2c1.2,0.9,1.8,1.8,1.8,2.9c0,1.1-0.4,1.9-1.3,2.4
				c-0.5,0.3-1.4,0.6-2.8,0.9c-1.3,0.3-2.2,0.6-2.7,0.9c-0.7,0.4-1.4,1.6-2.2,3.4c-0.8,1.8-1.2,3.3-1.2,4.5c0,0.6,0.1,1,0.3,1.3
				c4.2-1.5,6.8-3,7.7-4.7c-0.2-0.3-0.5-0.6-0.8-0.9c-0.3-0.3-0.4-0.6-0.4-0.9c0-0.1,0-0.2,0-0.3c0.1-1,3.1-3.1,8.9-6.4V7.1
				c0-0.8-0.7-1.7-2.1-2.6c-1.4-0.9-2-1.5-2-1.8c0.1-0.8,1-1.3,2.7-1.3c2.1,0,4.1,0.5,6,1.4C113,4,113.8,5.2,113.3,6.4z"/>
		</g>
	</g>
	<g>
		<linearGradient id="SVGID_1_" gradientUnits="userSpaceOnUse" x1="69.5" y1="-5.456968e-12" x2="69.5" y2="50">
			<stop  offset="0" style="stop-color:#000000;stop-opacity:0"/>
			<stop  offset="1" style="stop-color:#000000;stop-opacity:0.2"/>
		</linearGradient>
		<path class="st1" d="M119.3,9.7c0-2.9,1.2-5.2,3.3-7.2c1.5-1.4,3.3-2.2,5.3-2.5c2.6-0.3,5,0.3,7.1,1.8c2.2,1.6,3.5,3.7,3.9,6.4
			c0.4,2.7-0.1,5.1-1.8,7.3c-1.6,2.2-3.7,3.5-6.4,3.9c-0.4,0.1-0.9,0.1-1.3,0.2c-0.2,0-0.4,0.1-0.5,0.2c-1.5,1-3.1,1.9-4.6,2.9
			c-0.1,0.1-0.2,0.1-0.3,0.2c0-0.1-0.1-0.3-0.1-0.4c-0.1-1.4-0.1-2.8-0.2-4.2c0-0.3-0.2-0.5-0.4-0.6c-0.9-0.7-1.7-1.5-2.3-2.4
			c-0.9-1.3-1.4-2.7-1.5-4.3C119.4,10.6,119.3,10.2,119.3,9.7z"/>
		<g>
			<linearGradient id="SVGID_2_" gradientUnits="userSpaceOnUse" x1="69.5" y1="-5.456968e-12" x2="69.5" y2="50">
				<stop  offset="0" style="stop-color:#000000;stop-opacity:0"/>
				<stop  offset="1" style="stop-color:#000000;stop-opacity:0.2"/>
			</linearGradient>
			<path class="st2" d="M0,42.8C1.2,43,2.5,43,3.9,42.9c0.1,0,1.6-0.3,4.5-1c6.8-1.7,12.1-2.7,16-3.2c0.9-0.1,2-0.1,3.1-0.3
				c0.6-0.2,1.4-0.5,2.5-0.8c0.5-0.1,1-0.2,1.5-0.2c1.5,0,3.4,0.8,5.7,2.4c1,0.7,1.5,1.4,1.5,2.3s-0.5,1.6-1.4,2.2s-2,0.9-3.1,0.9
				c-0.8,0-1.6-0.2-2.4-0.5c-0.1-0.1-0.2-0.2-0.3-0.3c-0.1-0.1-0.3-0.2-0.4-0.3c-0.1-0.1-0.4-0.2-0.8-0.3c-1.6-0.7-3.3-1.1-4.9-1.1
				c-0.4,0-0.8,0-1.1,0.1c-2.7,0.4-4.5,0.6-5.4,0.8c-1.9,0.3-3.6,0.8-5.2,1.3c-1.4,0.5-2.8,1.1-4.2,1.6c-1.8,0.7-3.2,1.1-4.1,1.2
				c-0.9,0.1-1.6,0-2.1-0.1c-1.1-0.2-2-0.8-2.5-1.7C0.1,44.9-0.1,43.9,0,42.8z M17.6,16.8c-0.9-0.4-1.8-0.8-2.6-1.4
				c-0.6-0.4-1.2-0.9-1.9-1.5c-0.9-0.9-1.4-1.6-1.4-2.2c0-0.2,0.1-0.4,0.2-0.6c0.1-0.2,0.4-0.3,0.8-0.4c2.1-0.7,5.3-1.7,9.5-2.9
				c0.5-0.1,1.2-0.3,2.2-0.4c1.3,0,2.4,0.2,3.4,0.7c0.6,0.3,1.3,0.8,1.9,1.5c0.8,0.8,1.2,1.6,1.2,2.3c0,0.4-0.2,0.8-0.5,1.1
				c-0.1,0.1-0.4,0.3-0.9,0.5c-0.3,0.1-0.7,0.3-1.3,0.6c-0.6,0.3-1,0.5-1.3,0.6c-2.4,1-5.7,2.3-9.8,3.9c-0.1,0-0.5,0.2-1.4,0.5
				c-0.9,0.3-1.4,0.5-1.4,0.5c0,0-0.1,0-0.1,0c0-0.1,0.1-0.2,0.3-0.4c0.1-0.1,0.2-0.1,0.4-0.2c0.1-0.1,0.3-0.2,0.4-0.3
				c0.1-0.1,0.4-0.3,0.7-0.5c0.4-0.3,0.6-0.4,0.7-0.5c0.1-0.1,0.2-0.2,0.4-0.3c0.1-0.1,0.3-0.2,0.4-0.3c0.1-0.1,0.2-0.2,0.3-0.3
				C17.8,16.8,17.8,16.8,17.6,16.8z M16.4,30.5c0.7-0.3,2-0.8,3.9-1.5c0.5-0.2,1.3-0.5,2.4-0.9c0.2-0.1,0.4-0.1,0.6-0.1
				c1.2,0,2.5,0.3,4,1c1.6,0.8,2.4,1.6,2.4,2.5c0,0.4-0.2,0.7-0.5,1.1c-0.6,0.6-1.6,1.1-3,1.5c-0.2,0-0.5,0.1-0.9,0.3
				c-0.6,0.3-1.3,0.8-2.3,1.4c-2.5,1.4-4.9,2-6.9,2c3.6-2,5.4-3.5,5.5-4.3c-0.7,0-2.6,0.7-5.9,2.1C15,35.9,14.6,36,14.5,36
				c-1.2-0.1-1.9-1.4-2.3-3.9c0.8-3.1,1.6-5.3,2.6-6.6c-0.4-0.4-0.9-0.8-1.3-1.2c-0.4-0.4-0.6-0.9-0.6-1.4c0.8,0.1,2.7-0.4,5.6-1.5
				c2.1-0.8,4-1.6,5.8-2.4c3.5,0.5,5.3,1.3,5.3,2.3c0,0.6-0.6,1.4-1.8,2.2c-0.5,0.3-1.5,0.6-3.1,0.9c-1.1,0.2-2.2,0.5-3.4,0.7
				c-0.8,0.2-1.4,0.3-1.6,0.5C18.4,26.2,17.3,27.9,16.4,30.5z"/>
			<linearGradient id="SVGID_3_" gradientUnits="userSpaceOnUse" x1="69.5" y1="-5.456968e-12" x2="69.5" y2="50">
				<stop  offset="0" style="stop-color:#000000;stop-opacity:0"/>
				<stop  offset="1" style="stop-color:#000000;stop-opacity:0.2"/>
			</linearGradient>
			<path class="st3" d="M63,24.9l-2.1,1.8c-1.9,1.7-3.3,2.6-4.1,2.6c-0.2,0-0.3,0-0.5-0.1c-0.6,1.8-1.9,3.5-3.8,4.9
				c-2,1.6-3.9,2.4-5.9,2.4c-1,0-2-0.2-2.8-0.7c-0.8-0.6-1.2-1-1.2-1.1c0-0.1,0.2-0.2,0.5-0.2c0.1,0,0.3,0,0.5,0c0.2,0,0.4,0,0.5,0
				c2,0,3.9-1.1,5.7-3.5c1.7-2.3,2.4-4.5,2.2-6.5c-0.1-0.1-0.6-0.4-1.5-0.8c-2.1-1-3.3-2.3-3.6-4.1c0.7,0,1.9-0.4,3.4-1.1
				c1.5-0.8,2.9-1.1,4.2-1c3,0.2,4.6,1.1,4.7,2.8c0,0.3,0,0.6-0.1,1c-0.1,0.5-0.1,0.9-0.1,1.1c0.7-0.5,1.6-1.1,2.7-1.8
				c0.4-1.8,0.6-3.3,0.6-4.3c0-0.9-0.1-1.7-0.3-2.4c0-1.6,0.6-2.4,1.8-2.3c1,0.1,1.8,0.4,2.5,0.9c0.7,0.5,1.1,1.2,1.2,2.1
				c0-0.3-0.1,0.4-0.2,2c0,0.3,0,1.7,0.1,4.1c0,2.1,0,4.4-0.1,7c-0.1,2.5-0.8,3.8-2,3.8c-0.6,0-1.1-0.3-1.6-0.8
				c-0.5-0.5-0.8-1.1-0.8-1.6V24.9z M68.4,49.5c0.8-0.8,1.2-1.7,1.2-2.7v-40c0-0.7-0.5-1.4-1.5-2.2c-0.8-0.5-1.6-1-2.4-1.5
				c0-0.7,0.9-1.1,2.6-1.1c0.8,0,1.8,0.1,2.9,0.3C75,3,76.9,4.4,76.9,6.6c0,0,0,0.7-0.2,2l-0.3,5.1c-0.3,6.5-0.5,15.1-0.7,26l0,3.6
				v1.3c0,0.3-0.1,0.8-0.4,1.5c-0.5,0.9-1.5,1.7-3,2.3C70.8,49.1,69.5,49.5,68.4,49.5z"/>
			<linearGradient id="SVGID_4_" gradientUnits="userSpaceOnUse" x1="69.5" y1="-5.456968e-12" x2="69.5" y2="50">
				<stop  offset="0" style="stop-color:#000000;stop-opacity:0"/>
				<stop  offset="1" style="stop-color:#000000;stop-opacity:0.2"/>
			</linearGradient>
			<path class="st4" d="M113.3,6.4l-0.8,39c0,1.2-0.4,2.2-1.2,2.8c-0.5,0.4-1.5,0.7-2.9,1.1c-0.7,0.2-1.7,0.4-3,0.8
				c0.6-0.6,0.9-1.5,0.9-2.8V22.7c-0.9,0.5-1.8,0.9-2.8,1.4c-1.2,0.8-1.7,1.5-1.5,2.3c-0.5,1-2.5,2.8-6,5.3
				c-3.5,2.5-5.8,3.7-6.9,3.7c-1,0-1.8-0.4-2.5-1.3s-1-1.9-1-2.9c0-0.5,0.3-1.2,0.8-2c0.4-0.6,0.7-1.3,1.1-1.9
				c0.1-0.1,0.1-0.4,0.2-0.7c0.1-0.3,0.1-0.5,0.2-0.6c1.1-3.3,2-5.4,2.7-6.2c-0.8-0.3-1.8-1-2.9-2c-1.2-1.2-1.8-2.1-1.8-2.9
				c1.2-0.1,2.8-0.6,4.9-1.6c1.9-0.9,3.5-1.3,4.8-1.3c1.1,0.1,2.2,0.5,3.3,1.2c1.2,0.9,1.8,1.8,1.8,2.9c0,1.1-0.4,1.9-1.3,2.4
				c-0.5,0.3-1.4,0.6-2.8,0.9c-1.3,0.3-2.2,0.6-2.7,0.9c-0.7,0.4-1.4,1.6-2.2,3.4c-0.8,1.8-1.2,3.3-1.2,4.5c0,0.6,0.1,1,0.3,1.3
				c4.2-1.5,6.8-3,7.7-4.7c-0.2-0.3-0.5-0.6-0.8-0.9c-0.3-0.3-0.4-0.6-0.4-0.9c0-0.1,0-0.2,0-0.3c0.1-1,3.1-3.1,8.9-6.4V7.1
				c0-0.8-0.7-1.7-2.1-2.6c-1.4-0.9-2-1.5-2-1.8c0.1-0.8,1-1.3,2.7-1.3c2.1,0,4.1,0.5,6,1.4C113,4,113.8,5.2,113.3,6.4z"/>
		</g>
	</g>
</g>
<g>
	<g>
		<g id="XMLID_48_">
			<path class="st5" d="M162.1,43.4c0-1.9-1.5-3.5-3.5-3.5s-3.5,1.5-3.5,3.5c0,1.9,1.5,3.5,3.5,3.5c0.1,0,0.2,0,0.3,0
				c0-0.1,0-0.2,0-0.3c0-0.1,0-0.2,0-0.3c-0.1,0-0.2,0-0.3,0c-1.6,0-2.9-1.3-2.9-2.9c0-1.6,1.3-2.9,2.9-2.9s2.9,1.3,2.9,2.9
				c0,1.3-0.8,2.4-2,2.7c0,0.1,0,0.3,0,0.4c0,0.1,0,0.1,0,0.2C161,46.3,162.1,45,162.1,43.4"/>
		</g>
		<g id="XMLID_49_">
			<path class="st6" d="M177.1,43.4c0,1.9-1.5,3.5-3.5,3.5c-1.8,0-3.3-1.4-3.5-3.2c0.2,0,0.4,0.1,0.6,0.1c0.2,1.4,1.4,2.5,2.9,2.5
				c1.6,0,2.9-1.3,2.9-2.9c0-1.6-1.3-2.9-2.9-2.9c-1.5,0-2.8,1.2-2.9,2.7c-0.2-0.1-0.4-0.1-0.6-0.1c0.1-1.8,1.6-3.2,3.5-3.2
				C175.6,39.9,177.1,41.4,177.1,43.4"/>
		</g>
		<g id="XMLID_52_">
			<path class="st7" d="M172.8,46.7c-0.1,1.5-1.3,2.7-2.9,2.7c-1.6,0-2.9-1.3-2.9-2.9c0-1.3,0.8-2.4,2-2.7c0-0.1,0-0.3,0-0.4
				c0-0.1,0-0.1,0-0.2c-1.5,0.4-2.6,1.7-2.6,3.4c0,1.9,1.5,3.5,3.5,3.5c1.8,0,3.3-1.4,3.5-3.2C173.2,46.8,173,46.8,172.8,46.7
				 M169.9,43.6c1.4,0,2.7,1.1,2.9,2.5c0.2,0.1,0.4,0.1,0.6,0.1c-0.2-1.8-1.6-3.2-3.5-3.2c-0.1,0-0.2,0-0.3,0c0,0.1,0,0.2,0,0.3
				c0,0.1,0,0.2,0,0.3C169.7,43.7,169.8,43.6,169.9,43.6"/>
		</g>
		<g id="XMLID_55_">
			<path class="st8" d="M165.9,46.8c-0.1,1.8-1.6,3.2-3.5,3.2c-1.9,0-3.5-1.5-3.5-3.5c0-1.6,1.1-3,2.6-3.4c0,0.1,0,0.1,0,0.2
				c0,0.2,0,0.3,0,0.4c-1.2,0.4-2,1.5-2,2.7c0,1.6,1.3,2.9,2.9,2.9c1.5,0,2.8-1.2,2.9-2.7C165.5,46.8,165.7,46.8,165.9,46.8
				 M162.1,43.7c0-0.1,0-0.2,0-0.3c0-0.1,0-0.2,0-0.3c0.1,0,0.2,0,0.3,0c1.8,0,3.3,1.4,3.5,3.2c-0.2,0-0.4-0.1-0.6-0.1
				c-0.2-1.4-1.4-2.5-2.9-2.5C162.3,43.7,162.2,43.7,162.1,43.7"/>
		</g>
		<g id="XMLID_58_">
			<path class="st9" d="M166.2,46.2c-1.4,0-2.7-1.1-2.9-2.5c-0.2-0.1-0.4-0.1-0.6-0.1c0.2,1.8,1.6,3.2,3.5,3.2c0.1,0,0.2,0,0.3,0
				c0-0.1,0-0.2,0-0.3c0-0.1,0-0.2,0-0.3C166.4,46.2,166.3,46.2,166.2,46.2 M166.2,39.9c-1.8,0-3.3,1.4-3.5,3.2
				c0.2,0,0.4,0.1,0.6,0.1c0.1-1.5,1.3-2.7,2.9-2.7c1.6,0,2.9,1.3,2.9,2.9c0,1.3-0.8,2.4-2,2.7c0,0.1,0,0.3,0,0.4c0,0.1,0,0.1,0,0.2
				c1.5-0.4,2.6-1.7,2.6-3.4C169.6,41.4,168.1,39.9,166.2,39.9"/>
		</g>
	</g>
	<g>
		<g>
			<g id="XMLID_59_">
				<polygon class="st10" points="151.6,37.6 150.9,37.6 150.9,33.7 149.8,33.7 149.8,33 152.7,33 152.7,33.7 151.6,33.7 				"/>
			</g>
			<g id="XMLID_60_">
				<polygon class="st10" points="160.7,37.6 159.9,37.6 158.8,35.6 158.4,36.2 158.4,37.6 157.7,37.6 157.7,33.1 158.4,33.1 
					158.4,35.1 158.4,35.1 159.8,33 160.6,33 159.3,35 				"/>
			</g>
			<g id="XMLID_61_">
				<polygon class="st10" points="163.2,37.6 162.4,37.6 162.4,35.6 161.2,33 162,33 162.8,34.8 162.8,34.8 163.6,33 164.4,33 
					163.2,35.6 163.2,37.6 				"/>
			</g>
			<g id="XMLID_62_">
				<path class="st10" d="M172.1,37.6h-2.5v-0.6l0,0l1.7-2.2c0.1-0.1,0.1-0.2,0.1-0.4c0-0.4-0.3-0.6-0.5-0.6c-0.2,0-0.3,0.1-0.4,0.2
					c-0.1,0.1-0.2,0.3-0.2,0.5v0h-0.7v0c0-0.4,0.1-0.7,0.4-1c0.2-0.2,0.5-0.4,0.9-0.4c0.4,0,0.7,0.1,0.9,0.4
					c0.2,0.2,0.4,0.6,0.4,0.9c0,0.3-0.1,0.6-0.3,0.9l-1.3,1.7l0,0h1.6L172.1,37.6L172.1,37.6z"/>
			</g>
			<g id="XMLID_63_">
				<path class="st10" d="M179.1,37.6h-2.5v-0.6l0,0l1.7-2.2c0.1-0.1,0.1-0.2,0.1-0.4c0-0.4-0.3-0.6-0.5-0.6c-0.2,0-0.3,0.1-0.4,0.2
					c-0.1,0.1-0.2,0.3-0.2,0.5v0h-0.7v0c0-0.4,0.1-0.7,0.4-1c0.2-0.2,0.5-0.4,0.9-0.4c0.4,0,0.7,0.1,0.9,0.4
					c0.2,0.2,0.4,0.6,0.4,0.9c0,0.3-0.1,0.6-0.3,0.9l-1.3,1.7l0,0h1.6V37.6L179.1,37.6z"/>
			</g>
			<g id="XMLID_66_">
				<path class="st10" d="M166.3,33.7c-0.4,0-0.7,0.3-0.7,0.7v1.6c0,0.5,0.3,0.8,0.7,0.8s0.7-0.3,0.7-0.8v-1.6
					C167,34,166.7,33.7,166.3,33.7 M166.3,37.6c-0.8,0-1.4-0.6-1.4-1.4v-1.9c0-0.8,0.6-1.4,1.4-1.4c0.8,0,1.4,0.6,1.4,1.4v1.9
					C167.7,37,167.1,37.6,166.3,37.6"/>
			</g>
			<g id="XMLID_69_">
				<path class="st10" d="M154.9,33.7c-0.4,0-0.7,0.3-0.7,0.7v1.6c0,0.5,0.3,0.8,0.7,0.8s0.7-0.3,0.7-0.8v-1.6
					C155.7,34,155.3,33.7,154.9,33.7 M154.9,37.6c-0.8,0-1.4-0.6-1.4-1.4v-1.9c0-0.8,0.6-1.4,1.4-1.4c0.8,0,1.4,0.6,1.4,1.4v1.9
					C156.3,37,155.7,37.6,154.9,37.6"/>
			</g>
			<g id="XMLID_72_">
				<path class="st10" d="M174.4,33.7c-0.5,0-0.6,0.4-0.6,0.7v1.8c0,0.4,0.2,0.7,0.6,0.7c0.4,0,0.6-0.2,0.6-0.7v-1.8
					C175,34.1,174.9,33.7,174.4,33.7 M174.4,37.6c-0.5,0-1.3-0.3-1.3-1.3v-2c0-0.8,0.5-1.3,1.3-1.3c0.7,0,1.3,0.5,1.3,1.3v2
					C175.7,37.3,174.9,37.6,174.4,37.6"/>
			</g>
			<g id="XMLID_75_">
				<path class="st10" d="M181.3,33.7c-0.5,0-0.6,0.4-0.6,0.7v1.8c0,0.4,0.2,0.7,0.6,0.7c0.4,0,0.6-0.2,0.6-0.7v-1.8
					C181.8,34.1,181.7,33.7,181.3,33.7 M181.3,37.6c-0.5,0-1.3-0.3-1.3-1.3v-2c0-0.8,0.5-1.3,1.3-1.3c0.7,0,1.3,0.5,1.3,1.3v2
					C182.5,37.3,181.7,37.6,181.3,37.6"/>
			</g>
		</g>
		<g class="st11">
			<g id="XMLID_3_" class="st12">
				<rect x="174" y="11.5" transform="matrix(0.5 -0.866 0.866 0.5 76.5077 158.3439)" class="st10" width="2.8" height="2.8"/>
			</g>
			<g id="XMLID_4_" class="st12">
				<polygon class="st10" points="175.4,6.2 175.4,6.2 175.4,9 178.2,9 178.2,6.2 				"/>
			</g>
			<g id="XMLID_5_" class="st12">
				<rect x="171.5" y="27.4" transform="matrix(0.866 -0.5 0.5 0.866 9.2566 90.4577)" class="st10" width="3.9" height="1"/>
			</g>
			<g id="XMLID_6_" class="st12">
				<rect x="180.2" y="13.4" class="st10" width="1" height="3.9"/>
			</g>
			<g id="XMLID_7_" class="st12">
				
					<rect x="176.8" y="22.1" transform="matrix(0.5001 -0.866 0.866 0.5001 69.7505 166.1033)" class="st10" width="3.9" height="1"/>
			</g>
			<g id="XMLID_8_" class="st12">
				<polygon class="st10" points="169.5,24.1 169.5,24.1 169.5,27.9 170.6,27.9 170.6,24.1 				"/>
			</g>
			<g id="XMLID_9_" class="st12">
				
					<rect x="173.6" y="23.6" transform="matrix(0.7071 -0.7071 0.7071 0.7071 33.9778 131.2132)" class="st10" width="3.5" height="2"/>
			</g>
			<g id="XMLID_10_" class="st12">
				
					<rect x="173.6" y="15.8" transform="matrix(0.7071 -0.7071 0.7071 0.7071 39.4848 128.9322)" class="st10" width="3.5" height="2"/>
			</g>
			<g id="XMLID_11_" class="st12">
				<polygon class="st10" points="173.4,21.2 173.4,21.2 171.5,20.7 170.6,24.1 172.5,24.6 				"/>
			</g>
			<g id="XMLID_12_" class="st12">
				
					<rect x="177" y="17.7" transform="matrix(0.2588 -0.9659 0.9659 0.2588 114.3825 186.5581)" class="st10" width="3.5" height="2"/>
			</g>
			<g id="XMLID_13_" class="st12">
				
					<rect x="177" y="10" transform="matrix(0.2588 -0.9659 0.9659 0.2588 121.9048 180.7816)" class="st10" width="3.5" height="2"/>
			</g>
			<g id="XMLID_14_" class="st12">
				
					<rect x="172.4" y="7.8" transform="matrix(0.2588 -0.9659 0.9659 0.2588 119.3214 174.5813)" class="st10" width="2" height="3.5"/>
			</g>
			<g id="XMLID_15_" class="st12">
				<rect x="158" y="7.2" class="st10" width="2.8" height="2.8"/>
			</g>
			<g id="XMLID_16_" class="st12">
				<rect x="152.7" y="8.6" transform="matrix(0.866 -0.5 0.5 0.866 15.6157 78.4013)" class="st10" width="2.8" height="2.8"/>
			</g>
			<g id="XMLID_17_" class="st12">
				<rect x="172.9" y="0.9" transform="matrix(0.5 -0.866 0.866 0.5 84.2827 151.5973)" class="st10" width="1" height="3.9"/>
			</g>
			<g id="XMLID_18_" class="st12">
				<rect x="157" y="2.3" transform="matrix(0.866 -0.5 0.5 0.866 19.8878 79.8343)" class="st10" width="3.9" height="1"/>
			</g>
			<g id="XMLID_19_" class="st12">
				<rect x="164.2" y="0.3" class="st10" width="3.9" height="1"/>
			</g>
			<g id="XMLID_20_" class="st12">
				<rect x="171.5" y="6.2" transform="matrix(0.866 -0.5 0.5 0.866 19.8892 87.6149)" class="st10" width="3.9" height="1"/>
			</g>
			<g id="XMLID_21_" class="st12">
				
					<rect x="168.5" y="1.1" transform="matrix(0.2588 -0.9659 0.9659 0.2588 122.9563 165.8445)" class="st10" width="2" height="3.5"/>
			</g>
			<g id="XMLID_22_" class="st12">
				
					<rect x="161.8" y="5" transform="matrix(0.2588 -0.9659 0.9659 0.2588 114.2024 162.2118)" class="st10" width="2" height="3.5"/>
			</g>
			<g id="XMLID_23_" class="st12">
				<polygon class="st10" points="167.6,6.2 167.6,6.2 168.1,8.1 171.5,7.2 171,5.3 				"/>
			</g>
			<g id="XMLID_24_" class="st12">
				<rect x="161.1" y="1.8" transform="matrix(0.9659 -0.2588 0.2588 0.9659 4.82 42.2279)" class="st10" width="3.5" height="2"/>
			</g>
			<g id="XMLID_25_" class="st12">
				
					<rect x="154.3" y="5.7" transform="matrix(0.9659 -0.2588 0.2588 0.9659 3.5841 40.6151)" class="st10" width="3.5" height="2"/>
			</g>
			<g id="XMLID_26_" class="st12">
				
					<rect x="156.5" y="10.3" transform="matrix(0.9659 -0.2588 0.2588 0.9659 2.2568 41.1736)" class="st10" width="2" height="3.5"/>
			</g>
			<g id="XMLID_27_" class="st12">
				<rect x="162.3" y="23.2" transform="matrix(0.866 -0.5 0.5 0.866 9.6381 85.138)" class="st10" width="2.8" height="2.8"/>
			</g>
			<g id="XMLID_28_" class="st12">
				<rect x="166.2" y="27" transform="matrix(0.5 -0.866 0.866 0.5 59.1453 159.3817)" class="st10" width="2.8" height="2.8"/>
			</g>
			<g id="XMLID_29_" class="st12">
				<rect x="151.1" y="13.4" class="st10" width="1" height="3.9"/>
			</g>
			<g id="XMLID_30_" class="st12">
				<rect x="158.4" y="26" transform="matrix(0.5 -0.866 0.866 0.5 55.2435 151.5957)" class="st10" width="1" height="3.9"/>
			</g>
			<g id="XMLID_31_" class="st12">
				<rect x="153.1" y="20.7" transform="matrix(0.866 -0.5 0.5 0.866 9.2565 79.8282)" class="st10" width="1" height="3.9"/>
			</g>
			<g id="XMLID_32_" class="st12">
				<polygon class="st10" points="157,14 157,14 153.6,12 153.1,12.9 156.4,14.9 				"/>
			</g>
			<g id="XMLID_33_" class="st12">
				<polygon class="st10" points="155,20.2 154.1,16.8 152.2,17.3 153.1,20.7 				"/>
			</g>
			<g id="XMLID_34_" class="st12">
				
					<rect x="159.3" y="20.9" transform="matrix(0.9659 -0.2588 0.2588 0.9659 -0.3973 42.2648)" class="st10" width="2" height="3.5"/>
			</g>
			<g id="XMLID_35_" class="st12">
				
					<rect x="156" y="15.1" transform="matrix(0.7071 -0.7071 0.7071 0.7071 34.0965 115.9119)" class="st10" width="2" height="3.5"/>
			</g>
			<g id="XMLID_36_" class="st12">
				
					<rect x="156" y="22.8" transform="matrix(0.7071 -0.7071 0.7071 0.7071 28.591 118.1911)" class="st10" width="2" height="3.5"/>
			</g>
			<g id="XMLID_37_" class="st12">
				
					<rect x="162.7" y="26.7" transform="matrix(0.7071 -0.7071 0.7071 0.7071 27.8135 124.0893)" class="st10" width="2" height="3.5"/>
			</g>
			<g id="XMLID_38_" class="st12">
				
					<rect x="165.9" y="23.6" transform="matrix(0.7071 -0.7071 0.7071 0.7071 31.7053 125.7099)" class="st10" width="3.5" height="2"/>
			</g>
			<g id="XMLID_39_" class="st12">
				<rect x="174" y="19.3" transform="matrix(0.5 -0.866 0.866 0.5 69.7739 162.2285)" class="st10" width="2.8" height="2.8"/>
			</g>
			<g id="XMLID_40_" class="st12">
				<rect x="170.1" y="26" transform="matrix(0.5 -0.866 0.866 0.5 63.0352 162.2235)" class="st10" width="3.9" height="1"/>
			</g>
			<g id="XMLID_41_" class="st12">
				
					<rect x="176.8" y="14.3" transform="matrix(0.5001 -0.866 0.866 0.5001 76.4947 162.2096)" class="st10" width="3.9" height="1"/>
			</g>
			<g id="XMLID_42_" class="st12">
				<polygon class="st10" points="167.6,3.3 164.7,3.3 164.7,6.2 167.6,6.2 167.6,3.3 				"/>
			</g>
			<g id="XMLID_43_" class="st12">
				<rect x="171" y="4.2" class="st10" width="3.9" height="1"/>
			</g>
			<g id="XMLID_44_" class="st12">
				<polygon class="st10" points="161.4,4.2 157.5,4.2 157.5,5.3 161.4,5.3 161.4,4.2 				"/>
			</g>
			<g id="XMLID_45_" class="st12">
				<rect x="155.5" y="19.3" transform="matrix(0.866 -0.5 0.5 0.866 10.679 81.2529)" class="st10" width="2.8" height="2.8"/>
			</g>
			<g id="XMLID_46_" class="st12">
				<rect x="153.1" y="12.9" transform="matrix(0.866 -0.5 0.5 0.866 13.1529 78.7905)" class="st10" width="1" height="3.9"/>
			</g>
			<g id="XMLID_47_" class="st12">
				<rect x="159.8" y="24.6" transform="matrix(0.866 -0.5 0.5 0.866 8.2163 83.7212)" class="st10" width="1" height="3.9"/>
			</g>
		</g>
	</g>
	<g class="st11">
		<g class="st12">
			<g>
				<path class="st10" d="M145,33h0.8v2.1h0l1.2-2.1h0.8l-1.1,1.8l1.4,2.7h-0.9l-1-2l-0.5,0.7v1.3H145V33z"/>
			</g>
			<g>
				<path class="st10" d="M152.4,37.5h-0.8l-0.6-2.9h0l-0.6,2.9h-0.8l-0.9-4.5h0.9l0.4,2.9h0l0.7-2.9h0.6L152,36h0l0.4-2.9h0.9
					L152.4,37.5z"/>
			</g>
			<g>
				<path class="st10" d="M154.9,33h0.7l1.3,4.5h-0.8l-0.2-1h-1.1l-0.2,1h-0.8L154.9,33z M155.2,34.3L155.2,34.3l-0.4,1.6h0.8
					L155.2,34.3z"/>
			</g>
			<g>
				<path class="st10" d="M157.7,33h0.8l1.3,2.7h0V33h0.8v4.5h-0.8l-1.3-2.7h0v2.7h-0.8V33z"/>
			</g>
			<g>
				<path class="st10" d="M161.7,34.1c0-0.7,0.7-1.1,1.4-1.1c0.7,0,1.4,0.4,1.4,1.1v0.2h-0.8v-0.2c0-0.3-0.3-0.5-0.6-0.5
					c-0.3,0-0.6,0.1-0.6,0.5v2.4c0,0.3,0.3,0.5,0.6,0.5c0.3,0,0.6-0.1,0.6-0.5v-0.8H163v-0.6h1.5v1.4c0,0.7-0.7,1.1-1.4,1.1
					c-0.7,0-1.4-0.4-1.4-1.1V34.1z"/>
			</g>
			<g>
				<path class="st10" d="M165.7,33h0.8V35h1V33h0.8v4.5h-0.8v-2h-1v2h-0.8V33z"/>
			</g>
			<g>
				<path class="st10" d="M169.6,34.1c0-0.7,0.7-1.1,1.4-1.1c0.7,0,1.4,0.4,1.4,1.1v2.4c0,0.7-0.7,1.1-1.4,1.1
					c-0.7,0-1.4-0.4-1.4-1.1V34.1z M170.4,36.5c0,0.3,0.3,0.5,0.6,0.5c0.3,0,0.6-0.1,0.6-0.5v-2.4c0-0.3-0.3-0.5-0.6-0.5
					c-0.3,0-0.6,0.1-0.6,0.5V36.5z"/>
			</g>
			<g>
				<path class="st10" d="M174.2,36.9l1.5-2.2c0.1-0.2,0.1-0.3,0.1-0.6c0-0.2,0-0.5-0.4-0.5c-0.2,0-0.4,0.1-0.4,0.3v0.4h-0.8V34
					c0-0.5,0.6-1,1.3-1c0.9,0,1.2,0.5,1.2,1.1c0,0.4,0,0.6-0.3,0.9l-1.2,1.8h1.5v0.6h-2.5V36.9z"/>
			</g>
			<g>
				<path class="st10" d="M177.6,34c0-0.6,0.6-1,1.3-1c0.7,0,1.3,0.4,1.3,1v2.6c0,0.6-0.6,1-1.3,1c-0.7,0-1.3-0.4-1.3-1V34z
					 M178.5,36.6c0,0.2,0.2,0.3,0.4,0.3c0.2,0,0.4-0.1,0.4-0.3V34c0-0.2-0.2-0.3-0.4-0.3c-0.2,0-0.4,0.1-0.4,0.3V36.6z"/>
			</g>
			<g>
				<path class="st10" d="M181.1,36.9l1.5-2.2c0.1-0.2,0.1-0.3,0.1-0.6c0-0.2,0-0.5-0.4-0.5c-0.2,0-0.4,0.1-0.4,0.3v0.4h-0.8V34
					c0-0.5,0.6-1,1.3-1c0.9,0,1.2,0.5,1.2,1.1c0,0.4,0,0.6-0.3,0.9l-1.2,1.8h1.5v0.6h-2.5V36.9z"/>
			</g>
			<g>
				<path class="st10" d="M185.6,33.7l-0.8,0.5v-0.7l0.8-0.5h0.8v4.5h-0.8V33.7z"/>
			</g>
		</g>
		<g class="st12">
			<g>
				<g class="st11">
					<g class="st12">
						<path class="st13" d="M151.1,18.5c0,0.1,0,0.1,0,0.2l0,0.1l1.7,0.9l-0.9,1.7l0.1,0.1c0,0,0.1,0.1,0.1,0.2
							c0.7,1.1,1.8,1.9,3,2.3c1.3,0.4,2.6,0.5,3.9,0c0.4-0.1,0.8-0.3,1.2-0.5c-0.1,0.4-0.1,0.8-0.1,1.2c0,1.3,0.4,2.6,1.2,3.7
							c0.8,1,1.9,1.8,3.1,2.1c0.1,0,0.1,0,0.2,0l0.1,0l1.4-1.4l1.4,1.4l0.1,0c0.1,0,0.1,0,0.2,0c1.2-0.4,2.3-1.1,3.1-2.1
							c0.8-1.1,1.2-2.3,1.2-3.7c0-0.4,0-0.8-0.1-1.2c0.4,0.2,0.8,0.4,1.2,0.5c1.3,0.4,2.6,0.4,3.9,0c1.2-0.4,2.3-1.3,3-2.3
							c0-0.1,0.1-0.1,0.1-0.2l0.1-0.1l-0.9-1.7l1.7-0.9l0-0.1c0-0.1,0-0.1,0-0.2c0-1.3-0.3-2.6-1.1-3.6c-0.8-1.1-1.8-1.9-3.1-2.3
							c-0.4-0.1-0.8-0.2-1.3-0.3c0.3-0.3,0.6-0.6,0.8-0.9c0.8-1.1,1.2-2.4,1.2-3.7c0-1.3-0.5-2.6-1.3-3.6c0-0.1-0.1-0.1-0.1-0.1
							l-0.1-0.1l-1.9,0.3L174,2.2l-0.1,0c-0.1,0-0.1,0-0.2-0.1c-0.7-0.2-1.4-0.4-2.1-0.4c-0.6,0-1.2,0.1-1.7,0.3
							c-1.3,0.4-2.4,1.2-3.2,2.2c-0.2,0.3-0.5,0.7-0.6,1.1c-0.2-0.4-0.4-0.7-0.6-1.1c-0.8-1.1-1.9-1.9-3.2-2.2
							c-1.2-0.4-2.6-0.3-3.8,0.1c-0.1,0-0.1,0-0.2,0.1l-0.1,0L158,4.1l-1.9-0.3L156,3.9c0,0-0.1,0.1-0.1,0.1c-0.8,1-1.2,2.3-1.3,3.6
							c0,1.3,0.4,2.6,1.2,3.7c0.2,0.3,0.5,0.6,0.8,0.9c-0.4,0-0.8,0.1-1.2,0.3c-1.3,0.4-2.3,1.2-3.1,2.3
							C151.5,15.9,151.1,17.2,151.1,18.5z M180.6,18.4l-2,1l0,0l0,0l1,2c-1.4,2-3.9,2.8-6.2,2.1c-0.6-0.2-1.2-0.5-1.7-0.9l-2.1-2.9
							c0.3-0.3,0.6-0.5,0.8-0.9l1.1,0.8c0,0,0,0.1-0.1,0.1c-0.1,0.3-0.1,0.6,0.1,0.9c0.1,0.3,0.4,0.5,0.7,0.6c0.4,0.1,0.9,0,1.2-0.4
							c0,0,0.1-0.1,0.1-0.1c0.1-0.1,0.1-0.2,0.1-0.3c0.1-0.3,0.1-0.6-0.1-0.9s-0.4-0.5-0.7-0.6c-0.4-0.1-0.8,0-1.1,0.2l-1.1-0.8
							c0.2-0.4,0.4-0.7,0.6-1.2l2.7,0.9c0,0.3,0,0.6,0.2,0.8c0,0,0,0,0,0c0,0,0,0,0.1,0.1c0,0,0,0,0,0c0,0,0.1,0.1,0.1,0.1
							c0,0,0,0,0.1,0c0.1,0.1,0.2,0.1,0.3,0.1c0.3,0.1,0.6,0.1,0.9-0.1c0.3-0.1,0.5-0.4,0.6-0.7c0,0,0,0,0-0.1c0,0,0,0,0,0
							c0,0,0,0,0,0c0,0,0,0,0,0c0,0,0,0,0,0c0,0,0,0,0,0c0-0.2,0-0.5-0.1-0.7c-0.1-0.2-0.3-0.4-0.5-0.5c0,0,0,0,0,0c0,0,0,0,0,0
							c0,0,0,0,0,0c0,0,0,0,0,0c0,0,0,0,0,0c0,0,0,0-0.1,0c-0.5-0.2-1.1,0.1-1.3,0.5l-2.7-0.9c0.1-0.4,0.2-0.8,0.2-1.3h1.4
							c0,0.2,0.1,0.3,0.2,0.5c0.1,0.2,0.3,0.3,0.5,0.4h0c0,0,0,0,0.1,0c0,0,0,0,0,0c0,0,0,0,0,0c0,0,0,0,0,0c0,0,0,0,0,0
							c0,0,0,0,0,0c0.2,0,0.5,0,0.7-0.1c0.2-0.1,0.4-0.3,0.5-0.5c0,0,0,0,0,0c0,0,0,0,0,0c0,0,0,0,0,0c0,0,0,0,0,0c0,0,0,0,0,0
							c0,0,0,0,0-0.1c0-0.1,0-0.2,0.1-0.3c0,0,0-0.1,0-0.1c0-0.4-0.3-0.8-0.7-1c0,0-0.1,0-0.1,0c0,0,0,0,0,0c0,0,0,0,0,0
							c0,0,0,0,0,0c0,0,0,0,0,0c0,0,0,0,0,0c0,0,0,0,0,0c0,0-0.1,0-0.1,0c0,0,0,0,0,0c0,0,0,0,0,0c0,0,0,0,0,0c0,0,0,0,0,0
							c0,0,0,0,0,0c0,0,0,0,0,0c0,0,0,0,0,0c0,0,0,0,0,0c0,0,0,0,0,0c0,0,0,0-0.1,0c0,0,0,0,0,0c0,0,0,0-0.1,0c0,0,0,0,0,0
							c0,0,0,0,0,0c0,0,0,0,0,0c0,0,0,0,0,0c0,0,0,0,0,0c0,0,0,0,0,0c0,0,0,0,0,0c0,0,0,0-0.1,0c-0.3,0.1-0.5,0.4-0.6,0.7
							c0,0,0,0.1,0,0.1h-1.4c0-0.4-0.1-0.8-0.2-1.2l3.5-1.1c0.6,0,1.3,0.1,1.9,0.3C179.1,13.8,180.7,16,180.6,18.4z M159.7,19.4
							C159.7,19.4,159.7,19.4,159.7,19.4c0.1,0,0.1,0,0.1,0c0.1,0,0.3,0.1,0.4,0.2c0,0,0,0,0.1,0.1l0.1,0.1c0,0,0.1,0.1,0.1,0.1
							c0.1,0.4-0.1,0.8-0.4,0.9c-0.3,0.1-0.6,0-0.7-0.2l-0.1-0.1c0,0-0.1-0.1-0.1-0.1c-0.1-0.4,0.1-0.8,0.4-0.9c0,0,0,0,0.1,0
							C159.6,19.4,159.6,19.4,159.7,19.4z M161.1,8.3L161.1,8.3c-0.4,0.3-0.8,0.2-1-0.1c-0.2-0.3-0.2-0.7,0.2-1
							c0.2-0.1,0.3-0.2,0.5-0.1c0.2,0,0.3,0.1,0.5,0.3c0,0.1,0.1,0.1,0.1,0.2C161.4,7.8,161.3,8.1,161.1,8.3z M164,8.5l-0.1,0
							c-0.1,0-0.2,0-0.3,0c-0.1,0-0.3-0.1-0.4-0.2c0,0,0,0,0,0C163,8.1,163,7.9,163,7.7c0-0.2,0.1-0.3,0.3-0.5c0,0,0.1-0.1,0.1-0.1
							l0.1,0c0.3-0.1,0.6,0,0.7,0.3c0.2,0.3,0.2,0.7-0.2,1c0,0,0,0,0,0C164.1,8.4,164,8.5,164,8.5z M174.5,18.1l0-0.1
							c0.1-0.3,0.5-0.5,0.9-0.4c0.2,0.1,0.3,0.2,0.4,0.3c0.1,0.2,0.1,0.4,0,0.5c-0.1,0.2-0.2,0.3-0.3,0.4c-0.1,0.1-0.2,0.1-0.3,0.1
							c0,0,0,0-0.1,0c-0.1,0-0.1,0-0.2,0c0,0,0,0-0.1,0c-0.3-0.1-0.4-0.4-0.4-0.7C174.5,18.2,174.5,18.2,174.5,18.1z M168.4,22.2
							l0.1,0c0.1,0,0.1,0,0.2,0c0.4,0,0.7,0.3,0.7,0.7c0,0.3-0.2,0.5-0.4,0.6l-0.1,0c-0.1,0-0.1,0-0.2,0c-0.4,0-0.7-0.3-0.7-0.7
							c0-0.1,0-0.1,0-0.2C168,22.5,168.2,22.3,168.4,22.2z M163.9,22.2l0.1,0c0.3,0.1,0.4,0.4,0.4,0.6c0,0.4-0.3,0.7-0.7,0.7
							c-0.1,0-0.1,0-0.2,0l-0.1,0c-0.3-0.1-0.4-0.4-0.4-0.6c0-0.4,0.3-0.7,0.7-0.7C163.8,22.2,163.8,22.2,163.9,22.2z M168.5,8.5
							l-0.1,0c-0.1,0-0.1,0-0.1-0.1c-0.2-0.1-0.2-0.3-0.3-0.5s0-0.4,0.1-0.5c0.2-0.2,0.5-0.3,0.7-0.3l0.1,0c0.1,0,0.1,0,0.1,0.1
							c0.3,0.2,0.4,0.7,0.2,1C169,8.5,168.7,8.6,168.5,8.5z M166.2,20.3c-2.7,0-4.9-2.2-4.9-4.9c0-2.7,2.2-4.9,4.9-4.9
							c2.7,0,4.9,2.2,4.9,4.9C171.1,18.1,168.9,20.3,166.2,20.3z M173.2,10.4c0,0.1,0.1,0.1,0.1,0.2c0,0.2,0,0.4-0.1,0.5
							c0,0,0,0,0,0c-0.1,0.2-0.3,0.2-0.5,0.3c-0.2,0-0.4,0-0.5-0.1c0,0-0.1-0.1-0.1-0.1l-0.1-0.1c-0.1-0.2-0.1-0.5,0-0.8
							c0.2-0.3,0.7-0.4,1-0.2C173.1,10.2,173.1,10.2,173.2,10.4L173.2,10.4z M172.2,8.2c-0.1,0.2-0.3,0.3-0.6,0.3
							c-0.1,0-0.2,0-0.4-0.1l-0.1-0.1c-0.1-0.1-0.2-0.3-0.2-0.4c0-0.2,0-0.3,0.1-0.5c0.1-0.2,0.3-0.2,0.5-0.3c0.2,0,0.4,0,0.5,0.1
							C172.4,7.5,172.5,7.9,172.2,8.2z M166.1,24h0.1c0.4,0,0.6,0.3,0.6,0.7c0,0.4-0.3,0.7-0.7,0.7c-0.4,0-0.7-0.3-0.7-0.7
							c0,0,0,0,0-0.1C165.5,24.3,165.8,24,166.1,24z M172,19.8c0-0.1,0-0.1,0.1-0.1l0.1-0.1c0-0.1,0.1-0.1,0.2-0.1
							c0.1-0.1,0.2-0.1,0.4-0.1c0,0,0,0,0.1,0c0.1,0,0.1,0,0.2,0c0.3,0.1,0.5,0.4,0.5,0.7c0,0.1,0,0.1,0,0.2c0,0.1,0,0.1-0.1,0.1
							l-0.1,0.1c0,0.1-0.1,0.1-0.2,0.1c-0.2,0.1-0.4,0.1-0.6,0.1C172.1,20.6,171.9,20.2,172,19.8z M173.5,15.2
							c0.1-0.4,0.5-0.6,0.9-0.4c0.3,0.1,0.5,0.3,0.5,0.6l0,0.1c0,0.1,0,0.1,0,0.2c-0.1,0.2-0.2,0.3-0.3,0.4c-0.2,0.1-0.4,0.1-0.5,0
							c-0.3-0.1-0.5-0.3-0.5-0.6l0-0.1C173.5,15.3,173.5,15.2,173.5,15.2z M160.3,11.1L160.3,11.1c-0.1,0.1-0.1,0.2-0.2,0.2
							c-0.2,0.1-0.3,0.2-0.5,0.1c-0.2,0-0.3-0.1-0.5-0.3c0,0-0.1-0.1-0.1-0.1c-0.1-0.2-0.1-0.4,0-0.6l0.1-0.1c0,0,0.1-0.1,0.1-0.1
							c0.2-0.1,0.3-0.2,0.5-0.1c0,0,0,0,0.1,0c0.2,0,0.3,0.1,0.4,0.3c0,0,0,0,0,0c0.1,0.1,0.1,0.3,0.1,0.4
							C160.4,10.9,160.4,11,160.3,11.1z M158.4,16C158.4,16,158.4,16,158.4,16c-0.2,0.1-0.4,0.1-0.6,0c-0.2-0.1-0.3-0.2-0.3-0.4
							c0-0.1,0-0.1,0-0.2l0-0.1c0-0.3,0.2-0.5,0.5-0.6c0.2-0.1,0.4,0,0.5,0c0.2,0.1,0.3,0.2,0.3,0.4c0,0.1,0,0.1,0,0.2l0,0.1
							C158.8,15.7,158.7,15.9,158.4,16z M157.7,18.8c-0.1,0.1-0.2,0.1-0.3,0.2c0,0-0.1,0-0.1,0c0,0,0,0,0,0c0,0,0,0,0,0
							c0,0,0,0-0.1,0c0,0,0,0,0,0c-0.1,0-0.2,0-0.3,0c0,0,0,0-0.1,0c0,0,0,0-0.1,0c-0.1-0.1-0.2-0.2-0.3-0.4c-0.1-0.2,0-0.4,0-0.5
							c0.1-0.2,0.2-0.3,0.4-0.3c0,0,0.1,0,0.1,0c0.3,0,0.6,0.1,0.7,0.4l0,0.1c0,0,0,0.1,0,0.1C157.9,18.4,157.8,18.6,157.7,18.8z
							 M161.1,22.8l2.1-2.9c0.3,0.2,0.7,0.4,1.1,0.6l-0.4,1.2c0,0-0.1,0-0.1,0c-0.6,0-1.1,0.5-1.1,1.1c0,0.5,0.3,0.9,0.7,1
							c0,0,0.1,0,0.1,0c0.1,0,0.2,0,0.3,0c0.6,0,1.1-0.5,1.1-1.1c0-0.4-0.2-0.8-0.6-1l0.4-1.2c0.4,0.1,0.9,0.2,1.3,0.2v2.7
							c-0.5,0.1-0.9,0.6-0.9,1.1c0,0.6,0.5,1.1,1.1,1.1c0.6,0,1.1-0.5,1.1-1.1c0-0.5-0.4-1-0.9-1.1v-2.7c0.4,0,0.9-0.1,1.3-0.2
							l0.4,1.2c-0.4,0.2-0.6,0.6-0.6,1c0,0.6,0.5,1.1,1.1,1.1c0.1,0,0.2,0,0.3,0c0,0,0.1,0,0.1,0c0.4-0.2,0.7-0.6,0.7-1
							c0-0.6-0.5-1.1-1.1-1.1c0,0-0.1,0-0.1,0l-0.4-1.2c0.4-0.1,0.8-0.3,1.1-0.6l2.1,2.9c0.2,0.6,0.3,1.2,0.3,1.9
							c0,2.4-1.6,4.5-3.9,5.2l-1.6-1.6l0,0l0,0l-1.6,1.6c-2.3-0.7-3.9-2.8-3.9-5.2C160.7,24.1,160.8,23.4,161.1,22.8z M174.7,12.3
							l-3.4,1.1c-0.1-0.4-0.3-0.7-0.6-1.1l1.1-0.8c0,0,0.1,0.1,0.1,0.1c0.5,0.4,1.2,0.3,1.6-0.2c0.3-0.4,0.3-0.9,0-1.3
							c0,0-0.1-0.1-0.1-0.1c-0.1-0.1-0.1-0.1-0.2-0.2c-0.2-0.1-0.4-0.2-0.7-0.2c-0.1,0-0.1,0-0.2,0c-0.3,0-0.6,0.2-0.7,0.4
							c-0.2,0.3-0.3,0.8-0.1,1.1l-1.1,0.8c-0.3-0.3-0.6-0.7-0.9-0.9l1.6-2.2c0.5,0.2,1.1,0.1,1.4-0.4l-0.1-0.1v0c0,0,0,0,0,0
							l0.1,0.1c0.2-0.2,0.2-0.5,0.2-0.8c0-0.3-0.2-0.6-0.4-0.7c-0.2-0.1-0.4-0.2-0.7-0.2c-0.3,0-0.7,0.2-0.9,0.5
							c-0.3,0.4-0.3,1,0.1,1.4l-1.6,2.2c-0.4-0.2-0.8-0.4-1.2-0.6l0.4-1.3c0.4,0.1,0.8-0.1,1-0.5c0.2-0.2,0.2-0.5,0.2-0.8
							c0-0.3-0.2-0.6-0.4-0.7c-0.1-0.1-0.2-0.1-0.2-0.1c0,0-0.1,0-0.1,0c-0.1,0-0.2,0-0.3,0c-0.4,0-0.7,0.2-0.9,0.5
							c-0.4,0.5-0.3,1.2,0.2,1.6c0,0,0.1,0.1,0.1,0.1l-0.4,1.3c-0.4-0.1-0.8-0.2-1.2-0.2V6.3c0.2-0.6,0.5-1.2,0.8-1.7
							c1.4-1.9,4-2.7,6.2-1.9l0.3,2.2l0,0l0,0l2.2-0.3c1.5,1.9,1.5,4.6,0.1,6.5C175.7,11.5,175.3,12,174.7,12.3z M165.9,9.9
							c-0.4,0-0.8,0.1-1.2,0.2l-0.4-1.3c0,0,0.1,0,0.1-0.1c0.2-0.2,0.4-0.4,0.4-0.7c0-0.1,0-0.2,0-0.3c0-0.2-0.1-0.4-0.2-0.6
							c0,0,0,0,0,0c0,0,0,0,0-0.1c0,0,0,0,0,0c0,0,0,0,0,0c0,0,0,0,0,0c0,0,0,0,0,0c0,0,0,0,0,0c0,0,0,0-0.1,0c0,0,0,0,0,0
							c0,0,0,0-0.1,0c0,0,0,0,0,0c0,0,0,0,0,0c0,0,0,0,0,0c0,0,0,0-0.1,0c0,0,0,0,0,0c0,0,0,0-0.1,0c0,0,0,0,0,0c0,0,0,0-0.1,0
							c0,0,0,0,0,0c0,0,0,0-0.1,0c0,0,0,0,0,0c0,0,0,0-0.1,0c0,0,0,0,0,0c0,0,0,0-0.1,0c0,0,0,0,0,0c0,0,0,0,0,0c0,0,0,0,0,0
							c0,0,0,0,0,0c0,0,0,0,0,0c0,0,0,0,0,0c0,0,0,0-0.1,0c0,0,0,0,0,0c0,0-0.1,0-0.1,0c0,0-0.1,0-0.1,0c-0.1,0-0.2,0.1-0.2,0.1
							c-0.5,0.4-0.6,1.1-0.2,1.6c0.2,0.3,0.6,0.5,1,0.5l0.4,1.3c-0.4,0.2-0.8,0.4-1.2,0.6l-1.6-2.2c0.4-0.4,0.4-1,0.1-1.4
							c-0.2-0.2-0.4-0.4-0.7-0.4c0,0,0,0-0.1,0c0,0,0,0,0,0c0,0,0,0,0,0c0,0,0,0,0,0c0,0,0,0,0,0c0,0,0,0,0,0c0,0,0,0,0,0
							c0,0,0,0,0,0c0,0,0,0,0,0c0,0,0,0,0,0c0,0,0,0,0,0c0,0,0,0,0,0c0,0,0,0,0,0c0,0,0,0,0,0c0,0,0,0,0,0c0,0,0,0,0,0c0,0,0,0,0,0
							c0,0,0,0,0,0c0,0,0,0,0,0c0,0,0,0,0,0c0,0,0,0,0,0c0,0,0,0,0,0c0,0,0,0,0,0c0,0,0,0,0,0c0,0,0,0,0,0c0,0,0,0,0,0c0,0,0,0,0,0
							c0,0,0,0,0,0c0,0,0,0,0,0c0,0,0,0,0,0c0,0,0,0,0,0c0,0,0,0,0,0c-0.2,0.2-0.4,0.4-0.4,0.7c0,0.3,0,0.6,0.2,0.8
							c0.3,0.4,0.9,0.6,1.4,0.4l1.6,2.2c-0.3,0.3-0.7,0.6-0.9,0.9l-1.1-0.8c0.2-0.4,0.1-0.8-0.1-1.1c0,0,0,0,0,0c0,0,0,0,0,0
							c0,0,0,0,0,0c0,0,0,0,0,0c0,0,0,0,0,0c0,0,0,0,0,0c-0.2-0.2-0.4-0.3-0.6-0.3c0,0,0,0-0.1,0c0,0,0,0,0,0c0,0,0,0,0,0
							c0,0,0,0,0,0c0,0,0,0-0.1,0c-0.2,0-0.4,0-0.5,0.1c0,0,0,0,0,0c0,0,0,0,0,0c0,0,0,0,0,0c0,0,0,0,0,0c0,0,0,0,0,0c0,0,0,0,0,0
							c-0.1,0.1-0.1,0.1-0.2,0.2c0,0-0.1,0.1-0.1,0.1c-0.2,0.4-0.2,0.9,0,1.3c0.4,0.5,1.1,0.6,1.6,0.2c0,0,0.1-0.1,0.1-0.1l1.1,0.8
							c-0.2,0.3-0.4,0.7-0.6,1.1l-3.4-1.1c-0.5-0.4-1-0.8-1.3-1.3c-1.4-1.9-1.4-4.6,0.1-6.5l2.2,0.3l0,0l0,0l0.3-2.2
							c2.3-0.8,4.8,0,6.2,1.9c0.4,0.5,0.6,1.1,0.8,1.7L165.9,9.9z M157.4,12.8l3.5,1.1c-0.1,0.4-0.2,0.8-0.2,1.2l-1.4,0
							c0,0,0-0.1,0-0.1c0,0,0,0,0,0c0,0,0,0,0,0c0,0,0,0,0,0c0,0,0,0,0,0c0,0,0,0,0,0c0,0,0,0,0,0c0,0,0,0,0,0c0,0,0,0,0,0
							c0,0,0,0,0,0c0,0,0,0,0,0c0,0,0,0,0,0c0,0,0,0,0,0c0,0,0,0,0,0c0,0,0,0,0,0c0,0,0,0,0,0c0,0,0,0,0,0c0,0,0,0,0,0c0,0,0,0,0,0
							c0,0,0,0,0,0c0,0,0,0,0,0c0,0,0,0,0,0c0,0,0,0,0,0c0,0,0,0,0,0c0,0,0,0,0,0c0,0,0,0,0,0c0,0,0,0,0,0c0,0,0,0,0,0c0,0,0,0,0,0
							c0,0,0,0,0,0c0,0,0,0,0,0c0,0,0,0,0,0c0,0,0,0,0,0c0,0,0,0,0,0c0,0,0,0,0,0c0,0,0,0,0,0c0,0,0,0,0,0c0,0,0,0,0,0c0,0,0,0,0,0
							c0,0,0,0,0,0c0,0,0,0,0,0c0,0,0,0-0.1,0c0,0,0,0,0,0c0,0,0,0,0,0c0,0,0,0,0,0c0,0,0,0,0,0c0,0,0,0,0,0c0,0,0,0,0,0
							c0,0,0,0,0,0c0,0,0,0-0.1,0c0,0,0,0,0,0c0,0,0,0,0,0c0,0,0,0,0,0c0,0,0,0,0,0c0,0,0,0,0,0c0,0,0,0,0,0c0,0,0,0,0,0
							c0,0,0,0,0,0c0,0,0,0-0.1,0c0,0,0,0,0,0c0,0,0,0,0,0c0,0,0,0,0,0c0,0,0,0,0,0c0,0,0,0,0,0c0,0,0,0-0.1,0
							c-0.4,0.1-0.7,0.5-0.8,1c0,0,0,0.1,0,0.1c0,0.1,0,0.2,0.1,0.3c0.2,0.6,0.8,0.9,1.4,0.7c0.4-0.1,0.7-0.5,0.8-0.9h1.4
							c0,0.4,0.1,0.9,0.2,1.3l-2.7,0.9c-0.3-0.5-0.8-0.7-1.3-0.5c-0.6,0.2-0.9,0.8-0.7,1.4c0.2,0.6,0.8,0.9,1.4,0.7
							c0,0,0.1,0,0.1-0.1c0.4-0.2,0.7-0.7,0.6-1.1c0,0,0,0,0,0l1.6-0.5l1.1-0.3c0.1,0.4,0.3,0.8,0.6,1.2l-1.1,0.8
							c-0.3-0.3-0.7-0.4-1.1-0.2c-0.3,0.1-0.5,0.3-0.7,0.6c-0.1,0.3-0.2,0.6-0.1,0.9c0,0.1,0.1,0.2,0.1,0.3c0,0,0.1,0.1,0.1,0.1
							c0.3,0.4,0.8,0.5,1.2,0.4c0.3-0.1,0.5-0.3,0.7-0.6c0.1-0.3,0.2-0.6,0.1-0.9c0,0,0-0.1-0.1-0.1l1.1-0.8
							c0.3,0.3,0.5,0.6,0.8,0.9l-2.1,2.9c-0.5,0.4-1.1,0.7-1.7,0.9c-2.3,0.7-4.8-0.1-6.2-2.1l1-2l0,0l0,0l-2-1
							c-0.1-2.4,1.5-4.6,3.8-5.3C156.1,12.9,156.7,12.8,157.4,12.8z"/>
					</g>
					<g class="st12">
						<path class="st13" d="M166.2,11.3v1.1c1.6,0,3,1.3,3,3c0,1.6-1.3,3-3,3v1.1c2.3,0,4.1-1.8,4.1-4.1
							C170.3,13.1,168.4,11.3,166.2,11.3z"/>
					</g>
					<g class="st12">
						<path class="st13" d="M164.3,15.4c0-1,0.8-1.9,1.9-1.9v-1.1c-1.6,0-3,1.3-3,3c0,1.6,1.3,3,3,3v-1.1
							C165.1,17.3,164.3,16.4,164.3,15.4z"/>
					</g>
					<g class="st12">
						<path class="st13" d="M167.1,15.4c0,0.5-0.4,0.9-0.9,0.9v1c1,0,1.9-0.8,1.9-1.9s-0.8-1.9-1.9-1.9v1
							C166.7,14.5,167.1,14.9,167.1,15.4z"/>
					</g>
					<g class="st12">
						<path class="st13" d="M166.2,14.5c-0.5,0-0.9,0.4-0.9,0.9c0,0.5,0.4,0.9,0.9,0.9v-0.9V14.5z"/>
					</g>
				</g>
				<g>
					<g>
						<path class="st10" d="M181.2,12.3c0-0.1,0-0.1,0-0.2l0-0.1l-1.7-0.9l0.9-1.7l-0.1-0.1c0,0-0.1-0.1-0.1-0.2
							c-0.7-1.1-1.8-1.9-3-2.3c-1.3-0.4-2.6-0.5-3.9,0c-0.4,0.1-0.8,0.3-1.2,0.5c0.1-0.4,0.1-0.8,0.1-1.2c0-1.3-0.4-2.6-1.2-3.7
							c-0.8-1-1.9-1.8-3.1-2.1c-0.1,0-0.1,0-0.2,0l-0.1,0l-1.4,1.4l-1.4-1.4l-0.1,0c-0.1,0-0.1,0-0.2,0c-1.2,0.4-2.3,1.1-3.1,2.1
							c-0.8,1.1-1.2,2.3-1.2,3.7c0,0.4,0,0.8,0.1,1.2c-0.4-0.2-0.8-0.4-1.2-0.5c-1.3-0.4-2.6-0.4-3.9,0c-1.2,0.4-2.3,1.3-3,2.3
							c0,0.1-0.1,0.1-0.1,0.2L152,9.3l0.9,1.7l-1.7,0.9l0,0.1c0,0.1,0,0.1,0,0.2c0,1.3,0.3,2.6,1.1,3.6c0.8,1.1,1.8,1.9,3.1,2.3
							c0.4,0.1,0.8,0.2,1.3,0.3c-0.3,0.3-0.6,0.6-0.8,0.9c-0.8,1.1-1.2,2.4-1.2,3.7c0,1.3,0.5,2.6,1.3,3.6c0,0.1,0.1,0.1,0.1,0.1
							l0.1,0.1l1.9-0.3l0.3,1.9l0.1,0c0.1,0,0.1,0,0.2,0.1c0.7,0.2,1.4,0.4,2.1,0.4c0.6,0,1.2-0.1,1.7-0.3c1.3-0.4,2.4-1.2,3.2-2.2
							c0.2-0.3,0.5-0.7,0.6-1.1c0.2,0.4,0.4,0.7,0.6,1.1c0.8,1.1,1.9,1.9,3.2,2.2c1.2,0.4,2.6,0.3,3.8-0.1c0.1,0,0.1,0,0.2-0.1
							l0.1,0l0.3-1.9l1.9,0.3l0.1-0.1c0,0,0.1-0.1,0.1-0.1c0.8-1,1.2-2.3,1.3-3.6c0-1.3-0.4-2.6-1.2-3.7c-0.2-0.3-0.5-0.6-0.8-0.9
							c0.4,0,0.8-0.1,1.2-0.3c1.3-0.4,2.3-1.2,3.1-2.3C180.9,14.8,181.2,13.6,181.2,12.3z M151.7,12.3l2-1l0,0l0,0l-1-2
							c1.4-2,3.9-2.8,6.2-2.1c0.6,0.2,1.2,0.5,1.7,0.9l2.1,2.9c-0.3,0.3-0.6,0.5-0.8,0.9l-1.1-0.8c0,0,0-0.1,0.1-0.1
							c0.1-0.3,0.1-0.6-0.1-0.9c-0.1-0.3-0.4-0.5-0.7-0.6c-0.4-0.1-0.9,0-1.2,0.4c0,0-0.1,0.1-0.1,0.1c-0.1,0.1-0.1,0.2-0.1,0.3
							c-0.1,0.3-0.1,0.6,0.1,0.9c0.1,0.3,0.4,0.5,0.7,0.6c0.4,0.1,0.8,0,1.1-0.2l1.1,0.8c-0.2,0.4-0.4,0.7-0.6,1.2l-2.7-0.9
							c0-0.3,0-0.6-0.2-0.8c0,0,0,0,0,0c0,0,0,0-0.1-0.1c0,0,0,0,0,0c0,0-0.1-0.1-0.1-0.1c0,0,0,0-0.1,0c-0.1-0.1-0.2-0.1-0.3-0.1
							c-0.3-0.1-0.6-0.1-0.9,0.1c-0.3,0.1-0.5,0.4-0.6,0.7c0,0,0,0,0,0.1c0,0,0,0,0,0c0,0,0,0,0,0c0,0,0,0,0,0c0,0,0,0,0,0
							c0,0,0,0,0,0c0,0.2,0,0.5,0.1,0.7c0.1,0.2,0.3,0.4,0.5,0.5c0,0,0,0,0,0c0,0,0,0,0,0c0,0,0,0,0,0c0,0,0,0,0,0c0,0,0,0,0,0
							c0,0,0,0,0.1,0c0.5,0.2,1.1-0.1,1.3-0.5l2.7,0.9c-0.1,0.4-0.2,0.8-0.2,1.3h-1.4c0-0.2-0.1-0.3-0.2-0.5
							c-0.1-0.2-0.3-0.3-0.5-0.4h0c0,0,0,0-0.1,0c0,0,0,0,0,0c0,0,0,0,0,0c0,0,0,0,0,0c0,0,0,0,0,0c0,0,0,0,0,0
							c-0.2,0-0.5,0-0.7,0.1c-0.2,0.1-0.4,0.3-0.5,0.5c0,0,0,0,0,0c0,0,0,0,0,0c0,0,0,0,0,0c0,0,0,0,0,0c0,0,0,0,0,0c0,0,0,0,0,0.1
							c0,0.1,0,0.2-0.1,0.3c0,0,0,0.1,0,0.1c0,0.4,0.3,0.8,0.7,1c0,0,0.1,0,0.1,0c0,0,0,0,0,0c0,0,0,0,0,0c0,0,0,0,0,0c0,0,0,0,0,0
							c0,0,0,0,0,0c0,0,0,0,0,0c0,0,0.1,0,0.1,0c0,0,0,0,0,0c0,0,0,0,0,0c0,0,0,0,0,0c0,0,0,0,0,0c0,0,0,0,0,0c0,0,0,0,0,0
							c0,0,0,0,0,0c0,0,0,0,0,0c0,0,0,0,0,0c0,0,0,0,0.1,0c0,0,0,0,0,0c0,0,0,0,0.1,0c0,0,0,0,0,0c0,0,0,0,0,0c0,0,0,0,0,0
							c0,0,0,0,0,0c0,0,0,0,0,0c0,0,0,0,0,0c0,0,0,0,0,0c0,0,0,0,0.1,0c0.3-0.1,0.5-0.4,0.6-0.7c0,0,0-0.1,0-0.1h1.4
							c0,0.4,0.1,0.8,0.2,1.2l-3.5,1.1c-0.6,0-1.3-0.1-1.9-0.3C153.2,16.9,151.7,14.7,151.7,12.3z M172.7,11.4
							C172.6,11.4,172.6,11.4,172.7,11.4c-0.1,0-0.1,0-0.1,0c-0.1,0-0.3-0.1-0.4-0.2c0,0,0,0-0.1-0.1l-0.1-0.1c0,0-0.1-0.1-0.1-0.1
							c-0.1-0.4,0.1-0.8,0.4-0.9c0.3-0.1,0.6,0,0.7,0.2l0.1,0.1c0,0,0.1,0.1,0.1,0.1c0.1,0.4-0.1,0.8-0.4,0.9c0,0,0,0-0.1,0
							C172.8,11.4,172.7,11.4,172.7,11.4z M171.2,22.4L171.2,22.4c0.4-0.3,0.8-0.2,1,0.1c0.2,0.3,0.2,0.7-0.2,1
							c-0.2,0.1-0.3,0.2-0.5,0.1c-0.2,0-0.3-0.1-0.5-0.3c0-0.1-0.1-0.1-0.1-0.2C170.9,22.9,171,22.6,171.2,22.4z M168.4,22.3l0.1,0
							c0.1,0,0.2,0,0.3,0c0.1,0,0.3,0.1,0.4,0.2c0,0,0,0,0,0c0.1,0.2,0.2,0.3,0.1,0.5c0,0.2-0.1,0.3-0.3,0.5c0,0-0.1,0.1-0.1,0.1
							l-0.1,0c-0.3,0.1-0.6,0-0.7-0.3c-0.2-0.3-0.2-0.7,0.2-1c0,0,0,0,0,0C168.3,22.3,168.3,22.3,168.4,22.3z M157.9,12.6l0,0.1
							c-0.1,0.3-0.5,0.5-0.9,0.4c-0.2-0.1-0.3-0.2-0.4-0.3c-0.1-0.2-0.1-0.4,0-0.5c0.1-0.2,0.2-0.3,0.3-0.4c0.1-0.1,0.2-0.1,0.3-0.1
							c0,0,0,0,0.1,0c0.1,0,0.1,0,0.2,0c0,0,0,0,0.1,0c0.3,0.1,0.4,0.4,0.4,0.7C157.9,12.5,157.9,12.6,157.9,12.6z M164,8.5l-0.1,0
							c-0.1,0-0.1,0-0.2,0c-0.4,0-0.7-0.3-0.7-0.7c0-0.3,0.2-0.5,0.4-0.6l0.1,0c0.1,0,0.1,0,0.2,0c0.4,0,0.7,0.3,0.7,0.7
							c0,0.1,0,0.1,0,0.2C164.3,8.2,164.2,8.4,164,8.5z M168.5,8.5l-0.1,0c-0.3-0.1-0.4-0.4-0.4-0.6c0-0.4,0.3-0.7,0.7-0.7
							c0.1,0,0.1,0,0.2,0l0.1,0c0.3,0.1,0.4,0.4,0.4,0.6c0,0.4-0.3,0.7-0.7,0.7C168.6,8.6,168.5,8.6,168.5,8.5z M163.9,22.2l0.1,0
							c0.1,0,0.1,0,0.1,0.1c0.2,0.1,0.2,0.3,0.3,0.5c0,0.2,0,0.4-0.1,0.5c-0.2,0.2-0.5,0.3-0.7,0.3l-0.1,0c-0.1,0-0.1,0-0.1-0.1
							c-0.3-0.2-0.4-0.7-0.2-1C163.3,22.3,163.6,22.2,163.9,22.2z M166.2,10.5c2.7,0,4.9,2.2,4.9,4.9c0,2.7-2.2,4.9-4.9,4.9
							c-2.7,0-4.9-2.2-4.9-4.9C161.3,12.7,163.5,10.5,166.2,10.5z M159.1,20.4c0-0.1-0.1-0.1-0.1-0.2c0-0.2,0-0.4,0.1-0.5
							c0,0,0,0,0,0c0.1-0.2,0.3-0.2,0.5-0.3c0.2,0,0.4,0,0.5,0.1c0,0,0.1,0.1,0.1,0.1l0.1,0.1c0.1,0.2,0.1,0.5,0,0.8
							c-0.2,0.3-0.7,0.4-1,0.2C159.3,20.6,159.2,20.5,159.1,20.4L159.1,20.4z M160.1,22.5c0.1-0.2,0.3-0.3,0.6-0.3
							c0.1,0,0.2,0,0.4,0.1l0.1,0.1c0.1,0.1,0.2,0.3,0.2,0.4c0,0.2,0,0.3-0.1,0.5c-0.1,0.2-0.3,0.2-0.5,0.3c-0.2,0-0.4,0-0.5-0.1
							C159.9,23.3,159.9,22.8,160.1,22.5z M166.2,6.7h-0.1c-0.4,0-0.6-0.3-0.6-0.7c0-0.4,0.3-0.7,0.7-0.7c0.4,0,0.7,0.3,0.7,0.7
							c0,0,0,0,0,0.1C166.8,6.5,166.6,6.7,166.2,6.7z M160.3,10.9c0,0.1,0,0.1-0.1,0.1l-0.1,0.1c0,0.1-0.1,0.1-0.2,0.1
							c-0.1,0.1-0.2,0.1-0.4,0.1c0,0,0,0-0.1,0c-0.1,0-0.1,0-0.2,0c-0.3-0.1-0.5-0.4-0.5-0.7c0-0.1,0-0.1,0-0.2c0-0.1,0-0.1,0.1-0.1
							l0.1-0.1c0-0.1,0.1-0.1,0.2-0.1c0.2-0.1,0.4-0.1,0.6-0.1C160.3,10.1,160.5,10.5,160.3,10.9z M158.8,15.6
							c-0.1,0.4-0.5,0.6-0.9,0.4c-0.3-0.1-0.5-0.3-0.5-0.6l0-0.1c0-0.1,0-0.1,0-0.2c0.1-0.2,0.2-0.3,0.3-0.4c0.2-0.1,0.4-0.1,0.5,0
							c0.3,0.1,0.5,0.3,0.5,0.6l0,0.1C158.9,15.5,158.8,15.5,158.8,15.6z M172,19.7L172,19.7c0.1-0.1,0.1-0.2,0.2-0.2
							c0.2-0.1,0.3-0.2,0.5-0.1c0.2,0,0.3,0.1,0.5,0.3c0,0,0.1,0.1,0.1,0.1c0.1,0.2,0.1,0.4,0,0.6l-0.1,0.1c0,0-0.1,0.1-0.1,0.1
							c-0.2,0.1-0.3,0.2-0.5,0.1c0,0,0,0-0.1,0c-0.2,0-0.3-0.1-0.4-0.3c0,0,0,0,0,0c-0.1-0.1-0.1-0.3-0.1-0.4
							C171.9,19.9,172,19.8,172,19.7z M173.9,14.7C173.9,14.7,173.9,14.7,173.9,14.7c0.2-0.1,0.4-0.1,0.6,0c0.2,0.1,0.3,0.2,0.3,0.4
							c0,0.1,0,0.1,0,0.2l0,0.1c0,0.3-0.2,0.5-0.5,0.6c-0.2,0.1-0.4,0-0.5,0c-0.2-0.1-0.3-0.2-0.3-0.4c0-0.1,0-0.1,0-0.2l0-0.1
							C173.5,15.1,173.7,14.8,173.9,14.7z M174.7,12c0.1-0.1,0.2-0.1,0.3-0.2c0,0,0.1,0,0.1,0c0,0,0,0,0,0c0,0,0,0,0,0
							c0,0,0,0,0.1,0c0,0,0,0,0,0c0.1,0,0.2,0,0.3,0c0,0,0,0,0.1,0c0,0,0,0,0.1,0c0.1,0.1,0.2,0.2,0.3,0.4c0.1,0.2,0,0.4,0,0.5
							c-0.1,0.2-0.2,0.3-0.4,0.3c0,0-0.1,0-0.1,0c-0.3,0-0.6-0.1-0.7-0.4l0-0.1c0,0,0-0.1,0-0.1C174.4,12.3,174.5,12.1,174.7,12z
							 M171.3,7.9l-2.1,2.9c-0.3-0.2-0.7-0.4-1.1-0.6l0.4-1.2c0,0,0.1,0,0.1,0c0.6,0,1.1-0.5,1.1-1.1c0-0.5-0.3-0.9-0.7-1
							c0,0-0.1,0-0.1,0c-0.1,0-0.2,0-0.3,0c-0.6,0-1.1,0.5-1.1,1.1c0,0.4,0.2,0.8,0.6,1l-0.4,1.2c-0.4-0.1-0.9-0.2-1.3-0.2V7.2
							c0.5-0.1,0.9-0.6,0.9-1.1c0-0.6-0.5-1.1-1.1-1.1c-0.6,0-1.1,0.5-1.1,1.1c0,0.5,0.4,1,0.9,1.1v2.7c-0.4,0-0.9,0.1-1.3,0.2
							l-0.4-1.2c0.4-0.2,0.6-0.6,0.6-1c0-0.6-0.5-1.1-1.1-1.1c-0.1,0-0.2,0-0.3,0c0,0-0.1,0-0.1,0c-0.4,0.2-0.7,0.6-0.7,1
							c0,0.6,0.5,1.1,1.1,1.1c0,0,0.1,0,0.1,0l0.4,1.2c-0.4,0.1-0.8,0.3-1.1,0.6l-2.1-2.9c-0.2-0.6-0.3-1.2-0.3-1.9
							c0-2.4,1.6-4.5,3.9-5.2l1.6,1.6l0,0l0,0l1.6-1.6c2.3,0.7,3.9,2.8,3.9,5.2C171.6,6.7,171.5,7.3,171.3,7.9z M157.6,18.4l3.4-1.1
							c0.1,0.4,0.3,0.7,0.6,1.1l-1.1,0.8c0,0-0.1-0.1-0.1-0.1c-0.5-0.4-1.2-0.3-1.6,0.2c-0.3,0.4-0.3,0.9,0,1.3c0,0,0.1,0.1,0.1,0.1
							c0.1,0.1,0.1,0.1,0.2,0.2c0.2,0.1,0.4,0.2,0.7,0.2c0.1,0,0.1,0,0.2,0c0.3,0,0.6-0.2,0.7-0.4c0.2-0.3,0.3-0.8,0.1-1.1l1.1-0.8
							c0.3,0.3,0.6,0.7,0.9,0.9l-1.6,2.2c-0.5-0.2-1.1-0.1-1.4,0.4l0.1,0.1v0v0l-0.1-0.1c-0.2,0.2-0.2,0.5-0.2,0.8
							c0,0.3,0.2,0.6,0.4,0.7c0.2,0.1,0.4,0.2,0.7,0.2c0.3,0,0.7-0.2,0.9-0.5c0.3-0.4,0.3-1-0.1-1.4l1.6-2.2
							c0.4,0.2,0.8,0.4,1.2,0.6l-0.4,1.3c-0.4-0.1-0.8,0.1-1,0.5c-0.2,0.2-0.2,0.5-0.2,0.8c0,0.3,0.2,0.6,0.4,0.7
							c0.1,0.1,0.2,0.1,0.2,0.1c0,0,0.1,0,0.1,0c0.1,0,0.2,0,0.3,0c0.4,0,0.7-0.2,0.9-0.5c0.4-0.5,0.3-1.2-0.2-1.6
							c0,0-0.1-0.1-0.1-0.1l0.4-1.3c0.4,0.1,0.8,0.2,1.2,0.2v3.6c-0.2,0.6-0.5,1.2-0.8,1.7c-1.4,1.9-4,2.7-6.2,1.9l-0.3-2.2l0,0l0,0
							l-2.2,0.3c-1.5-1.9-1.5-4.6-0.1-6.5C156.6,19.2,157.1,18.8,157.6,18.4z M166.5,20.9c0.4,0,0.8-0.1,1.2-0.2l0.4,1.3
							c0,0-0.1,0-0.1,0.1c-0.2,0.2-0.4,0.4-0.4,0.7c0,0.1,0,0.2,0,0.3c0,0.2,0.1,0.4,0.2,0.6c0,0,0,0,0,0c0,0,0,0,0,0.1c0,0,0,0,0,0
							c0,0,0,0,0,0c0,0,0,0,0,0c0,0,0,0,0,0c0,0,0,0,0,0c0,0,0,0,0.1,0c0,0,0,0,0,0c0,0,0,0,0.1,0c0,0,0,0,0,0c0,0,0,0,0,0
							c0,0,0,0,0,0c0,0,0,0,0.1,0c0,0,0,0,0,0c0,0,0,0,0.1,0c0,0,0,0,0,0c0,0,0,0,0.1,0c0,0,0,0,0,0c0,0,0,0,0.1,0c0,0,0,0,0,0
							c0,0,0,0,0.1,0c0,0,0,0,0,0c0,0,0,0,0.1,0c0,0,0,0,0,0c0,0,0,0,0,0c0,0,0,0,0,0c0,0,0,0,0,0c0,0,0,0,0,0c0,0,0,0,0,0
							c0,0,0,0,0.1,0c0,0,0,0,0,0c0,0,0.1,0,0.1,0c0,0,0.1,0,0.1,0c0.1,0,0.2-0.1,0.2-0.1c0.5-0.4,0.6-1.1,0.2-1.6
							c-0.2-0.3-0.6-0.5-1-0.5l-0.4-1.3c0.4-0.2,0.8-0.4,1.2-0.6l1.6,2.2c-0.4,0.4-0.4,1-0.1,1.4c0.2,0.2,0.4,0.4,0.7,0.4
							c0,0,0,0,0.1,0c0,0,0,0,0,0c0,0,0,0,0,0c0,0,0,0,0,0c0,0,0,0,0,0c0,0,0,0,0,0c0,0,0,0,0,0c0,0,0,0,0,0c0,0,0,0,0,0
							c0,0,0,0,0,0c0,0,0,0,0,0c0,0,0,0,0,0c0,0,0,0,0,0c0,0,0,0,0,0c0,0,0,0,0,0c0,0,0,0,0,0c0,0,0,0,0,0c0,0,0,0,0,0c0,0,0,0,0,0
							c0,0,0,0,0,0c0,0,0,0,0,0c0,0,0,0,0,0c0,0,0,0,0,0c0,0,0,0,0,0c0,0,0,0,0,0c0,0,0,0,0,0c0,0,0,0,0,0c0,0,0,0,0,0c0,0,0,0,0,0
							c0,0,0,0,0,0c0,0,0,0,0,0c0,0,0,0,0,0c0.2-0.2,0.4-0.4,0.4-0.7c0-0.3,0-0.6-0.2-0.8c-0.3-0.4-0.9-0.6-1.4-0.4l-1.6-2.2
							c0.3-0.3,0.7-0.6,0.9-0.9l1.1,0.8c-0.2,0.4-0.1,0.8,0.1,1.1c0,0,0,0,0,0c0,0,0,0,0,0c0,0,0,0,0,0c0,0,0,0,0,0c0,0,0,0,0,0
							c0,0,0,0,0,0c0.2,0.2,0.4,0.3,0.6,0.3c0,0,0,0,0.1,0c0,0,0,0,0,0c0,0,0,0,0,0c0,0,0,0,0,0c0,0,0,0,0.1,0c0.2,0,0.4,0,0.5-0.1
							c0,0,0,0,0,0c0,0,0,0,0,0c0,0,0,0,0,0c0,0,0,0,0,0c0,0,0,0,0,0c0,0,0,0,0,0c0.1-0.1,0.1-0.1,0.2-0.2c0,0,0.1-0.1,0.1-0.1
							c0.2-0.4,0.2-0.9,0-1.3c-0.4-0.5-1.1-0.6-1.6-0.2c0,0-0.1,0.1-0.1,0.1l-1.1-0.8c0.2-0.3,0.4-0.7,0.6-1.1l3.4,1.1
							c0.5,0.4,1,0.8,1.3,1.3c1.4,1.9,1.4,4.6-0.1,6.5l-2.2-0.3l0,0l0,0l-0.3,2.2c-2.3,0.8-4.8,0-6.2-1.9c-0.4-0.5-0.6-1.1-0.8-1.7
							L166.5,20.9z M175,17.9l-3.5-1.1c0.1-0.4,0.2-0.8,0.2-1.2l1.4,0c0,0,0,0.1,0,0.1c0,0,0,0,0,0c0,0,0,0,0,0c0,0,0,0,0,0
							c0,0,0,0,0,0c0,0,0,0,0,0c0,0,0,0,0,0c0,0,0,0,0,0c0,0,0,0,0,0c0,0,0,0,0,0c0,0,0,0,0,0c0,0,0,0,0,0c0,0,0,0,0,0c0,0,0,0,0,0
							c0,0,0,0,0,0c0,0,0,0,0,0c0,0,0,0,0,0c0,0,0,0,0,0c0,0,0,0,0,0c0,0,0,0,0,0c0,0,0,0,0,0c0,0,0,0,0,0c0,0,0,0,0,0c0,0,0,0,0,0
							c0,0,0,0,0,0c0,0,0,0,0,0c0,0,0,0,0,0c0,0,0,0,0,0c0,0,0,0,0,0c0,0,0,0,0,0c0,0,0,0,0,0c0,0,0,0,0,0c0,0,0,0,0,0c0,0,0,0,0,0
							c0,0,0,0,0,0c0,0,0,0,0,0c0,0,0,0,0,0c0,0,0,0,0,0c0,0,0,0,0,0c0,0,0,0,0,0c0,0,0,0,0,0c0,0,0,0,0.1,0c0,0,0,0,0,0
							c0,0,0,0,0,0c0,0,0,0,0,0c0,0,0,0,0,0c0,0,0,0,0,0c0,0,0,0,0,0c0,0,0,0,0,0c0,0,0,0,0.1,0c0,0,0,0,0,0c0,0,0,0,0,0
							c0,0,0,0,0,0c0,0,0,0,0,0c0,0,0,0,0,0c0,0,0,0,0,0c0,0,0,0,0,0c0,0,0,0,0,0c0,0,0,0,0.1,0c0,0,0,0,0,0c0,0,0,0,0,0
							c0,0,0,0,0,0c0,0,0,0,0,0c0,0,0,0,0,0c0,0,0,0,0.1,0c0.4-0.1,0.7-0.5,0.8-1c0,0,0-0.1,0-0.1c0-0.1,0-0.2-0.1-0.3
							c-0.2-0.6-0.8-0.9-1.4-0.7c-0.4,0.1-0.7,0.5-0.8,0.9h-1.4c0-0.4-0.1-0.9-0.2-1.3l2.7-0.9c0.3,0.5,0.8,0.7,1.3,0.5
							c0.6-0.2,0.9-0.8,0.7-1.4c-0.2-0.6-0.8-0.9-1.4-0.7c0,0-0.1,0-0.1,0.1c-0.4,0.2-0.7,0.7-0.6,1.1c0,0,0,0,0,0l-1.6,0.5
							l-1.1,0.3c-0.1-0.4-0.3-0.8-0.6-1.2l1.1-0.8c0.3,0.3,0.7,0.4,1.1,0.2c0.3-0.1,0.5-0.3,0.7-0.6s0.2-0.6,0.1-0.9
							c0-0.1-0.1-0.2-0.1-0.3c0,0-0.1-0.1-0.1-0.1c-0.3-0.4-0.8-0.5-1.2-0.4c-0.3,0.1-0.5,0.3-0.7,0.6c-0.1,0.3-0.2,0.6-0.1,0.9
							c0,0,0,0.1,0.1,0.1l-1.1,0.8c-0.3-0.3-0.5-0.6-0.8-0.9l2.1-2.9c0.5-0.4,1.1-0.7,1.7-0.9c2.3-0.7,4.8,0.1,6.2,2.1l-1,2l0,0l0,0
							l2,1c0.1,2.4-1.5,4.6-3.8,5.3C176.2,17.8,175.6,17.9,175,17.9z"/>
						<path class="st10" d="M160.6,29.1c-0.7,0-1.4-0.1-2.1-0.4c-0.1,0-0.1,0-0.2-0.1l-0.2-0.1l-0.3-1.9l-1.9,0.3l-0.1-0.2
							c0,0-0.1-0.1-0.1-0.1c-0.8-1-1.3-2.3-1.3-3.7c0-1.4,0.4-2.7,1.2-3.8c0.2-0.3,0.4-0.5,0.6-0.7c-0.3-0.1-0.7-0.1-1-0.2
							c-1.3-0.4-2.4-1.2-3.2-2.4c-0.8-1.1-1.1-2.4-1.1-3.7c0-0.1,0-0.1,0-0.2l0-0.2l1.7-0.9l-0.9-1.7l0.1-0.2c0,0,0.1-0.1,0.1-0.2
							c0.7-1.1,1.8-1.9,3.1-2.4c1.3-0.5,2.7-0.5,4,0c0.3,0.1,0.7,0.2,1,0.4c0-0.3-0.1-0.6-0.1-0.9c0-1.4,0.4-2.7,1.3-3.7
							c0.8-1.1,1.9-1.8,3.2-2.2c0.1,0,0.1,0,0.2,0l0.2-0.1l1.3,1.3l1.3-1.3l0.2,0.1c0.1,0,0.1,0,0.2,0c1.3,0.4,2.4,1.1,3.2,2.2
							c0.8,1.1,1.3,2.4,1.3,3.7c0,0.3,0,0.6-0.1,0.9c0.3-0.2,0.6-0.3,1-0.4c1.3-0.4,2.7-0.4,4,0c1.2,0.4,2.3,1.3,3.1,2.4
							c0,0.1,0.1,0.1,0.1,0.2l0.1,0.2l-0.9,1.7l1.7,0.9l0,0.2c0,0.1,0,0.1,0,0.2v0c0,1.3-0.3,2.6-1.1,3.7c-0.8,1.1-1.9,1.9-3.2,2.4
							c-0.3,0.1-0.7,0.2-1,0.2c0.2,0.2,0.4,0.5,0.6,0.7c0.8,1.1,1.2,2.4,1.2,3.8c0,1.3-0.5,2.6-1.3,3.7c0,0.1-0.1,0.1-0.1,0.1
							l-0.1,0.2l-1.9-0.3l-0.3,1.9l-0.2,0.1c-0.1,0-0.1,0-0.2,0.1c-1.2,0.4-2.6,0.5-3.9,0.1c-1.3-0.4-2.4-1.2-3.2-2.3
							c-0.2-0.3-0.4-0.5-0.5-0.8c-0.1,0.3-0.3,0.6-0.5,0.8c-0.8,1.1-1.9,1.9-3.2,2.3C161.9,29,161.3,29.1,160.6,29.1z M166.2,25.1
							l0.1,0.3c0.2,0.4,0.4,0.7,0.6,1.1c0.8,1.1,1.8,1.8,3.1,2.2c1.2,0.4,2.5,0.3,3.7-0.1c0.1,0,0.1,0,0.2-0.1l0,0l0.3-2l2,0.3l0,0
							c0,0,0.1-0.1,0.1-0.1c0.8-1,1.2-2.2,1.2-3.5c0-1.3-0.4-2.6-1.1-3.6c-0.2-0.3-0.5-0.6-0.8-0.9l-0.2-0.2l0.3,0
							c0.4,0,0.8-0.1,1.2-0.3c1.2-0.4,2.3-1.2,3-2.3c0.7-1,1.1-2.3,1.1-3.6c0-0.1,0-0.1,0-0.2l0-0.1l-1.8-0.9l0.9-1.8l0,0
							c0,0-0.1-0.1-0.1-0.1c-0.7-1-1.7-1.8-2.9-2.3c-1.2-0.4-2.5-0.4-3.8,0c-0.4,0.1-0.8,0.3-1.2,0.5l-0.3,0.2l0.1-0.3
							c0.1-0.4,0.1-0.8,0.1-1.2c0-1.3-0.4-2.5-1.2-3.6c-0.8-1-1.9-1.8-3.1-2.1c-0.1,0-0.1,0-0.2,0l-0.1,0l-1.4,1.4l-1.4-1.4l-0.1,0
							c-0.1,0-0.1,0-0.2,0c-1.2,0.3-2.3,1.1-3.1,2.1c-0.8,1-1.2,2.3-1.2,3.6c0,0.4,0,0.8,0.1,1.2l0.1,0.3l-0.3-0.2
							c-0.4-0.2-0.8-0.4-1.2-0.5c-1.2-0.4-2.6-0.4-3.8,0c-1.2,0.4-2.2,1.2-2.9,2.3c0,0.1-0.1,0.1-0.1,0.1l0,0l0.9,1.8l-1.8,0.9
							l0,0.1c0,0.1,0,0.1,0,0.2c0,1.3,0.3,2.5,1.1,3.6c0.7,1.1,1.8,1.9,3,2.3c0.4,0.1,0.8,0.2,1.2,0.3l0.3,0l-0.2,0.2
							c-0.3,0.3-0.6,0.6-0.8,0.9c-0.8,1.1-1.2,2.3-1.1,3.6c0,1.3,0.5,2.5,1.2,3.5c0,0.1,0.1,0.1,0.1,0.1l0,0l2-0.3l0.3,2l0,0
							c0.1,0,0.1,0,0.2,0.1c0.6,0.2,1.3,0.3,2,0.3c0.6,0,1.2-0.1,1.7-0.2c1.3-0.4,2.3-1.1,3.1-2.2c0.2-0.3,0.4-0.7,0.6-1.1
							L166.2,25.1z M160.6,28.5c-0.6,0-1.2-0.1-1.8-0.3l-0.1,0l-0.3-2.1l-2.1,0.3l0-0.1c-1.5-1.9-1.5-4.7-0.1-6.7
							c0.4-0.5,0.9-1,1.4-1.3l0,0l3.5-1.1l0,0.1c0.1,0.4,0.3,0.7,0.5,1.1l0.1,0.1l-1.3,0.9l-0.1-0.1c0,0-0.1-0.1-0.1-0.1
							c-0.2-0.2-0.5-0.2-0.7-0.2c-0.3,0-0.5,0.2-0.6,0.4c-0.2,0.3-0.3,0.8,0,1.1c0,0,0,0.1,0.1,0.1c0.1,0.1,0.1,0.1,0.2,0.2
							c0.2,0.2,0.5,0.2,0.7,0.2c0.3,0,0.5-0.2,0.6-0.4c0.2-0.3,0.2-0.7,0.1-1l0-0.1l1.3-0.9l0.1,0.1c0.3,0.3,0.6,0.6,0.9,0.9
							l0.1,0.1l-1.8,2.4l-0.1,0c-0.4-0.2-0.9-0.1-1.2,0.3l0,0v0l0,0c-0.2,0.2-0.2,0.5-0.2,0.7c0,0.3,0.2,0.5,0.4,0.6
							c0.2,0.1,0.4,0.2,0.6,0.2c0.3,0,0.6-0.2,0.8-0.4c0.3-0.4,0.2-0.9-0.1-1.2l-0.1-0.1l1.8-2.4l0.1,0.1c0.4,0.2,0.7,0.4,1.1,0.6
							l0.1,0L164,22l-0.1,0c-0.4,0-0.7,0.1-0.9,0.4c-0.2,0.2-0.2,0.5-0.2,0.7c0,0.3,0.2,0.5,0.4,0.6c0.1,0,0.1,0.1,0.2,0.1
							c0,0,0.1,0,0.1,0c0.1,0,0.2,0,0.2,0c0.3,0,0.6-0.1,0.8-0.4c0.2-0.2,0.2-0.5,0.2-0.7c0-0.3-0.2-0.5-0.4-0.6c0,0-0.1,0-0.1-0.1
							l-0.1-0.1l0.5-1.5l0.1,0c0.4,0.1,0.8,0.2,1.2,0.2l0.1,0l0,3.7c-0.2,0.6-0.5,1.2-0.8,1.7C164.1,27.7,162.4,28.5,160.6,28.5z
							 M159,28c2.2,0.7,4.6-0.1,6-1.9c0.4-0.5,0.6-1,0.8-1.6V21c-0.3,0-0.7-0.1-1-0.2l-0.3,1c0,0,0,0,0,0c0.6,0.4,0.7,1.2,0.3,1.8
							c-0.2,0.3-0.6,0.5-1,0.5c-0.1,0-0.2,0-0.3,0c-0.1,0-0.1,0-0.1,0c-0.1,0-0.2-0.1-0.3-0.2c-0.3-0.2-0.4-0.5-0.5-0.8
							c-0.1-0.3,0-0.7,0.2-0.9c0.2-0.3,0.6-0.5,1.1-0.5l0.3-1c-0.3-0.1-0.7-0.3-1-0.5l-1.5,2c0.3,0.4,0.4,1.1,0,1.5
							c-0.2,0.3-0.6,0.5-1,0.5c-0.3,0-0.5-0.1-0.7-0.2c-0.3-0.2-0.4-0.5-0.5-0.8c0-0.3,0-0.6,0.1-0.8l0,0l0.1-0.1c0,0,0,0,0,0
							l0.1-0.1l0,0c0.3-0.4,0.9-0.5,1.4-0.3l1.5-2c-0.3-0.2-0.5-0.5-0.8-0.8l-0.9,0.6c0.1,0.4,0.1,0.8-0.2,1.2
							c-0.2,0.3-0.5,0.4-0.8,0.5c-0.3,0.1-0.7,0-0.9-0.2c-0.1-0.1-0.2-0.1-0.2-0.2c0,0-0.1-0.1-0.1-0.1c-0.3-0.4-0.3-1,0-1.4
							c0.4-0.6,1.2-0.7,1.8-0.3c0,0,0,0,0,0l0.9-0.6c-0.2-0.3-0.3-0.6-0.5-0.9l-3.3,1.1c-0.5,0.3-0.9,0.8-1.3,1.3
							c-1.4,1.9-1.3,4.4,0,6.3l2.2-0.4L159,28z M171.7,28.5c-1.8,0-3.5-0.8-4.5-2.3c-0.4-0.5-0.7-1.1-0.8-1.7l0,0l0-3.7l0.1,0
							c0.4,0,0.8-0.1,1.2-0.2l0.1,0l0.5,1.5l-0.1,0.1c0,0-0.1,0-0.1,0.1c-0.2,0.2-0.4,0.4-0.4,0.6c0,0.1,0,0.2,0,0.2
							c0,0.2,0.1,0.3,0.2,0.5c0,0,0,0,0,0.1l0,0c0,0,0,0,0,0l0,0c0,0,0,0,0,0l-0.1,0.1l0.1-0.1c0,0,0,0,0.1,0c0,0,0,0,0.1,0l0,0
							c0,0,0,0,0,0l0,0c0,0,0,0,0,0l0,0.1l0.1-0.1c0,0,0,0,0.1,0l0,0.1l0-0.1c0,0,0,0,0,0l0,0c0,0,0,0,0.1,0l0,0c0,0,0,0,0.1,0
							c0,0,0.1,0,0.1,0l0,0.1l0-0.1l0,0l0,0.1l0-0.1l0,0c0,0,0,0,0,0l0,0c0,0,0,0,0,0l0,0c0,0,0,0,0.1,0c0,0,0.1,0,0.1,0
							c0.1,0,0.1-0.1,0.2-0.1c0.4-0.3,0.5-0.9,0.2-1.4c-0.2-0.3-0.6-0.4-0.9-0.4l-0.1,0l-0.5-1.5l0.1,0c0.4-0.1,0.8-0.3,1.1-0.6
							l0.1-0.1l1.8,2.4l-0.1,0.1c-0.3,0.3-0.4,0.9-0.1,1.2c0.2,0.2,0.4,0.4,0.6,0.4c0,0,0,0,0,0l0,0.1l0-0.1l0.1,0l0,0.1v-0.1l0.1,0
							l0,0.1l0-0.1l0.2-0.1l0,0c0,0,0,0,0,0c0,0,0,0,0,0l0.1,0.1l-0.1-0.1l0.1,0c0,0,0,0,0,0c0.2-0.2,0.4-0.4,0.4-0.6
							c0-0.3,0-0.5-0.2-0.7c-0.3-0.4-0.8-0.5-1.2-0.3l-0.1,0l-1.8-2.4l0.1-0.1c0.3-0.3,0.6-0.6,0.9-0.9l0.1-0.1l1.3,0.9l0,0.1
							c-0.2,0.3-0.1,0.7,0.1,1c0,0,0,0,0,0c0,0,0,0,0,0c0,0,0,0,0,0c0.1,0.1,0.3,0.2,0.5,0.3c0,0,0,0,0,0c0,0,0,0,0,0c0,0,0,0,0.1,0
							c0.2,0,0.3,0,0.4-0.1c0,0,0,0,0,0l0,0c0,0,0,0,0,0c0.1,0,0.1-0.1,0.2-0.2c0,0,0-0.1,0.1-0.1c0.2-0.3,0.2-0.8,0-1.1
							c-0.2-0.2-0.4-0.4-0.6-0.4c-0.3,0-0.5,0-0.7,0.2c0,0-0.1,0-0.1,0.1l-0.1,0.1l-1.3-0.9l0.1-0.1c0.2-0.3,0.4-0.7,0.5-1.1l0-0.1
							l3.6,1.2c0.5,0.4,1,0.8,1.4,1.3c1.4,2,1.4,4.7-0.1,6.7l0,0.1l-2.1-0.3l0,0l0,0l-0.3,2.1l-0.1,0
							C172.9,28.4,172.3,28.5,171.7,28.5z M166.6,24.4c0.2,0.6,0.4,1.1,0.8,1.6c1.4,1.9,3.8,2.6,6,1.9l0.4-2.2l0.1,0l2.1,0.3
							c1.4-1.8,1.4-4.4,0-6.3c-0.4-0.5-0.8-0.9-1.3-1.3l-3.3-1.1c-0.1,0.3-0.3,0.6-0.5,0.9l0.9,0.6c0,0,0,0,0,0
							c0.3-0.2,0.6-0.3,0.9-0.2c0.3,0.1,0.6,0.2,0.8,0.5c0.3,0.4,0.3,1,0,1.4c0,0-0.1,0.1-0.1,0.1c-0.1,0.1-0.1,0.2-0.2,0.2
							c0,0,0,0,0,0l-0.1,0l-0.1-0.1l0.1,0.1c0,0,0,0,0,0c-0.2,0.1-0.4,0.2-0.6,0.1c0,0,0,0-0.1,0c0,0,0,0-0.1,0
							c-0.3,0-0.5-0.2-0.7-0.4c0,0,0,0,0,0c0,0,0,0,0,0l0,0c0,0,0,0,0-0.1c-0.2-0.3-0.3-0.8-0.2-1.2l-0.9-0.6
							c-0.2,0.3-0.5,0.5-0.8,0.8l1.5,2c0.5-0.2,1.1,0,1.4,0.4c0.2,0.3,0.3,0.6,0.2,0.9c-0.1,0.3-0.2,0.6-0.5,0.8c0,0,0,0,0,0
							l-0.1,0.1c0,0,0,0,0,0c0,0,0,0-0.1,0l-0.2,0.1l-0.2,0c0,0,0,0,0,0l-0.1,0l-0.1,0c0,0,0,0-0.1,0c-0.3-0.1-0.6-0.2-0.8-0.5
							c-0.3-0.5-0.3-1.1,0-1.5l-1.5-2c-0.3,0.2-0.6,0.4-1,0.5l0.3,1c0.4,0,0.8,0.2,1.1,0.5c0.4,0.6,0.3,1.3-0.3,1.8
							c-0.1,0.1-0.2,0.1-0.3,0.2c0,0-0.1,0-0.1,0c0,0-0.1,0-0.1,0l0,0c0,0,0,0-0.1,0l0,0c0,0,0,0-0.1,0l-0.1,0c0,0,0,0,0,0l0-0.1
							l0,0.1l0,0c0,0-0.1,0-0.1,0l0,0c0,0,0,0-0.1,0l0,0c0,0,0,0-0.1,0l0,0c0,0,0,0-0.1,0l0,0c0,0-0.1,0-0.1,0l0,0c0,0,0,0-0.1,0
							l0,0c0,0,0,0,0,0l0,0c0,0,0,0-0.1,0l0,0c0,0,0,0-0.1-0.1l0,0c0,0,0,0,0,0l0,0c0,0,0,0,0,0l0,0c0,0,0,0-0.1-0.1
							c-0.1-0.2-0.2-0.4-0.2-0.6c0-0.1,0-0.2,0-0.3c0.1-0.3,0.2-0.6,0.5-0.8c0,0,0,0,0,0l-0.3-1c-0.3,0.1-0.7,0.1-1,0.2L166.6,24.4z
							 M171.7,23.8c0,0-0.1,0-0.1,0c-0.2,0-0.4-0.2-0.5-0.3c0-0.1-0.1-0.1-0.1-0.2c-0.1-0.3,0-0.7,0.2-0.9l0,0l0.1-0.1
							c0.4-0.2,0.9-0.1,1.1,0.2c0.3,0.4,0.2,0.9-0.2,1.2C172,23.7,171.9,23.8,171.7,23.8z M171.3,22.5c-0.2,0.1-0.2,0.4-0.2,0.6
							c0,0.1,0,0.1,0.1,0.1c0.1,0.1,0.2,0.2,0.4,0.2c0.1,0,0.3,0,0.4-0.1c0.2-0.2,0.3-0.5,0.1-0.8C172,22.4,171.6,22.3,171.3,22.5
							L171.3,22.5z M160.7,23.8c-0.2,0-0.3-0.1-0.5-0.2c-0.2-0.1-0.3-0.3-0.3-0.5c0-0.2,0-0.4,0.1-0.6l0,0c0.2-0.2,0.4-0.3,0.7-0.3
							c0.2,0,0.3,0,0.4,0.1l0.1,0.1c0.2,0.1,0.3,0.3,0.3,0.5c0,0.2,0,0.4-0.2,0.6c-0.1,0.2-0.3,0.3-0.5,0.3
							C160.7,23.8,160.7,23.8,160.7,23.8z M160.2,22.6c-0.2,0.2-0.1,0.6,0.1,0.8c0.1,0.1,0.3,0.1,0.4,0.1c0.1,0,0.3-0.1,0.4-0.2
							c0.1-0.1,0.1-0.3,0.1-0.4c0-0.1-0.1-0.3-0.2-0.4l-0.1-0.1c-0.1,0-0.2-0.1-0.3-0.1C160.5,22.4,160.3,22.5,160.2,22.6
							L160.2,22.6z M163.7,23.8c-0.1,0-0.1,0-0.2,0l-0.1,0c-0.1,0-0.1-0.1-0.2-0.1c-0.4-0.3-0.5-0.8-0.2-1.2
							c0.2-0.3,0.5-0.4,0.9-0.3l0,0l0.1,0c0.1,0,0.1,0.1,0.2,0.1c0.2,0.1,0.3,0.3,0.3,0.5c0,0.2,0,0.4-0.1,0.6
							C164.2,23.6,164,23.8,163.7,23.8z M163.7,22.4c-0.2,0-0.3,0.1-0.5,0.2c-0.2,0.2-0.1,0.6,0.1,0.8c0,0,0.1,0,0.1,0.1l0.1,0
							c0.2,0,0.4,0,0.6-0.2c0.1-0.1,0.1-0.3,0.1-0.4c0-0.1-0.1-0.3-0.2-0.4c0,0-0.1,0-0.1-0.1l-0.1,0
							C163.8,22.4,163.8,22.4,163.7,22.4z M168.6,23.8c-0.3,0-0.5-0.1-0.7-0.3c-0.3-0.4-0.2-0.9,0.2-1.2c0,0,0,0,0,0
							c0,0,0.1,0,0.1-0.1l0,0l0.1,0c0.1,0,0.3,0,0.4,0c0.2,0,0.3,0.1,0.5,0.3c0,0,0,0,0,0c0.1,0.2,0.2,0.4,0.1,0.6
							c0,0.2-0.2,0.4-0.3,0.5c-0.1,0-0.1,0.1-0.2,0.1l-0.1,0C168.8,23.7,168.7,23.8,168.6,23.8z M168.4,22.4
							C168.4,22.4,168.3,22.4,168.4,22.4c-0.1,0.1-0.1,0.1-0.1,0.1c-0.2,0.2-0.3,0.5-0.1,0.8c0.1,0.2,0.4,0.3,0.6,0.2l0.1,0
							c0,0,0.1,0,0.1-0.1c0.1-0.1,0.2-0.2,0.2-0.4c0-0.1,0-0.3-0.1-0.4c0,0,0,0,0,0c-0.1-0.1-0.2-0.2-0.3-0.2
							C168.7,22.4,168.6,22.4,168.4,22.4L168.4,22.4z M172.6,20.9c0,0-0.1,0-0.1,0c0,0-0.1,0-0.1,0c-0.2,0-0.3-0.2-0.5-0.3
							c0,0,0,0,0-0.1c-0.1-0.1-0.1-0.3-0.1-0.5c0-0.1,0-0.3,0.1-0.4l0,0l0.1-0.1c0-0.1,0.1-0.1,0.2-0.1c0.2-0.1,0.4-0.2,0.6-0.1
							c0.2,0,0.4,0.2,0.5,0.3c0,0,0.1,0.1,0.1,0.2c0.1,0.2,0.1,0.5-0.1,0.8l-0.1,0.1c0,0.1-0.1,0.1-0.1,0.1
							C173,20.8,172.8,20.9,172.6,20.9z M172.1,19.7c0,0.1-0.1,0.2-0.1,0.3c0,0.1,0,0.2,0.1,0.3c0,0,0,0,0,0
							c0.1,0.1,0.2,0.2,0.3,0.2c0,0,0,0,0.1,0c0.1,0,0.3,0,0.4-0.1c0,0,0.1-0.1,0.1-0.1l0.1-0.1c0.1-0.1,0.1-0.3,0-0.5
							c0,0,0-0.1-0.1-0.1c-0.1-0.1-0.2-0.2-0.4-0.2c-0.1,0-0.3,0-0.4,0.1C172.2,19.6,172.2,19.6,172.1,19.7L172.1,19.7z M159.7,20.9
							c-0.2,0-0.3-0.1-0.5-0.2c-0.1,0-0.1-0.1-0.1-0.1l-0.1-0.1c0-0.1-0.1-0.1-0.1-0.2c-0.1-0.2,0-0.5,0.1-0.6c0,0,0,0,0-0.1
							c0.1-0.2,0.3-0.3,0.5-0.3s0.4,0,0.6,0.1c0.1,0,0.1,0.1,0.1,0.1l0.1,0.1c0.2,0.3,0.2,0.7,0,0.9C160.2,20.7,160,20.9,159.7,20.9
							z M159.3,20.3L159.3,20.3c0.1,0.1,0.1,0.1,0.2,0.2c0.1,0.1,0.3,0.1,0.4,0.1c0.1,0,0.3-0.1,0.4-0.2c0.1-0.2,0.1-0.4,0-0.6
							l-0.1-0.1c0,0-0.1-0.1-0.1-0.1c-0.1-0.1-0.3-0.1-0.4-0.1c-0.1,0-0.3,0.1-0.4,0.2c0,0,0,0,0,0c-0.1,0.1-0.1,0.3-0.1,0.4
							C159.2,20.2,159.2,20.3,159.3,20.3z M166.2,20.4c-2.8,0-5-2.3-5-5s2.3-5,5-5c2.8,0,5,2.3,5,5S168.9,20.4,166.2,20.4z
							 M166.2,10.6c-2.6,0-4.8,2.1-4.8,4.8s2.1,4.8,4.8,4.8c2.6,0,4.8-2.1,4.8-4.8S168.8,10.6,166.2,10.6z M175.2,18.1
							c-0.1,0-0.1,0-0.2,0l0,0l-3.6-1.2l0-0.1c0.1-0.4,0.2-0.8,0.2-1.2l0-0.1h1.6l0,0.1c0,0,0,0.1,0,0.1c0,0,0,0,0,0l0,0.1l-0.1,0.1
							l0.1-0.1c0,0,0,0,0,0c0,0,0,0,0,0l0.1,0.1c0,0,0,0,0,0l0,0c0,0,0,0,0,0l0.1,0.1c0,0,0,0,0,0c0,0,0,0,0,0c0,0,0,0,0,0
							c0,0,0,0,0,0c0,0,0,0,0,0c0,0,0,0,0,0c0,0,0,0,0,0c0,0,0,0,0,0c0,0,0,0,0,0c0,0,0,0,0,0c0,0,0,0,0,0l0.1,0c0,0,0,0,0.1,0l0,0
							l0,0.1l0-0.1l0,0c0,0,0,0,0,0c0,0,0,0,0.1,0l0,0l0,0.1l0-0.1l0,0c0,0,0,0,0,0c0.4-0.1,0.7-0.5,0.7-0.9c0,0,0-0.1,0-0.1
							c0-0.1,0-0.2,0-0.2c-0.1-0.2-0.3-0.5-0.5-0.6c-0.2-0.1-0.5-0.1-0.7-0.1c-0.3,0.1-0.6,0.4-0.7,0.7l0,0.1h-1.6l0-0.1
							c0-0.4-0.1-0.8-0.2-1.2l0-0.1l2.9-0.9l0.1,0.1c0.2,0.4,0.7,0.6,1.2,0.5c0.2-0.1,0.5-0.3,0.6-0.5c0.1-0.2,0.1-0.5,0.1-0.7
							c-0.2-0.5-0.7-0.8-1.2-0.6c0,0-0.1,0-0.1,0c-0.4,0.2-0.6,0.6-0.6,1l0,0.1l-0.1,0.1l-2.8,0.9l0-0.1c-0.1-0.4-0.3-0.8-0.6-1.1
							l-0.1-0.1l1.3-1l0.1,0.1c0.3,0.2,0.6,0.3,1,0.2c0.2-0.1,0.5-0.3,0.6-0.5c0.1-0.2,0.1-0.5,0.1-0.8c0-0.1-0.1-0.2-0.1-0.2
							c0,0,0-0.1-0.1-0.1c-0.3-0.3-0.7-0.4-1.1-0.3c-0.2,0.1-0.5,0.3-0.6,0.5c-0.1,0.2-0.1,0.5-0.1,0.7c0,0,0,0.1,0,0.1l0,0.1
							l-1.3,1l-0.1-0.1c-0.2-0.3-0.5-0.6-0.8-0.8l-0.1-0.1l2.2-3.1c0.5-0.4,1.1-0.7,1.7-0.9c2.3-0.8,4.9,0.1,6.3,2.1l0,0.1l-1,1.9
							l1.9,1l0,0.1c0.1,2.4-1.5,4.7-3.9,5.4C176.3,18,175.7,18.1,175.2,18.1z M175,17.8c0.6,0,1.2-0.1,1.8-0.3
							c2.2-0.7,3.7-2.8,3.7-5.1l-2-1l0,0l0,0l0.1-0.1l1-1.9c-1.3-1.9-3.8-2.7-6-2c-0.6,0.2-1.1,0.5-1.6,0.9l-2,2.8
							c0.2,0.2,0.5,0.5,0.7,0.7l0.9-0.7c0,0,0,0,0,0c-0.1-0.3-0.1-0.7,0.1-1c0.2-0.3,0.4-0.5,0.7-0.6c0.5-0.2,1,0,1.4,0.4
							c0,0,0.1,0.1,0.1,0.1c0.1,0.1,0.1,0.2,0.1,0.3c0.1,0.3,0.1,0.7-0.1,1c-0.2,0.3-0.4,0.5-0.7,0.6c-0.4,0.1-0.8,0.1-1.2-0.2
							l-0.9,0.7c0.2,0.3,0.4,0.6,0.5,1l2.5-0.8c0-0.5,0.3-1,0.7-1.2c0.1,0,0.1,0,0.2-0.1c0.7-0.2,1.4,0.1,1.6,0.8
							c0.1,0.3,0.1,0.7-0.1,1c-0.2,0.3-0.4,0.5-0.7,0.6c-0.5,0.2-1.1,0-1.4-0.5l-2.5,0.8c0.1,0.3,0.1,0.7,0.2,1.1h1.2
							c0.1-0.4,0.4-0.7,0.8-0.8c0.3-0.1,0.7-0.1,1,0.1c0.3,0.2,0.5,0.4,0.6,0.7c0,0.1,0.1,0.2,0.1,0.3c0,0.1,0,0.1,0,0.2
							c0,0.5-0.4,1-0.9,1.1c0,0,0,0-0.1,0l0,0c0,0,0,0,0,0l0,0c0,0,0,0,0,0c0,0-0.1,0-0.1,0c0,0,0,0-0.1,0l0,0c0,0,0,0,0,0l0,0
							c0,0,0,0-0.1,0c0,0,0,0-0.1,0c0,0,0,0-0.1,0l-0.1,0c0,0,0,0-0.1,0c0,0,0,0-0.1,0c0,0,0,0-0.1,0l0,0c0,0,0,0,0,0c0,0,0,0-0.1,0
							c0,0,0,0-0.1,0c0,0,0,0,0,0l0,0c0,0,0,0,0,0l0,0c0,0,0,0,0,0c0,0,0,0-0.1,0l0,0c0,0,0,0,0,0l0,0c0,0,0,0,0,0l0,0c0,0,0,0,0,0
							c0,0,0,0,0-0.1c0,0,0,0,0,0l-0.1-0.1l0.1-0.1l-0.1,0.1c0,0,0,0,0,0l0,0c0,0,0,0,0,0l0,0c0,0,0,0,0,0l0-0.1c0,0,0,0,0-0.1
							c0,0,0,0,0,0h-1.2c0,0.3-0.1,0.7-0.1,1L175,17.8z M157.2,18c-0.6,0-1.2-0.1-1.7-0.3c-2.3-0.8-3.9-3-3.9-5.4l0-0.1l1.9-1l0,0
							l0,0l-1-1.9l0-0.1c1.4-2,4-2.9,6.3-2.1c0.6,0.2,1.2,0.5,1.7,0.9l0,0l2.2,3l-0.1,0.1c-0.3,0.3-0.6,0.5-0.8,0.8l-0.1,0.1l-1.3-1
							l0-0.1c0,0,0-0.1,0-0.1c0.1-0.2,0.1-0.5-0.1-0.8c-0.1-0.2-0.3-0.4-0.6-0.5c-0.4-0.1-0.8,0-1.1,0.3c0,0-0.1,0.1-0.1,0.1
							c0,0.1-0.1,0.1-0.1,0.2c-0.1,0.2-0.1,0.5,0.1,0.8c0.1,0.2,0.3,0.4,0.6,0.5c0.3,0.1,0.7,0,1-0.2l0.1-0.1l1.3,1l-0.1,0.1
							c-0.2,0.4-0.4,0.7-0.6,1.1l0,0.1l-2.9-0.9l0-0.1c0-0.2,0-0.5-0.2-0.7c0,0,0,0,0,0c0,0,0,0,0-0.1c0,0,0,0,0,0
							c0,0-0.1-0.1-0.1-0.1c0,0,0,0-0.1,0c-0.1,0-0.2-0.1-0.2-0.1c-0.2-0.1-0.5-0.1-0.8,0.1c-0.2,0.1-0.4,0.3-0.5,0.6c0,0,0,0,0,0
							c0,0,0,0,0,0c0,0,0,0,0,0c0,0.2,0,0.4,0.1,0.6c0.1,0.2,0.2,0.3,0.4,0.4l0,0c0,0,0,0,0,0c0,0,0,0,0,0c0,0,0,0,0.1,0
							c0.4,0.1,0.9,0,1.2-0.5l0.1-0.1l2.9,0.9l0,0.1c-0.1,0.4-0.2,0.8-0.2,1.2l0,0.1h-1.6l0-0.1c0-0.2-0.1-0.3-0.2-0.4
							c-0.1-0.2-0.3-0.3-0.5-0.3c0,0,0,0,0,0c0,0,0,0,0,0c0,0,0,0,0,0c-0.2,0-0.4,0-0.6,0.1c-0.2,0.1-0.3,0.2-0.4,0.4c0,0,0,0,0,0
							c0,0,0,0,0,0c0,0,0,0,0,0.1c0,0.1,0,0.2,0,0.2c0,0,0,0.1,0,0.1c0,0.4,0.3,0.7,0.6,0.8c0,0,0,0,0.1,0c0,0,0,0,0,0l0.1,0
							c0,0,0.1,0,0.1,0l0.1,0l0,0.1l0-0.1l0.1,0l0,0.1l0-0.1c0,0,0,0,0.1,0l0,0c0,0,0,0,0,0l0.1,0.1l0-0.1c0,0,0,0,0,0l0.1,0
							l0.1,0.1l-0.1-0.1c0,0,0,0,0,0c0.2-0.1,0.4-0.3,0.5-0.6c0,0,0-0.1,0-0.1l0-0.1h1.6l0,0.1c0,0.4,0.1,0.8,0.2,1.2l0,0.1
							l-3.6,1.2C157.3,18,157.2,18,157.2,18z M151.9,12.4c0,2.3,1.5,4.4,3.7,5.1c0.6,0.2,1.2,0.3,1.8,0.3l3.3-1.1
							c-0.1-0.3-0.1-0.6-0.1-1h-1.2c0,0,0,0,0,0c-0.1,0.3-0.3,0.6-0.6,0.7c0,0,0,0-0.1,0l0,0c0,0,0,0,0,0l0,0c0,0,0,0,0,0l0,0
							c0,0,0,0,0,0l0,0c0,0,0,0-0.1,0l0,0c0,0,0,0-0.1,0l0,0c0,0,0,0-0.1,0l0,0c0,0,0,0,0,0l0,0l0,0c0,0,0,0,0,0l0,0
							c0,0-0.1,0-0.1,0l-0.1,0c0,0,0,0-0.1,0c0,0-0.1,0-0.1,0c-0.4-0.2-0.7-0.6-0.8-1.1c0-0.1,0-0.1,0-0.2c0-0.1,0-0.2,0.1-0.3
							c0,0,0,0,0-0.1c0,0,0,0,0-0.1c0,0,0,0,0-0.1c0.1-0.2,0.3-0.4,0.6-0.6c0.2-0.1,0.5-0.2,0.8-0.1c0,0,0,0,0.1,0c0,0,0,0,0.1,0
							c0,0,0.1,0,0.1,0c0.2,0.1,0.5,0.2,0.6,0.4c0.1,0.1,0.2,0.3,0.2,0.4h1.2c0-0.4,0.1-0.7,0.2-1.1l-2.5-0.8
							c-0.3,0.5-0.9,0.7-1.4,0.5c0,0,0,0-0.1,0c0,0,0,0-0.1,0c0,0,0,0,0,0l0,0c-0.2-0.1-0.4-0.3-0.5-0.5c-0.1-0.2-0.2-0.5-0.1-0.8
							c0,0,0,0,0-0.1c0,0,0,0,0-0.1c0,0,0-0.1,0-0.1c0.1-0.3,0.3-0.6,0.6-0.7c0.3-0.2,0.6-0.2,1-0.1c0.1,0,0.2,0.1,0.3,0.1
							c0,0,0,0,0.1,0c0,0,0.1,0.1,0.1,0.1c0,0,0,0,0,0c0,0,0,0,0.1,0.1c0,0,0,0,0,0.1c0.2,0.2,0.3,0.5,0.2,0.8l2.5,0.8
							c0.1-0.3,0.3-0.7,0.5-1l-0.9-0.7c-0.3,0.3-0.8,0.3-1.2,0.2c-0.3-0.1-0.6-0.3-0.7-0.6c-0.2-0.3-0.2-0.6-0.1-1
							c0-0.1,0.1-0.2,0.1-0.3c0,0,0.1-0.1,0.1-0.1c0.3-0.4,0.9-0.6,1.4-0.4c0.3,0.1,0.6,0.3,0.7,0.6c0.2,0.3,0.2,0.6,0.1,1
							c0,0,0,0,0,0l0.9,0.7c0.2-0.3,0.4-0.5,0.7-0.7l-2-2.8c-0.5-0.4-1-0.7-1.6-0.9c-2.2-0.7-4.6,0.1-6,2l1,2l-0.1,0.1L151.9,12.4z
							 M174.2,16.2c-0.1,0-0.3,0-0.4-0.1c-0.2-0.1-0.3-0.3-0.4-0.5c0-0.1,0-0.1,0-0.2l0-0.1c0-0.3,0.2-0.6,0.5-0.7l0,0
							c0,0,0,0,0.1,0c0.2-0.1,0.4-0.1,0.6,0.1c0.2,0.1,0.3,0.3,0.4,0.5c0,0.1,0,0.1,0,0.2l0,0.1c0,0.3-0.3,0.6-0.6,0.7
							C174.4,16.2,174.3,16.2,174.2,16.2z M174,14.9c-0.2,0.1-0.3,0.3-0.3,0.5l0,0.1c0,0,0,0.1,0,0.1c0,0.1,0.1,0.3,0.3,0.3
							c0.1,0.1,0.3,0.1,0.4,0c0.2-0.1,0.4-0.3,0.4-0.5l0-0.1c0,0,0-0.1,0-0.1c0-0.1-0.1-0.3-0.3-0.3C174.3,14.8,174.1,14.8,174,14.9
							C174,14.8,174,14.9,174,14.9L174,14.9z M158.2,16.2c-0.1,0-0.2,0-0.3,0c-0.3-0.1-0.5-0.4-0.6-0.7l0-0.1c0-0.1,0-0.1,0-0.2
							c0.1-0.2,0.2-0.4,0.4-0.5c0.2-0.1,0.4-0.1,0.6-0.1c0.3,0.1,0.5,0.4,0.6,0.7l0,0.1c0,0.1,0,0.1,0,0.2l0,0
							C158.8,16,158.5,16.2,158.2,16.2z M158.2,14.8c-0.1,0-0.2,0-0.3,0.1c-0.1,0.1-0.2,0.2-0.3,0.3c0,0,0,0.1,0,0.1l0,0.1
							c0,0.2,0.2,0.4,0.4,0.5c0.3,0.1,0.6-0.1,0.7-0.4c0,0,0-0.1,0-0.1l0-0.1c0-0.2-0.2-0.4-0.4-0.5
							C158.3,14.8,158.2,14.8,158.2,14.8z M175.1,13.3c-0.3,0-0.6-0.2-0.8-0.5l0-0.1c0-0.1,0-0.1,0-0.2c0-0.2,0.1-0.5,0.2-0.6v0
							c0.1-0.1,0.2-0.2,0.3-0.2c0,0,0.1,0,0.1,0c0,0,0,0,0,0l0,0c0,0,0,0,0.1,0l0,0l0,0c0.1,0,0.2,0,0.3,0.1c0,0,0.1,0,0.1,0
							s0,0,0.1,0c0.2,0.1,0.3,0.3,0.3,0.4c0.1,0.2,0.1,0.4-0.1,0.6c-0.1,0.2-0.3,0.3-0.5,0.4c-0.1,0-0.1,0-0.2,0
							C175.2,13.3,175.2,13.3,175.1,13.3z M174.7,12.1c-0.1,0.1-0.2,0.3-0.2,0.4c0,0,0,0.1,0,0.1l0,0.1c0.1,0.2,0.3,0.4,0.6,0.3
							c0,0,0.1,0,0.1,0c0.1,0,0.3-0.1,0.3-0.3c0.1-0.1,0.1-0.3,0-0.4c0-0.1-0.1-0.2-0.2-0.3c0,0,0,0,0,0c0,0,0,0-0.1,0
							c-0.1,0-0.1,0-0.2,0c0,0,0,0-0.1,0l0,0c0,0-0.1,0-0.1,0C174.9,12,174.8,12,174.7,12.1L174.7,12.1z M157.2,13.3
							c-0.1,0-0.2,0-0.3,0c-0.2-0.1-0.4-0.2-0.5-0.4c-0.1-0.2-0.1-0.4-0.1-0.6c0.1-0.2,0.2-0.4,0.4-0.5c0.1-0.1,0.3-0.1,0.4-0.1
							c0.1,0,0.1,0,0.2,0c0,0,0.1,0,0.1,0c0.3,0.1,0.5,0.5,0.5,0.8c0,0.1,0,0.1,0,0.2l0,0l0,0.1C157.8,13.1,157.5,13.3,157.2,13.3z
							 M157.2,11.9c-0.1,0-0.2,0-0.3,0.1c-0.1,0.1-0.2,0.2-0.3,0.3c0,0.1,0,0.3,0,0.4c0.1,0.1,0.2,0.2,0.3,0.3
							c0.3,0.1,0.6,0,0.7-0.3l0-0.1c0,0,0-0.1,0-0.1c0-0.2-0.1-0.4-0.3-0.5c0,0,0,0-0.1,0C157.3,11.9,157.3,11.9,157.2,11.9
							C157.2,11.9,157.2,11.9,157.2,11.9z M172.7,11.5C172.6,11.5,172.6,11.5,172.7,11.5l-0.1,0c-0.2,0-0.3-0.1-0.5-0.2
							c0,0,0,0-0.1-0.1l-0.1-0.1c0-0.1-0.1-0.1-0.1-0.2c-0.1-0.2-0.1-0.4,0.1-0.6c0.1-0.2,0.3-0.3,0.5-0.4c0.3-0.1,0.7,0,0.9,0.3
							l0.1,0.1c0,0.1,0.1,0.1,0.1,0.2c0.1,0.4-0.1,0.9-0.5,1c0,0,0,0-0.1,0C172.8,11.5,172.7,11.5,172.7,11.5
							C172.7,11.5,172.7,11.5,172.7,11.5z M172.7,10.1c-0.1,0-0.1,0-0.2,0c-0.1,0-0.3,0.1-0.3,0.3c-0.1,0.1-0.1,0.3,0,0.4
							c0,0,0,0.1,0.1,0.1l0.1,0.1c0,0,0,0,0,0c0.1,0.1,0.2,0.1,0.3,0.1c0,0,0.1,0,0.1,0h0c0,0,0.1,0,0.1,0c0,0,0,0,0,0
							c0.3-0.1,0.5-0.4,0.4-0.7c0,0,0-0.1-0.1-0.1l-0.1-0.1C173,10.2,172.8,10.1,172.7,10.1z M159.7,11.5
							C159.7,11.5,159.7,11.5,159.7,11.5C159.7,11.5,159.6,11.5,159.7,11.5c-0.1,0-0.2,0-0.3,0c-0.4-0.1-0.6-0.5-0.6-0.8
							c0-0.1,0-0.1,0-0.2c0-0.1,0-0.1,0.1-0.2l0.1-0.1c0.1-0.1,0.1-0.1,0.2-0.2c0.2-0.1,0.5-0.2,0.7-0.1c0.2,0.1,0.4,0.2,0.5,0.4
							c0.1,0.2,0.1,0.4,0.1,0.6c0,0.1,0,0.1-0.1,0.2l-0.1,0.1c-0.1,0.1-0.1,0.1-0.2,0.2C160,11.5,159.8,11.5,159.7,11.5z
							 M159.7,10.1c-0.1,0-0.2,0-0.3,0.1c0,0-0.1,0.1-0.1,0.1l-0.1,0.1c0,0,0,0.1,0,0.1c0,0,0,0.1,0,0.1c0,0.3,0.1,0.5,0.4,0.6
							c0,0,0.1,0,0.1,0c0,0,0,0,0,0c0.1,0,0.2,0,0.3-0.1c0,0,0.1-0.1,0.1-0.1l0.1-0.1c0,0,0-0.1,0-0.1l0,0c0-0.1,0-0.3,0-0.4
							c-0.1-0.1-0.2-0.2-0.3-0.3C159.8,10.1,159.7,10.1,159.7,10.1z M169.2,11l-0.1-0.1c-0.3-0.2-0.7-0.4-1.1-0.6l-0.1,0l0.5-1.5
							l0.1,0c0,0,0.1,0,0.1,0c0.5,0,1-0.4,1-1c0-0.4-0.2-0.8-0.6-0.9c0,0-0.1,0-0.1,0c-0.1,0-0.2,0-0.2,0c-0.5,0-1,0.4-1,1
							c0,0.4,0.2,0.7,0.5,0.9l0.1,0.1l-0.5,1.5l-0.1,0c-0.4-0.1-0.8-0.2-1.3-0.2l-0.1,0V7l0.1,0c0.5-0.1,0.8-0.5,0.8-1
							c0-0.5-0.4-1-1-1c-0.5,0-1,0.4-1,1c0,0.5,0.3,0.9,0.8,1l0.1,0V10l-0.1,0c-0.4,0-0.9,0.1-1.3,0.2l-0.1,0l-0.5-1.4l0.1-0.1
							c0.3-0.2,0.5-0.5,0.5-0.9c0-0.5-0.4-1-1-1c-0.1,0-0.2,0-0.2,0c0,0-0.1,0-0.1,0c-0.4,0.2-0.6,0.5-0.6,0.9c0,0.5,0.4,1,1,1
							c0,0,0.1,0,0.1,0l0.1,0l0.5,1.5l-0.1,0c-0.4,0.1-0.7,0.3-1.1,0.6l-0.1,0.1l-2.2-3c-0.2-0.6-0.3-1.3-0.3-1.9
							c0-2.4,1.6-4.6,4-5.3l0.1,0l1.5,1.5l1.5-1.5l0.1,0c2.3,0.7,4,2.9,4,5.3c0,0.7-0.1,1.3-0.3,1.9l0,0L169.2,11z M168.3,10.1
							c0.3,0.1,0.6,0.3,0.9,0.5l2-2.7c0.2-0.6,0.3-1.2,0.3-1.8c0-2.3-1.5-4.4-3.7-5.1l-1.6,1.6l-0.1-0.1L164.6,1
							c-2.2,0.7-3.7,2.8-3.7,5.1c0,0.6,0.1,1.2,0.3,1.8l2,2.7c0.3-0.2,0.6-0.3,0.9-0.5l-0.3-1c-0.7,0-1.3-0.5-1.3-1.3
							c0-0.5,0.3-1,0.8-1.2c0,0,0.1,0,0.1,0c0.1,0,0.2,0,0.3,0c0.7,0,1.3,0.6,1.3,1.3c0,0.4-0.2,0.8-0.6,1l0.3,1
							c0.4-0.1,0.7-0.2,1.1-0.2V7.3c-0.5-0.2-0.9-0.6-0.9-1.2c0-0.7,0.6-1.3,1.3-1.3s1.3,0.6,1.3,1.3c0,0.6-0.4,1.1-0.9,1.2v2.5
							c0.4,0,0.7,0.1,1.1,0.2l0.3-1c-0.3-0.2-0.6-0.6-0.6-1c0-0.7,0.6-1.3,1.3-1.3c0.1,0,0.2,0,0.3,0c0,0,0.1,0,0.1,0
							c0.5,0.2,0.8,0.6,0.8,1.2c0,0.7-0.6,1.3-1.3,1.3L168.3,10.1z M168.6,8.7c-0.1,0-0.1,0-0.2,0l0,0l-0.1,0
							c-0.3-0.1-0.5-0.4-0.5-0.8c0-0.5,0.4-0.8,0.8-0.8c0.1,0,0.1,0,0.2,0l0.1,0c0.3,0.1,0.5,0.4,0.5,0.8
							C169.5,8.3,169.1,8.7,168.6,8.7z M168.5,8.4c0,0,0.1,0,0.1,0c0.3,0,0.6-0.3,0.6-0.6c0-0.2-0.1-0.4-0.3-0.5l-0.1,0
							c0,0-0.1,0-0.1,0c-0.3,0-0.6,0.3-0.6,0.6C168.1,8.1,168.2,8.3,168.5,8.4L168.5,8.4z M163.7,8.7c-0.5,0-0.8-0.4-0.8-0.8
							c0-0.3,0.2-0.6,0.5-0.8l0.1,0c0.1,0,0.1,0,0.2,0c0.5,0,0.8,0.4,0.8,0.8c0,0.1,0,0.1,0,0.2c-0.1,0.3-0.2,0.5-0.5,0.6l0,0
							l-0.1,0C163.8,8.7,163.8,8.7,163.7,8.7z M163.7,7.3c0,0-0.1,0-0.1,0l-0.1,0c-0.2,0.1-0.3,0.3-0.3,0.5c0,0.3,0.3,0.6,0.6,0.6
							c0,0,0.1,0,0.1,0l0.1,0c0.2-0.1,0.3-0.2,0.3-0.4c0,0,0-0.1,0-0.1C164.3,7.6,164,7.3,163.7,7.3z M166.2,6.9h-0.1
							c-0.4,0-0.8-0.4-0.8-0.8c0-0.5,0.4-0.8,0.8-0.8c0.5,0,0.8,0.4,0.8,0.8c0,0,0,0.1,0,0.1C167,6.5,166.6,6.9,166.2,6.9L166.2,6.9
							z M166.2,5.5c-0.3,0-0.6,0.3-0.6,0.6c0,0.3,0.2,0.5,0.5,0.6l0.1,0c0.3,0,0.5-0.2,0.5-0.5c0,0,0,0,0-0.1
							C166.7,5.7,166.5,5.5,166.2,5.5z"/>
					</g>
					<g>
						<path class="st10" d="M166.2,19.5v-1.1c-1.6,0-3-1.3-3-3c0-1.6,1.3-3,3-3v-1.1c-2.3,0-4.1,1.8-4.1,4.1
							C162.1,17.6,163.9,19.5,166.2,19.5z"/>
					</g>
					<g>
						<path class="st10" d="M168.1,15.4c0,1-0.8,1.9-1.9,1.9v1.1c1.6,0,3-1.3,3-3c0-1.6-1.3-3-3-3v1.1
							C167.2,13.5,168.1,14.3,168.1,15.4z"/>
					</g>
					<g>
						<path class="st10" d="M165.2,15.4c0-0.5,0.4-0.9,0.9-0.9v-1c-1,0-1.9,0.8-1.9,1.9s0.8,1.9,1.9,1.9v-1
							C165.7,16.3,165.2,15.9,165.2,15.4z"/>
					</g>
					<g>
						<path class="st10" d="M166.2,16.3c0.5,0,0.9-0.4,0.9-0.9c0-0.5-0.4-0.9-0.9-0.9v0.9V16.3z"/>
					</g>
				</g>
			</g>
		</g>
	</g>
</g>
</svg>
