<?xml version="1.0" encoding="utf-8"?>
<!-- Generator: Adobe Illustrator 23.0.1, SVG Export Plug-In . SVG Version: 6.00 Build 0)  -->
<svg version="1.1" id="레이어_1" xmlns="http://www.w3.org/2000/svg" xmlns:xlink="http://www.w3.org/1999/xlink" x="0px"
	 y="0px" viewBox="0 0 200 50" style="enable-background:new 0 0 200 50;" xml:space="preserve">
<style type="text/css">
	.st0{fill:#FFFFFF;stroke:#231815;stroke-width:0.25;stroke-miterlimit:10;}
	.st1{fill:#D44322;}
	.st2{fill:#363455;}
</style>
<g>
	<path class="st0" d="M105.6,49.1H33.4V0.9h72.3v48.2H105.6z"/>
	<path class="st1" d="M73.2,37.3c-1.8,0.5-5.1,0.6-6.9,0.1c-4.7-1.2-8.5-5.1-9.7-10c-0.7-2.8-0.2-6.6,1.2-9.4
		c1.6-3.1,4.8-5.7,8.3-6.6c1.7-0.4,5-0.4,6.7,0c4.6,1.2,8.3,4.9,9.7,9.6c0.5,1.9,0.4,5.7-0.2,7.6C80.8,32.8,77.3,36.1,73.2,37.3
		L73.2,37.3z"/>
	<path class="st2" d="M74.4,36.2c-1.6,0.3-3.2,0.4-4.8,0.2c-3.2-0.2-6.2-2.2-7.7-5c-1.7-2.8-1.8-6.6,0.1-9.3
		c1.2-1.9,3.5-3.2,5.8-2.9c1.7,0,3.2,1.6,3,3.3c-0.3,1.6-2,2.7-1.9,4.5c0.2,1.8,2.2,2.9,3.9,2.8c1.7,0.1,3.4-0.7,4.4-2.1
		c1.5-1.8,1.3-4.2,1.2-6.4c-0.3-2.4-1.7-4.6-3.5-6.1c-3.4-2.8-8.4-2.8-12.3-1.1c-1.3,0.6-2.8,1.3-4.4,2.9c0.8-1.2,1.7-2.1,2.2-2.6
		c2.7-2.6,6.1-3.7,9.6-3.5c5.7,0.1,10.8,4.4,12.3,9.9c0.9,3.6,0.4,7.7-1.7,10.9C79.3,34,77.1,35.8,74.4,36.2L74.4,36.2z"/>
	<g transform="matrix(.84256414 -.53859602 .53859602 .84256414 0 0)">
		<path d="M32.1,38.8l-0.3-0.7l7.2-3.3l0.3,0.7L32.1,38.8z"/>
		<path d="M31.3,37.2L31,36.5l7.2-3.3l0.3,0.7L31.3,37.2z"/>
		<path d="M30.7,35.7L30.4,35l7.2-3.3l0.3,0.7L30.7,35.7z"/>
	</g>
	<g>
		<path d="M91.4,15.4L92,15l-4.3-6.7l-0.6,0.4L91.4,15.4z"/>
		<path d="M94.2,13.6l0.6-0.4l-4.3-6.7l-0.6,0.4L94.2,13.6z"/>
		<path d="M91.1,11.7l0.6-0.4l1.7,2.8l-0.6,0.4L91.1,11.7z"/>
		<path d="M88.5,7.7l0.6-0.4l1.7,2.8l-0.6,0.4L88.5,7.7z"/>
	</g>
	<g transform="matrix(-.84874341 .5288049 .5288049 .84874341 0 0)">
		<path d="M-56.5,79.5l-0.3,0.7l-3-1.5l0.3-0.7L-56.5,79.5z"/>
		<path d="M-52.2,81.7l-0.3,0.7l-3-1.5l0.3-0.7L-52.2,81.7z"/>
		<path d="M-57.3,81.2l-0.3,0.7l-3-1.5l0.3-0.7L-57.3,81.2z"/>
		<path d="M-53,83.4l-0.3,0.7l-3-1.5l0.3-0.7L-53,83.4z"/>
		<path d="M-58.1,82.9l-0.3,0.7l-3-1.5l0.3-0.7L-58.1,82.9z"/>
		<path d="M-53.8,85l-0.3,0.7l-3-1.5l0.3-0.7L-53.8,85z"/>
	</g>
	<g>
		<g transform="matrix(.8487434 .52880491 -.52880491 .8487434 0 0)">
			<path d="M63.1,6.4l0.3-0.7l3,1.5L66,7.9L63.1,6.4z"/>
			<path d="M58.8,4.3l0.3-0.7l3,1.5l-0.3,0.7L58.8,4.3z"/>
			<path d="M61.5,9.8l0.3-0.7l3,1.5l-0.3,0.7L61.5,9.8z"/>
			<path d="M57.2,7.7L57.5,7l3,1.5l-0.3,0.7L57.2,7.7z"/>
		</g>
		<path d="M46.7,35.4l-0.6,0.4l4.3,6.7l0.6-0.4L46.7,35.4z"/>
	</g>
</g>
</svg>
